<?xml version="1.0" encoding="utf-8"?>
<!-- Generator: Adobe Illustrator 18.1.1, SVG Export Plug-In . SVG Version: 6.00 Build 0)  -->
<!DOCTYPE svg PUBLIC "-//W3C//DTD SVG 1.1//EN" "http://www.w3.org/Graphics/SVG/1.1/DTD/svg11.dtd">
<svg version="1.1" id="Layer_1" xmlns="http://www.w3.org/2000/svg" xmlns:xlink="http://www.w3.org/1999/xlink" x="0px" y="0px"
	 viewBox="0 0 1657.6 184.5" enable-background="new 0 0 1657.6 184.5" xml:space="preserve">
<g>
	<path fill="#FFFFFF" d="M8.5,9.8c0.3-2.4-2.8-1.5-3.3-1.9C5.9,11.9,9.3,9.7,8.5,9.8z"/>
	<polygon fill="#FFFFFF" points="15.5,49.5 14.2,48.8 17.3,54.6 	"/>
	<path fill="#FFFFFF" d="M15.4,86.6c5.2-3.5-0.8-13.5,1-20.1l1.2-1.1l-4.2-3C14.1,70.5,16.9,80.9,15.4,86.6z"/>
	<path fill="#FFFFFF" d="M4.1,106.4c2-1.2,1.8,4.3,0.6-4.6c-0.2,0.4-0.4,0.6-0.5,0.8C4.3,103.4,4.3,104.5,4.1,106.4z"/>
	<path fill="#FFFFFF" d="M4.3,102.6C4.1,98.7,2.5,105.2,4.3,102.6L4.3,102.6z"/>
	<path fill="#FFFFFF" d="M5.4,120.7l-1.8-5.2c-1.2,1.1-1.5,5.7-2.3,4C2.3,124.8,3.4,123.7,5.4,120.7z"/>
	<path fill="#FFFFFF" d="M9.2,125.5l-0.8-2.7C8,123.3,7.8,124.1,9.2,125.5z"/>
	<path fill="#FFFFFF" d="M7.9,120.3c1.5,0.5,0.1-0.7-1-3.1l1.6,5.7C9.3,122.1,11,122.1,7.9,120.3z"/>
	<path fill="#FFFFFF" d="M7.6,114c1.1-2.9,1.9-6.6,3.7-1.5C10.6,102.7,6.9,104.2,7.6,114z"/>
	<path fill="#FFFFFF" d="M20.8,88.5l1.5-3.9l-1.8-3.3C21.5,83,19.2,88.7,20.8,88.5z"/>
	<path fill="#FFFFFF" d="M2.7,152.7c1.1,0.3,3-1.7,4.4-2.1l-1.3-3.8C5.1,148.8,4.4,152.5,2.7,152.7z"/>
	<path fill="#FFFFFF" d="M7.1,150.6l1.9,5.7C9.2,151.2,8.3,150.3,7.1,150.6z"/>
	<polygon fill="#FFFFFF" points="15,126.5 11,117.1 15.1,128.3 	"/>
	<polygon fill="#FFFFFF" points="1.5,183.1 0,180.1 1.3,183.2 21.2,182.2 8.8,182.7 	"/>
	<path fill="#FFFFFF" d="M65.5,182.5c-5.9,0.9,8.1,1.5,1.9,2c9.7-0.2,18-0.9,25.5-1.6C84.9,183.3,76.4,183.2,65.5,182.5z"/>
	<path fill="#FFFFFF" d="M105.4,182c-4,0.2-8.1,0.6-12.5,1C97.1,182.8,101.2,182.5,105.4,182z"/>
	<path fill="#FFFFFF" d="M5.3,177l3.1-4.6c0-1.1,0-2.4,0-3.7C7.8,169.6,6,171.2,5.3,177z"/>
	<path fill="#FFFFFF" d="M8.5,172.3l-0.1,0.2c-0.1,4-0.1,6.8-0.2,8C8.3,179.4,8.4,176.9,8.5,172.3z"/>
	<path fill="#FFFFFF" d="M8.5,167.8c0,0.3,0,0.6,0,0.9C8.8,168.3,8.9,168.1,8.5,167.8z"/>
	<path fill="#FFFFFF" d="M18.5,145c-2.1-2.4-3.7,1.5-6.3-3.6C14,144.7,15.8,151.7,18.5,145z"/>
	<path fill="#FFFFFF" d="M10.2,156.2c0,0,0.5,1.6,1.1,3.2c0.3,0.8,0.5,1.6,0.8,2.2c0.2,0.9,0.3,1.5,0.3,1.5l0.7-6.5
		C12.3,156.7,11.1,157.8,10.2,156.2z"/>
	<polygon fill="#FFFFFF" points="13.4,167.4 12.4,163.1 12.1,166.5 	"/>
	<path fill="#FFFFFF" d="M79.7,180.8c6.5-0.5,13.6-0.6,21.6-0.7c-8.6-0.2-17.5-0.4-25.9-0.4C74.2,180.1,70.5,180.9,79.7,180.8z"/>
	<path fill="#FFFFFF" d="M43.4,180.5c0.7,0,1.7-0.1,2.4-0.1C44.4,180.3,43.3,180.2,43.4,180.5z"/>
	<path fill="#FFFFFF" d="M180.1,180.1c-0.4-0.1-0.8-0.1-1.3-0.2c-0.1,0.1-0.2,0.1-0.3,0.2L180.1,180.1z"/>
	<path fill="#FFFFFF" d="M74,179.5c-6.5-0.2-10.3,0.1-14,0.5c4.8-0.1,9.9-0.2,15.4-0.2C75.9,179.6,76,179.5,74,179.5z"/>
	<path fill="#FFFFFF" d="M127.4,181.4c-3.4-0.3-7.2-0.5-11.2-0.7C119.5,181.1,126.2,181.7,127.4,181.4z"/>
	<path fill="#FFFFFF" d="M49.3,180.7c-0.5,0-1,0-1.6,0.1C51.1,181.1,50.7,180.9,49.3,180.7z"/>
	<path fill="#FFFFFF" d="M49.3,180.7c6.4-0.2,7.8-0.5,10.7-0.8c-5.2,0.2-9.9,0.3-14.1,0.4C47.1,180.5,48.4,180.6,49.3,180.7z"/>
	<path fill="#FFFFFF" d="M150.6,179.8l-6.1,0.1c7,0.2,11.9,0.7,21.1,1.6c10.1-0.6,12.3-1,13-1.4l-30-0.2L150.6,179.8z"/>
	<path fill="#FFFFFF" d="M117.1,179.9c4.8-1.3,19.4-1.8,10.4-3.2c-17.9,0.1-12.5,1.1-23.2,1.6c28.9-0.3-8.3,0.7,12.6,1.4
		c-5.7,0.2-10.8,0.3-15.6,0.3c5.2,0.2,10.2,0.3,14.9,0.6c-0.3,0-0.4-0.1-0.7-0.1l-0.1,0l0,0c-1.2-0.2-1.7-0.3-0.3-0.2
		c0.1,0,0.4,0,0.6,0C116,180.2,116.5,180.1,117.1,179.9c8.4,0.3,1.3,0.3-1.3,0.5c-0.1,0.1-0.3,0.1-0.4,0.2c0,0,0.1,0,0.1,0l28.9-0.7
		C138.4,179.8,130.7,179.8,117.1,179.9z"/>
	<path fill="#FFFFFF" d="M24.5,151.5c0.4,0.8,0.7,1,0.7-0.4C25,151.5,24.8,151.5,24.5,151.5z"/>
	<path fill="#FFFFFF" d="M20.8,150.9l0.4,0.8c-0.9,3.8-3.5,8.3-4.8,9.6c2.5-1.2,4.4-2.5,7-5.4c-0.4-0.8-1.7-1.6-1.4-4.3
		c0.9-2.4,1.5,0,2.5-0.1C23.7,149.9,22.3,145.7,20.8,150.9z"/>
	<path fill="#FFFFFF" d="M16.4,161.4c-0.2,0.1-0.4,0.2-0.7,0.3C15.8,161.8,16.1,161.7,16.4,161.4z"/>
	<path fill="#FFFFFF" d="M52.6,176c-1.5,0.2-1.2,0.6-2.4,0.8c0,0,6.6-0.2,13.1-0.3c6-0.2,12-0.3,12-0.3l-12.3-1.1l0.6,0.7
		C56.8,175.6,54.4,175.8,52.6,176z"/>
	<polygon fill="#FFFFFF" points="179.6,182.1 193.6,180.2 182.8,180.8 	"/>
	<polygon fill="#FFFFFF" points="213,181.8 221.3,181.1 214.1,180.6 	"/>
	<path fill="#FFFFFF" d="M983.1,180.5c10.3,1.1,21.8,2.8,20.6,1.5l-3.2-1.3C993.3,180.9,987.8,180.8,983.1,180.5z"/>
	<path fill="#FFFFFF" d="M534.8,180.1c8.9,0.5,16,0.7,22.2,0.8C546.3,180.2,537.6,179.1,534.8,180.1z"/>
	<path fill="#FFFFFF" d="M1653.4,42.6c-0.6-1.7-1.2-2.5-1.9-2.4C1652,42,1652.6,43,1653.4,42.6z"/>
	<path fill="#FFFFFF" d="M557,180.9c7.9,0.5,17,0.9,25.7,0c-1.6-0.1-3.1-0.2-4.7-0.3C571.5,180.8,565,181,557,180.9z"/>
	<path fill="#FFFFFF" d="M112.3,2.2c2.9-0.1,7.7-0.1,12.1-0.1C122.3,2.1,118.6,2.1,112.3,2.2z"/>
	<path fill="#FFFFFF" d="M340.1,181.2C333.5,181.2,339.1,181.3,340.1,181.2L340.1,181.2z"/>
	<path fill="#FFFFFF" d="M310.5,175.5c-0.5,0.3-1.5,0.5-2.7,0.6C309.2,176,310.3,175.8,310.5,175.5z"/>
	<path fill="#FFFFFF" d="M330.1,180.6c2.5,0.2,5.4,0.3,8.5,0.4C337.3,180.9,334.7,180.7,330.1,180.6z"/>
	<path fill="#FFFFFF" d="M331.5,181.2c-2.3,0-4.1-0.1-5.8-0.1C324.8,181.3,325.6,181.4,331.5,181.2z"/>
	<path fill="#FFFFFF" d="M340.1,181.2c1.9,0,4.7,0,9.3-0.1c-3.8,0-7.3,0-10.7-0.1C339.9,181.1,340.5,181.1,340.1,181.2z"/>
	<path fill="#FFFFFF" d="M1650.6,97.3c2.5-1.7,6.3,2.2,6.8-4.1c2-3.2-8.1-18.4-3.3-27c-1.9,1.9-3.8,3.8-5.3-0.6
		c-0.7-6.7,7.2-18.1,1.2-24.2c0.5-0.9,1-1.2,1.5-1.2c-1.6-5.1-2.6-16.6-5.9-19.7c1.2-0.5,2.1-0.9,2.7-2.2c0.7-1.2,1.1-2.6,1.4-4.3
		c0.5-3.3,0.3-7.3-0.1-11.2c-15.5,0.3-32,0.7-44.7,1c-9.1,0.1-15.4-0.1-15.3-1.5l-39.1,0.2l1-0.5c-25-0.3-33.8,0.8-42.6,1.9
		c-5.8-0.3-1.6-0.7-1.1-1c-36.5-0.9-40.1-0.7-70.8,1.5l-3.2-1.5c-8.3,0.9-52.8-2.3-88.6-0.6c0.4-0.2,1.1-0.4,3.9-0.7
		c-40.3,1.7-96.5-4.1-111.2,1.3l-26.6,1.3c34.4,0.4-5.1,2.3,9,3.2c-13.5,0.3-35-1.6-18.3-1.9l2.6,0.3c6.1-2.8-42.7-1-41.8-2.9
		c-67.7,0.1-133.7-1.4-197-1.5l7.3,2.2l-22.1-0.1c-5.8-0.5-7.8-1.7,8-1.6c-8.3-1.2-26.5,1-26.9,1.5c-30.9-0.9,12.1-2.5,2.6-2.6
		l-12.9,0.2l2.9,0.3c-10.4,0.9-11.4,1.8-30.3,1.7c-12-0.4-6.2-1.3-10.9-1.4c0-0.2-1.6-0.2-7.2-0.1l-27.9-0.2l11.1,1.7
		c-12.3,0.8-26.2-0.1-13.3,1.8c-18.9-3-103.9-1.1-115.5-2c-17.3,1.2-34.4,1.2-55.5,1.1c5.3,0.4,8.4,2.3-9.8,2
		c6.5-3.9-31.3-1.8-46.9-4.3c6.8,1.6-52.2,0.4-32.4,2.9c-15.2-0.3-0.9-1.5-12.5-2.4c-36.2,1.5-79.8-1-124.6-0.5
		c-0.7,0.5,6.8,1.3-2.8,2.1l-23.6-2.6c-8.8,0.3-8.1,3-24.3,1.2c2.3,0.4,5.7,1.1-0.2,1.3C310.3,1.2,218.8,5.8,129.7,1
		c12.1,1,4,1.1-5.2,1.1c6,0.2-0.1,1.3,1,2l-37.3-2c-6.8,2-40,0.1-43.9,2l11.8-0.3c-8.6,1.2-1.1,2.6,7,4H26.4v165.3h115.9
		c-0.8,0-1.5,0-2.3,0.1l0.6,0.7c7.7,0,13.4-0.4,8.9-0.7h20.8c-12.7,1-3.5,4.7,8.7,6.8c0.4-0.5,0.4-1,15.3-1.7
		c-5.2-0.6-32.9-1.5-20.4-2.6c19.6-0.6,16.1,0.4,25.6,1c-7.2-1.3,18-2,20.8-3.6h119.3c-0.7,0.2-0.7,0.4,0.8,0.5l11.1-0.2
		c10.2,1.3-20.8,1.8-6.8,2.4c-14.8,0.9-31.5,2.3-52.4,1.6l-3.7-1.7c1.6,0.5,13.8,1,19.3,0.4c-8.7,0.8-32-2.4-41.6-0.1l14.6,1.3
		c-14.9,0.9-33.3,2.8-51.8,2.3c8.4,1.8,4.3-0.2,17.4,1.9c-10.9-2.5,42.7-0.1,30.9-2.3c12.6,2,22.3,0.8,39.2,2.8
		c-0.5-0.6-6.3-1.1,9.3-0.8c0.7-0.2,2.4-0.4,3.4-0.5c0.5,0,0.6,0,1,0c-0.3,0-0.5,0-0.9-0.1c0.7-0.1,0.7-0.1-0.3,0
		c-3.7-0.3-6.7-0.6-7.9-0.9c7.7-1.4,32.4-1.3,40.8-2c9.2,0.3-3.9,0.7,1.2,1.3l12.5-1.1c1.2,1.3,24.5,2.2,2.8,3l19.6,0.1
		c11.5,0.7,27.3,1,37.1,0.5c9.2,0.3,23.3-1.5,15.3-0.4l30.7-0.8l0.3,0.3c30.3,0.2,62.3-2.2,96.9,0.2c10.2-0.3,20.7-0.7,37.8-0.4
		l3.3,1.1c13.1-0.4,39.3,1.1,44.9,0c14.1,3.1,63.5,0.7,86.5,1.2l0.9-1.5c15.8,0.1,31-0.3,50.7-0.9l-1.2-1.3
		c16.9-1.1,43.6,0.9,70.4,0.8c-1.8,0.5-8.6,0.4-13.4,0.1c32,3,67.6-2.2,96.6,0c7.2-0.5,12.5-0.3,17.6,0c-0.7,0-1.3,0-1.8,0.1
		c0.7,0,1.8,0,3,0c3.2,0.2,6.5,0.5,10.1,0.7c-3-0.3-5.9-0.6-8.5-0.7c5.6,0,14-0.2,22.3-0.5l3.5,1.4c0.7,0,1.2,0,1.9,0
		c8.1,0.5,6.5-0.7,2.2-1.7c4.2-0.2,8-0.5,11-0.9c6.6,2.3,21.8-0.8,30.8,1.7c5.2-1.1,36.5-0.9,44.6-2.9c9.2,0.3,18.3,0.6,26.6-0.1
		l3.9,1.8l20.2-2.4c12.3,1.1,17.4,1.7,5.2,3.1c29.4-2.1,23.9-0.8,48.9-2.9l-1.2,1.2c8.9,0,23.2-1.6,28.6-0.6
		c20,2.2,99,0.3,150.3,2.4c-10-3.4,23.9,1.5,25.9-1.1c3,0.8,10.1,1.3,1.8,2c26.2-0.8,39.4,1.3,57.5-1c3,0.8-5.6,1.2-2.9,1.7
		c2.1-0.2,8.3-0.7,11.1-0.2c2.7,0.5-3.8,0.7-8,1c26.8-0.1,29.5-2.6,31.4-5c13.6,1.1,20.3,1,30.1-0.6c4.7,0.8,12.6,1.6-4,1.9
		c9.4,0.1,57.2,1.1,58.1-0.8c2.9,0.5,13.1,0.1,15.5-0.1c11,0.1,17,0.1,22.9,0.2c7.6,0,15.3,0,29-0.1l-8.2-0.3
		c2.5-0.8,5.4-1.1,9.4-1.2c-0.3-3,1.4-6.4,1-11.9l0.6,0.3c0.4-2.1,0.8-3.8,1.1-5.2c0.2-1.3,0.4-2.2,0.4-3c0.1-1.6-0.1-2.4-0.4-3.2
		c-0.4-1.6-0.8-3.2,1.6-10.8l-3.5,0.8c-7.6-1.4,4.5-13.4,1.6-22.2l-2,3.2c-2.6-4.8,10.3-13.4,11.2-18.3c0.7-1.1,1.1,1.7,1.5,3.1
		C1660.7,95.7,1651.6,106.7,1650.6,97.3z M172.6,173.1h25.1C191.5,173.6,181.8,173.8,172.6,173.1z M202.8,173.2
		C202.8,173.2,202.9,173.2,202.8,173.2l1.9-0.1L202.8,173.2z M412.9,180c0.2,0,0.3,0,0.5-0.1C424.2,180.5,420.4,180.3,412.9,180z
		 M504.8,176.8c-24.1,0.6-10.5-1.6-14.6-1.3c-45.3-0.4-38.6,4.3-76.2,2.6c-14.9-1.6-0.7-3.2-4-4.3c19.7-0.6,30.2,1,43.5,0.9L437,174
		c6.3-0.5,19.4-0.9,26.5-0.5c-1.5-0.2-3.8-0.3-6.7-0.4h93.1C541,174.7,524.7,176.1,504.8,176.8z M653,174.4c0.7-0.4-1.5-0.9-3.2-1.3
		h19.5C664.1,173.7,658.2,174.2,653,174.4z M783.6,177.1c-2.4-0.2-35.7-2.2-43.5-3.3c-1.4-0.2-2.2-0.4-2.5-0.7h23.7l0.5,2.2l2.8-2.2
		h23.2C787.9,174.9,786.6,176.4,783.6,177.1z M881.1,2.2l4.4,0.4C875.6,2.9,878.4,2.6,881.1,2.2z M902.8,177.3l-5.4-1l-21.5,1.1
		c5.7-1.1,15.7-2.7,27-4.3h35.6C928.3,175,915.8,176.7,902.8,177.3z M1091.1,176.8c0.6-0.2,1.2-0.3,1.5-0.5
		C1092.8,176.6,1095.1,176.8,1091.1,176.8z M1143.9,175.7c1.4-0.7,0.7-1.6-0.2-2.6h16.5L1143.9,175.7z M1495.9,175.4
		c-3.2-0.3-0.5-1,3.8-1.7c-1.8,0.2-3.5,0.3-4.9,0.5c-3.8-0.3-5.2-0.6-5.2-1h13.2c-1,0.2-2.1,0.4-3.1,0.5c2-0.2,4.2-0.4,6.5-0.5h5.8
		c4.3,0.6,8,1,10.6,1.3L1495.9,175.4z"/>
	<path fill="#FFFFFF" d="M618.5,1.7c-0.3-0.1-0.7-0.1-1.2-0.2C617.7,1.6,618.1,1.6,618.5,1.7z"/>
	<path fill="#FFFFFF" d="M272.8,181c0.3,0.3,2.3,0.7,0,0.8l12.9-0.3C278.8,181.5,276.3,181.2,272.8,181z"/>
	<path fill="#FFFFFF" d="M239.6,176.5c-3,1.7,7.8,1.1,18.5,0.6c-1.1-1.2-10.2-0.8-20.2-0.6C238.4,176.5,239,176.5,239.6,176.5z"/>
	<path fill="#FFFFFF" d="M226.2,176.6c-1.2,0.7,3.8,0.1,9.3,0C232.4,176.6,229.2,176.6,226.2,176.6z"/>
	<path fill="#FFFFFF" d="M361.9,180.2c-4.8-0.3-3,1.5-5.7,1C350.9,182.8,388.1,179.4,361.9,180.2z"/>
	<polygon fill="#FFFFFF" points="259.2,173.4 249.9,173.1 253.5,174.6 	"/>
	<path fill="#FFFFFF" d="M329.5,174.2l-16.1-0.4c0.2,0.2-1.8,0.4-4.3,0.5C319,174.4,329.9,174.7,329.5,174.2z"/>
	<path fill="#FFFFFF" d="M296.1,174.6c2.8,0,8.8-0.1,13-0.2C303.9,174.3,299,174.3,296.1,174.6z"/>
	<path fill="#FFFFFF" d="M502.6,174.5l17.6-0.4c1.8-0.5-3-0.8-9.5-0.6C506.5,173.8,500,174,502.6,174.5z"/>
	<polygon fill="#FFFFFF" points="63.3,0.6 49.9,0 58.5,1 	"/>
	<path fill="#FFFFFF" d="M37.6,2.9l-3.2-1.9l-8,1.7C29.4,2.6,35.3,2.4,37.6,2.9z"/>
</g>
</svg>
