<?xml version="1.0" encoding="utf-8"?>
<!-- Generator: Adobe Illustrator 18.1.1, SVG Export Plug-In . SVG Version: 6.00 Build 0)  -->
<!DOCTYPE svg PUBLIC "-//W3C//DTD SVG 1.1//EN" "http://www.w3.org/Graphics/SVG/1.1/DTD/svg11.dtd">
<svg version="1.1" id="Layer_1" xmlns="http://www.w3.org/2000/svg" xmlns:xlink="http://www.w3.org/1999/xlink" x="0px" y="0px"
	 viewBox="0 0 649.8 179.5" enable-background="new 0 0 649.8 179.5" xml:space="preserve">
<g>
	<path fill="none" stroke="#EEF8D7" stroke-miterlimit="10" d="M-33.9,41.5"/>
</g>
<g>
	<defs>
		<rect id="SVGID_1_" x="0" y="0" width="649.8" height="189.5"/>
	</defs>
	<clipPath id="SVGID_2_">
		<use xlink:href="#SVGID_1_"  overflow="visible"/>
	</clipPath>
	<g clip-path="url(#SVGID_2_)">
		<path fill="#52A03F" d="M682.3,175c0,0-119.6-12.9-136.7-14.9c-18.4-2.1-91-11.9-122.7-9.3c-15.4,1.2-128.5,4.5-157.3,6.7
			c-38.3,2.9-277.9,11.9-277.9,11.9V-19.3l694.6,5.7V175z"/>
		<g>
			<path fill-rule="evenodd" clip-rule="evenodd" fill="#52A03F" d="M323.2,138.6c1-0.2,2.7-0.3,4.7-0.4
				C327.4,138.4,324.8,138.7,323.2,138.6z"/>
			<path fill-rule="evenodd" clip-rule="evenodd" fill="#52A03F" d="M394.7,163c1.4-0.2,5.8-0.5,5.4-0.1
				C397.5,163.1,396.5,163,394.7,163z"/>
			<path fill-rule="evenodd" clip-rule="evenodd" fill="#52A03F" d="M402.3,163.4c0.4-0.2,3.8-0.1,5.4-0.3
				C407.6,163.4,403.3,163.5,402.3,163.4z"/>
			<path fill-rule="evenodd" clip-rule="evenodd" fill="#52A03F" d="M424,158.2c1-0.2,3.8-0.5,5.1-0.3
				C428.7,158.1,425.5,158.1,424,158.2z"/>
			<path fill-rule="evenodd" clip-rule="evenodd" fill="#52A03F" d="M433.4,162.5c0.9-0.1,2-0.2,3.5-0.3c1.5,0,3.3,0,5.3,0.1
				C440.9,162.6,436.5,162.3,433.4,162.5z"/>
			<path fill-rule="evenodd" clip-rule="evenodd" fill="#52A03F" d="M460.8,140.7c4.8,0.2,14.6,0.5,17.9,1.3
				C472.9,141.3,466.2,141.3,460.8,140.7z"/>
			<path fill-rule="evenodd" clip-rule="evenodd" fill="#52A03F" d="M472.8,151.6c5.9-0.2,16.4,1.5,23.9,1.9c1,0.6-11-1-13.2-0.8
				c-1.8-0.2-3.1-0.4-4.5-0.6C476.9,151.9,474.9,152.1,472.8,151.6z"/>
			<path fill-rule="evenodd" clip-rule="evenodd" fill="#52A03F" d="M544.3,161c-0.1-0.3,0.4-0.4,2.4-0.2c0.6,0.2,0.7,0.3,0.6,0.5
				C546.3,161.2,545.3,161.1,544.3,161z"/>
			<path fill-rule="evenodd" clip-rule="evenodd" fill="#52A03F" d="M574.5,160.4c4.8,0,15.6,1.1,21.5,2.2c0.8,0,0.9-0.2,2.4,0
				c3.6,0.3,11.5,1.4,3.8,0.5C592.5,162.5,585,161.3,574.5,160.4z"/>
			<path fill-rule="evenodd" clip-rule="evenodd" fill="#52A03F" d="M577.4,166.4c1.2,0,3.1,0.1,5.4,0.4
				C582.2,167,578.3,166.7,577.4,166.4z"/>
			<path fill-rule="evenodd" clip-rule="evenodd" fill="#52A03F" d="M586.3,152.5c0.9-0.2,4.8,0.5,6.9,0.6
				C591.7,153.1,588,152.9,586.3,152.5z"/>
			<path fill-rule="evenodd" clip-rule="evenodd" fill="#52A03F" d="M583.3,165.2c1.9-0.1,6.2,0.5,8.5,0.5
				C593.9,166.4,586.2,165.4,583.3,165.2z"/>
			<path fill-rule="evenodd" clip-rule="evenodd" fill="#52A03F" d="M586.7,167.1c1.5-0.2,6,0.4,9.3,0.7
				C593.9,167.9,589.7,167.4,586.7,167.1z"/>
			<path fill-rule="evenodd" clip-rule="evenodd" fill="#52A03F" d="M594,150.6c0.3-0.4,3.3,0,5.5,0.1
				C599,151,595.9,150.6,594,150.6z"/>
			<path fill-rule="evenodd" clip-rule="evenodd" fill="#52A03F" d="M597,153.6c2.5-0.1,11.1,0.9,15.3,1.4
				C607,154.7,602.9,154.3,597,153.6z"/>
			<path fill-rule="evenodd" clip-rule="evenodd" fill="#52A03F" d="M597.5,168c4-0.1,9.7,1,13,1.4
				C606.8,169.3,601.6,168.2,597.5,168z"/>
			<path fill-rule="evenodd" clip-rule="evenodd" fill="#52A03F" d="M608.2,163.8c1.5,0,4.1,0.2,6.2,0.3
				C614.8,164.7,610.8,164.1,608.2,163.8z"/>
			<path fill-rule="evenodd" clip-rule="evenodd" fill="#52A03F" d="M614.7,165.7c1.8-0.1,3.5,0.2,6.1,0.6
				C620.2,166.5,616.6,165.8,614.7,165.7z"/>
			<path fill-rule="evenodd" clip-rule="evenodd" fill="#52A03F" d="M621.2,167.8c0.9-0.2,6.6,0.4,5.3,0.8c-1.6-0.1-1.4-0.3-1.4-0.5
				C623.2,167.9,623.4,168.2,621.2,167.8z"/>
			<path fill-rule="evenodd" clip-rule="evenodd" fill="#52A03F" d="M638.3,160.7C634.5,160.8,628.1,159.4,638.3,160.7L638.3,160.7z
				"/>
			<path fill-rule="evenodd" clip-rule="evenodd" fill="#52A03F" d="M647.2,157.3c3.2,0.1,6.3,0.5,10,0.9
				C654.8,158.1,648.7,157.5,647.2,157.3z"/>
			<path fill-rule="evenodd" clip-rule="evenodd" fill="#52A03F" d="M649.7,156.8c-1.1-0.5,5.1,0.2,3.8,0.4
				C652.2,157.1,651,157,649.7,156.8z"/>
			<path fill-rule="evenodd" clip-rule="evenodd" fill="#52A03F" d="M657.6,151.4c1.1-0.1,3.5,0,5.4,0.3
				C662.4,151.9,658.4,151.6,657.6,151.4z"/>
			<path fill-rule="evenodd" clip-rule="evenodd" fill="#52A03F" d="M678.8,154C685.3,154,687.5,154.8,678.8,154L678.8,154z"/>
			<path fill-rule="evenodd" clip-rule="evenodd" fill="#52A03F" d="M506.6,136.7c1.3,0,3.1,0.1,4,0c2.3,0.7,6.8,0.7,10,1.3
				C516.5,138,512.4,137,506.6,136.7z"/>
			<path fill-rule="evenodd" clip-rule="evenodd" fill="#52A03F" d="M591.1,155.1c1.9,0.2,1.6,0.4,3.8,0.5c0.2,0.2-0.8,0.1-0.9,0.3
				c3.8,0.5,5.9,0.5,9.2,0.9c-0.4,0-0.9,0.1-0.9,0.3c4.4-0.2,9.3,1.3,18.4,2c-8.7-0.2-27.7-2.7-35.3-3.3c1.2-0.3,7.7,0.8,8.6,0.3
				C594.2,155.6,589.7,155.4,591.1,155.1z"/>
			<path fill-rule="evenodd" clip-rule="evenodd" fill="#52A03F" d="M597.9,166.6c0.9,0.1,0.5-0.1,0-0.1c0.3-0.2,3.4,0.3,3.8,0.4
				C600.8,167.1,590.7,165.8,597.9,166.6z"/>
			<path fill-rule="evenodd" clip-rule="evenodd" fill="#52A03F" d="M654.9,171.5l-0.1,0.5c4.9,0.5,12.7,1.3,16,2
				c-5.8-0.3-18-2.5-22.3-2.2c-1-0.2-2.8-0.4-3.8-0.7c-13.6-0.7-28.1-3.1-42.2-4.2c6.4-0.5,20.5,2.7,27.8,2.2c1.2,0.2,0,0.1-0.8,0
				C635.7,169.9,646.8,171.4,654.9,171.5z"/>
			<path fill-rule="evenodd" clip-rule="evenodd" fill="#52A03F" d="M651.5,156.1c1.2-0.1,3.4,0.1,4.7,0
				C656.9,156.2,653,156.5,651.5,156.1z"/>
			<path fill-rule="evenodd" clip-rule="evenodd" fill="#52A03F" d="M675.7-10.9c0.9,0,1.7,0,2.6,0c0.4,0,0.9,0,1.3,0c0,0,0,0,0,0
				c0,0,0,0,0,0l0,0l0,0l0,0.3c0,0.5,0,0.9,0,1.4c0.1,8.5,0.2,16.1,0.3,24.6c0.1,7.5,0.3,14.6,0.4,22.5c0.1,5.8,0.1,7.7,0.2,11.6
				c0.2,11.4,0.3,20.7,0.4,25.7c0.1,8,0.3,18,0.4,25c0,1.1,0,3.4,0,3.9c0.3,17.8,0.5,28.7,0.6,49.6c0,1.8,0,3.2,0.1,6.6
				c0,1.6,0,5.1,0,6.3c0,3.8,0,1.6,0,8.5c0,0.4,0-1,0-1.4c0,0.2,0-2.9,0-1c0-5,0-4.6,0-8.5c0-2.7,0.1-7.8,0.1-11.1
				c0-3.9,0.1-7.9,0.1-11.1c0-0.8,0.1-4.7,0.1-5.8c0.1-6,0.1-10.5,0.2-16.6c0-0.6,0-1.8,0-2.2c0.2-12.8,0.4-25.8,0.7-43.2
				c0-1.6,0.1-4.9,0.1-6.9c0.2-13,0.4-33,0.6-39.8c0-2.3,0-2.3,0.1-4.6c0.1-1.5,0.3-8.4,0.3-14.4c0-2.1,0-5.7,0-10.2
				c0.1-3.6,0.1-7.1,0.2-10.5c0-0.8,0-1.6,0-2.3l0-1.1l0-0.3c0-0.1,0-0.1-0.1-0.1l-0.1,0l-0.6,0c-0.8,0-1.5,0-2.3-0.1
				c-0.7,0-1.4,0-2.1,0c-1.6,0-3.1-0.1-4.6-0.1c-2.8,0-5.7-0.1-8.6-0.1c-7.6-0.1-22.9-0.5-29.2-0.6c-5-0.1-6.9-0.3-10.7-0.3
				c-3.4-0.1-6,0-5.7,0.1c-9.8,0.1-35.1-0.7-50.3-0.8c-11.1-0.4-21.7-0.4-32.4-0.6c-2.1-0.1-4.7-0.1-6.9-0.2
				c-3.6,0-8.5-0.1-13.2-0.2c-8-0.1-15-0.2-21.6-0.3c-10.2-0.5-17.7-0.3-26.2-0.5c-3.2-0.1-6.4-0.2-9.9-0.3c-3,0-6-0.1-9.3-0.1
				c-3.3-0.1-6.8-0.2-9.9-0.3c-2.4,0-4.3,0-6.2-0.1c-2.6-0.1-4.2-0.2-6.9-0.2c-2.8,0-5.7,0-8.6,0c-10.5-0.2-21.8-0.5-31.7-0.5
				c-17.9-0.6-33.4-0.5-54.6-1.1c-5.3,0-9.1,0-14.7-0.2c-1.2,0-1.2,0.1-3.1,0c-11-0.3-22.6-0.2-33.9-0.6c-0.4,0-0.9,0.1-1.6,0.1
				c-15.6-0.5-35.4-0.9-47.7-0.9c-9.5-0.4-20.6-0.4-32.3-0.6c-5.5-0.1-11-0.3-16.1-0.4c-10.1-0.1-23.4-0.5-33.1-0.6
				c-2.9,0-5.7,0.1-8.6,0c-5.1-0.1-10.7-0.3-16.1-0.3c-21.1-0.1-45.4-0.7-63.9-1.1c-5.7-0.1-10.6,0-17-0.1
				c-10.6-0.1-21.6-0.6-32.3-0.7c-2.7,0-5.3,0-7.8,0c-4.4-0.1-8.6-0.1-12.9-0.2c-2.7-0.1-5.3,0-8.1,0.1c-1.4,0-2.7,0-4.1,0.1l-0.5,0
				l-0.1,0c0,0,0,0.1,0,0.1l0,0.3l0,1c0,0.7,0,1.4,0,2.1c-0.1,3.5-0.1,6.9-0.1,10.4c0,3,0,5.9,0,8.9c0,4.1,0,8.2,0,12.3
				c0,8.1-0.1,16.1-0.3,23.9c0.2,19.8-0.2,48.7-0.3,71.7c0.3,5.2,0,10.1,0,15.4c0,8.2,0,17.6,0.1,27.1c0,6,0,12.1,0,18
				c0,1,0,1.9,0,2.9c0,0.9,0,1.8,0.1,2.8c0,1.8,0.1,3.7,0.1,5.5c0,0.9,0,1.8,0.1,2.7l0,1.3l0,0.3c0,0.1,0,0.1,0.1,0.1l0.2,0l0.7,0
				c1.8,0,3.5-0.1,5.2-0.1c38.6-1.3,78-2.7,117.3-4.1c36.9-1.3,73.7-2.6,109.5-4.4c5.6,0.1,14.3-0.4,19.3-0.9c1.1,0.2,4.4,0,6.9,0
				c4.5-0.5,9.6-0.7,15-1c1.3-0.1,2.7-0.1,4.1-0.2c1.4-0.1,2.8-0.1,4.2-0.2c2.8-0.1,5.8-0.3,8.5-0.5c2.7-0.8,9.5-0.6,13.8-1.3
				c1.8,0.3-2.4,0.4,0.7,0.4c7.2-1.4,32-1.8,43.1-2.4c-0.8,0-0.9-0.1,0-0.2c2.7,0.2,4-0.4,7-0.5c20.2-0.7,34.6-2.3,51.8-3.3
				c2.2,0.1,8,0.4,10-0.1c-3.1,0-7.1,0.2-6.8-0.3c5.2,0,12-0.5,15.5-1c6.4-0.3,9.7-0.1,15.5-0.8c1.5-0.1-1.5-0.4,1.7-0.6
				c1.1,0,2.2-0.1,3.2-0.1c0.9,0,1.8-0.1,2.7-0.1c1.7-0.1,3.3-0.1,4.9-0.2c1.6,0,3.1-0.1,4.8-0.1c1.7,0,3.4,0.1,5.4,0.2
				c2.3-0.4,11.6-0.1,14.5,0.4c2.6,0-2.8-0.6-0.6-0.6c3.6,0.1,7.1,0.3,10.5,0.5c3.4,0.2,6.7,0.6,10.1,1c1.7-0.1,2.8-0.3,5.5-0.1
				c1.8,0.1-0.6,0.4,2.2,0.5c2.6,0-1.9-0.7-1.3-1c3.6,0.2,2.9-0.2,4.8-0.3c5,0.8,8.5,0.6,13.1,0.9c4.7,0.3,10,1.1,14.5,1.5
				c3.9,0.3,5.6,0.1,10.1,0.7c3.6,0.4,6.6,1.2,10.6,1.7c2.1,0.2-1.4-0.6,1.7-0.2c7,0.8,14.1,1.5,20.6,2.1c6.6,0.6,12.7,1.1,17.9,1.3
				c-8-0.4-14.9-1.2-21.5-2c-3.3-0.4-6.6-0.8-9.9-1.1c-3.3-0.4-6.7-0.7-10.2-0.9c-2-0.7-6.3-0.5-8.3-1.4c-1,0.2,2.2,0.8-0.9,0.3
				c-1-0.2-1.4-0.3-3-0.5c2-0.3-0.9-0.7-2-1.2c-11.8-1.4-21.1-2.1-31.4-3.2c-1.9-0.1,1.3,0.5-0.9,0.3c-3.9-0.3-6.9-0.7-11.5-0.9
				c-1.3-0.5-4.4-1-2.7-1.4c13.8,1.2,32.7,2.4,49.2,4.3c5,0.6,10.1,1.6,13.1,1.3c-7.4-0.7-13.3-2.2-19.7-3c-8.3-1-17.3-1.4-25.4-2.3
				c-2.3-0.3-3.2-0.6-5.3-0.7c-1.6-0.2-4.4-0.1-6.2-0.3c-2-0.2-2.1-0.4-3.8-0.5c-3.5-0.3-6.2-0.1-10.1-0.4c-3.2-0.3-6.4-0.6-9.7-0.8
				c-3.3-0.3-6.6-0.5-10.2-0.6c-1.3-0.2-0.7-0.7,0.9-0.7c4.2,0.2,6.7,0.3,9.2,0.5c2.5,0.1,5,0.3,9.3,0.6c-1-0.1-1.5-0.3-1.5-0.4
				c2.6,0.2,3.6,0.4,5.4,0.3c-6.4-0.4-5.8-1.2-3.5-1.4c15.9,1.2,35.4,2.9,48.3,4.7c1.5-0.1,2.4-0.3,4.8-0.1c7.3,0.7,15.1,1.6,23,2.6
				c7.9,0.9,15.9,1.7,23.8,2.4c-4.5-0.6-9-1.2-13.6-1.8c-4.6-0.5-9.2-1.1-14-1.6c-9.5-1.1-19.4-2.1-29.8-3.1
				c-0.8-0.2-0.1-0.4-2.2-0.6c-8.9-0.7-19.3-1.7-26.2-2.3c-3-0.7-6-1.4-8.9-2.1c-11-0.6-20.5-1.5-30-2.1c-2.4-0.1-4.7-0.3-7.2-0.4
				c-2.4,0-4.8-0.2-7.3-0.1c-1.2,0-2.5,0.1-3.8,0.1c-1.2,0-2.4,0.1-3.6,0.1c-2.5,0.1-5,0.2-7.6,0.3c0.1-0.3-1.6-0.3-2.2-0.5
				c1.7-0.3,2.8-0.7,4.7-1c1.7-0.1,3.5-0.2,5.1-0.4c0.8-0.1,1.6-0.1,2.4-0.2c0.8,0,1.7-0.1,2.4,0c9.3-1.1,20.3-0.9,31.6-0.3
				c11.4,0.6,23.2,1.6,34.3,2.3c2.7-0.3,0.7-0.9-1.1-1.5c-10.6-1.3-20.4-1.3-31.8-2.6c-2-0.7-1.9-1.2-0.2-1.5c1.7-0.3,5-0.4,9.4-0.1
				c7.3,0.4,17.2,1.2,26.4,2.1c9.2,0.9,17.7,1.9,22.4,2.4c10.5,0.9,21.1,2.1,31.5,3.1c10.5,1,21,2,31.5,3c21,2,42.2,4.1,63.7,5.9
				c-23.9-2.7-46-4.2-67.3-6.8c0.1,0.3-0.7,0.3-2.4,0.1c-5.3-0.6-10.7-1.1-16.1-1.7c-2.7-0.3-5.4-0.6-8.2-0.8
				c-2.7-0.3-5.4-0.6-8-0.9c-10.8-1.2-21.3-2.3-30.6-3c-7.7-1.6-22.9-2.1-30.8-3.5c2.1-1.1,8.7-1.1,16.9-0.6
				c-8.4-0.7-16.2-1.7-23.2-2.3c-2.9-0.2-6.9-0.4-10.5-0.6c-3.6-0.1-6.9-0.3-8.4-0.5c-0.7-0.1,0.7-0.3-0.7-0.3
				c2.4,0.1-4.3-0.1-4.8-0.1c-3.2,0-2.6,0.1-6.5,0.1c-2.5,0-3.7-0.1-4.7-0.1c-1,0-1.8-0.1-3.4-0.2c-2.2,0-4.3,0-6.6,0.2l-3.4,0.2
				l-3,0.2c-1.8,0.1-3.8,0.3-5.7,0.4l-5.9,0.4c-8,0.5-16,0.9-24.1,1.1c-1.7,0.1-5.1,0.2-5.4,0.2c-1.5,0-0.2-0.3-2.3-0.2
				c-1.2,0-0.6,0.2-2.3,0.3c-6.3,0.2-13.6,0.4-20,0.8c-15.9,0.8-34.7,1.4-47.7,2.1c-2.9,0.1,0.9-0.4-3-0.2
				c-11.2,0.5-22.7,1-34.7,1.7c-2.9,0.2-5.9,0.4-8.8,0.6c-2.9,0.2-5.7,0.4-8.7,0.6c-5.9,0.3-11.8,0.7-17.8,1c-1.8,0.1-0.4-0.4-3-0.2
				c-3.3,0.1-2.5,0.5-5.4,0.7c-1.8,0-3.5,0-4.5-0.2c-27.3,1.3-55.5,3.1-83.7,4.7c-26.3,1.5-52.7,2.8-77.7,4.1
				c-19.7,1-38.5,2.3-56.1,2.9l-1.1,0.1c-0.2,0-0.3,0-0.5,0c-0.3,0-0.7,0.1-1,0.1c-0.3,0-0.7,0-1,0.1l-0.5,0c-0.1,0-0.2,0-0.2,0
				l0-0.2c0-0.6-0.1-1.2-0.1-1.9l0-1l0-0.5l0-2c-0.1-10.8-0.3-21.5-0.4-32.6c-0.2-16-0.2-33.6-0.5-47c-0.1-2.3-0.2-5.1-0.3-7.8
				c0-4.1,0.1-8.2,0.1-12.2c-0.1-11-0.5-22.2-0.6-33.2C-2.8,12.8-2.9,6.8-2.9,0.8l0-4.5l0-2.2L-3-7l0-0.3l0.1-1.1c0-0.4,0-0.8,0-1.1
				l0-0.3c0-0.1-0.1-0.3,0.1-0.2l0.6,0c0.4,0,0.8-0.1,1.2-0.1c2.2,0,4.4,0,6.7-0.1c4.5,0,9.2,0.1,13.8,0.1c13,0,26.3-0.3,38.6-0.3
				c16.4,0,33.3,0.2,50-0.1c18.4,0.1,40.8,0.1,58.5-0.1c14.3,0.3,29.2-0.1,45.4,0c1.7,0,2.8,0.1,4.6,0.1c24.5,0.2,51.7-0.3,71.6-0.1
				c7.5-0.2,13.8,0,20.8,0c7.5,0,14.4-0.1,21.6-0.1c2.4,0,4.5,0,6.9,0.1c7.3,0,14.4-0.1,22.4-0.2c12-0.1,24.7,0.2,38.4,0
				c10.6,0.1,26.3,0.2,38.4,0c20.5,0.2,41.2-0.1,62.3-0.1c7.1,0,13.6,0.1,20.8,0c7.4,0.1,16.3,0,25.4,0c8.9,0,18.3,0,27.6,0
				c13.3,0,29.9-0.1,39.9,0c4.5,0.4,13.4-0.2,24-0.2c5.6,0.1,4.9,0.2,7.3,0.3c5,0,9.8,0,14.6-0.1C664-11,668.2-10.9,675.7-10.9z
				 M457.7,155.5c-0.2,0.1,0.1,0.2,0.7,0.3C456.7,156.1,453.2,155.2,457.7,155.5z M459.3,155.3c3.2,0.2,7,0.4,10.6,0.5
				c3.6,0.2,7,0.5,9.3,0.9c1.2,0.1-1.1-0.7,1-0.7c2.7,0.5,5.9,1,10.6,1.5c0.2,0.9-9-0.5-9.5,0.2c-3.6-0.4-5.3-0.6-6.9-0.3
				c-3.6-0.5-5.9-0.6-7.9-0.7c-2-0.1-3.8-0.2-6.6-0.5C461.3,155.9,458.8,155.9,459.3,155.3z"/>
		</g>
	</g>
</g>
</svg>
