<?xml version="1.0" encoding="utf-8"?>
<!-- Generator: Adobe Illustrator 18.1.1, SVG Export Plug-In . SVG Version: 6.00 Build 0)  -->
<!DOCTYPE svg PUBLIC "-//W3C//DTD SVG 1.1//EN" "http://www.w3.org/Graphics/SVG/1.1/DTD/svg11.dtd">
<svg version="1.1" id="Layer_1" xmlns="http://www.w3.org/2000/svg" xmlns:xlink="http://www.w3.org/1999/xlink" x="0px" y="0px"
	 viewBox="0 0 649.8 179.5" enable-background="new 0 0 649.8 179.5" xml:space="preserve">
<g>
	<path fill="none" stroke="#EEF8D7" stroke-miterlimit="10" d="M-33.9,41.5"/>
</g>
<g>
	<defs>
		<rect id="SVGID_1_" x="0" y="0" width="649.8" height="189.5"/>
	</defs>
	<clipPath id="SVGID_2_">
		<use xlink:href="#SVGID_1_"  overflow="visible"/>
	</clipPath>
	<g clip-path="url(#SVGID_2_)">
		<path fill="#282828" d="M681.2,175.3c0,0-119.6-12.9-136.7-14.9c-18.4-2.1-90.4-9.1-122.7-9.3c-15.4-0.1-128.7-0.7-157.5,1.5
			c-38.3,2.9-277.7,17-277.7,17l0-188.6l694.6,5.7V175.3z"/>
		<g>
			<path fill-rule="evenodd" clip-rule="evenodd" fill="#282828" d="M322.5,134.9c1-0.2,2.7-0.2,4.7-0.3
				C326.6,134.9,324,135.1,322.5,134.9z"/>
			<path fill-rule="evenodd" clip-rule="evenodd" fill="#282828" d="M393,161.8c1.4-0.1,5.8-0.3,5.4,0.2
				C395.9,162,394.8,161.9,393,161.8z"/>
			<path fill-rule="evenodd" clip-rule="evenodd" fill="#282828" d="M400.6,162.5c0.4-0.2,3.8,0,5.4,0
				C405.9,162.8,401.6,162.7,400.6,162.5z"/>
			<path fill-rule="evenodd" clip-rule="evenodd" fill="#282828" d="M422.2,158.5c1.1-0.1,4-0.2,5.3,0
				C427.1,158.7,423.8,158.4,422.2,158.5z"/>
			<path fill-rule="evenodd" clip-rule="evenodd" fill="#282828" d="M431.7,163.3c1.8-0.2,4.9-0.1,9.1,0.2
				C439.4,163.7,435,163.4,431.7,163.3z"/>
			<path fill-rule="evenodd" clip-rule="evenodd" fill="#282828" d="M459.7,142.1c4.7,0.3,14.4,0.5,17.8,1.2
				C471.7,142.7,465,142.7,459.7,142.1z"/>
			<path fill-rule="evenodd" clip-rule="evenodd" fill="#282828" d="M471.6,153c5.9-0.2,16.4,1.4,23.9,1.6c1,0.6-11-0.9-13.2-0.6
				c-1.8-0.2-3.1-0.4-4.5-0.6C475.7,153.3,473.7,153.5,471.6,153z"/>
			<path fill-rule="evenodd" clip-rule="evenodd" fill="#282828" d="M543.2,161.2c-0.1-0.3,0.4-0.4,2.4-0.2c0.6,0.2,0.7,0.3,0.6,0.5
				C545.2,161.4,544.2,161.3,543.2,161.2z"/>
			<path fill-rule="evenodd" clip-rule="evenodd" fill="#282828" d="M573.4,160.6c4.8,0,15.6,1.1,21.5,2.2c0.8,0,0.9-0.2,2.4,0
				c3.6,0.3,11.5,1.4,3.8,0.5C591.4,162.7,583.9,161.5,573.4,160.6z"/>
			<path fill-rule="evenodd" clip-rule="evenodd" fill="#282828" d="M576.4,166.6c1.2,0,3.1,0.1,5.4,0.4
				C581.2,167.2,577.2,166.9,576.4,166.6z"/>
			<path fill-rule="evenodd" clip-rule="evenodd" fill="#282828" d="M585.3,152.7c0.9-0.2,4.8,0.5,6.9,0.6
				C590.7,153.3,587,153.1,585.3,152.7z"/>
			<path fill-rule="evenodd" clip-rule="evenodd" fill="#282828" d="M582.3,165.4c1.9-0.1,6.2,0.5,8.5,0.5
				C592.8,166.6,585.2,165.7,582.3,165.4z"/>
			<path fill-rule="evenodd" clip-rule="evenodd" fill="#282828" d="M585.6,167.4c1.5-0.2,6,0.4,9.3,0.7
				C592.9,168.1,588.6,167.6,585.6,167.4z"/>
			<path fill-rule="evenodd" clip-rule="evenodd" fill="#282828" d="M593,150.8c0.3-0.4,3.3,0,5.5,0.1
				C598,151.2,594.9,150.8,593,150.8z"/>
			<path fill-rule="evenodd" clip-rule="evenodd" fill="#282828" d="M596,153.8c2.5-0.1,11.1,0.9,15.3,1.4
				C605.9,155,601.8,154.5,596,153.8z"/>
			<path fill-rule="evenodd" clip-rule="evenodd" fill="#282828" d="M596.4,168.3c4-0.1,9.7,1,13,1.4
				C605.8,169.5,600.6,168.4,596.4,168.3z"/>
			<path fill-rule="evenodd" clip-rule="evenodd" fill="#282828" d="M607.2,164c1.5,0,4.1,0.2,6.2,0.3
				C613.7,164.9,609.7,164.3,607.2,164z"/>
			<path fill-rule="evenodd" clip-rule="evenodd" fill="#282828" d="M613.7,165.9c1.8-0.1,3.5,0.2,6.1,0.6
				C619.2,166.7,615.6,166.1,613.7,165.9z"/>
			<path fill-rule="evenodd" clip-rule="evenodd" fill="#282828" d="M620.2,168c0.9-0.2,6.6,0.4,5.3,0.8c-1.6-0.1-1.4-0.3-1.4-0.5
				C622.2,168.1,622.3,168.4,620.2,168z"/>
			<path fill-rule="evenodd" clip-rule="evenodd" fill="#282828" d="M637.3,160.9C633.4,161,627,159.6,637.3,160.9L637.3,160.9z"/>
			<path fill-rule="evenodd" clip-rule="evenodd" fill="#282828" d="M646.2,157.5c3.2,0.1,6.3,0.5,10,0.9
				C653.8,158.3,647.7,157.7,646.2,157.5z"/>
			<path fill-rule="evenodd" clip-rule="evenodd" fill="#282828" d="M648.6,157c-1.1-0.5,5.1,0.2,3.8,0.4
				C651.2,157.3,649.9,157.2,648.6,157z"/>
			<path fill-rule="evenodd" clip-rule="evenodd" fill="#282828" d="M656.5,151.6c1.1-0.1,3.5,0,5.4,0.3
				C661.4,152.1,657.4,151.8,656.5,151.6z"/>
			<path fill-rule="evenodd" clip-rule="evenodd" fill="#282828" d="M677.8,154.2C684.2,154.3,686.4,155,677.8,154.2L677.8,154.2z"
				/>
			<path fill-rule="evenodd" clip-rule="evenodd" fill="#282828" d="M505.1,137.6c1.3,0,3.1,0,4-0.1c2.3,0.6,6.8,0.6,10,1.1
				C515,138.7,510.9,137.8,505.1,137.6z"/>
			<path fill-rule="evenodd" clip-rule="evenodd" fill="#282828" d="M590,155.3c1.9,0.2,1.6,0.4,3.8,0.5c0.2,0.2-0.8,0.1-0.9,0.3
				c3.8,0.5,5.9,0.5,9.2,0.9c-0.4,0-0.9,0.1-0.9,0.3c4.4-0.2,9.3,1.3,18.4,2c-8.7-0.2-27.7-2.7-35.3-3.3c1.2-0.3,7.7,0.8,8.6,0.3
				C593.1,155.8,588.7,155.7,590,155.3z"/>
			<path fill-rule="evenodd" clip-rule="evenodd" fill="#282828" d="M596.9,166.8c0.9,0.1,0.5-0.1,0-0.1c0.3-0.2,3.4,0.3,3.8,0.4
				C599.7,167.3,589.7,166.1,596.9,166.8z"/>
			<path fill-rule="evenodd" clip-rule="evenodd" fill="#282828" d="M653.8,171.7l-0.1,0.5c4.9,0.5,12.7,1.3,16,2
				c-5.8-0.3-18-2.5-22.3-2.2c-1-0.2-2.8-0.4-3.8-0.7c-13.6-0.7-28.1-3.1-42.2-4.2c6.4-0.5,20.5,2.7,27.8,2.2c1.2,0.2,0,0.1-0.8,0
				C634.7,170.1,645.8,171.6,653.8,171.7z"/>
			<path fill-rule="evenodd" clip-rule="evenodd" fill="#282828" d="M650.4,156.3c1.2-0.1,3.4,0.1,4.7,0
				C655.9,156.4,652,156.8,650.4,156.3z"/>
			<path fill-rule="evenodd" clip-rule="evenodd" fill="#282828" d="M674.7-10.7c0.9,0,1.7,0,2.6,0c0.4,0,0.9,0,1.3,0c0,0,0,0,0,0
				c0,0,0,0,0,0l0,0l0,0l0,0.3c0,0.5,0,0.9,0,1.4c0.1,8.5,0.2,16.1,0.3,24.6c0.1,7.5,0.3,14.6,0.4,22.5c0.1,5.8,0.1,7.7,0.2,11.6
				c0.2,11.4,0.3,20.7,0.4,25.7c0.1,8,0.3,18,0.4,25c0,1.1,0,3.4,0,3.9c0.3,17.8,0.5,28.7,0.6,49.6c0,1.8,0,3.2,0.1,6.6
				c0,1.6,0,5.1,0,6.3c0,3.8,0,1.6,0,8.5c0,0.4,0-1,0-1.4c0,0.2,0-2.9,0-1c0-5,0-4.6,0-8.5c0-2.7,0.1-7.8,0.1-11.1
				c0-3.9,0.1-7.9,0.1-11.1c0-0.8,0.1-4.7,0.1-5.8c0.1-6,0.1-10.5,0.2-16.6c0-0.6,0-1.8,0-2.2c0.2-12.8,0.4-25.8,0.7-43.2
				c0-1.6,0.1-4.9,0.1-6.9c0.2-13,0.4-33,0.6-39.8c0-2.3,0-2.3,0.1-4.6c0.1-1.5,0.3-8.4,0.3-14.4c0-2.1,0-5.7,0-10.2
				c0.1-3.6,0.1-7.1,0.2-10.5c0-0.8,0-1.6,0-2.3l0-1.1l0-0.3c0-0.1-0.1,0-0.1,0l-0.1,0l-0.6,0c-0.8,0-1.5,0-2.3-0.1
				c-0.7,0-1.4,0-2.1,0c-1.6,0-3.1-0.1-4.6-0.1c-2.8,0-5.7-0.1-8.6-0.1c-7.6-0.1-22.9-0.5-29.2-0.6c-5-0.1-6.9-0.3-10.7-0.3
				c-3.4-0.1-6,0-5.7,0.1c-9.8,0.1-35.1-0.7-50.3-0.8c-11.1-0.4-21.7-0.4-32.4-0.6c-2.1-0.1-4.7-0.1-6.9-0.2
				c-3.6,0-8.5-0.1-13.2-0.2c-8-0.1-15-0.2-21.6-0.3c-10.2-0.5-17.7-0.3-26.2-0.5c-3.2-0.1-6.4-0.2-9.9-0.3c-3,0-6-0.1-9.3-0.1
				c-3.3-0.1-6.8-0.2-9.9-0.3c-2.4,0-4.3,0-6.2-0.1c-2.6-0.1-4.2-0.2-6.9-0.2c-2.8,0-5.7,0-8.6,0c-10.5-0.2-21.8-0.5-31.7-0.5
				c-17.9-0.6-33.4-0.5-54.6-1.1c-5.3,0-9.1,0-14.7-0.2c-1.2,0-1.2,0.1-3.1,0c-11-0.3-22.6-0.2-33.9-0.6c-0.4,0-0.9,0.1-1.6,0.1
				c-15.6-0.5-35.4-0.9-47.7-0.9c-9.5-0.4-20.6-0.4-32.3-0.6c-5.5-0.1-11-0.3-16.1-0.4c-10.1-0.1-23.4-0.5-33.1-0.6
				c-2.9,0-5.7,0.1-8.6,0c-5.1-0.1-10.7-0.3-16.1-0.3c-21.1-0.1-45.4-0.7-63.9-1.1c-5.7-0.1-10.6,0-17-0.1
				c-10.6-0.1-21.6-0.6-32.3-0.7c-2.7,0-5.3,0-7.8,0c-4.4-0.1-8.6-0.1-13-0.2c-2.7-0.1-5.3,0-8.1,0.1c-1.4,0-2.7,0-4.1,0.1l-0.5,0
				c0,0-0.1,0-0.1,0l0,0.1l0,0.3l0,1c0,0.7,0,1.4,0,2.1c-0.1,3.5-0.1,6.9-0.1,10.4c0,3,0,5.9,0,8.9c0,4.1,0,8.2,0,12.3
				c0,8.1-0.1,16.1-0.3,23.9c0.2,19.8-0.2,48.7-0.3,71.7c0.3,5.2,0,10.1,0,15.4c0,8.2,0,17.6,0.1,27.1c0,6.1,0,12.3,0,18.3
				c0,1,0,1.9,0,2.9c0,0.9,0,1.8,0.1,2.8c0,1.8,0.1,3.7,0.1,5.5c0,0.9,0,1.8,0.1,2.7l0,1.3l0,0.3c0,0.1,0.2,0,0.3,0l0.7,0
				c1.8-0.1,3.5-0.1,5.2-0.2c20.5-1.2,41.3-2.4,62.2-3.6c18.4-1,36.8-2.1,55.3-3.1c36.9-2.1,73.7-4.2,109.5-6.5
				c5.6,0.1,14.3-0.6,19.2-1.1c1.1,0.2,4.4,0,6.9-0.1c4.5-0.5,9.5-0.8,14.9-1.1c2.7-0.1,5.4-0.3,8.2-0.4c2.8-0.1,5.7-0.3,8.3-0.5
				c0.7-0.2,1.6-0.3,2.7-0.4c1.1-0.1,2.3-0.1,3.6-0.2c2.5-0.1,5.3-0.2,7.4-0.5c1.8,0.3-2.4,0.3,0.7,0.5c7.2-1.3,32-1,43.1-1.3
				c-0.8,0-0.9-0.2,0-0.2c2.7,0.3,4-0.3,7-0.3c20.2-0.1,34.6-1.2,51.9-1.5c2.2,0.2,7.9,0.7,9.9,0.3c-3.1-0.1-7.1-0.1-6.8-0.6
				c5.2,0.2,12,0,15.5-0.3c6.4,0,9.7,0.3,15.4,0c1.4,0-1.4-0.5,1.6-0.5c4.5,0.2,7.7,0.2,10.9,0.3c3.2,0.1,6.3,0.2,10.3,0.5
				c2.3-0.4,11.7,0.1,14.6,0.6c2.6,0-2.8-0.6-0.6-0.6c7.2,0.3,14,0.7,20.6,1.5c1.7-0.1,2.8-0.3,5.5-0.2c1.8,0.1-0.6,0.4,2.2,0.5
				c2.6-0.1-2-0.7-1.3-1c3.6,0.1,2.9-0.2,4.8-0.3c5,0.7,8.5,0.4,13.2,0.7c4.7,0.2,10,0.9,14.6,1.2c3.9,0.3,5.7,0,10.1,0.5
				c3.6,0.4,6.6,1.1,10.6,1.5c2.1,0.1-1.4-0.6,1.6-0.3c14,1.4,28.1,2.8,38.5,3.3c-16-0.9-27.5-3.1-41.5-3.8
				c-2.1-0.7-6.3-0.4-8.3-1.2c-1,0.2,2.2,0.7-0.9,0.3c-1-0.1-1.4-0.3-3-0.4c2-0.4-0.9-0.7-2-1.2c-11.9-1.1-21.2-1.7-31.5-2.6
				c-1.9,0,1.3,0.4-0.9,0.4c-3.9-0.2-6.9-0.6-11.5-0.8c-1.4-0.5-4.4-1-2.7-1.4c13.9,1.1,32.8,1.9,49.3,3.5c5,0.5,10.1,1.4,13.1,1
				c-7.4-0.6-13.3-1.9-19.7-2.6c-8.3-0.9-17.3-1-25.4-1.8c-2.3-0.2-3.2-0.5-5.3-0.7c-1.6-0.1-4.4,0-6.2-0.2c-2-0.2-2.1-0.4-3.8-0.5
				c-3.5-0.2-6.2-0.1-10.1-0.4c-6.5-0.5-12.8-1.3-19.9-1.6c-1.3-0.3-0.7-0.7,1-0.7c8.4,0.5,9.9,0.6,18.5,1.2c-1-0.1-1.5-0.3-1.5-0.4
				c2.6,0.2,3.6,0.4,5.4,0.3c-6.4-0.4-5.8-1.2-3.5-1.4c15.9,1.2,35.3,2.5,48.4,4.1c1.5-0.1,2.4-0.3,4.8-0.2c7.4,0.6,15.1,1.3,23,2.2
				c7.9,0.9,15.9,1.7,23.8,2.4c-8.9-1.3-18-2.3-27.6-3.3c-9.5-0.9-19.5-1.7-29.9-2.5c-0.8-0.2-0.1-0.4-2.2-0.5
				c-8.9-0.5-19.3-1.4-26.2-1.9c-3-0.7-6-1.4-8.9-2.1c-11-0.6-20.5-1.6-29.9-2.4c-4.7-0.4-9.4-0.8-14.3-1.1
				c-4.9-0.3-9.8-0.3-15.1-0.4c0.1-0.3-1.5-0.4-2.2-0.6c1.7-0.3,2.8-0.6,4.8-0.8c3.5,0,7-0.2,10.1,0.1c18.1-0.7,43.2,1.6,65.3,2.8
				c2.7-0.3,0.7-0.9-1.2-1.5c-10.6-1.1-20.4-1.1-31.6-2.4c-4-1.5,0.3-2.1,9.1-1.6c14.5,0.8,39.3,2.9,48.6,3.9
				c10.6,0.7,21.1,1.5,31.7,2.6c10.5,1,21,2,31.5,3c21,2,42.2,4.1,63.7,5.9c-23.9-2.7-46-4.2-67.3-6.8c0.1,0.3-0.7,0.3-2.4,0.1
				c-5.3-0.6-10.7-1.1-16.1-1.7c-5.5-0.5-11-1.1-16.4-1.6c-10.9-1-21.4-1.8-30.7-2.4c-7.7-1.4-22.8-1.7-30.7-3
				c2.1-1.1,8.6-1.2,16.8-0.8c-8.3-0.6-16.1-1.5-23.1-2c-5.7-0.4-15.7-0.7-18.7-1.1c-0.7-0.1,0.7-0.3-0.7-0.3
				c2.4,0.1-4.2-0.1-4.7-0.1c-3.2,0-2.6,0.1-6.3-0.1c-4.8-0.2-4.7-0.2-7.8-0.6c-2.1-0.1-4.2-0.2-6.3-0.2c-2.1,0-4.3-0.1-6.3,0
				c-4,0-8.1,0.1-12.1,0.1c-8.1,0.1-16.1,0.2-24.3,0.1c-1.7,0-5.1,0-5.4,0c-1.5-0.1-0.2-0.3-2.3-0.3c-1.2,0-0.6,0.2-2.3,0.2
				c-6.4,0-13.6,0-20,0.1c-15.9,0.3-34.8,0.3-47.9,0.7c-2.9,0,0.9-0.4-3-0.3c-5.6,0.1-11.3,0.2-17.1,0.4c-5.8,0.2-11.7,0.3-17.8,0.7
				c-11.8,0.8-23.7,1.6-35.7,2.4c-1.8,0.1-0.4-0.4-3-0.1c-3.3,0.2-2.5,0.5-5.4,0.7c-1.8,0-3.5,0-4.5-0.1
				c-27.3,1.7-55.5,4.1-83.6,6.2c-26.3,2-52.6,3.9-77.5,5.8c-19.7,1.5-38.4,3.1-56,4.2c-0.8,0-1.5,0.1-2.3,0.1c-0.3,0-0.7,0.1-1,0.1
				l-0.5,0.1c-0.1,0-0.2,0.1-0.2,0l0-0.2c0-0.6-0.1-1.2-0.1-1.9l0-1l0-0.5l0-1.7c-0.1-10.8-0.3-21.5-0.4-32.6
				c-0.2-16-0.2-33.6-0.5-47c-0.1-2.3-0.2-5.1-0.3-7.8c0-4.1,0.1-8.2,0.1-12.2c-0.1-11-0.5-22.2-0.6-33.2C-3.9,13.1-3.9,7.1-4,1.1
				l0-4.5l0-2.2l0-1.1l0-0.3L-4-8.2C-4-8.6-4-9-4-9.4l0-0.3c0-0.1-0.1-0.3,0.1-0.2l0.6,0c0.4,0,0.8-0.1,1.2-0.1c2.2,0,4.4,0,6.6-0.1
				c4.5,0,9.2,0.1,13.8,0.1c13,0,26.3-0.3,38.6-0.3c16.4,0,33.3,0.2,50-0.1c18.4,0.1,40.8,0.1,58.5-0.1c14.3,0.3,29.2-0.1,45.4,0
				c1.7,0,2.8,0.1,4.6,0.1c24.5,0.2,51.7-0.3,71.6-0.1c7.5-0.2,13.8,0,20.8,0c7.5,0,14.4-0.1,21.6-0.1c2.4,0,4.5,0,6.9,0.1
				c7.3,0,14.4-0.1,22.4-0.2c12-0.1,24.7,0.2,38.4,0c10.6,0.1,26.3,0.2,38.4,0c20.5,0.2,41.2-0.1,62.3-0.1c7.1,0,13.6,0.1,20.8,0
				c7.4,0.1,16.3,0,25.4,0c8.9,0,18.3,0,27.6,0c13.3,0,29.9-0.1,39.9,0c4.5,0.4,13.4-0.2,24-0.2c5.6,0.1,4.9,0.2,7.3,0.3
				c5,0,9.8,0,14.6-0.1C663-10.8,667.1-10.7,674.7-10.7z M456.5,156.8c-0.2,0.1,0.1,0.2,0.7,0.3C455.5,157.5,452,156.5,456.5,156.8z
				 M458.1,156.7c6.4,0.4,15.3,0.6,19.9,1.4c1.2,0.1-1.1-0.7,1-0.7c2.7,0.5,5.9,1,10.6,1.4c0.2,0.9-9-0.4-9.5,0.3
				c-3.6-0.4-5.3-0.5-7-0.3c-7.3-0.9-9-0.5-14.5-1.2C460.1,157.3,457.6,157.3,458.1,156.7z"/>
		</g>
	</g>
</g>
</svg>
