<?xml version="1.0" encoding="utf-8"?>
<!-- Generator: Adobe Illustrator 18.1.1, SVG Export Plug-In . SVG Version: 6.00 Build 0)  -->
<!DOCTYPE svg PUBLIC "-//W3C//DTD SVG 1.1//EN" "http://www.w3.org/Graphics/SVG/1.1/DTD/svg11.dtd">
<svg version="1.1" id="Layer_1" xmlns="http://www.w3.org/2000/svg" xmlns:xlink="http://www.w3.org/1999/xlink" x="0px" y="0px"
	 viewBox="-0.3 529.4 640.4 64.2" enable-background="new -0.3 529.4 640.4 64.2" xml:space="preserve">
<g>
	<path fill="#FFFFFF" d="M320.7,530.2c-1.1,0-2.1,0-3.1,0C319,530.2,320,530.2,320.7,530.2z"/>
	<path fill="#FFFFFF" d="M0.9,563c0,0.4,0,0.8-0.2,1.5s-0.3,1.3-0.5,2.4c0.2,0.8,0.6,1.5,1.3,2.1c0.8,0.6,1.8,1.2,2.7,1.6
		c0.5,0.2,0.9,0.3,1.3,0.5c0.4,0.1,0.7,0.2,0.8,0.2c0.3,0.1-0.1-0.2-0.8-0.7c0,0-0.1-0.1-0.2-0.1c-0.1-0.1-0.3-0.1-0.4-0.2
		c-0.3-0.2-0.9-0.5-1.3-0.9c-0.9-0.8-1.4-1.7-1.4-2.7c-0.1-2-0.1-3.9-0.1-3.9c1.6-2.9,2.7,1,3.7,2.2v1.5c0,3.3,3.7,7,31.5,9.1
		l28.8,1.9l-19.3-1.1l33.4,2.2c-6.7-0.2-24.9-1,1.4,0.8c44,2.6,84.8,4.9,129,8.2c15.1,1,30.4,2,45.7,3c7.7,0.5,15.4,1,23.1,1.5
		c3.9,0.2,7.7,0.5,11.8,0.8c1,0.1,2,0.1,3.1,0.2c1,0.1,2.1,0.1,3.1,0.2c2.1,0.1,4.2,0.2,6.4,0.3c8.7,0.3,18.1,0.4,27,0.1
		c4.5-0.1,8.8-0.3,13-0.5c2.1-0.1,4.2-0.2,6.3-0.3c1-0.1,2.1-0.1,3.1-0.2l3-0.2c15.9-1.1,31.9-2.2,48.1-3.3
		c-11.4,0.5,14.1-1-6.6,0.2c3.2-0.2,6.3-0.5,9.6-0.8l25.1-1.7c-22.5,2,30.4-1.8,25.8-1c30.6-2.1,31.5-1.5,64.9-3.7
		c19.2-1.5-21.1,0.9-32.9,1.6c3.1-0.2,7.6-0.5,12.1-0.8c-11.4,0.6-22.5,1.1-26.2,1.1l62.4-4.1c0.9,0.2,2.4,0.2,10.6-0.3
		c7.8-0.2,44.1-3,51.9-3.3c1.1-0.1,2.2-0.2,3.3-0.2c1.1-0.1,2.3-0.2,3.5-0.2c0.5-0.1,1.2-0.1,1.7-0.1c0.5-0.1,1.1-0.1,1.6-0.2
		c0.5-0.1,1-0.1,1.6-0.2c0.5-0.1,1-0.1,1.5-0.2c1-0.1,2-0.2,2.9-0.3c0.9-0.1,1.8-0.2,2.7-0.4c0.4-0.1,0.9-0.1,1.3-0.2l1.2-0.2
		c0.8-0.1,1.6-0.2,2.3-0.4c2.9-0.5,5.1-1.2,6.9-1.7c1.7-0.6,3.2-1.2,4.2-1.7c2.1-1.2,3-2.2,2.9-3.3c0-0.5-0.2-0.9-0.4-1.3
		c-0.3-0.4-0.6-0.8-1-1.2l2.8-4.4c0.2-0.9,0.3-1.7,0.3-2.4c0-0.8-0.2-1.5-0.7-2.2c-0.5-0.7-1.4-1.4-2.5-2c-1.3-0.6-2.9-1.3-5-1.9
		c-1.2-0.2-1.4-0.2-1-0.1c0.3,0.2,0.8,0.5,1.3,0.7c0.3,0.2,0.4,0.4,0,0.3s-1.4-0.4-4.1-1c-1.8-0.5-4.9-1.1-8.5-1.6
		c-0.9-0.1-1.8-0.2-2.7-0.4c-0.9-0.1-1.9-0.2-2.8-0.3c-0.9-0.1-1.9-0.2-2.7-0.3c-0.9-0.1-1.6-0.2-2.4-0.2c-0.7-0.1,1.1,0,3.4,0.2
		c0.5,0.1,1.2,0.1,1.7,0.1c0.5,0.1,1.1,0.1,1.6,0.2c1,0.1,1.9,0.2,2.4,0.2c-2-0.2-4-0.5-6-0.6c-1-0.1-2-0.2-3.1-0.2
		c-1-0.1-2.1-0.2-3.1-0.2c-4-0.3-7.9-0.5-11.7-0.8c-7.5-0.5-14.5-1-21.2-1.6c-13.4-1-25.7-2-38.8-3c-36.1-2.3-85-5.8-106.7-6.9
		l20.7,1.5c-30.5-2-2.1,0.5-35.8-1.9c-25.1-1.8-12-1.2-13.1-1.5c-7.1-0.5-16.6-1.1-25.7-1.7c-4.6-0.3-9-0.6-13-0.8
		c-2-0.1-3.9-0.2-5.6-0.4c-1.7-0.1-3.4-0.2-4.7-0.3c4.2,0.3,5.5,0.3,5.2,0.3c-0.1-0.1-0.6-0.1-1.4-0.1c-0.8-0.1-1.8-0.2-2.8-0.2
		c-1-0.1-2.3-0.2-3.3-0.2c-1.1-0.1-2.1-0.2-2.9-0.2c-1.5-0.1-1.9-0.1,0.2-0.1c-7.3-0.4-13.5-0.6-18.6-0.7c-1.3,0-2.5-0.1-3.7-0.1
		s-2.3,0-3.5,0c-2.2,0.1-4.3,0.1-6.3,0.1c-4,0.1-7.7,0.2-11.9,0.5c-3.6,0.2-7.5,0.5-12.1,0.8c-4.5,0.1-17.6,0.9-23.2,1.1l4.2-0.2
		c-4.8,0.4-6.8,0.7-17.2,1.3c-10.4,0.6,5.1-0.5-2.1-0.1c-32.8,2-37.2,2.7-64.7,4.5c-50.4,3-78,5.8-132.4,9.2
		c19.4-1.2,40-2.4,67.3-4.1L99,544.1c0.1,0,0.1,0,0.2,0l-54.5,3.6c7.8-0.6,14.7-1.1,19.8-1.5c-4.7,0.2-10.7,0.6-16.9,0.9
		c-3.1,0.2-6.2,0.3-9.2,0.5c-0.8,0.1-1.5,0.1-2.2,0.1c-0.7,0.1-1.5,0.1-2.2,0.2s-1.4,0.1-2.1,0.2c-0.7,0.1-1.4,0.1-2,0.2
		c-1.3,0.1-2.4,0.2-3.5,0.3s-2,0.2-2.9,0.3c-0.9,0.1-1.6,0.2-2.3,0.2c-0.6,0.1-1.1,0.1-1.5,0.1c-0.7,0.1-1,0.1-0.5-0.1
		c0.2-0.1,0.6-0.2,1.2-0.2c0.6-0.1,1.4-0.2,2.5-0.4c-6.2,0.7-10.3,1.5-13,2.1c-0.7,0.2-1.3,0.3-1.9,0.5c-0.6,0.2-1,0.3-1.5,0.5
		c-0.4,0.2-0.9,0.3-1.2,0.5c-0.3,0.2-0.7,0.3-0.9,0.4c-2.3,1.1-3.1,2-3.5,3.5c-0.1,0.2-0.2,0.4-0.3,0.6c-0.1,0.2-0.1,0.5-0.1,0.7
		c0,0.5,0,0.9-0.1,1.4c-0.1,0.9-0.2,1.6-0.7,1.7C0.5,561.7,0.8,562.3,0.9,563z M631.1,570.1c-0.1,0.1-0.2,0.1-0.2,0.2
		c-1.4,0.9-3.4,1.6-4.4,2c-2.4,0.5-3.6,0.7-4,0.7C626.4,572.1,629.2,571.1,631.1,570.1z M165.9,539.2c6.2-0.5,5.9-0.3,7.3-0.4
		l18.5-1.3l6.4-0.1c32.2-1.7,48.7-3.7,89.4-6.3c1.1-0.1,1.9-0.2,2.4-0.2c1.3-0.1,3.1-0.1,5.6-0.2c2.9-0.1,6.5-0.3,11.7-0.4
		c5.1-0.1,11.6-0.2,19.7-0.2c-3,0-3.2,0.1-3.7,0.1c-0.3,0-0.6,0.1-1.4,0.1c-0.3,0-0.6,0-1,0c0.8,0,1.6,0,2.4,0
		c1.9,0.1,3.8,0.1,5.8,0.1c1.9,0.1,3.8,0.1,5.8,0.2c0.9,0.1,1.9,0.1,2.7,0.1c0.9,0.1,1.8,0.1,2.6,0.1c3,0.2,5.8,0.3,8.1,0.5
		c-21.7-1.4-40-1.2-59.8,0.3l-132.3,8.8l19.1-1.4C175.9,538.7,153.3,540.2,165.9,539.2z M141.7,541.2c0.4,0,0.1,0.1-0.5,0.1
		l-18.6,1.2C128.2,542.1,134.2,541.7,141.7,541.2z M121.1,580.9l82.7,5.5c-0.2,0-0.3-0.1-0.5-0.1c-36.9-2.3-75.4-4.8-113.8-7.4
		C101.3,579.7,111.9,580.4,121.1,580.9z M4.7,554.9c0.2-0.2,0.4-0.4,0.7-0.6c0.3-0.2,0.7-0.5,1.1-0.7c0.8-0.5,2-0.9,3.2-1.3
		c1.3-0.4,2.5-0.8,3.5-0.9c1-0.2,1.5-0.3,1.4-0.2c0.7-0.2,1.5-0.3,2.3-0.5C9.6,552.2,6.8,554,6,555.8c-0.2-0.1-0.4-0.1-0.5-0.1
		C5.1,555.6,4.6,555.5,4.7,554.9z"/>
	<path fill="#FFFFFF" d="M45.4,576.3c-1.8-0.1-4-0.2-6.3-0.4c-0.5-0.1-1.2-0.1-1.8-0.1c-0.6-0.1-1.2-0.1-1.8-0.1
		c-1.2-0.1-2.4-0.2-3.7-0.3c-0.6-0.1-1.2-0.1-1.8-0.2c-0.6-0.1-1.2-0.1-1.8-0.2c-0.5-0.1-1.2-0.1-1.7-0.2c-0.5-0.1-1-0.1-1.6-0.2
		c-1-0.1-2-0.2-3-0.3c-0.9-0.1-1.7-0.2-2.5-0.3c-0.4-0.1-0.8-0.1-1.1-0.2c-0.3-0.1-0.6-0.1-0.9-0.2c-0.5-0.1-1-0.2-1.5-0.2
		c-0.8-0.1-1.2-0.2-1.2-0.2s0.4,0.1,1.3,0.2c0.4,0.1,0.9,0.2,1.5,0.2c0.5,0.1,1.3,0.2,2.1,0.3c3.1,0.5,7.9,1,13.1,1.5l2,0.2
		c0.7,0.1,1.3,0.1,1.9,0.1c1.3,0.1,2.5,0.2,3.7,0.2c2.4,0.2,4.7,0.3,6.7,0.4c3.9,0.2,6.5,0.4,6.5,0.4l-2.4-0.2
		C51.5,576.7,49,576.5,45.4,576.3z"/>
	<path fill="#FFFFFF" d="M104.1,542.7l-24.9,1.3l1.9,0.2C88.9,543.7,96.2,543.3,104.1,542.7z"/>
</g>
</svg>
