<?xml version="1.0" encoding="utf-8"?>
<!-- Generator: Adobe Illustrator 18.1.1, SVG Export Plug-In . SVG Version: 6.00 Build 0)  -->
<!DOCTYPE svg PUBLIC "-//W3C//DTD SVG 1.1//EN" "http://www.w3.org/Graphics/SVG/1.1/DTD/svg11.dtd">
<svg version="1.1" id="Layer_1" xmlns="http://www.w3.org/2000/svg" xmlns:xlink="http://www.w3.org/1999/xlink" x="0px" y="0px"
	 viewBox="0 0 48.7 26.6" enable-background="new 0 0 48.7 26.6" xml:space="preserve">
<g>
	<path d="M48.7,10.3c0-1.1-0.4-2.1-1.1-2.8c-0.4-0.4-1-0.8-1.9-1.1l0,0l-4.3-1.4c-0.1-0.8-0.4-1.4-0.9-1.9c-1.3-1.3-3.6-1.3-5.7-1.2
		c-1.2,0-2.5,0-3.2-0.3C29,0.4,27.3,0,24.4,0s-4.6,0.4-7.3,1.7C16.4,2,15.2,2,13.9,2c-2,0-4.4-0.1-5.7,1.2C7.7,3.7,7.4,4.3,7.3,5.1
		L3,6.5l0,0C2.1,6.7,1.5,7.1,1.1,7.5C0.4,8.3,0,9.3,0,10.3c0,1.8,1.2,3.7,3.2,4.2l-0.3,9.3h5.3h1.5H39h1.4h5.4l-0.3-9.3
		C47.5,14.1,48.7,12.2,48.7,10.3z M9,6.6c0.4,0.1,0.9,0.2,1.2,0.5c0.4,0.3,0.5,0.6,0.5,0.8c0,0.5-0.2,2.3-0.3,3.8
		c-0.2-1.1-0.6-2.1-1.1-2.9C8.9,8,8.3,7.5,7.7,7.1L9,6.6z M11.6,9.4l2,2.7h-1.8c-0.2,0-0.4,0-0.5,0.1C11.5,11.4,11.6,10.3,11.6,9.4z
		 M22.4,14.2c0.5,0,1,0.4,1,1s-0.4,1-1,1H11.9c-0.5,0-1-0.4-1-1s0.4-1,1-1H22.4z M37.7,15.1c0,0.5-0.4,1-1,1H26.3c-0.5,0-1-0.4-1-1
		s0.4-1,1-1h10.5C37.3,14.2,37.7,14.6,37.7,15.1z M23.9,12.6c-0.4-0.3-1-0.4-1.5-0.4H19l2.1-1.5c1.3-1,1.6-2.9,0.6-4.2l-2.3-3.1
		C19.3,3.2,19.2,3.1,19,3c1.6-0.7,2.9-1,4.8-1V12.6z M16.4,4.4c0.2-0.1,0.4-0.2,0.6-0.2c0.3,0,0.6,0.1,0.8,0.4l2.3,3.1
		c0.3,0.4,0.2,1.1-0.2,1.4l-3.1,2.3c-0.4,0.3-1.1,0.2-1.4-0.2L13.1,8c-0.2-0.2-0.2-0.5-0.2-0.7c0-0.3,0.2-0.5,0.4-0.7L16.4,4.4z
		 M10.7,18.2h27.4c0.1,1.5,0.3,2.8,0.5,3.7H10.2C10.3,21,10.5,19.7,10.7,18.2z M39.4,8.7c-0.6,1-1,2.3-1.2,3.6
		c-0.2-1.5-0.4-3.8-0.4-4.5c0-0.2,0.1-0.5,0.5-0.8c0.4-0.3,0.8-0.4,1.3-0.5l1.5,0.5C40.4,7.5,39.9,8,39.4,8.7z M34.8,4
		c1.6,0,3.5-0.1,4.2,0.7c0.2,0.2,0.4,0.6,0.4,1c-0.7,0.1-1.3,0.3-1.8,0.7c-0.6,0.4-0.9,1-0.9,1.6c0,0.7,0.2,2.8,0.4,4.3
		c-0.1,0-0.3,0-0.4,0H26.3c-0.5,0-1,0.1-1.4,0.4V2c2.3,0,3.7,0.4,5.9,1.5C31.8,4,33.3,4,34.8,4z M13.6,4L12.1,5
		c-0.5,0.4-0.9,0.9-1,1.5c-0.1-0.1-0.2-0.2-0.3-0.2c-0.5-0.3-1-0.5-1.6-0.6c0-0.5,0.2-0.8,0.4-1.1C10.3,3.9,12,3.9,13.6,4z
		 M8.1,21.9H5l0.3-9.2h-1c-1.5,0-2.3-1.2-2.3-2.3c0-0.6,0.2-1.1,0.5-1.4c0.6-0.6,1.7-0.8,3.1-0.5c0.8,0.2,1.5,0.6,2,1.4
		C9.5,12.6,8.7,18.9,8.1,21.9z M44.5,12.7h-1l0.3,9.2h-3.1c-0.6-3-1.3-9.2,0.5-12.1c0.5-0.8,1.1-1.2,2-1.4c1.4-0.3,2.5-0.1,3.1,0.5
		c0.4,0.4,0.5,0.9,0.5,1.4C46.7,11.5,45.9,12.7,44.5,12.7z"/>
	<path d="M44.7,25.1h-4c-0.4,0-0.8,0.3-0.8,0.8s0.3,0.8,0.8,0.8h4c0.4,0,0.8-0.3,0.8-0.8S45.1,25.1,44.7,25.1z"/>
	<path d="M8.2,25.1h-4c-0.4,0-0.8,0.3-0.8,0.8s0.3,0.8,0.8,0.8h4c0.4,0,0.8-0.3,0.8-0.8S8.6,25.1,8.2,25.1z"/>
</g>
</svg>
