<?xml version="1.0" encoding="utf-8"?>
<!-- Generator: Adobe Illustrator 19.0.1, SVG Export Plug-In . SVG Version: 6.00 Build 0)  -->
<!DOCTYPE svg PUBLIC "-//W3C//DTD SVG 1.1//EN" "http://www.w3.org/Graphics/SVG/1.1/DTD/svg11.dtd">
<svg version="1.1" id="Layer_1" xmlns="http://www.w3.org/2000/svg" xmlns:xlink="http://www.w3.org/1999/xlink" x="0px" y="0px"
	 viewBox="-566.2 739.3 55.5 55.2" style="enable-background:new -566.2 739.3 55.5 55.2;" xml:space="preserve">
<style type="text/css">
	.st0{fill:#241F20;}
</style>
<path id="XMLID_213_" class="st0" d="M-532.3,778.2c-0.4,0-0.7-0.3-0.7-0.6l-0.4-2.6c-0.1-0.4,0.2-0.8,0.6-0.9
	c0.4-0.1,0.8,0.2,0.9,0.6l0.4,2.6c0.1,0.4-0.2,0.8-0.6,0.9C-532.3,778.2-532.3,778.2-532.3,778.2z"/>
<path id="XMLID_212_" class="st0" d="M-544.7,778.1h-0.1c-0.4-0.1-0.7-0.4-0.6-0.9l0.4-2.6c0.1-0.4,0.4-0.7,0.9-0.6
	c0.4,0.1,0.7,0.4,0.6,0.9l-0.4,2.6C-544,777.9-544.4,778.1-544.7,778.1z"/>
<path id="XMLID_211_" class="st0" d="M-538.6,777.3c-5.8,0-12.3-6.1-12.3-14.3c0-0.4,0.3-0.8,0.8-0.8s0.8,0.3,0.8,0.8
	c0,7.3,5.7,12.8,10.8,12.8s10.8-5.5,10.8-12.8c0-0.4,0.3-0.8,0.8-0.8s0.8,0.3,0.8,0.8C-526.4,771.2-532.8,777.3-538.6,777.3z"/>
<path id="XMLID_210_" d="M-525.1,751.9h-0.7c-0.2,0-0.4,0-0.6,0.1l0.5,4.6l0.1,1.3v2.9l-0.6,1.7l-0.6,4.6c0.2,0,1.1,0.1,1.3,0.1h0.7
	c2.5,0,4.6-1.9,4.6-4.3v-6.4C-520.5,753.8-522.6,751.9-525.1,751.9z"/>
<path id="XMLID_209_" d="M-523.5,752.2l-1.5-0.2c0,0,0.4-3.8-2.3-6.7c-2.3-2.5-6-3.8-11.2-3.8s-9,1.3-11.3,3.8
	c-2.7,3-2.4,6.7-2.4,6.7l-1.5,0.1c0-0.2-0.3-4.4,2.8-7.8c2.6-2.9,6.8-4.3,12.4-4.3c5.6,0,9.8,1.5,12.3,4.3
	C-523.1,747.8-523.5,752-523.5,752.2z"/>
<path id="XMLID_208_" d="M-550.6,763l-1-2.3v-2.9l0.1-1.3l0.9-4.6c-0.2,0-0.8-0.1-1-0.1h-0.7c-2.5,0-4.6,1.9-4.6,4.3v6.4
	c0,1,0.4,2,1.1,2.7v3.2h3.1v-1.6c0.1,0,0.2,0,0.4,0h0.7c0.2,0,1.5,0,1.7-0.1L-550.6,763z"/>
<path id="XMLID_207_" class="st0" d="M-547.6,773.8c-2.7,0-4.6-0.5-5.7-1.4c-1.7-1.4-1.7-3.5-1.7-4.9c0-0.4,0.3-0.8,0.8-0.8
	s0.8,0.3,0.8,0.8c0,1.5,0.1,2.9,1.1,3.7c1.8,1.5,6.4,1.5,13.9-0.1c0.4-0.1,0.8,0.2,0.9,0.6c0.1,0.4-0.2,0.8-0.6,0.9
	C-542.1,773.4-545.2,773.8-547.6,773.8z"/>
<circle id="XMLID_206_" cx="-540.1" cy="771.9" r="2.7"/>
<path id="XMLID_203_" class="st0" d="M-551.3,758.9c-0.1,0-0.2,0-0.3-0.1c-0.3-0.1-0.4-0.4-0.4-0.7c0.1-0.5,0.6-5.1,1-6.4
	c0.1-0.2,0.1-0.8,0.1-1.3c0.1-1.9,0.2-5,3.1-6c0.6-0.2,1.1-0.4,1.6-0.6c2.4-1,4.2-1.7,7.6-1.7c3.4,0,5.3,0.8,7.6,1.7
	c0.5,0.2,1,0.4,1.6,0.6c2.8,1.1,3,4.2,3.1,6.1c0,0.5,0,1.1,0.1,1.3l0,0c0.5,1.3,1,5.9,1,6.4c0,0.3-0.1,0.6-0.4,0.7s-0.6,0.1-0.8-0.1
	c0,0-1.5-1.4-3.9-2.2c-2.5-0.8-8.2-1-8.3-1c0,0-5.7,0.2-8.2,1c-2.4,0.8-3.9,2.1-3.9,2.2C-550.9,758.8-551.1,758.9-551.3,758.9z
	 M-538.6,743.5c-3.1,0-4.8,0.7-7.1,1.6c-0.5,0.2-1,0.4-1.6,0.6c-1.8,0.7-2,2.5-2.1,4.7c0,0.7-0.1,1.3-0.2,1.7
	c-0.2,0.7-0.5,2.7-0.7,4.4c0.8-0.5,1.8-1,3-1.4c2.7-0.9,8.4-1.1,8.7-1.1c0.3,0,6,0.2,8.7,1.1c1.2,0.4,2.3,0.9,3,1.4
	c-0.2-1.6-0.5-3.7-0.7-4.4l0,0c-0.2-0.4-0.2-1-0.2-1.7c-0.1-2.2-0.3-4-2.1-4.7c-0.6-0.2-1.1-0.4-1.6-0.6
	C-533.9,744.2-535.5,743.5-538.6,743.5z"/>
<path id="XMLID_202_" class="st0" d="M-548.7,757C-548.8,757-548.8,757-548.7,757c-0.3,0-0.5-0.3-0.5-0.6c0.2-1.7,0.6-4.7,0.9-5.7
	c0.1-0.3,0.1-0.8,0.1-1.4c0.1-1.9,0.2-4.8,2.9-5.8c0.3-0.1,0.5,0,0.6,0.3c0.1,0.3,0,0.5-0.3,0.6c-2.1,0.8-2.2,3.2-2.3,4.9
	c0,0.7-0.1,1.3-0.2,1.7c-0.2,0.7-0.6,2.7-0.9,5.5C-548.3,756.8-548.5,757-548.7,757z"/>
<path id="XMLID_201_" class="st0" d="M-528.5,757c-0.2,0-0.5-0.2-0.5-0.4c-0.3-2.8-0.6-4.8-0.9-5.5c-0.1-0.4-0.2-1-0.2-1.7
	c-0.1-1.7-0.2-4.1-2.3-4.9c-0.3-0.1-0.4-0.4-0.3-0.6c0.1-0.3,0.4-0.4,0.6-0.3c2.7,1,2.8,3.9,2.9,5.8c0,0.6,0,1.1,0.1,1.4
	c0.4,1,0.7,4,0.9,5.7C-527.9,756.7-528.1,757-528.5,757C-528.4,757-528.4,757-528.5,757z"/>
<path id="XMLID_200_" d="M-539,742.8l-1.5-0.1c0-0.9,0.8-1.6,1.9-1.6c1.1,0,1.9,0.7,1.9,1.6h-1.5c0,0-0.1-0.1-0.4-0.1
	C-538.9,742.7-539,742.8-539,742.8z"/>
<path id="XMLID_199_" class="st0" d="M-527.1,763.7c-0.9,0-2.1-0.7-3.8-2.1c-3.4-2.9-6.8-3.1-7.7-3.1c0,0,0,0-0.1,0
	c-1.1,0-4.3,0.2-7.7,3.1c-2.2,1.9-3.6,2.5-4.6,1.9c-1.2-0.7-1.3-2.7-1.1-5.5c0-0.4,0.4-0.7,0.8-0.7c0.4,0,0.7,0.4,0.7,0.8
	c-0.3,3.5,0.2,3.9,0.3,4c0.1,0,0.6,0.2,3-1.7c3.8-3.2,7.6-3.5,8.6-3.5c1.1,0,4.9,0.2,8.7,3.5c2.3,2,2.9,1.8,3,1.7
	c0.1-0.1,0.6-0.5,0.3-4c0-0.4,0.3-0.8,0.7-0.8c0.4,0,0.8,0.3,0.8,0.7c0.3,2.8,0.2,4.8-1.1,5.5C-526.5,763.7-526.8,763.7-527.1,763.7
	z"/>
<path id="XMLID_198_" class="st0" d="M-535.9,766.1h-3.1c-0.3,0-0.5-0.2-0.5-0.5v-7.5c0-0.3,0.2-0.5,0.5-0.5s0.5,0.2,0.5,0.5v7h2.6
	c0.3,0,0.5,0.2,0.5,0.5C-535.4,765.9-535.6,766.1-535.9,766.1z"/>
<path id="XMLID_197_" class="st0" d="M-540.7,766.1h-0.9c-0.3,0-0.5-0.2-0.5-0.5c0-0.3,0.2-0.5,0.5-0.5h0.9c0.3,0,0.5,0.2,0.5,0.5
	C-540.2,765.9-540.5,766.1-540.7,766.1z"/>
<path id="XMLID_196_" class="st0" d="M-535.8,770.8c-0.3,0-0.5-0.2-0.5-0.5c0-0.3,0.2-0.5,0.5-0.5c0,0,1.3-0.1,1.8-1
	c0.1-0.2,0.4-0.3,0.7-0.2c0.2,0.1,0.3,0.4,0.2,0.7C-533.9,770.7-535.7,770.8-535.8,770.8L-535.8,770.8z"/>
<path id="XMLID_195_" d="M-529.4,744.2c-0.2,0-0.5-0.1-0.7-0.2c-2.1-1.2-4.9-1.8-8.4-1.8s-6.3,0.6-8.4,1.8c-0.7,0.4-1.6,0.1-2-0.6
	c-0.4-0.7-0.1-1.6,0.6-2c2.6-1.4,5.9-2.1,9.9-2.1s7.3,0.7,9.8,2.2c0.7,0.4,1,1.3,0.6,2C-528.4,744-528.9,744.2-529.4,744.2z"/>
<path id="XMLID_192_" d="M-534,788.2c-0.2,0-0.4-0.1-0.5-0.2c-0.7-0.7-2.9-2.6-4.1-3.1c-0.3-0.1-0.5-0.4-0.5-0.7
	c0-0.3,0.2-0.6,0.5-0.7c0.1,0,4.2-1.8,6-7.5c0.1-0.2,0.2-0.4,0.4-0.5c0.2-0.1,0.5-0.1,0.6,0.1c0.1,0,2,1.2,2.6,3.6
	c0,0.1,0,0.1,0,0.2c0,0.2-0.3,6-4.7,8.7C-533.7,788.2-533.8,788.2-534,788.2z M-536.7,784.2c1.1,0.7,2.2,1.7,2.9,2.3
	c3-2.2,3.4-6.4,3.5-7.1c-0.2-0.9-0.7-1.5-1.1-1.9C-533,781.3-535.3,783.3-536.7,784.2z"/>
<path id="XMLID_189_" d="M-543.1,788.2c-0.1,0-0.3,0-0.4-0.1c-4.4-2.7-4.7-8.5-4.7-8.7c0-0.1,0-0.1,0-0.2c0.6-2.4,2.5-3.5,2.6-3.6
	c0.2-0.1,0.4-0.1,0.6-0.1c0.2,0.1,0.4,0.3,0.4,0.5c1.8,5.7,5.9,7.5,6,7.5c0.3,0.1,0.5,0.4,0.5,0.7c0,0.3-0.2,0.6-0.5,0.7
	c-1.2,0.5-3.4,2.4-4.1,3.1C-542.8,788.2-543,788.2-543.1,788.2z M-546.7,779.4c0.1,0.7,0.5,4.9,3.5,7.1c0.6-0.6,1.8-1.6,2.9-2.3
	c-1.4-0.9-3.8-3-5.2-6.7C-546,777.9-546.5,778.6-546.7,779.4z"/>
<path id="XMLID_188_" d="M-538.5,791.4c-0.4,0-0.8-0.3-0.8-0.8v-4c0-0.4,0.3-0.8,0.8-0.8s0.8,0.3,0.8,0.8v4
	C-537.8,791-538.1,791.4-538.5,791.4z"/>
<path id="XMLID_187_" d="M-511.4,794.5h-54c-0.4,0-0.7-0.3-0.8-0.7c0-0.3-0.1-6.5,2.9-9.3c2.8-2.7,15.1-5.7,15.6-5.9
	c0.4-0.1,0.8,0.1,0.9,0.5c0.1,0.4-0.1,0.8-0.5,0.9c-3.4,0.8-12.8,3.5-15,5.5c-1.9,1.8-2.3,5.8-2.4,7.5h52.5
	c-0.1-1.6-0.4-5.6-2.4-7.5c-2.1-2-11.5-4.6-15-5.5c-0.4-0.1-0.6-0.5-0.5-0.9c0.1-0.4,0.5-0.6,0.9-0.5c0.5,0.1,12.8,3.2,15.6,5.9
	c2.9,2.8,2.9,9,2.9,9.3C-510.6,794.2-511,794.5-511.4,794.5z"/>
<g id="XMLID_180_">
	<path id="XMLID_186_" class="st0" d="M-514.9,785.2c-0.1,0-0.2,0-0.3-0.1c-0.2-0.2-0.2-0.5,0-0.7c0.1-0.2,0.2-0.2,0.2-0.2
		c0.2-0.2,0.5-0.2,0.7,0.1c0.2,0.2,0.2,0.5,0,0.7l-0.1,0.1C-514.6,785.1-514.8,785.2-514.9,785.2z"/>
	<path id="XMLID_182_" class="st0" d="M-517.3,792L-517.3,792c-0.3,0-0.5-0.3-0.5-0.5s0-0.3,0.1-0.5c0-0.3,0.3-0.5,0.6-0.4
		c0.3,0,0.5,0.3,0.4,0.6c0,0.2,0,0.3,0,0.5C-516.8,791.9-517.1,792-517.3,792z M-516.9,789.6L-516.9,789.6c-0.4-0.1-0.5-0.3-0.5-0.6
		c0-0.2,0.1-0.3,0.1-0.5c0.1-0.3,0.3-0.4,0.6-0.4c0.3,0.1,0.4,0.3,0.4,0.6c0,0.2-0.1,0.3-0.1,0.5
		C-516.5,789.5-516.7,789.6-516.9,789.6z M-516.2,787.3c-0.1,0-0.1,0-0.2,0c-0.3-0.1-0.4-0.4-0.3-0.7c0.1-0.2,0.1-0.3,0.2-0.5
		c0.1-0.2,0.4-0.4,0.7-0.2c0.2,0.1,0.4,0.4,0.2,0.7c-0.1,0.1-0.1,0.3-0.2,0.4C-515.8,787.1-516,787.3-516.2,787.3z"/>
	<path id="XMLID_181_" class="st0" d="M-517.4,794.3c-0.3,0-0.5-0.2-0.5-0.5v-0.3c0-0.3,0.2-0.5,0.5-0.5l0,0c0.3,0,0.5,0.2,0.5,0.5
		v0.2C-516.9,794.1-517.1,794.3-517.4,794.3z"/>
</g>
<g id="XMLID_173_">
	<path id="XMLID_179_" class="st0" d="M-562,785.2c-0.1,0-0.3-0.1-0.4-0.2c-0.1-0.1-0.1-0.1-0.1-0.1c-0.2-0.2-0.2-0.5,0-0.7
		c0.2-0.2,0.5-0.2,0.7,0c0,0,0.1,0.1,0.2,0.2c0.2,0.2,0.2,0.5,0,0.7C-561.7,785.1-561.9,785.2-562,785.2z"/>
	<path id="XMLID_175_" class="st0" d="M-559.6,792c-0.3,0-0.5-0.2-0.5-0.5c0-0.2,0-0.3,0-0.5c0-0.3,0.2-0.5,0.4-0.6
		c0.3,0,0.5,0.2,0.6,0.4c0,0.2,0,0.3,0.1,0.5C-559,791.8-559.3,792-559.6,792C-559.5,792-559.6,792-559.6,792z M-559.9,789.6
		c-0.2,0-0.4-0.2-0.5-0.4c0-0.2-0.1-0.3-0.1-0.5c-0.1-0.3,0.1-0.5,0.4-0.6c0.3-0.1,0.5,0.1,0.6,0.4c0,0.2,0.1,0.3,0.1,0.5
		c0.1,0.3-0.1,0.5-0.4,0.6C-559.9,789.6-559.9,789.6-559.9,789.6z M-560.7,787.3c-0.2,0-0.4-0.1-0.5-0.3c-0.1-0.2-0.1-0.3-0.2-0.4
		c-0.1-0.2,0-0.5,0.2-0.7c0.2-0.1,0.5,0,0.7,0.2c0.1,0.1,0.1,0.3,0.2,0.5c0.1,0.3,0,0.5-0.3,0.7
		C-560.6,787.2-560.6,787.3-560.7,787.3z"/>
	<path id="XMLID_174_" class="st0" d="M-559.5,794.3c-0.3,0-0.5-0.2-0.5-0.5v-0.2c0-0.3,0.2-0.5,0.5-0.5s0.5,0.2,0.5,0.5v0.3
		C-559,794.1-559.2,794.3-559.5,794.3z"/>
</g>
<g id="XMLID_161_">
	<path id="XMLID_171_" d="M-542.5,751.3v1.4c-0.3,0.2-0.8,0.4-1.3,0.4c-0.9,0-1.6-0.6-1.6-1.5c0-1,0.7-1.5,1.6-1.5
		c0.5,0,0.9,0.2,1.1,0.4l-0.3,0.5c-0.2-0.2-0.5-0.3-0.8-0.3c-0.5,0-0.8,0.3-0.8,0.8s0.4,0.8,0.9,0.8c0.2,0,0.4,0,0.5-0.1v-0.4h-0.7
		v-0.6h1.4V751.3z"/>
	<path id="XMLID_168_" d="M-540.4,750.1c0.9,0,1.5,0.6,1.5,1.5c0,0.9-0.6,1.5-1.5,1.5c-0.9,0-1.5-0.6-1.5-1.5
		C-541.9,750.7-541.3,750.1-540.4,750.1z M-540.4,752.4c0.5,0,0.8-0.4,0.8-0.8c0-0.5-0.3-0.8-0.8-0.8s-0.8,0.4-0.8,0.8
		C-541.2,752.1-540.9,752.4-540.4,752.4z"/>
	<path id="XMLID_165_" d="M-537,750.1c0.9,0,1.5,0.6,1.5,1.5c0,0.9-0.6,1.5-1.5,1.5c-0.9,0-1.5-0.6-1.5-1.5
		C-538.5,750.7-537.8,750.1-537,750.1z M-537,752.4c0.5,0,0.8-0.4,0.8-0.8c0-0.5-0.3-0.8-0.8-0.8s-0.8,0.4-0.8,0.8
		C-537.8,752.1-537.4,752.4-537,752.4z"/>
	<path id="XMLID_162_" d="M-534.8,750.1h1.3c0.9,0,1.5,0.5,1.5,1.5c0,0.9-0.6,1.5-1.5,1.5h-1.3V750.1z M-534.1,750.8v1.7h0.6
		c0.5,0,0.8-0.3,0.8-0.8s-0.3-0.8-0.8-0.8L-534.1,750.8L-534.1,750.8z"/>
</g>
<g>
	<path d="M-534.7,746.8v-0.1c0,0,0-0.1,0-0.2s0-0.1,0-0.2s0-0.1,0-0.1l0,0l0,0c0,0,0,0,0,0.1l0,0l0,0c0,0,0,0,0,0.1
		c0,0.1,0,0.1,0,0.2C-534.7,746.7-534.7,746.9-534.7,746.8c0,0.3,0,0-0.1-0.1v-0.1c0-0.3,0-0.6-0.4-0.7l-0.3-0.2l0.2,0.1l-0.4-0.2
		c0.1,0,0.3,0.1,0-0.1c-0.5-0.2-1-0.4-1.6-0.7c-0.2-0.1-0.4-0.2-0.6-0.2c-0.1,0-0.2-0.1-0.3-0.1c0,0-0.1,0-0.1-0.1l0,0l0,0h-0.1
		c-0.1,0-0.2,0-0.3,0s-0.1,0-0.2,0h-0.1l0,0l0,0c-0.2,0.1-0.4,0.2-0.6,0.3c0.1,0-0.2,0.1,0.1,0c0,0-0.1,0-0.1,0.1l-0.3,0.1
		c0.3-0.2-0.4,0.1-0.3,0.1c-0.4,0.2-0.4,0.1-0.8,0.3c-0.2,0.1,0.3-0.1,0.4-0.1c0,0-0.1,0-0.1,0.1c0.1,0,0.3-0.1,0.3-0.1l-0.8,0.3
		c0,0,0,0-0.1,0c-0.1,0-0.5,0.2-0.6,0.3l0,0l0,0l0,0l0,0l0,0l0,0l0,0l0,0l0,0l0,0l0,0l-0.1,0.1c0,0,0,0.1-0.1,0.1c0,0.1,0,0.2,0,0.3
		v0.1v0.1v0.4c0,0.1,0,0.1,0,0.2s0,0.1,0,0.2s0,0.1,0,0.2s0,0.1,0.1,0.2l0,0c0,0,0,0,0-0.1l0,0c0,0,0,0,0,0.1l0.1,0.1l0,0l0,0l0,0
		l0,0l0,0l0,0l0,0l0,0c0,0,0,0,0.1,0.1l0,0l0,0c0,0,0.1,0,0.1,0.1c0.1,0,0.2,0.1,0.3,0.1c0.2,0.1,0.3,0.2,0.5,0.2
		c0.4,0.2,1,0.5,1.3,0.6l-0.2-0.1c0.4,0.2,0,0,0.4,0.2c0.3,0.1,0.1,0.1,0.2,0.1c0.1,0,0.2,0.1,0.3,0.1s0.1,0,0.2,0.1c0,0,0,0,0.1,0
		c0,0,0,0,0.1,0c-0.1,0-0.1,0-0.1,0l0,0l0,0l0,0l0,0l0,0c0.1,0,0.2,0,0.2,0.1l0,0l0,0h0.1h0.1c0,0,0.1,0,0.1-0.1
		c0.1,0,0.2-0.1,0.3-0.1h-0.1c0.1,0,0.1-0.1,0.2-0.1c0.1,0-0.1,0,0,0c0.4-0.2,0.5-0.2,0.8-0.4c0.6-0.2,0.9-0.5,1.6-0.7
		c-0.2,0.1-0.5,0.2-0.8,0.3l0.3-0.1l0,0l0.7-0.3c-0.1,0-0.2,0.1-0.2,0.1c0.1,0,0.1,0,0.2-0.1h0.1l0,0l0,0l0,0l0,0l0,0l0,0l0,0l0,0
		l0,0l0,0l0,0c0.1-0.1,0.1-0.1,0.2-0.2l0,0l0,0l0,0l0,0c0-0.1,0-0.2,0-0.3l0,0c0,0,0,0,0-0.1v-0.1c0-0.1,0-0.1,0-0.1
		C-534.7,746.9-534.7,746.9-534.7,746.8z M-542.3,746.2L-542.3,746.2c0-0.1,0-0.1,0.1-0.2v-0.1
		C-542.2,746.1-542.3,746.2-542.3,746.2z M-540,747.8v-0.4l1.2-1.8h0.9v1.7h0.4v0.5h-0.4v0.5h-0.7v-0.5H-540L-540,747.8z
		 M-536.7,748.7C-536.8,748.8-536.8,748.8-536.7,748.7l-0.3,0.1h-0.1c-0.4,0.1-0.6,0.3-1.1,0.5l0,0c0,0,0,0-0.1,0h-0.1
		c-0.1,0-0.1,0-0.2,0l0,0l0,0l0,0l0,0c0,0,0,0-0.1,0c0,0,0,0-0.1,0l0,0l0,0h-0.1c0.3,0.1,0.5,0.1,0.7,0l1.6-0.7l-0.2,0.1
		C-536.8,748.8-536.5,748.7-536.7,748.7z M-536.4,748.6L-536.4,748.6l0.2-0.1C-536.2,748.5-536.3,748.5-536.4,748.6z M-536.1,745.4
		l-1-0.4l0,0c0.4,0.2,0.9,0.4,1.4,0.6C-535.9,745.5-536,745.4-536.1,745.4z M-534.7,747.5C-534.7,747.5-534.7,747.6-534.7,747.5
		c0,0.1,0,0.1-0.1,0.2v0.1l0,0l0,0C-534.7,747.7-534.7,747.5-534.7,747.5L-534.7,747.5C-534.7,747.4-534.7,747.4-534.7,747.5
		L-534.7,747.5z"/>
	<path d="M-538.8,749.5L-538.8,749.5L-538.8,749.5z"/>
	<polygon points="-538.6,746.2 -539.3,747.3 -538.6,747.3 	"/>
</g>
</svg>
