<?xml version="1.0" encoding="utf-8"?>
<!-- Generator: Adobe Illustrator 19.0.1, SVG Export Plug-In . SVG Version: 6.00 Build 0)  -->
<!DOCTYPE svg PUBLIC "-//W3C//DTD SVG 1.1//EN" "http://www.w3.org/Graphics/SVG/1.1/DTD/svg11.dtd">
<svg version="1.1" id="Layer_3" xmlns="http://www.w3.org/2000/svg" xmlns:xlink="http://www.w3.org/1999/xlink" x="0px" y="0px"
	 viewBox="14 289.8 640 426.6" style="enable-background:new 14 289.8 640 426.6;" xml:space="preserve">
<style type="text/css">
	.st0{fill:#079E01;}
	.st1{fill:#167011;}
	.st2{fill:#FFFFFF;}
</style>
<g>
	<path class="st0" d="M336.6,706.1c-1.4,0.1-2.4,0.1-3.1,0.1C334.6,706.2,335.6,706.2,336.6,706.1z"/>
	<path class="st0" d="M647.2,492.9c0-2.6,0-5.4,0.1-9.3c0.1-3.9,0.3-8.8,0.5-15.5c-0.2-4.7-0.6-9.4-1.3-13.6
		c-0.8-4.2-1.7-7.8-2.7-10.4c-0.5-1.3-0.8-2.3-1.2-3c-0.4-0.7-0.6-1.1-0.8-1.2c-0.3-0.1,0.1,1.2,0.8,4.3c0,0,0.1,0.2,0.2,0.6
		c0.1,0.4,0.3,0.9,0.5,1.6c0.3,1.4,0.9,3.4,1.2,5.9c0.9,4.9,1.4,11.4,1.4,17.9c0,12.6,0.1,25.3,0.1,25.3c-1.5,19-2.7-6.5-3.6-14.5
		v-9.6c0-21.5-3.7-45.3-30.9-58.8l-28.2-12.4l18.9,7.2l-32.7-14.4c6.5,1.3,24.3,6.8-1.4-5.3c-43.1-16.7-83.1-32.1-126.5-53.4
		c-14.8-6.6-29.7-13.2-44.8-19.8c-7.5-3.3-15.1-6.6-22.7-10c-3.8-1.7-7.6-3.3-11.6-5c-1-0.4-2-0.8-3-1.1c-1-0.4-2-0.8-3.1-1.1
		c-2.1-0.6-4.2-1.3-6.3-1.8c-8.5-2.2-17.7-2.5-26.5-0.9c-4.4,0.8-8.6,2-12.7,3.5c-2.1,0.7-4.1,1.5-6.1,2.3c-1,0.4-2.1,0.8-3,1.2
		l-2.9,1.3c-15.6,7-31.3,14.2-47.2,21.6c11.2-3.6-13.8,6.8,6.5-1c-3.2,1.7-6.1,3.2-9.4,4.9l-24.6,10.8c22.1-12.9-29.8,11.8-25.3,6.8
		c-30,13.6-30.9,10-63.6,24.3c-18.8,10,20.7-6,32.2-10.3c-3,1.4-7.4,3.2-11.8,5c11.2-3.9,22.1-7,25.7-7l-61.1,26.8
		c-0.9-1.1-2.4-1.7-10.4,1.9c-7.6,1.4-43.2,19.8-50.9,21.2c-1.1,0.5-2.2,1-3.3,1.5c-1.1,0.5-2.3,1.1-3.4,1.7
		c-0.6,0.3-1.1,0.6-1.7,0.9c-0.5,0.3-1.1,0.7-1.6,1c-0.5,0.3-1,0.7-1.6,1c-0.5,0.3-1,0.7-1.5,1.1c-1,0.8-1.9,1.5-2.9,2.3
		c-0.9,0.8-1.8,1.6-2.6,2.5c-0.4,0.4-0.9,0.8-1.3,1.2l-1.1,1.3c-0.7,0.9-1.6,1.7-2.2,2.7c-2.8,3.6-5,7.5-6.8,11.3
		c-1.7,3.9-3.2,7.7-4.1,11.4c-2.1,7.5-2.9,14.5-2.9,20.9c0,3.2,0.2,6,0.4,8.8c0.2,2.7,0.6,5.3,1,7.7l-2.8,28.5
		c-0.2,5.7-0.3,11-0.3,15.9c0,5,0.2,9.7,0.7,14.3c0.5,4.6,1.3,8.9,2.5,13.2c1.2,4.2,2.8,8.3,4.9,12.2c1.2,1.6,1.3,1.3,1,0.3
		c-0.3-1.1-0.8-2.9-1.3-4.4c-0.3-1.5-0.4-2.6,0-2.2c0.4,0.4,1.3,2.4,4,6.7c1.7,3.2,4.8,7.1,8.3,10.4c0.9,0.8,1.7,1.7,2.7,2.4
		c0.9,0.7,1.9,1.4,2.7,2.1c0.9,0.7,1.8,1.3,2.6,1.8c0.8,0.6,1.6,1.1,2.3,1.6c0.7,0.8-1.1,0.1-3.3-1c-0.5-0.3-1.1-0.6-1.7-0.8
		c-0.5-0.3-1.1-0.7-1.6-1c-1-0.6-1.8-1.2-2.3-1.5c2,1.4,3.9,2.9,5.9,4.1c1,0.6,2,1.3,3,1.7c1,0.5,2.1,1,3.1,1.5
		c4,1.8,7.8,3.6,11.5,5.3c7.4,3.5,14.2,6.9,20.8,10.3c13.1,6.7,25.2,13.3,38,19.7c35.2,14.9,83.2,37.5,104.5,44.5l-20.3-9.3
		c29.9,13,2.1-2.8,35.1,12.5c24.6,11.8,11.8,7.4,12.9,9.3c6.9,3.1,16.3,7,25.2,10.7c4.5,1.9,8.8,3.7,12.7,5.5c2,0.9,3.8,1.7,5.5,2.5
		c1.7,0.8,3.3,1.6,4.7,2.4c-4.1-1.8-5.4-2.2-5.1-2c0.1,0.1,0.6,0.4,1.3,0.8c0.7,0.4,1.7,0.9,2.7,1.5c1,0.6,2.2,1.1,3.3,1.6
		c1.1,0.5,2,1,2.8,1.3c1.5,0.6,1.9,0.8-0.2,0.1c7.2,2.8,13.2,3.9,18.3,4.3c1.3,0.1,2.5,0.2,3.7,0.2c1.2,0,2.3,0,3.4-0.1
		c2.2-0.2,4.2-0.3,6.1-0.7c3.9-0.7,7.6-1.7,11.7-3.2c3.5-1.3,7.3-2.9,11.8-5.2c4.4-0.8,17.3-5.5,22.7-7l-4.1,1.1
		c4.7-2.5,6.7-4.3,16.8-8.2c10.2-3.9-5,3.2,2.1,0.7c32.2-12.9,36.4-17.2,63.4-29.4c49.4-19.3,76.5-37.2,129.8-60.1
		c-19,7.5-39.3,15.4-66,26.8l21.5-10.7c-0.1,0-0.1,0-0.1,0l53.4-23.4c-7.6,3.7-14.4,7.1-19.5,9.5c4.6-1.5,10.5-3.7,16.6-6
		c3-1.1,6.1-2.3,9-3.4c0.7-0.3,1.5-0.5,2.2-0.8c0.7-0.3,1.4-0.6,2.1-1c0.7-0.3,1.4-0.6,2.1-0.9c0.7-0.3,1.3-0.6,1.9-1
		c1.2-0.7,2.4-1.3,3.5-1.9c1.1-0.6,2-1.3,2.8-1.8c0.9-0.5,1.6-1,2.2-1.4c0.6-0.4,1.1-0.7,1.4-0.9c0.7-0.4,0.9-0.2,0.5,0.6
		c-0.2,0.4-0.6,1-1.2,1.8c-0.6,0.7-1.4,1.6-2.5,2.6c6.1-4.5,10.1-9.3,12.8-13.6c0.7-1.1,1.2-2.2,1.8-3.2c0.6-1,1-2,1.5-3
		c0.4-1,0.9-1.9,1.2-2.9c0.3-0.9,0.6-1.9,0.9-2.8c2.2-7.2,3-13.5,3.3-23.3c0.1-1.2,0.2-2.6,0.3-4c0.1-1.4,0.1-2.9,0.1-4.4
		c0-2.9,0-6,0-8.8c0-5.7,0.2-10.4,0.7-11.5C647.6,502,647.3,498.1,647.2,492.9z M560.3,389.4c-11.5-4.9-21.9-9.1-30.9-12.7
		l-81.1-35.6c0.2,0.1,0.3,0.1,0.5,0.2C484.9,356.4,522.7,372.6,560.3,389.4z M29.4,446.1c1.3-5.8,3.3-10.4,4.3-13.2
		c2.3-3.5,3.5-4.5,3.9-4.4c-3.9,5.6-6.6,12-8.5,18.6C29.2,446.8,29.3,446.4,29.4,446.1z M485.4,647.9c-6.1,2.9-5.8,2.1-7.1,2.5
		L460,659l-6.2,0.3c-31.5,11.4-47.8,24-87.7,40.8c-1.1,0.7-1.8,1.2-2.3,1.7c-1.3,0.2-3.1,0.6-5.5,1.3c-2.8,0.7-6.4,1.8-11.4,2.7
		c-5,0.9-11.4,1.6-19.3,1c2.9,0.1,3.1-0.1,3.6-0.3c0.3-0.1,0.6-0.2,1.4-0.2c0.3,0,0.6,0,1,0c-0.8,0-1.6,0-2.4,0
		c-1.9-0.2-3.8-0.3-5.7-0.6c-1.9-0.3-3.8-0.8-5.6-1.2c-0.9-0.2-1.8-0.5-2.7-0.8c-0.9-0.3-1.8-0.5-2.6-0.9c-3-1.1-5.7-2.3-7.9-3.5
		c21.1,9.3,39,8,58.4-1.5l129.8-56.9l-18.7,9C475.5,651.1,497.8,641.5,485.4,647.9z M509.2,634.7c-0.4,0.1-0.1-0.1,0.5-0.5l18.3-8
		C522.4,629,516.5,631.9,509.2,634.7z M643.4,546c-0.2,1.2-0.4,2.5-0.7,4c-0.3,1.4-0.7,2.9-1.1,4.4c-0.8,3-2,6.1-3.1,8.7
		c-1.2,2.6-2.4,4.8-3.4,6c-0.9,1.3-1.5,1.8-1.3,1.2c-0.7,1-1.5,2-2.3,3c7.2-9.9,9.9-21.7,10.7-33.2c0.2,0.2,0.4,0.3,0.5,0.5
		C643.1,541.2,643.6,542.3,643.4,546z"/>
	<path class="st0" d="M603.6,407c1.8,0.7,3.9,1.6,6.2,2.6c0.6,0.2,1.1,0.5,1.7,0.7c0.6,0.2,1.2,0.5,1.8,0.8c1.2,0.6,2.4,1.2,3.6,1.9
		c0.6,0.3,1.2,0.7,1.8,1c0.6,0.4,1.1,0.7,1.7,1.1c0.6,0.4,1.1,0.7,1.7,1.1c0.5,0.4,1,0.8,1.6,1.2c1,0.8,2,1.5,2.9,2.3
		c0.9,0.8,1.7,1.6,2.4,2.3c0.4,0.4,0.7,0.7,1.1,1c0.3,0.4,0.6,0.7,0.9,1c0.6,0.6,1,1.2,1.4,1.6c0.8,0.9,1.2,1.5,1.2,1.5
		s-0.4-0.6-1.3-1.6c-0.4-0.5-0.9-1.1-1.5-1.7c-0.6-0.7-1.3-1.4-2.1-2.1c-3.1-3.2-7.8-6.6-12.9-9.4l-1.9-1c-0.6-0.4-1.3-0.7-1.9-0.9
		c-1.3-0.5-2.5-1.1-3.7-1.6c-2.4-1-4.6-2-6.5-2.8c-3.8-1.6-6.4-2.7-6.4-2.7l2.3,1.5C597.6,404.5,600,405.5,603.6,407z"/>
	<path class="st0" d="M546,625.1l24.4-8.9l-1.8-1.4C560.9,618.6,553.8,621.1,546,625.1z"/>
</g>
<path class="st1" d="M395.3,365.9c0-3.9-2.7-8.7-6-10.7l-7.7-4.5V331h-14.6v11.1l-26.4-15.5c-3.4-2-8.9-2-12.3-0.1l-49.2,27.9
	c-3.4,1.9-6.2,6.7-6.2,10.6l-0.1,11.2c0,0,0,0,0,0l-0.4,48.2c-0.1,7,5.6,12.8,12.6,12.8l97,0.8c7,0.1,12.8-5.6,12.8-12.6l0.4-48.2
	l0,0L395.3,365.9z"/>
<g>
	<g>
		<path class="st2" d="M149.3,528.8v15h-20.2v-15H86.3v-13.5l36.3-55.1h26.8v52.5h13.2v16.1H149.3z M129.2,512.7v-33.4l-22.1,33.4
			H129.2z"/>
		<path class="st2" d="M287.2,494.4v39c-7.7,6.3-23.2,11.7-36,11.7c-24.7,0-44.5-16-44.5-42.9c0-27.2,19.8-43.1,44.5-43.1
			c13.5,0,24.5,4.5,32.8,11.2l-9.5,15.6c-6.3-4.9-13.6-7.7-22.9-7.7c-13.4,0-23.6,8.7-23.6,24.1c0,15.1,10.2,23.8,24.5,23.8
			c5.4,0,10.8-1.4,15.1-3.6v-12.3h-20v-15.7H287.2z"/>
		<path class="st2" d="M339.7,459c24.7,0,43.1,18.4,43.1,43.1c0,24.5-18.4,42.9-43.1,42.9c-24.5,0-42.9-18.4-42.9-42.9
			C296.8,477.4,315.3,459,339.7,459z M339.9,525.6c13.5,0,22.7-10.2,22.7-23.5c0-13.5-9.2-23.6-22.7-23.6
			c-13.2,0-22.7,10.1-22.7,23.6C317.1,515.4,326.7,525.6,339.9,525.6z"/>
		<path class="st2" d="M434,459c24.7,0,43.1,18.4,43.1,43.1c0,24.5-18.4,42.9-43.1,42.9c-24.5,0-42.9-18.4-42.9-42.9
			C391.1,477.4,409.5,459,434,459z M434.1,525.6c13.5,0,22.7-10.2,22.7-23.5c0-13.5-9.2-23.6-22.7-23.6c-13.2,0-22.7,10.1-22.7,23.6
			C411.4,515.4,421,525.6,434.1,525.6z"/>
		<path class="st2" d="M488,460.2h37.5c24.7,0.1,43.1,14.7,43.1,41.9c0,26.9-18.4,41.7-43.1,41.7H488V460.2z M508.6,478.1v47.7h16
			c13.5,0,22.7-8.5,22.7-23.7c0-15.5-9.2-24-22.7-24H508.6z"/>
	</g>
</g>
<g>
	<g>
		<path class="st2" d="M199.7,601h-11.5v9.7h-6v-24.3h6v9.4h11.5v-9.4h6v24.3h-6V601z"/>
		<path class="st2" d="M223.5,586c7.2,0,12.6,5.4,12.6,12.6c0,7.1-5.4,12.5-12.6,12.5c-7.1,0-12.5-5.4-12.5-12.5
			C211,591.4,216.3,586,223.5,586z M223.5,605.4c3.9,0,6.6-3,6.6-6.8c0-3.9-2.7-6.9-6.6-6.9c-3.8,0-6.6,2.9-6.6,6.9
			C216.9,602.4,219.7,605.4,223.5,605.4z"/>
		<path class="st2" d="M263,595.8l-7.3,8.8h-1l-7.3-8.8v14.9h-6v-24.3h5.2l8.7,10.2l8.7-10.2h5.2v24.3h-6V595.8z"/>
		<path class="st2" d="M275.7,610.7v-24.3h19.5v5.2h-13.8v4.2h11.2v5h-11.2v4.7h13.8v5.2H275.7z"/>
		<path class="st2" d="M313.9,600.2c-3.8-1-5.6-3.2-5.6-6.6c0-4.2,3.3-7.6,9.9-7.6c3.5,0,6.9,0.9,8.8,1.9l-1.7,5.3
			c-1.9-1.2-4.8-2.1-7.3-2.1c-2.5,0-3.6,0.8-3.6,2c0,1.1,0.7,1.5,2.2,1.9l4.3,1.3c4.5,1.3,6.5,3.4,6.5,6.7c0,4.7-3.9,7.9-10,7.9
			c-3.6,0-7.2-1.2-8.7-2.1l1.4-5.4c1.8,1.3,4.7,2.4,7.4,2.4c2.4,0,3.8-1,3.8-2.3c0-1.1-1.1-1.6-2.8-2.1L313.9,600.2z"/>
		<path class="st2" d="M332.7,610.7v-24.3h19.5v5.2h-13.8v4.2h11.2v5h-11.2v4.7h13.8v5.2H332.7z"/>
		<path class="st2" d="M357.7,586.4h11.6c4.7,0,9.3,2.3,9.3,8c0,3.8-2.7,6.6-6.4,7.3c2.2,2,4.3,4.1,6.6,4.1c0.8,0,1.8-0.1,2.6-0.5
			l0.6,4.7c-1,0.5-2.5,0.9-4.1,0.9c-5.6,0-9.7-6.9-12.8-9.1h-1.3v8.8h-6V586.4z M363.7,591.6v6h5.4c2,0,3.2-1.2,3.2-3
			c0-1.9-1.3-3-3.2-3H363.7z"/>
		<path class="st2" d="M382,586.4h6.6L395,605l6.6-18.6h6.6l-9.4,24.3h-7.6L382,586.4z"/>
		<path class="st2" d="M411.9,586.4h6v24.3h-6V586.4z"/>
		<path class="st2" d="M445.7,607.1c-2.2,2.1-5.9,3.9-10,3.9c-7.2,0-12.6-4.6-12.6-12.5c0-7.9,5.4-12.6,12.6-12.6
			c6.3,0,9.8,3.5,9.9,9.2l-5.5,1.1c0-2.9-1.4-4.8-4.5-4.8c-3.7,0-6.3,2.5-6.3,7c0,4.4,2.6,6.9,6.5,6.9c2.8,0,5.3-1.3,7-2.9
			L445.7,607.1z"/>
		<path class="st2" d="M450.9,610.7v-24.3h19.5v5.2h-13.8v4.2h11.2v5h-11.2v4.7h13.8v5.2H450.9z"/>
		<path class="st2" d="M480.1,600.2c-3.8-1-5.6-3.2-5.6-6.6c0-4.2,3.3-7.6,9.9-7.6c3.5,0,6.9,0.9,8.8,1.9l-1.7,5.3
			c-1.9-1.2-4.8-2.1-7.3-2.1c-2.5,0-3.6,0.8-3.6,2c0,1.1,0.7,1.5,2.2,1.9l4.3,1.3c4.5,1.3,6.5,3.4,6.5,6.7c0,4.7-3.9,7.9-10,7.9
			c-3.6,0-7.2-1.2-8.7-2.1l1.4-5.4c1.8,1.3,4.7,2.4,7.4,2.4c2.4,0,3.8-1,3.8-2.3c0-1.1-1.1-1.6-2.8-2.1L480.1,600.2z"/>
	</g>
</g>
<path class="st2" d="M358.7,369.6h-21.3v37.2h-6.1c-4-0.5-7.9-3.7-11.8-7.3c7.2-1.5,12.4-6.8,12.4-14.3c0-11.1-9-15.6-18.2-15.6
	h-22.5V417H303v-17.1h2.5c6.1,4.2,14,16.8,24.7,17.1v0h0.9c1.1,0,2.2,0,3.1,0h5.5v0h18.9c14,0,24.5-8.4,24.5-23.6
	C383.2,377.9,372.7,369.6,358.7,369.6z M313.6,391.5H303v-11.7h10.6c3.8,0,6.3,2.2,6.3,5.9C319.8,389.1,317.4,391.5,313.6,391.5z
	 M358.2,406.8h-9.1v-27.1h9.1c7.7,0,12.9,4.8,12.9,13.6C371.1,402,365.9,406.8,358.2,406.8z"/>
</svg>
