<?xml version="1.0" encoding="utf-8"?>
<!-- Generator: Adobe Illustrator 18.1.1, SVG Export Plug-In . SVG Version: 6.00 Build 0)  -->
<!DOCTYPE svg PUBLIC "-//W3C//DTD SVG 1.1//EN" "http://www.w3.org/Graphics/SVG/1.1/DTD/svg11.dtd">
<svg version="1.1" xmlns="http://www.w3.org/2000/svg" xmlns:xlink="http://www.w3.org/1999/xlink" x="0px" y="0px"
	 viewBox="0 0 34.5 34.1" enable-background="new 0 0 34.5 34.1" xml:space="preserve">
<g id="Layer_1" display="none">
	<path display="inline" d="M17.1,34.1C7.7,34.1,0,26.5,0,17.1C0,7.7,7.7,0,17.1,0s17.1,7.7,17.1,17.1C34.1,26.5,26.5,34.1,17.1,34.1
		z M17.1,2C8.8,2,2,8.8,2,17.1s6.8,15.1,15.1,15.1s15.1-6.8,15.1-15.1S25.4,2,17.1,2z"/>
	<path display="inline" d="M17.1,24.7c-0.2,0-0.5-0.1-0.7-0.3l-7.7-7.1c-0.4-0.4-0.4-1-0.1-1.4c0.4-0.4,1-0.4,1.4-0.1l6.8,6.3
		L32.7,0.4c0.3-0.4,1-0.5,1.4-0.2c0.4,0.3,0.5,0.9,0.2,1.4L17.9,24.3C17.7,24.5,17.5,24.7,17.1,24.7C17.1,24.7,17.1,24.7,17.1,24.7z
		"/>
</g>
<g id="Layer_2">
	
		<polyline fill="none" stroke="#000000" stroke-width="1.5" stroke-linecap="round" stroke-linejoin="round" stroke-miterlimit="10" points="
		11.3,19.2 15.3,22.9 23.6,10.9 	"/>
	<path d="M17,32.4c-8.6,0-15.5-7-15.5-15.5S8.5,1.3,17,1.3s15.5,7,15.5,15.5S25.6,32.4,17,32.4z M17,3.2C9.5,3.2,3.3,9.3,3.3,16.9
		S9.5,30.6,17,30.6s13.7-6.1,13.7-13.7S24.6,3.2,17,3.2z"/>
	<path d="M15.3,23.8c-0.2,0-0.4-0.1-0.6-0.2l-4-3.7c-0.4-0.3-0.4-0.9-0.1-1.3c0.3-0.4,0.9-0.4,1.3-0.1l3.3,3L23,10.3
		c0.3-0.4,0.9-0.5,1.3-0.2c0.4,0.3,0.5,0.9,0.2,1.3l-8.4,12.1c-0.2,0.2-0.4,0.4-0.6,0.4C15.4,23.8,15.4,23.8,15.3,23.8z"/>
</g>
</svg>
