<?xml version="1.0" encoding="utf-8"?>
<!-- Generator: Adobe Illustrator 19.0.1, SVG Export Plug-In . SVG Version: 6.00 Build 0)  -->
<!DOCTYPE svg PUBLIC "-//W3C//DTD SVG 1.1//EN" "http://www.w3.org/Graphics/SVG/1.1/DTD/svg11.dtd">
<svg version="1.1" id="Layer_1" xmlns="http://www.w3.org/2000/svg" xmlns:xlink="http://www.w3.org/1999/xlink" x="0px" y="0px"
	 viewBox="-530 759.4 79.5 34.2" style="enable-background:new -530 759.4 79.5 34.2;" xml:space="preserve">
<style type="text/css">
	.st0{fill:#FFFFFF;}
	.st1{fill:#72CF3F;}
</style>
<g id="Layer_2">
	<rect x="-505.7" y="760.4" class="st0" width="32.8" height="20.2"/>
	<rect x="-472.2" y="770" class="st0" width="11.7" height="17.7"/>
	<rect x="-465.3" y="778.8" class="st0" width="13" height="8.9"/>
	<rect x="-462.3" y="773.4" class="st0" width="3.4" height="11.9"/>
	<rect x="-462.3" y="776.7" class="st0" width="7.1" height="2.6"/>
	<rect x="-507.3" y="784.2" class="st0" width="5.4" height="3.4"/>
	<circle class="st0" cx="-494.3" cy="788.4" r="3.5"/>
	<ellipse class="st0" cx="-463.5" cy="788.4" rx="4.6" ry="3.5"/>
</g>
<g id="Layer_1_1_">
	<g>
		<g>
			<path class="st1" d="M-494.5,783.6c-2.8,0-5,2.3-5,5c0,2.8,2.3,5,5,5s5-2.3,5-5C-489.5,785.9-491.8,783.6-494.5,783.6z
				 M-494.5,791.7c-1.7,0-3-1.4-3-3s1.4-3,3-3s3,1.4,3,3S-492.9,791.7-494.5,791.7z"/>
			<path class="st1" d="M-477.3,786.6h-9.5c-0.6,0-1,0.4-1,1c0,0.6,0.4,1,1,1h9.5c0.6,0,1-0.4,1-1
				C-476.3,787-476.8,786.6-477.3,786.6z"/>
			<path class="st1" d="M-464.7,779.3h-2.1c-0.3,0-0.5,0.2-0.5,0.5c0,0.3,0.2,0.5,0.5,0.5h2.1c0.3,0,0.5-0.2,0.5-0.5
				C-464.2,779.5-464.4,779.3-464.7,779.3z"/>
			<path class="st1" d="M-477.3,783.2h-10.9c-0.6,0-1,0.4-1,1s0.4,1,1,1h10.9c0.6,0,1-0.4,1-1S-476.8,783.2-477.3,783.2z"/>
			<path class="st1" d="M-451.4,783.2h-0.5v-4.4c0-0.4-0.2-0.7-0.6-0.9l-4.3-2.1l-3.4-6.4c-0.2-0.3-0.5-0.5-0.9-0.5h-10.5v-8.5
				c0-0.6-0.4-1-1-1h-33.2c-0.6,0-1,0.4-1,1v20.5c0,0.6,0.4,1,1,1h32.2v5.7c0,0.6,0.4,1,1,1h4.3l0,0c0,2.8,2.3,5,5,5
				c2.8,0,5-2.3,5-5l0,0h2.7h1.2h2.9c0.6,0,1-0.4,1-1v-3.5C-450.4,783.6-450.9,783.2-451.4,783.2z M-459.2,775.5h-7.1v-4.7h4.6
				L-459.2,775.5z M-473.6,779.9h-31.2v-18.5h31.2V779.9z M-463.3,791.7c-1.7,0-3-1.4-3-3s1.4-3,3-3c1.6,0,3,1.4,3,3
				S-461.6,791.7-463.3,791.7z M-463.3,783.6c-2.1,0-3.8,1.2-4.6,3h-3.7v-15.8h3.3v5.7c0,0.6,0.4,1,1,1h9.6l3.8,1.8v3.8h-1.6
				c-0.6,0-1,0.4-1,1v2.5h-2.1C-459.4,784.9-461.2,783.6-463.3,783.6z M-452.4,786.6h-2.1v-1.5h2.1V786.6z"/>
			<path class="st1" d="M-501.4,783.2h-6.1c-0.6,0-1,0.4-1,1v3.5c0,0.6,0.4,1,1,1h5.1c0.4,0,0.8-0.3,1-0.7l1-3.5
				c0.1-0.3,0-0.6-0.2-0.9C-500.8,783.3-501.1,783.2-501.4,783.2z M-503.1,786.6h-3.4v-1.5h3.8L-503.1,786.6z"/>
			<circle class="st1" cx="-494.5" cy="788.7" r="1"/>
			<circle class="st1" cx="-463.3" cy="788.7" r="1"/>
		</g>
		<g>
			<path class="st1" d="M-510.8,771h-18.7c-0.3,0-0.5-0.2-0.5-0.5s0.2-0.5,0.5-0.5h18.7c0.3,0,0.5,0.2,0.5,0.5
				C-510.3,770.8-510.5,771-510.8,771z"/>
			<g>
				<path class="st1" d="M-510.8,781.1h-6.4c-0.3,0-0.5-0.2-0.5-0.5c0-0.3,0.2-0.5,0.5-0.5h6.4c0.3,0,0.5,0.2,0.5,0.5
					C-510.3,780.9-510.5,781.1-510.8,781.1z"/>
				<path class="st1" d="M-519.8,781.1h-2.8c-0.3,0-0.5-0.2-0.5-0.5c0-0.3,0.2-0.5,0.5-0.5h2.8c0.3,0,0.5,0.2,0.5,0.5
					C-519.3,780.9-519.6,781.1-519.8,781.1z"/>
			</g>
			<g>
				<path class="st1" d="M-510.8,767.6h-4.9c-0.3,0-0.5-0.2-0.5-0.5c0-0.3,0.2-0.5,0.5-0.5h4.9c0.3,0,0.5,0.2,0.5,0.5
					C-510.3,767.4-510.5,767.6-510.8,767.6z"/>
				<path class="st1" d="M-518.4,767.6h-2.8c-0.3,0-0.5-0.2-0.5-0.5c0-0.3,0.2-0.5,0.5-0.5h2.8c0.3,0,0.5,0.2,0.5,0.5
					C-517.9,767.4-518.2,767.6-518.4,767.6z"/>
				<path class="st1" d="M-524.1,767.6h-1.4c-0.3,0-0.5-0.2-0.5-0.5c0-0.3,0.2-0.5,0.5-0.5h1.4c0.3,0,0.5,0.2,0.5,0.5
					C-523.6,767.4-523.8,767.6-524.1,767.6z"/>
			</g>
			<g>
				<path class="st1" d="M-510.8,760.9h-4.9c-0.3,0-0.5-0.2-0.5-0.5s0.2-0.5,0.5-0.5h4.9c0.3,0,0.5,0.2,0.5,0.5
					S-510.5,760.9-510.8,760.9z"/>
				<path class="st1" d="M-518.4,760.9h-1.4c-0.3,0-0.5-0.2-0.5-0.5s0.2-0.5,0.5-0.5h1.4c0.3,0,0.5,0.2,0.5,0.5
					S-518.2,760.9-518.4,760.9z"/>
			</g>
			<g>
				<path class="st1" d="M-510.8,777.7h-4.9c-0.3,0-0.5-0.2-0.5-0.5s0.2-0.5,0.5-0.5h4.9c0.3,0,0.5,0.2,0.5,0.5
					S-510.5,777.7-510.8,777.7z"/>
				<path class="st1" d="M-518.4,777.7h-1.4c-0.3,0-0.5-0.2-0.5-0.5s0.2-0.5,0.5-0.5h1.4c0.3,0,0.5,0.2,0.5,0.5
					S-518.2,777.7-518.4,777.7z"/>
				<path class="st1" d="M-522.5,777.7h-0.7c-0.3,0-0.5-0.2-0.5-0.5s0.2-0.5,0.5-0.5h0.7c0.3,0,0.5,0.2,0.5,0.5
					S-522.3,777.7-522.5,777.7z"/>
			</g>
			<path class="st1" d="M-510.8,764.3h-11.7c-0.3,0-0.5-0.3-0.5-0.5c0-0.2,0.2-0.5,0.5-0.5h11.8c0.3,0,0.5,0.2,0.5,0.5
				C-510.2,764.1-510.5,764.3-510.8,764.3z"/>
			<g>
				<path class="st1" d="M-510.8,774.4h-5.9c-0.3,0-0.5-0.2-0.5-0.5s0.2-0.5,0.5-0.5h5.9c0.3,0,0.5,0.2,0.5,0.5
					S-510.5,774.4-510.8,774.4z"/>
				<path class="st1" d="M-518.9,774.4h-5.9c-0.3,0-0.5-0.2-0.5-0.5s0.2-0.5,0.5-0.5h5.9c0.3,0,0.5,0.2,0.5,0.5
					S-518.6,774.4-518.9,774.4z"/>
			</g>
		</g>
	</g>
</g>
<g id="XMLID_141_">
	<path id="XMLID_151_" class="st1" d="M-490.1,771.6L-490.1,771.6L-490.1,771.6z"/>
	<path id="XMLID_143_" class="st1" d="M-485.4,766.5h0.1l0,0l0,0c0,0,0,0,0.1,0l0,0l0,0l0,0l0,0l0,0l0,0l0,0l0,0l0,0l0,0l0,0l0,0
		l0,0c-0.1-0.1-0.1-0.1-0.2-0.2l0,0l0,0C-485.3,766.5-485.3,766.5-485.4,766.5L-485.4,766.5c-0.1-0.1-0.1-0.1-0.1-0.1l0,0
		C-485.5,766.4-485.5,766.4-485.4,766.5z"/>
	<path id="XMLID_142_" class="st1" d="M-486.4,770.2l0.4-0.2l0,0C-486.2,770.1-486.3,770.1-486.4,770.2z"/>
</g>
<g id="XMLID_129_">
	<path id="XMLID_139_" class="st1" d="M-495.5,774.3v1.9c-0.4,0.3-1.1,0.6-1.8,0.6c-1.2,0-2.2-0.8-2.2-2.1s1-2.1,2.2-2.1
		c0.7,0,1.2,0.2,1.6,0.5l-0.5,0.8c-0.3-0.2-0.7-0.4-1.1-0.4c-0.7,0-1.2,0.4-1.2,1.2c0,0.7,0.5,1.2,1.2,1.2c0.3,0,0.5-0.1,0.7-0.2
		v-0.6h-1v-0.8H-495.5z"/>
	<path id="XMLID_136_" class="st1" d="M-492.6,772.6c1.2,0,2.1,0.9,2.1,2.1s-0.9,2.1-2.1,2.1c-1.2,0-2.1-0.9-2.1-2.1
		C-494.8,773.5-493.9,772.6-492.6,772.6z M-492.6,775.8c0.7,0,1.1-0.5,1.1-1.2c0-0.7-0.5-1.2-1.1-1.2s-1.1,0.5-1.1,1.2
		C-493.8,775.3-493.3,775.8-492.6,775.8z"/>
	<path id="XMLID_133_" class="st1" d="M-487.8,772.6c1.2,0,2.1,0.9,2.1,2.1s-0.9,2.1-2.1,2.1s-2.1-0.9-2.1-2.1
		C-489.9,773.5-489,772.6-487.8,772.6z M-487.8,775.8c0.7,0,1.1-0.5,1.1-1.2c0-0.7-0.5-1.2-1.1-1.2c-0.6,0-1.1,0.5-1.1,1.2
		C-488.9,775.3-488.4,775.8-487.8,775.8z"/>
	<path id="XMLID_130_" class="st1" d="M-484.8,772.6h1.8c1.2,0,2.1,0.7,2.1,2.1c0,1.3-0.9,2-2.1,2h-1.8V772.6z M-483.7,773.5v2.3
		h0.8c0.7,0,1.1-0.4,1.1-1.2c0-0.8-0.5-1.2-1.1-1.2h-0.8V773.5z"/>
</g>
<g>
	<path class="st1" d="M-484.7,767.9c0,0,0-0.1,0-0.2s0-0.2,0-0.3s0-0.2,0-0.2c0-0.1,0-0.1,0-0.2c0,0,0,0,0-0.1l0,0c0,0,0,0,0,0.1
		l0,0l0,0v0.1c0,0.1,0,0.2,0,0.3C-484.7,767.8-484.7,768-484.7,767.9c0,0.4-0.1-0.1-0.1-0.2v-0.2c0-0.4-0.1-0.8-0.5-1l-0.5-0.2
		l0.3,0.1l-0.6-0.2c0.1,0,0.4,0.1,0-0.1c-0.7-0.3-1.4-0.6-2.2-0.9c-0.3-0.1-0.5-0.2-0.8-0.3c-0.1-0.1-0.3-0.1-0.4-0.2
		c-0.1,0-0.1-0.1-0.2-0.1c0,0,0,0-0.1,0c0,0,0,0-0.1,0h-0.1c-0.1,0-0.3,0-0.5,0c-0.1,0-0.1,0-0.2,0.1h-0.1c0,0,0,0-0.1,0h-0.1
		c-0.3,0.1-0.5,0.2-0.8,0.4c0.2-0.1-0.2,0.1,0.1,0c-0.1,0-0.1,0.1-0.2,0.1l-0.4,0.2c0.4-0.2-0.5,0.2-0.4,0.1
		c-0.5,0.2-0.5,0.2-1.1,0.4c-0.3,0.2,0.4-0.1,0.6-0.2c-0.1,0-0.1,0.1-0.2,0.1c0.2-0.1,0.4-0.1,0.4-0.1l-1,0.5c0,0,0,0-0.2,0
		c-0.1,0-0.7,0.3-0.9,0.4c0,0,0,0-0.1,0c0,0,0,0-0.1,0l0,0l0,0l0,0l0,0l0,0l0,0l0,0l0,0l0,0c0,0.1-0.1,0.1-0.1,0.2s-0.1,0.1-0.1,0.2
		s-0.1,0.2-0.1,0.4c0,0.1,0,0.1,0,0.2v0.1v0.5c0,0.1,0,0.2,0,0.3s0,0.2,0,0.2c0,0.1,0,0.2,0,0.2c0,0.1,0,0.1,0.1,0.2l0,0V769l0,0
		c0,0,0,0,0.1,0.1c0,0.1,0.1,0.1,0.1,0.2l0,0l0,0l0,0l0,0c0,0,0,0-0.1,0l0,0l0,0l0,0l0.1,0.1c0,0,0,0,0.1,0c0,0,0,0,0.1,0
		s0.1,0.1,0.2,0.1c0.1,0.1,0.2,0.1,0.4,0.2c0.2,0.1,0.4,0.2,0.6,0.3c0.6,0.3,1.4,0.6,1.8,0.8l-0.3-0.2c0.5,0.2,0,0,0.6,0.2
		c0.4,0.2,0.2,0.1,0.2,0.2c0.1,0.1,0.3,0.1,0.4,0.2c0.1,0,0.2,0.1,0.2,0.1h0.1h0.1c-0.1,0-0.1,0-0.1,0l0,0l0,0c0,0,0,0,0.1,0l0,0
		l0,0c0.1,0,0.2,0.1,0.3,0.1c0,0,0,0,0.1,0c0,0,0,0,0.1,0h0.1c0.1,0,0.1,0,0.2-0.1c0.1,0,0.1,0,0.2-0.1c0.1,0,0.3-0.1,0.4-0.1h-0.1
		c0.1,0,0.1-0.1,0.3-0.1c0.2-0.1-0.1,0.1,0,0c0.6-0.2,0.6-0.3,1.1-0.5c0.8-0.3,1.3-0.6,2.2-1c-0.3,0.1-0.7,0.3-1.1,0.5l0.4-0.2l0,0
		l0.9-0.4c-0.1,0.1-0.2,0.1-0.3,0.2c0.1,0,0.2-0.1,0.3-0.1s0.1,0,0.2-0.1l0,0l0,0l0,0l0,0c0,0,0,0,0.1,0l0,0l0,0l0,0l0,0l0,0l0,0
		c0.1-0.1,0.2-0.2,0.2-0.2s0,0,0-0.1c0,0,0,0,0-0.1l0,0l0,0c0-0.1,0.1-0.2,0.1-0.4c0,0,0,0,0-0.1c0,0,0,0,0-0.1s0-0.1,0-0.2
		s0-0.2,0-0.2C-484.7,768.1-484.7,768-484.7,767.9z M-495.3,767.1L-495.3,767.1c0-0.1,0.1-0.2,0.1-0.2c0-0.1,0.1-0.1,0.1-0.1
		C-495.2,766.9-495.3,767-495.3,767.1z M-492,769.3v-0.6l1.7-2.5h1.2v2.4h0.6v0.7h-0.6v0.7h-0.9v-0.7H-492z M-487.5,770.6
		c-0.1,0-0.1,0-0.1,0l-0.3,0.1h-0.1c-0.5,0.2-0.8,0.4-1.5,0.7l0,0h-0.1c0,0-0.1,0-0.2,0s-0.2,0-0.3,0l0,0l0,0l0,0l0,0h-0.1h-0.1l0,0
		l0,0c-0.1,0-0.1,0-0.1-0.1c0.4,0.2,0.7,0.1,1,0l2.2-1L-487.5,770.6C-487.7,770.6-487.3,770.5-487.5,770.6z M-487.1,770.4
		L-487.1,770.4l0.3-0.1C-486.8,770.3-486.9,770.3-487.1,770.4z M-486.7,765.9l-1.4-0.6l0,0c0.6,0.3,1.3,0.5,1.9,0.8
		C-486.4,766.1-486.6,766-486.7,765.9z M-484.8,768.9C-484.8,768.9-484.8,769-484.8,768.9c0,0.1-0.1,0.2-0.1,0.2s0,0.1-0.1,0.1l0,0
		c0,0,0,0,0,0.1c0.1-0.2,0.2-0.4,0.2-0.6l0,0C-484.8,768.8-484.8,768.8-484.8,768.9L-484.8,768.9z"/>
	<path class="st1" d="M-490.5,771.6L-490.5,771.6L-490.5,771.6z"/>
	<polygon class="st1" points="-490.1,767.1 -491.1,768.6 -490.1,768.6 	"/>
</g>
</svg>
