<?xml version="1.0" encoding="utf-8"?>
<!-- Generator: Adobe Illustrator 19.0.1, SVG Export Plug-In . SVG Version: 6.00 Build 0)  -->
<!DOCTYPE svg PUBLIC "-//W3C//DTD SVG 1.1//EN" "http://www.w3.org/Graphics/SVG/1.1/DTD/svg11.dtd">
<svg version="1.1" id="Layer_1" xmlns="http://www.w3.org/2000/svg" xmlns:xlink="http://www.w3.org/1999/xlink" x="0px" y="0px"
	 viewBox="-266.6 380.2 58 34.2" style="enable-background:new -266.6 380.2 58 34.2;" xml:space="preserve">
<g>
	<path d="M-252.7,404.4c-2.8,0-5,2.3-5,5c0,2.8,2.3,5,5,5c2.7,0,5-2.3,5-5C-247.6,406.7-249.9,404.4-252.7,404.4z M-252.7,412.5
		c-1.7,0-3-1.4-3-3c0-1.6,1.4-3,3-3c1.6,0,3,1.4,3,3C-249.7,411.1-251,412.5-252.7,412.5z"/>
	<path d="M-235.5,407.4h-9.5c-0.6,0-1,0.4-1,1c0,0.6,0.4,1,1,1h9.5c0.6,0,1-0.4,1-1C-234.5,407.8-234.9,407.4-235.5,407.4z"/>
	<path d="M-222.8,400.1h-2.1c-0.3,0-0.5,0.2-0.5,0.5c0,0.3,0.2,0.5,0.5,0.5h2.1c0.3,0,0.5-0.2,0.5-0.5
		C-222.3,400.3-222.5,400.1-222.8,400.1z"/>
	<path d="M-235.5,404h-10.8c-0.6,0-1,0.4-1,1c0,0.6,0.4,1,1,1h10.9c0.6,0,1-0.4,1-1C-234.4,404.4-234.9,404-235.5,404z"/>
	<path d="M-209.6,404h-0.5v-4.4c0-0.4-0.2-0.7-0.6-0.9l-4.3-2.1l-3.4-6.4c-0.2-0.3-0.5-0.5-0.9-0.5h-10.4v-8.5c0-0.6-0.4-1-1-1
		h-33.2c-0.6,0-1,0.4-1,1v20.5c0,0.6,0.4,1,1,1h32.2v5.7c0,0.6,0.4,1,1,1h4.3l0,0c0,2.8,2.3,5,5,5c2.8,0,5-2.3,5-5l0,0h2.7h1.2h2.9
		c0.6,0,1-0.4,1-1v-3.5C-208.6,404.4-209,404-209.6,404z M-217.3,396.3h-7.1v-4.7h4.6L-217.3,396.3z M-231.7,400.7h-31.2v-18.5h31.2
		V400.7z M-221.4,412.5c-1.7,0-3-1.4-3-3c0-1.6,1.4-3,3-3c1.6,0,3,1.4,3,3C-218.4,411.1-219.7,412.5-221.4,412.5z M-221.4,404.4
		c-2.1,0-3.8,1.2-4.6,3h-3.7v-15.8h3.3v5.7c0,0.6,0.4,1,1,1h9.6l3.8,1.8v3.8h-1.6c-0.6,0-1,0.4-1,1v2.5h-2.1
		C-217.6,405.7-219.3,404.4-221.4,404.4z M-210.6,407.4h-2.1v-1.5h2.1V407.4z"/>
	<path d="M-259.5,404h-6.1c-0.6,0-1,0.4-1,1v3.5c0,0.6,0.4,1,1,1h5.1c0.4,0,0.8-0.3,1-0.7l1-3.5c0.1-0.3,0-0.6-0.2-0.9
		C-258.9,404.1-259.2,404-259.5,404z M-261.2,407.4h-3.4v-1.5h3.8L-261.2,407.4z"/>
	<circle cx="-252.7" cy="409.5" r="1"/>
	<circle cx="-221.4" cy="409.5" r="1"/>
</g>
<g id="XMLID_141_">
	<path id="XMLID_151_" d="M-248.1,391.3C-248.1,391.3-248.1,391.3-248.1,391.3C-248.1,391.3-248.1,391.3-248.1,391.3z"/>
	<path id="XMLID_143_" d="M-243.5,386.1c0,0,0.1,0,0.1,0c0,0,0,0,0,0c0,0,0,0,0,0c0,0,0,0,0.1,0c0,0,0,0,0,0c0,0,0,0,0,0
		c0,0,0,0,0,0c0,0,0,0,0,0c0,0,0,0,0,0c0,0,0,0,0,0c0,0,0,0,0,0c0,0,0,0,0,0c0,0,0,0,0,0c0,0,0,0,0,0s0,0,0,0c0,0,0,0,0,0
		c0,0,0,0,0,0c-0.1-0.1-0.1-0.1-0.2-0.2l0,0c0,0,0,0,0,0C-243.3,386.2-243.4,386.2-243.5,386.1
		C-243.4,386.2-243.5,386.1-243.5,386.1c-0.1-0.1-0.1-0.1-0.1-0.1l0,0C-243.6,386.1-243.5,386.1-243.5,386.1z"/>
	<path id="XMLID_142_" d="M-244.5,389.9l0.4-0.2l0,0C-244.2,389.8-244.3,389.8-244.5,389.9z"/>
</g>
<g id="XMLID_129_">
	<path id="XMLID_139_" d="M-253.5,394v1.9c-0.4,0.3-1.1,0.6-1.8,0.6c-1.2,0-2.2-0.8-2.2-2.1c0-1.3,1-2.1,2.2-2.1
		c0.7,0,1.2,0.2,1.6,0.5l-0.5,0.8c-0.3-0.2-0.7-0.4-1.1-0.4c-0.7,0-1.2,0.4-1.2,1.2c0,0.7,0.5,1.2,1.2,1.2c0.3,0,0.5-0.1,0.7-0.2
		v-0.6h-1V394H-253.5z"/>
	<path id="XMLID_136_" d="M-250.7,392.2c1.2,0,2.1,0.9,2.1,2.1c0,1.2-0.9,2.1-2.1,2.1c-1.2,0-2.1-0.9-2.1-2.1
		C-252.8,393.2-251.9,392.2-250.7,392.2z M-250.7,395.5c0.7,0,1.1-0.5,1.1-1.2c0-0.7-0.5-1.2-1.1-1.2c-0.6,0-1.1,0.5-1.1,1.2
		C-251.8,395-251.3,395.5-250.7,395.5z"/>
	<path id="XMLID_133_" d="M-245.8,392.2c1.2,0,2.1,0.9,2.1,2.1c0,1.2-0.9,2.1-2.1,2.1c-1.2,0-2.1-0.9-2.1-2.1
		C-247.9,393.2-247,392.2-245.8,392.2z M-245.8,395.5c0.7,0,1.1-0.5,1.1-1.2c0-0.7-0.5-1.2-1.1-1.2c-0.6,0-1.1,0.5-1.1,1.2
		C-246.9,395-246.4,395.5-245.8,395.5z"/>
	<path id="XMLID_130_" d="M-242.8,392.3h1.8c1.2,0,2.1,0.7,2.1,2.1c0,1.3-0.9,2-2.1,2h-1.8V392.3z M-241.8,393.2v2.3h0.8
		c0.7,0,1.1-0.4,1.1-1.2c0-0.8-0.5-1.2-1.1-1.2H-241.8z"/>
</g>
<g>
	<path d="M-242.7,387.6c0,0,0-0.1,0-0.2c0-0.1,0-0.2,0-0.3c0-0.1,0-0.2,0-0.2c0-0.1,0-0.1,0-0.2c0,0,0,0,0-0.1c0,0,0,0,0,0
		c0,0,0,0,0,0.1c0,0,0,0,0,0c0,0,0,0,0,0c0,0,0,0.1,0,0.1c0,0.1,0,0.2,0,0.3C-242.7,387.5-242.7,387.7-242.7,387.6
		c0,0.4-0.1-0.1-0.1-0.2l0-0.2c0-0.4-0.1-0.8-0.5-1l-0.5-0.2l0.3,0.1l-0.6-0.2c0.1,0,0.4,0.1,0-0.1c-0.7-0.3-1.4-0.6-2.2-0.9
		c-0.3-0.1-0.5-0.2-0.8-0.3c-0.1-0.1-0.3-0.1-0.4-0.2c-0.1,0-0.1-0.1-0.2-0.1c0,0,0,0-0.1,0c0,0,0,0-0.1,0c0,0-0.1,0-0.1,0
		c-0.1,0-0.3,0-0.5,0c-0.1,0-0.1,0-0.2,0.1c0,0-0.1,0-0.1,0c0,0,0,0-0.1,0l-0.1,0c-0.3,0.1-0.5,0.2-0.8,0.4c0.2-0.1-0.2,0.1,0.1,0
		c-0.1,0-0.1,0.1-0.2,0.1l-0.4,0.2c0.4-0.2-0.5,0.2-0.4,0.1c-0.5,0.2-0.5,0.2-1.1,0.4c-0.3,0.2,0.4-0.1,0.6-0.2
		c-0.1,0-0.1,0.1-0.2,0.1c0.2-0.1,0.4-0.1,0.4-0.1l-1,0.5c0,0,0,0-0.2,0c-0.1,0-0.7,0.3-0.9,0.4c0,0,0,0-0.1,0c0,0,0,0-0.1,0
		c0,0,0,0,0,0c0,0,0,0,0,0c0,0,0,0,0,0c0,0,0,0,0,0c0,0,0,0,0,0c0,0,0,0,0,0c0,0,0,0,0,0l0,0c0,0,0,0,0,0c0,0.1-0.1,0.1-0.1,0.2
		c0,0.1-0.1,0.1-0.1,0.2c0,0.1-0.1,0.2-0.1,0.4c0,0.1,0,0.1,0,0.2c0,0,0,0.1,0,0.1l0,0.5c0,0.1,0,0.2,0,0.3c0,0.1,0,0.2,0,0.2
		c0,0.1,0,0.2,0,0.2c0,0.1,0,0.1,0.1,0.2c0,0,0,0,0,0c0,0,0-0.1,0-0.1c0,0,0,0,0,0c0,0,0,0,0.1,0.1c0,0.1,0.1,0.1,0.1,0.2
		c0,0,0,0,0,0c0,0,0,0,0,0c0,0,0,0,0,0c0,0,0,0,0,0c0,0,0,0-0.1,0c0,0,0,0,0,0c0,0,0,0,0,0c0,0,0,0,0,0c0,0,0.1,0.1,0.1,0.1
		c0,0,0,0,0.1,0c0,0,0,0,0.1,0c0.1,0,0.1,0.1,0.2,0.1c0.1,0.1,0.2,0.1,0.4,0.2c0.2,0.1,0.4,0.2,0.6,0.3c0.6,0.3,1.4,0.6,1.8,0.8
		l-0.3-0.2c0.5,0.2,0,0,0.6,0.2c0.4,0.2,0.2,0.1,0.2,0.2c0.1,0.1,0.3,0.1,0.4,0.2c0.1,0,0.2,0.1,0.2,0.1c0,0,0.1,0,0.1,0
		c0,0,0.1,0,0.1,0c-0.1,0-0.1,0-0.1,0c0,0,0,0,0,0c0,0,0,0,0,0c0,0,0,0,0.1,0c0,0,0,0,0,0c0,0,0,0,0,0c0.1,0,0.2,0.1,0.3,0.1
		c0,0,0,0,0.1,0c0,0,0,0,0.1,0c0,0,0.1,0,0.1,0c0.1,0,0.1,0,0.2-0.1c0.1,0,0.1,0,0.2-0.1c0.1,0,0.3-0.1,0.4-0.1l-0.1,0
		c0.1,0,0.1-0.1,0.3-0.1c0.2-0.1-0.1,0.1,0,0c0.6-0.2,0.6-0.3,1.1-0.5c0.8-0.3,1.3-0.6,2.2-1c-0.3,0.1-0.7,0.3-1.1,0.5l0.4-0.2
		c0,0,0,0,0,0l0.9-0.4c-0.1,0.1-0.2,0.1-0.3,0.2c0.1,0,0.2-0.1,0.3-0.1c0.1,0,0.1,0,0.2-0.1c0,0,0,0,0,0c0,0,0,0,0,0c0,0,0,0,0,0
		c0,0,0,0,0,0c0,0,0,0,0.1,0c0,0,0,0,0,0c0,0,0,0,0,0c0,0,0,0,0,0c0,0,0,0,0,0c0,0,0,0,0,0c0,0,0,0,0,0c0.1-0.1,0.2-0.2,0.2-0.2
		c0,0,0,0,0-0.1c0,0,0,0,0-0.1c0,0,0,0,0,0c0,0,0,0,0,0c0-0.1,0.1-0.2,0.1-0.4c0,0,0,0,0-0.1c0,0,0,0,0-0.1c0-0.1,0-0.1,0-0.2
		c0-0.1,0-0.2,0-0.2C-242.7,387.8-242.7,387.7-242.7,387.6z M-253.3,386.8C-253.3,386.8-253.3,386.8-253.3,386.8
		c0-0.1,0.1-0.2,0.1-0.2c0-0.1,0.1-0.1,0.1-0.1C-253.2,386.6-253.3,386.7-253.3,386.8z M-250.1,389v-0.6l1.7-2.5h1.2v2.4h0.6v0.7
		h-0.6v0.7h-0.9V389H-250.1z M-245.5,390.3c-0.1,0-0.1,0-0.1,0l-0.3,0.1l-0.1,0c-0.5,0.2-0.8,0.4-1.5,0.7c0,0,0,0,0,0
		c0,0-0.1,0-0.1,0c0,0-0.1,0-0.2,0c-0.1,0-0.2,0-0.3,0c0,0,0,0,0,0c0,0,0,0,0,0c0,0,0,0,0,0c0,0,0,0,0,0c0,0-0.1,0-0.1,0
		c0,0-0.1,0-0.1,0c0,0,0,0,0,0c0,0,0,0,0,0c-0.1,0-0.1,0-0.1-0.1c0.4,0.2,0.7,0.1,1,0l2.2-1l-0.3,0.2
		C-245.7,390.3-245.3,390.2-245.5,390.3z M-245.1,390C-245.1,390-245.1,390-245.1,390l0.3-0.1C-244.9,389.9-245,390-245.1,390z
		 M-244.7,385.6l-1.4-0.6c0,0,0,0,0,0c0.6,0.3,1.3,0.5,1.9,0.8C-244.4,385.8-244.6,385.7-244.7,385.6z M-242.8,388.6
		C-242.8,388.6-242.8,388.6-242.8,388.6c0,0.1-0.1,0.2-0.1,0.2c0,0,0,0.1-0.1,0.1c0,0,0,0,0,0c0,0,0,0,0,0.1
		c0.1-0.2,0.2-0.4,0.2-0.6c0,0,0,0,0,0C-242.8,388.4-242.8,388.5-242.8,388.6C-242.8,388.6-242.8,388.6-242.8,388.6z"/>
	<path d="M-248.5,391.3C-248.5,391.3-248.5,391.3-248.5,391.3C-248.5,391.3-248.5,391.3-248.5,391.3z"/>
	<polygon points="-248.1,386.8 -249.1,388.3 -248.1,388.3 	"/>
</g>
</svg>
