<?xml version="1.0" encoding="utf-8"?>
<!-- Generator: Adobe Illustrator 19.0.1, SVG Export Plug-In . SVG Version: 6.00 Build 0)  -->
<!DOCTYPE svg PUBLIC "-//W3C//DTD SVG 1.1//EN" "http://www.w3.org/Graphics/SVG/1.1/DTD/svg11.dtd">
<svg version="1.1" id="Layer_1" xmlns="http://www.w3.org/2000/svg" xmlns:xlink="http://www.w3.org/1999/xlink" x="0px" y="0px"
	 viewBox="0 0 252.4 159.4" style="enable-background:new 0 0 252.4 159.4;" xml:space="preserve">
<style type="text/css">
	.st0{fill:#282828;}
	.st1{fill:#FFFFFF;}
	.st2{fill:none;stroke:#282828;stroke-width:2;stroke-linecap:round;stroke-linejoin:round;stroke-miterlimit:10;}
</style>
<g>
	<path class="st0" d="M211.2,133.5c-1.1,0-2-0.9-2-2l-0.4-20.3c0-1.1,0.8-2,1.9-2l15.8-2c0,0,0.1,0,0.1,0c1.1,0,2,0.9,2,2l0.5,21.9
		c0,0.5-0.2,1-0.6,1.4c-0.4,0.4-0.9,0.6-1.4,0.6L211.2,133.5C211.3,133.5,211.2,133.5,211.2,133.5z M226.7,109.2l-15.8,2
		c0,0-0.1,0-0.1,0l0.4,20.3l15.9-0.3L226.7,109.2z"/>
	<path class="st0" d="M159.8,137.2C159.8,137.2,159.8,137.2,159.8,137.2c-4.9,0-9.3-3.9-11.2-9.9c-0.3-0.8,0.2-1.6,1-1.9
		c0.8-0.3,1.6,0.2,1.9,1c1.5,4.7,4.8,7.8,8.3,7.8c0,0,0,0,0.1,0c3.2,0,6.2-2.5,8-6.6c0.3-0.8,1.2-1.1,2-0.8c0.8,0.3,1.1,1.2,0.8,2
		C168.3,134,164.2,137.2,159.8,137.2z"/>
	<path class="st0" d="M159.8,137.2C159.7,137.2,159.7,137.2,159.8,137.2l-7.5-0.1c-4.5,0-8.6-3.4-10.7-8.7c-0.3-0.8,0.1-1.6,0.8-2
		c0.8-0.3,1.6,0.1,2,0.8c1.7,4.2,4.7,6.8,7.9,6.8l7.5,0.1c0.8,0,1.5,0.7,1.5,1.5C161.2,136.6,160.6,137.2,159.8,137.2z"/>
	<path class="st0" d="M48.9,151.5c0,0-0.1,0-0.1,0c-4,0-7.7-2.4-10.3-6.5c-0.4-0.7-0.2-1.6,0.5-2.1c0.7-0.4,1.6-0.2,2.1,0.5
		c2,3.2,4.8,5.1,7.8,5.1c0,0,0,0,0.1,0c3.1,0,6-2,8.1-5.5c0.4-0.7,1.3-0.9,2.1-0.5c0.7,0.4,0.9,1.3,0.5,2.1
		C57,149,53.1,151.5,48.9,151.5z"/>
	<path class="st0" d="M48.1,116.9C48.1,116.9,48.1,116.9,48.1,116.9l-7.4,0c-0.8,0-1.5-0.7-1.5-1.5s0.7-1.5,1.5-1.5c0,0,0,0,0,0
		l7.4,0c0.8,0,1.5,0.7,1.5,1.5S48.9,116.9,48.1,116.9z"/>
	<path class="st0" d="M48.8,151.5C48.8,151.5,48.8,151.5,48.8,151.5l-8.5-0.1c-4.3,0-8.3-2.8-10.8-7.4c-0.4-0.7-0.1-1.6,0.6-2
		c0.7-0.4,1.6-0.1,2,0.6c2,3.7,5,5.8,8.2,5.9l8.4,0.1c0.8,0,1.5,0.7,1.5,1.5C50.3,150.8,49.6,151.5,48.8,151.5z"/>
	<path class="st0" d="M127,120.3c-1.3,0-2.6-0.1-3.7-0.2l-19.2-3.5c-0.8-0.1-1.4-0.9-1.2-1.7c0.1-0.8,0.9-1.3,1.7-1.2l19.2,3.5
		c3.3,0.5,10.2-0.2,10.3-0.2L249.3,104l-1.7-81.4C235.3,20.6,143.9,5,138.4,3.8c-5.1-1.1-10.6-0.8-11.5-0.7
		c-2.6,0.6-42.8,10.6-53.4,13.3c-9.9,2.4-10.3,9.9-10.3,10l0.6,29.3c0,0.8-0.6,1.5-1.5,1.5c0,0,0,0,0,0c-0.8,0-1.5-0.7-1.5-1.5
		l-0.6-29.4c0-0.2,0.1-2.7,1.8-5.5c1.5-2.5,4.6-5.9,10.8-7.4c11-2.7,53.1-13.2,53.6-13.3c0.1,0,0.2,0,0.2,0c0.3,0,6.4-0.5,12.4,0.8
		c5.8,1.2,109.3,18.9,110.4,19c0.7,0.1,1.2,0.7,1.2,1.4l1.7,84c0,0.8-0.6,1.4-1.3,1.5l-116.5,13C134.3,119.9,130.5,120.3,127,120.3z
		"/>
	<path class="st0" d="M123.6,120.1c-0.8,0-1.5-0.7-1.5-1.5l-2.2-106.2c0-0.3-0.2-7,3.3-10.4c1.4-1.4,3.1-2,5.1-1.9
		c0.8,0,1.5,0.7,1.4,1.5c0,0.8-0.7,1.5-1.5,1.4c-1.2,0-2.1,0.3-2.8,1.1c-2.1,2.1-2.4,6.6-2.4,8.2l2.2,106.2
		C125.1,119.4,124.5,120.1,123.6,120.1C123.6,120.1,123.6,120.1,123.6,120.1z"/>
	<path class="st0" d="M134.3,119.4c-0.5,0-1-0.4-1-1l-2.2-105.1c0,0,0-0.1,0-0.1c0-0.1,0.3-3.5,2.9-5.5c1.6-1.2,3.6-1.6,6.1-1.2
		c7.1,1.2,108.2,18.4,109.2,18.6c0.5,0.1,0.9,0.6,0.8,1.2s-0.6,0.9-1.2,0.8c-1-0.2-102.1-17.4-109.2-18.6c-1.9-0.3-3.4,0-4.5,0.8
		c-1.7,1.3-2.1,3.7-2.1,4l2.2,105C135.4,118.9,134.9,119.4,134.3,119.4C134.4,119.4,134.4,119.4,134.3,119.4z"/>
	<path class="st0" d="M61.7,28.6c-0.5,0-0.9-0.3-1-0.8c-0.1-0.5,0.2-1.1,0.7-1.2l59.7-14.1c0.3-0.1,6.8-1.5,11.3-0.2
		c0.5,0.2,0.8,0.7,0.7,1.2c-0.2,0.5-0.7,0.8-1.2,0.7c-4-1.2-10.2,0.2-10.2,0.2L61.9,28.6C61.9,28.6,61.8,28.6,61.7,28.6z"/>
	<path class="st0" d="M134.2,113.8c-0.5,0-0.9-0.4-1-0.9c-0.1-0.5,0.4-1,0.9-1.1l116.5-11.1c0.5-0.1,1,0.4,1.1,0.9
		c0.1,0.5-0.4,1-0.9,1.1L134.2,113.8C134.3,113.8,134.3,113.8,134.2,113.8z"/>
	<path class="st0" d="M123.5,114c-0.1,0-0.1,0-0.2,0l-15.7-2.5c-0.5-0.1-0.9-0.6-0.8-1.1c0.1-0.5,0.6-0.9,1.1-0.8l15.7,2.5
		c0.5,0.1,0.9,0.6,0.8,1.1C124.4,113.7,124,114,123.5,114z"/>
	<g>
		<path class="st1" d="M58.5,131.7l0.6,7.5c6,0.6,17.3-1.1,17.3-1.1c0.5-4.5,4.9-17,10-20.3c5.1-3.4,19.9-2.8,19.9-2.8
			c2.4-10.7-0.1-37.1-0.9-44.2s-3.5-12.2-3.5-12.2s-4.6,0-17.3-0.5C71.9,57.6,70.1,59,68,61.3c-2.1,2.3-9.2,22.3-10.5,30.4
			c-1.3,8,0.8,39.2,0.8,39.2s-0.5,0.8-7.6,0.8s-42.6-6.2-42.6-6.2s-3.1-17.2-0.6-29.2C10.6,81.2,24.9,63,24.9,63s3.4-5.1,15.7-6.3
			s29.1-2,61.2,1.9"/>
		<path class="st0" d="M62.1,140.9c-1.2,0-2.3,0-3.2-0.1c-0.7-0.1-1.3-0.7-1.3-1.4l-0.5-6.5c-1.3,0.2-3.3,0.3-6.3,0.4c0,0,0,0,0,0
			c-7.3,0-41.4-6-42.9-6.3c-0.6-0.1-1.1-0.6-1.2-1.2C6.5,125,3.4,108.1,6,95.9c3.2-15,16.9-32.6,17.7-33.7c0.5-0.7,4.5-5.7,16.8-6.9
			c12.3-1.3,29.2-2,61.5,1.9c0,0,0,0,0.1,0c0.3,0.1,0.6,0.2,0.9,0.5c0.1,0.1,0.1,0.1,0.1,0.2c0,0,0,0,0,0c0,0,0.1,0.1,0.1,0.2
			c0.2,0.4,2.9,5.6,3.7,12.7c0.6,5.5,3.4,33.4,0.9,44.7c-0.2,0.7-0.8,1.2-1.5,1.2c-4-0.2-15.2,0-19.1,2.5
			c-4.3,2.9-8.7,14.5-9.3,19.3c-0.1,0.7-0.6,1.2-1.3,1.3C76.2,139.7,68.3,140.9,62.1,140.9z M60.4,137.8c4.8,0.2,11.9-0.7,14.6-1
			c1-5.3,5.2-16.8,10.4-20.3c4.6-3,15.6-3.1,19.5-3.1c2.1-11.9-0.8-39.3-1.2-42.5c-0.6-5.2-2.2-9.2-3-10.9c-1.9,0-6.9-0.1-16.4-0.5
			c-12.5-0.5-13.8,0.9-15.4,2.7c-1.7,1.8-8.7,21.3-10.1,29.6c-1.3,7.8,0.8,38.6,0.8,38.9c0,0.1,0,0.2,0,0.3c0.1,0.2,0.1,0.4,0.2,0.6
			L60.4,137.8z M9.4,124.1c5.9,1,35,6,41.3,6c0,0,0,0,0,0c3.4,0,5.2-0.2,6-0.3c-0.4-5.8-1.9-31.1-0.7-38.4
			c1.3-8.1,8.5-28.4,10.9-31.1c1.1-1.2,2.2-2.2,4.1-2.8c-13.5-0.6-22.8,0-30.3,0.8c-11.3,1.2-14.6,5.6-14.6,5.7
			C26,64.2,12,82,9,96.5C6.9,106.5,8.8,120.3,9.4,124.1z"/>
	</g>
	<g>
		
			<ellipse transform="matrix(0.9998 -2.076994e-02 2.076994e-02 0.9998 -2.5979 4.4045)" class="st1" cx="210.7" cy="127.3" rx="10.9" ry="15.3"/>
		<path class="st0" d="M210.9,144.1c-6.8,0-12.3-7.3-12.5-16.6c-0.1-4.4,1-8.6,3.2-11.8c2.3-3.4,5.4-5.2,8.8-5.3l0.2,0
			c6.8,0,12.3,7.3,12.5,16.6c0.1,4.4-1,8.6-3.2,11.8c-2.3,3.4-5.4,5.2-8.8,5.3L210.9,144.1z M210.6,113.4l-0.1,0
			c-2.4,0-4.7,1.5-6.4,4c-1.8,2.7-2.8,6.2-2.7,10c0.2,7.5,4.4,13.6,9.5,13.6l0.1,0c2.4,0,4.7-1.5,6.4-4c1.8-2.7,2.8-6.2,2.7-10
			C219.9,119.5,215.7,113.4,210.6,113.4z"/>
	</g>
	<path class="st0" d="M203.4,144.3c-6.7,0-12.3-7.4-12.5-16.6c-0.2-9.3,5.2-17,12-17.1l6.5-0.2c0.8-0.1,1.5,0.6,1.5,1.5
		c0,0.8-0.6,1.5-1.5,1.5l-6.6,0.2c-5.2,0.1-9.2,6.4-9.1,14c0.2,7.6,4.4,13.6,9.5,13.6c0,0,0.1,0,0.1,0l7.5-0.2
		c0.8,0,1.5,0.6,1.5,1.5s-0.6,1.5-1.5,1.5l-7.5,0.2C203.5,144.3,203.5,144.3,203.4,144.3z"/>
	<path class="st0" d="M67.2,103.3c-2.1,0-3.6-0.3-4.5-0.8c-0.3-0.2-0.4-0.4-0.5-0.7c-0.1-0.4-1.6-10.4,0.4-16.7c0.3-0.9,0.6-1.9,1-3
		c3.8-11.9,5.9-17.8,7.3-18.7c1.6-1.1,11.9-1.3,15.8-1.3c4.7,0,8.7,0.2,11.3,0.6c0.4,0.1,0.7,0.3,0.8,0.7c0.1,0.4,2.9,11.1,2.4,22.6
		c0,0.5-0.5,0.9-1,1c-5,0.1-13.1,0.4-14.9,1.2c-1,0.4-4.1,4.3-6.4,7.2c-3.9,4.9-5.7,7.1-7,7.5C70.9,103.1,69,103.3,67.2,103.3z
		 M64.1,101c0.7,0.2,1.8,0.3,3.1,0.3c1.6,0,3.4-0.2,4.5-0.5c0.8-0.3,3.9-4.2,5.9-6.8c3.5-4.5,5.7-7.2,7.2-7.8
		c2.3-1,11.5-1.2,14.6-1.3c0.3-9.3-1.6-18-2.2-20.4c-2.5-0.3-6.2-0.5-10.4-0.5c-7.9,0-13.9,0.6-14.7,1c-1.1,1-4.8,12.2-6.5,17.6
		c-0.4,1.1-0.7,2.1-1,3C62.9,90.8,63.9,98.9,64.1,101z"/>
	<g>
		<path class="st1" d="M87.8,84.6l-5.4,0.1c-1.1,0-2-0.9-2-2L79.9,63c0-1.1,0.9-2,2-2l5.4-0.1c1.1,0,2,0.9,2,2l0.4,19.7
			C89.7,83.7,88.9,84.6,87.8,84.6z"/>
		<path class="st0" d="M82.3,85.7c-1.6,0-3-1.3-3-2.9l-0.4-19.7c0-1.7,1.3-3,2.9-3.1l5.4-0.1c0,0,0,0,0,0c1.7,0,3,1.3,3.1,2.9
			l0.4,19.7c0,0.8-0.3,1.6-0.8,2.1s-1.3,0.9-2.1,0.9L82.3,85.7C82.4,85.7,82.4,85.7,82.3,85.7z M87.3,61.9L81.9,62c-0.6,0-1,0.5-1,1
			l0.4,19.7c0,0.5,0.5,1,1,1v1l0-1l5.4-0.1c0.3,0,0.5-0.1,0.7-0.3c0.2-0.2,0.3-0.4,0.3-0.7l-0.4-19.7C88.3,62.3,87.9,61.9,87.3,61.9
			z"/>
	</g>
	<path class="st0" d="M81.7,100.3c-1.1,0-2-0.9-2-2l-0.1-3.1c0-0.5,0.2-1,0.6-1.4c0.4-0.4,0.9-0.6,1.4-0.6l2.7-0.1h0
		c1.1,0,2,0.9,2,2l0.1,3.1c0,0.5-0.2,1-0.6,1.4c-0.4,0.4-0.9,0.6-1.4,0.6L81.7,100.3C81.7,100.3,81.7,100.3,81.7,100.3z M84.3,95.1
		l-2.7,0.1l0.1,3.1l2.7-0.1L84.3,95.1z"/>
	<path class="st0" d="M82.9,95.1c-0.1,0-0.1,0-0.2,0c-0.5-0.1-0.9-0.6-0.8-1.1l1.5-9.4c0.1-0.5,0.6-0.9,1.1-0.8
		c0.5,0.1,0.9,0.6,0.8,1.1l-1.5,9.4C83.8,94.7,83.4,95.1,82.9,95.1z"/>
	<path class="st0" d="M96.1,107.4c-1.1,0-2-0.9-2-2l-0.1-2.7c0-1.1,0.9-2,2-2l4.8-0.1h0c1.1,0,2,0.9,2,2l0.1,2.7c0,1.1-0.9,2-2,2
		L96.1,107.4C96.1,107.4,96.1,107.4,96.1,107.4z M100.8,102.6l-4.8,0.1l0.1,2.7l0,1l0-1l4.8-0.1L100.8,102.6z"/>
	<path class="st0" d="M102.7,110.4c-0.9,0-1.7-0.8-1.7-1.7c0-0.5,0.2-0.9,0.5-1.2c0.3-0.3,0.8-0.5,1.2-0.5h0c1,0,1.8,0.8,1.8,1.7
		c0,0.5-0.2,0.9-0.5,1.2C103.7,110.2,103.2,110.3,102.7,110.4C102.8,110.4,102.7,110.4,102.7,110.4z"/>
	<path class="st2" d="M45,103.5"/>
	<path class="st0" d="M37.5,102.8L37.5,102.8c-16,0-27.2-1.6-27.3-1.6c-0.5-0.1-0.9-0.6-0.8-1.1c1.8-13.8,12-28.9,13.9-31.4
		c0.1-0.1,0.2-0.3,0.3-0.5c1.6-2.1,5.8-7.8,15.1-8.5c5.9-0.4,12.8-0.5,17.5-0.5c2.9,0,4.7,0,4.7,0c0.3,0,0.7,0.2,0.8,0.5
		c0.2,0.3,0.2,0.7,0,1C56.6,71.5,52.1,91.8,52,92c-0.1,0.4-0.4,0.7-0.9,0.8c0,0-2.8,0.4-4.4,1.1c-0.7,0.4-2,4.2-2.9,8
		c-0.1,0.5-0.5,0.8-1,0.8C41.1,102.8,39.3,102.8,37.5,102.8z M11.5,99.3c3.1,0.4,12.9,1.5,26,1.5h0c1.5,0,3,0,4.6,0
		c0.6-2.8,2-7.8,3.8-8.7c1.3-0.6,3.3-1,4.3-1.2c0.8-3.5,4.6-19.5,9.2-29.6c-0.8,0-1.9,0-3.1,0c-4.7,0-11.5,0.1-17.4,0.5
		c-8.4,0.6-12.2,5.7-13.7,7.6c-0.2,0.2-0.3,0.4-0.4,0.5C24.7,70.1,13.8,84.9,11.5,99.3z"/>
	<path class="st0" d="M47.9,93.2C47.9,93.2,47.9,93.2,47.9,93.2c-1.3,0-31.1-0.8-35.5-1.4c-0.3,0-0.5-0.3-0.4-0.6s0.3-0.5,0.6-0.4
		c4.4,0.6,35,1.3,35.4,1.3c0.3,0,0.5,0.2,0.5,0.5C48.4,93,48.2,93.2,47.9,93.2z"/>
	<path class="st0" d="M10.9,125.9c-0.2,0-0.5-0.2-0.5-0.4c-2.7-16.2-0.8-26-0.8-26.1c0.1-0.3,0.3-0.4,0.6-0.4
		c0.3,0.1,0.4,0.3,0.4,0.6c0,0.1-1.8,9.8,0.8,25.7C11.4,125.5,11.3,125.8,10.9,125.9C11,125.9,10.9,125.9,10.9,125.9z"/>
	<path class="st0" d="M42.3,130.5c-0.3,0-0.5-0.2-0.5-0.5l-0.3-12c0-0.2,0.1-0.4,0.3-0.5c0.2-0.1,5.3-2.8,15.6-3
		c0.3,0,0.5,0.2,0.5,0.5c0,0.3-0.2,0.5-0.5,0.5c-8.8,0.2-13.7,2.2-14.9,2.8l0.2,11.7C42.8,130.3,42.6,130.5,42.3,130.5
		C42.3,130.5,42.3,130.5,42.3,130.5z"/>
	<path class="st0" d="M9.6,115.1c-0.2,0-0.3-0.1-0.4-0.2c-1-1.5-1.8-1.8-1.8-1.8c-0.3-0.1-0.4-0.4-0.3-0.6s0.4-0.4,0.6-0.3
		c0.1,0,1.1,0.4,2.3,2.2c0.2,0.2,0.1,0.5-0.1,0.7C9.8,115.1,9.7,115.1,9.6,115.1z"/>
	<path class="st0" d="M35.1,118.7c-15.8,0-25.6-3.6-25.7-3.6c-0.3-0.1-0.4-0.4-0.3-0.6c0.1-0.3,0.4-0.4,0.6-0.3
		c0.1,0,12.7,4.7,32.3,3.3c0.3,0,0.5,0.2,0.5,0.5c0,0.3-0.2,0.5-0.5,0.5C39.7,118.7,37.3,118.7,35.1,118.7z"/>
	<path class="st0" d="M58.3,115.5c-0.3,0-0.5-0.2-0.5-0.5c0-0.3,0.2-0.5,0.5-0.5l48.6-3.8c0.3,0,0.5,0.2,0.5,0.5
		c0,0.3-0.2,0.5-0.5,0.5L58.3,115.5C58.3,115.5,58.3,115.5,58.3,115.5z"/>
	<g>
		<path class="st1" d="M7.8,124.8c0,0-6.3,0.8-6.3,2.2c0,1.4,0.8,6.3,1.4,7.1c0.6,0.8,22.2,8.3,37.1,10.1c12.3,1.4,19.6-0.7,20-1.2
			s0.1-10.3-0.2-10.9c-0.3-0.7-2.2-1-5.3-0.6c-3.2,0.4-10.8,0.1-12.4-0.2S8.6,125.6,7.8,124.8z"/>
		<path class="st0" d="M48.2,146.2c-2.7,0-5.5-0.2-8.4-0.5c-13.6-1.6-36.9-8.9-38.2-10.7c-1-1.4-1.7-7.1-1.7-8
			c0-0.8-0.1-2.8,7.6-3.7c0.3,0,0.7,0,1,0.2c0.9,0.3,6.4,1.6,31.9,6c0.9,0.2,1.6,0.3,1.8,0.3c0.9,0.2,4.5,0.4,8,0.4
			c1.7,0,3.1-0.1,3.9-0.2c0.9-0.1,1.8-0.2,2.5-0.2c2.3,0,3.8,0.5,4.3,1.6c0.4,0.8,1.1,11.3,0.1,12.6
			C60.2,145.2,54.4,146.2,48.2,146.2z M4.1,133.1c2.8,1.4,22.2,8,36.1,9.6c2.8,0.3,5.4,0.5,8,0.5c5.4,0,9.1-0.7,10.5-1.2
			c0.1-1.9,0-7.4-0.2-9c-0.3-0.1-0.8-0.2-1.6-0.2c-0.6,0-1.4,0.1-2.2,0.2c-1,0.1-2.5,0.2-4.3,0.2c-3.2,0-7.2-0.2-8.6-0.4
			c-0.2,0-0.8-0.1-1.8-0.3c-24.3-4.2-30.5-5.5-32.4-6.1c-1.9,0.3-3.8,0.7-4.6,1.1C3.2,129.1,3.7,132.2,4.1,133.1z"/>
	</g>
	<path class="st0" d="M40.7,90C40.7,90,40.7,90,40.7,90l-10.7-0.2c-0.3,0-0.5-0.2-0.5-0.5c0-0.3,0.2-0.5,0.5-0.5L40.7,89
		c0.3,0,0.5,0.2,0.5,0.5C41.2,89.8,40.9,90,40.7,90z"/>
	<path class="st0" d="M42.9,93.1c-0.1,0-0.2,0-0.3-0.1l-3.3-3c-0.2-0.2-0.2-0.5,0-0.7s0.5-0.2,0.7,0l3.3,3c0.2,0.2,0.2,0.5,0,0.7
		C43.2,93,43.1,93.1,42.9,93.1z"/>
	<path class="st0" d="M25.5,89.8C25.5,89.8,25.5,89.8,25.5,89.8l-10.7-0.2c-0.3,0-0.5-0.2-0.5-0.5c0-0.3,0.2-0.5,0.5-0.5l10.7,0.2
		c0.3,0,0.5,0.2,0.5,0.5C26,89.6,25.8,89.8,25.5,89.8z"/>
	<path class="st0" d="M27.5,92.6c-0.1,0-0.2,0-0.3-0.1l-3-2.8c-0.2-0.2-0.2-0.5,0-0.7c0.2-0.2,0.5-0.2,0.7,0l3,2.8
		c0.2,0.2,0.2,0.5,0,0.7C27.8,92.5,27.6,92.6,27.5,92.6z"/>
	<g>
		<path class="st0" d="M41.9,136.6C41.8,136.6,41.8,136.6,41.9,136.6l-6-0.8c-0.3,0-0.5-0.3-0.4-0.6c0-0.3,0.3-0.5,0.6-0.4l6,0.8
			c0.3,0,0.5,0.3,0.4,0.6C42.3,136.5,42.1,136.6,41.9,136.6z"/>
		<path class="st0" d="M41.9,138.8C41.9,138.8,41.9,138.8,41.9,138.8l-6-0.8c-0.3,0-0.5-0.3-0.4-0.6c0-0.3,0.3-0.5,0.6-0.4l6,0.8
			c0.3,0,0.5,0.3,0.4,0.6C42.4,138.6,42.1,138.8,41.9,138.8z"/>
		<path class="st0" d="M41.9,140.9C41.9,140.9,41.9,140.9,41.9,140.9l-6-0.8c-0.3,0-0.5-0.3-0.4-0.6c0-0.3,0.3-0.5,0.6-0.4l6,0.8
			c0.3,0,0.5,0.3,0.4,0.6C42.4,140.7,42.2,140.9,41.9,140.9z"/>
	</g>
	<path class="st0" d="M31.5,139.1c-0.2,0-0.3,0-0.5-0.1l-3.1-0.7c-0.5-0.1-1.1-0.5-1.2-1.6l-0.1-1.6c-0.1-0.4,0-0.8,0.3-1.1
		c0.3-0.4,0.8-0.5,1.3-0.4l3.2,0.7c0.9,0.2,1.1,0.7,1.3,1.5l0.2,1.9c0,0.4-0.1,0.8-0.4,1C32.3,138.9,32,139.1,31.5,139.1z
		 M27.9,134.6c-0.1,0-0.2,0-0.3,0.1c-0.1,0.1-0.1,0.2-0.1,0.3l0.1,1.7c0,0.7,0.3,0.7,0.4,0.7l3.1,0.7c0.2,0.1,0.4,0.1,0.5,0
		c0,0,0.1-0.1,0.1-0.2l-0.2-1.9c-0.1-0.6-0.1-0.6-0.5-0.7L27.9,134.6C28,134.6,27.9,134.6,27.9,134.6z"/>
	<path class="st0" d="M12,133.9c-0.1,0-0.3,0-0.5-0.1l-2.6-0.6c-0.4-0.1-1-0.4-1-1.5l-0.1-1.4c-0.1-0.3,0-0.7,0.2-1
		c0.3-0.3,0.7-0.5,1.2-0.4l2.7,0.6c0.8,0.2,1,0.6,1.1,1.4l0.2,1.6c0,0.4-0.1,0.7-0.3,0.9C12.7,133.7,12.4,133.9,12,133.9z M8.9,130
		c-0.1,0-0.1,0-0.2,0.1c0,0,0,0.1,0,0.2l0.1,1.4c0,0.5,0.2,0.5,0.3,0.6l2.6,0.6c0.2,0.1,0.3,0,0.4,0c0,0,0-0.1,0-0.1l-0.1-1.6
		c-0.1-0.4-0.1-0.4-0.4-0.5L8.9,130C9,130,9,130,8.9,130z"/>
	<path class="st0" d="M22.9,141.8c-0.2,0-0.5,0-0.8-0.1l-5.4-1.2c-1-0.2-1.6-1.3-1.6-3.1l-0.3-4.5c0-0.7,0.2-1.3,0.6-1.7
		c0.5-0.6,1.4-0.8,2.1-0.6l4.9,1.1c1.6,0.4,2,1.5,2.1,3.1L25,140c0,0,0,0.1,0,0.1C24.7,141.2,24,141.8,22.9,141.8z M17.2,131.5
		c-0.4,0-0.7,0.1-1,0.4c-0.2,0.2-0.4,0.6-0.3,1l0.3,4.5c0,0.9,0.1,2,0.8,2.1l5.4,1.2c0.9,0.2,1.4,0,1.6-0.7l-0.3-5.1
		c-0.1-1.5-0.4-2-1.4-2.2l-4.9-1.1C17.4,131.5,17.3,131.5,17.2,131.5z"/>
	<path class="st0" d="M30.2,125.4c0,0-0.1,0-0.1,0l-10.6-1.6c-0.4-0.1-0.7-0.4-0.6-0.9c0.1-0.4,0.4-0.7,0.9-0.6l10.6,1.6
		c0.4,0.1,0.7,0.4,0.6,0.9C30.9,125.2,30.6,125.4,30.2,125.4z"/>
	<path class="st0" d="M30.2,122.3c0,0-0.1,0-0.1,0l-10.6-1.6c-0.4-0.1-0.7-0.4-0.6-0.9c0.1-0.4,0.4-0.7,0.9-0.6l10.6,1.6
		c0.4,0.1,0.7,0.4,0.6,0.9C30.8,122.1,30.5,122.3,30.2,122.3z"/>
	<path class="st0" d="M38,126.6C37.9,126.6,37.9,126.6,38,126.6l-4.2-0.5c-0.4-0.1-0.7-0.4-0.7-0.8c0.1-0.4,0.4-0.7,0.8-0.7l4.1,0.5
		c0.4,0.1,0.7,0.4,0.7,0.8C38.6,126.3,38.3,126.6,38,126.6z"/>
	<path class="st0" d="M37.9,123.5C37.9,123.5,37.9,123.5,37.9,123.5l-4.2-0.5c-0.4-0.1-0.7-0.4-0.7-0.8c0.1-0.4,0.4-0.7,0.8-0.7
		L38,122c0.4,0.1,0.7,0.4,0.7,0.8C38.6,123.2,38.3,123.5,37.9,123.5z"/>
	<path class="st0" d="M16.7,123.2c0,0-0.1,0-0.1,0l-2.3-0.4c-0.4-0.1-0.7-0.5-0.6-0.9s0.5-0.7,0.9-0.6l2.3,0.4
		c0.4,0.1,0.7,0.5,0.6,0.9C17.4,123,17.1,123.2,16.7,123.2z"/>
	<path class="st0" d="M16.7,120.1c0,0-0.1,0-0.1,0l-2.3-0.4c-0.4-0.1-0.7-0.5-0.6-0.9c0.1-0.4,0.5-0.7,0.9-0.6l2.3,0.4
		c0.4,0.1,0.7,0.5,0.6,0.9C17.4,119.9,17.1,120.1,16.7,120.1z"/>
	<path class="st0" d="M103.2,134c-0.7,0-1.4-0.6-1.5-1.3c-0.1-0.8,0.5-1.6,1.3-1.7l78.5-9.4l-0.2-8.6c0-0.8,0.6-1.5,1.5-1.5
		c0.8,0,1.5,0.6,1.5,1.5l0.2,10c0,0.8-0.6,1.4-1.3,1.5l-79.8,9.5C103.3,134,103.3,134,103.2,134z"/>
	<path class="st0" d="M210.8,136.9c-3.9,0-7.1-4.2-7.2-9.5c-0.1-2.5,0.6-4.9,1.8-6.7c1.3-1.9,3.1-3,5.1-3.1c0,0,0.1,0,0.1,0
		c3.9,0,7.1,4.2,7.2,9.5c0.1,2.5-0.6,4.9-1.8,6.7c-1.3,1.9-3.1,3-5.1,3.1C210.9,136.9,210.8,136.9,210.8,136.9z M210.7,119.6
		c-1.4,0-2.6,0.8-3.5,2.2c-1,1.5-1.5,3.5-1.5,5.6c0.1,4.1,2.4,7.5,5.2,7.5v1l0.1-1c1.3,0,2.5-0.8,3.5-2.2c1-1.5,1.5-3.5,1.5-5.6
		C215.8,123,213.4,119.6,210.7,119.6z"/>
	<path class="st0" d="M207.6,135.5c-0.3,0-0.5-0.1-0.7-0.3c-0.4-0.4-0.4-1,0-1.4c1.5-1.5,2.3-3.9,2.2-6.5c-0.1-2.7-1-5.1-2.6-6.5
		c-0.4-0.4-0.5-1-0.1-1.4c0.4-0.4,1-0.5,1.4-0.1c2,1.7,3.2,4.7,3.3,7.9c0.1,3.1-1,6.1-2.8,7.9C208.1,135.4,207.9,135.5,207.6,135.5z
		"/>
	<g>
		<path class="st0" d="M91.7,159.4c-0.2,0-0.5,0-0.7,0c-3.8-0.3-7.1-2.5-9.4-6.4c-2.2-3.7-3.3-8.4-2.9-13.3
			c0.7-10.3,7.4-18.3,15-17.8c3.8,0.3,7.1,2.5,9.4,6.4c2.2,3.7,3.3,8.4,2.9,13.3C105.3,151.5,99,159.4,91.7,159.4z M92.9,124.9
			c-5.6,0-10.7,6.7-11.3,15c-0.3,4.3,0.6,8.4,2.5,11.5c1.8,3,4.3,4.7,7.1,4.9c5.9,0.4,11.2-6.5,11.8-15c0.3-4.3-0.6-8.4-2.5-11.5
			c-1.8-3-4.3-4.7-7.1-4.9C93.2,124.9,93,124.9,92.9,124.9z"/>
		<path class="st0" d="M92.4,124.8C92.4,124.8,92.4,124.8,92.4,124.8l-7.5-0.5c-0.9-0.1-1.8,0-2.7,0.3c-0.8,0.2-1.6-0.2-1.9-1
			c-0.2-0.8,0.2-1.6,1-1.9c1.2-0.4,2.5-0.5,3.8-0.4l7.4,0.4c0.8,0,1.5,0.8,1.4,1.6C93.9,124.2,93.2,124.8,92.4,124.8z"/>
		<path class="st0" d="M91.1,159.3c0,0-0.1,0-0.1,0l-8.4-0.6c-3.8-0.3-7.1-2.5-9.4-6.4c-2.2-3.7-3.3-8.4-2.9-13.3
			c0.1-0.8,0.8-1.5,1.6-1.4c0.8,0.1,1.5,0.8,1.4,1.6c-0.3,4.3,0.6,8.4,2.5,11.5c1.8,3,4.3,4.7,7.1,4.9l8.4,0.6
			c0.8,0.1,1.5,0.8,1.4,1.6C92.5,158.7,91.9,159.3,91.1,159.3z"/>
		<path class="st0" d="M91.9,152.4c-0.1,0-0.3,0-0.4,0c-4.5-0.3-7.8-5.6-7.4-11.7c0.4-6.1,4.4-10.9,9-10.6c2.3,0.2,4.3,1.5,5.7,3.8
			c1.3,2.2,2,5,1.8,7.9C100,147.7,96.3,152.4,91.9,152.4z M92.6,132c-3.3,0-6.2,3.9-6.5,8.8c-0.3,5.1,2.1,9.4,5.6,9.6
			c3.4,0.2,6.5-3.8,6.8-8.7c0.2-2.5-0.3-4.9-1.5-6.8c-1.1-1.7-2.5-2.7-4.1-2.9C92.8,132,92.7,132,92.6,132z"/>
		<path class="st0" d="M94.2,145.5c-0.1,0-0.1,0-0.2,0c-0.9-0.1-1.7-0.6-2.2-1.4c-0.5-0.7-0.7-1.7-0.6-2.7c0.1-2.2,1.6-3.8,3.3-3.7
			c1.7,0.1,2.9,1.9,2.8,4.1C97.2,143.9,95.8,145.5,94.2,145.5z M94.4,139.7c-0.5,0-1.1,0.8-1.2,1.8c0,0.6,0.1,1.1,0.3,1.5
			c0.1,0.1,0.3,0.4,0.6,0.5l0,0c0.5,0,1.1-0.8,1.1-1.8C95.4,140.6,94.9,139.7,94.4,139.7L94.4,139.7z"/>
	</g>
	<path class="st0" d="M192.4,131.1c0,0-0.1,0-0.1,0l-34.9-3.4c-0.8-0.1-1.4-0.8-1.3-1.6c0.1-0.8,0.8-1.4,1.6-1.3l34.9,3.4
		c0.8,0.1,1.4,0.8,1.3,1.6C193.8,130.6,193.2,131.1,192.4,131.1z"/>
	<path class="st0" d="M192.8,122.6c0,0-0.1,0-0.1,0l-9.8-1c-0.8-0.1-1.4-0.8-1.3-1.6c0.1-0.8,0.8-1.4,1.6-1.3l9.8,1
		c0.8,0.1,1.4,0.8,1.3,1.6C194.2,122,193.6,122.6,192.8,122.6z"/>
	<g>
		<path class="st1" d="M117.5,135.7l-3.5,0.1c-0.5,0-1-0.4-1-1l-0.1-6.3c0-0.5,0.4-1,1-1l3.5-0.1c0.5,0,1,0.4,1,1l0.1,6.3
			C118.4,135.2,118,135.6,117.5,135.7z"/>
		<path class="st0" d="M113.9,136.7c-1.1,0-2-0.9-2-2l-0.1-6.3c0-0.5,0.2-1,0.6-1.4c0.4-0.4,0.9-0.6,1.4-0.6l3.5-0.1h0
			c1.1,0,2,0.9,2,2l0.1,6.3c0,1.1-0.9,2-2,2L113.9,136.7C114,136.7,113.9,136.7,113.9,136.7z M117.3,128.4l-3.5,0.1l0.1,6.3l0,1l0-1
			l3.5-0.1L117.3,128.4z"/>
	</g>
	<path class="st0" d="M54.2,141.1c-0.8,0-1.5-0.7-1.5-1.5l0-0.6c0-0.4,0.1-0.8,0.4-1.1c0.3-0.3,0.7-0.5,1.1-0.5l1.2,0c0,0,0,0,0,0
		c0.8,0,1.5,0.7,1.5,1.5l0,0.6c0,0.8-0.6,1.5-1.5,1.5L54.2,141.1C54.3,141.1,54.2,141.1,54.2,141.1z M55.4,138.5l-1.2,0
		c-0.1,0-0.3,0.1-0.3,0.2c-0.1,0.1-0.1,0.2-0.1,0.4l0,0.6c0,0.3,0.2,0.5,0.5,0.5v0.5l0-0.5l1.2,0c0.3,0,0.5-0.2,0.5-0.5l0-0.6
		C55.9,138.7,55.7,138.5,55.4,138.5z"/>
	<path class="st0" d="M249.3,125c0,0-0.1,0-0.1,0l-20.1-1.5c-0.8-0.1-1.4-0.8-1.4-1.6c0.1-0.8,0.8-1.4,1.6-1.4l19.5,1.4v-2.3
		l-19.7-1.5c-0.8-0.1-1.4-0.8-1.4-1.6c0.1-0.8,0.8-1.5,1.6-1.4l20.1,1.5c1.3,0,2.4,1.1,2.4,2.5v3.3C251.8,123.8,250.7,125,249.3,125
		z"/>
	<path class="st0" d="M231.2,118.4c-0.8,0-1.5-0.7-1.5-1.5v-9.3c0-0.8,0.7-1.5,1.5-1.5s1.5,0.7,1.5,1.5v9.3
		C232.7,117.7,232,118.4,231.2,118.4z"/>
</g>
</svg>
