<?xml version="1.0" encoding="utf-8"?>
<!-- Generator: Adobe Illustrator 19.0.1, SVG Export Plug-In . SVG Version: 6.00 Build 0)  -->
<!DOCTYPE svg PUBLIC "-//W3C//DTD SVG 1.1//EN" "http://www.w3.org/Graphics/SVG/1.1/DTD/svg11.dtd">
<svg version="1.1" id="Layer_1" xmlns="http://www.w3.org/2000/svg" xmlns:xlink="http://www.w3.org/1999/xlink" x="0px" y="0px"
	 viewBox="28 473.2 640 426.6" style="enable-background:new 28 473.2 640 426.6;" xml:space="preserve">
<style type="text/css">
	.st0{fill:#079E01;}
	.st1{display:none;}
	.st2{display:inline;fill:#52A02F;}
	.st3{fill:#167011;}
	.st4{fill:#FFFFFF;}
</style>
<g>
	<path class="st0" d="M347.1,893.9c1.1,0,2.2,0,3.1,0C348.9,893.9,347.8,893.6,347.1,893.9z"/>
	<path class="st0" d="M667.1,676.3c0-2.7,0-5.5,0.2-9.5s0.2-9.1,0.7-15.7c-0.2-4.9-0.7-9.5-1.3-13.9c-0.9-4.2-1.8-8-2.7-10.6
		c-0.4-1.3-0.9-2.4-1.3-3.1s-0.7-1.1-0.7-1.1c-0.2,0,0.2,1.1,0.9,4.4c0,0,0,0.2,0.2,0.7c0,0.4,0.2,0.9,0.4,1.8
		c0.2,1.5,0.9,3.5,1.3,6c0.9,5.1,1.3,11.7,1.5,18.1c0,12.8,0,25.9,0,25.9c-1.5,19.3-2.7-6.6-3.8-14.8v-9.7c0-21.9-3.8-46.3-31.4-60
		l-28.8-12.6l19.3,7.3l-33.7-15c6.6,1.3,24.8,6.9-1.3-5.5c-44-17-84.8-32.8-129-54.4c-15-6.6-30.3-13.5-45.6-20.1
		c-7.7-3.3-15.5-6.9-23.2-10.2c-4-1.8-7.7-3.3-11.7-5.1c-1.1-0.4-2-0.9-3.1-1.1c-1.1-0.4-2-0.7-3.1-1.1c-2.2-0.7-4.2-1.3-6.4-1.8
		c-8.6-2.2-18.1-2.7-27-0.9c-4.4,0.9-8.9,2-13.1,3.5c-2.2,0.7-4.2,1.5-6.2,2.2c-1.1,0.4-2,0.9-3.1,1.3l-2.9,1.3
		c-15.9,7.1-31.9,14.6-48,21.9c11.5-3.5-14.2,6.9,6.6-1.1c-3.3,1.8-6.2,3.3-9.5,4.9l-25,11.1c22.6-13.3-30.3,12.2-25.7,7.1
		c-31.2,13.9-32.1,10.2-65.5,24.8c-19.3,10.2,21.2-6.2,33-10.6c-3.1,1.5-7.5,3.3-12.2,5.1c11.5-4,22.6-7.1,26.1-7.1l-62.2,27.4
		c-0.9-1.1-2.4-1.8-10.6,2c-7.7,1.3-44,20.1-51.8,21.5c-1.1,0.4-2.2,1.1-3.3,1.5c-1.1,0.4-2.2,1.1-3.5,1.8c-0.7,0.2-1.1,0.7-1.8,0.9
		c-0.4,0.4-1.1,0.7-1.5,1.1c-0.4,0.4-1.1,0.7-1.5,1.1c-0.4,0.4-1.1,0.7-1.5,1.1c-0.9,0.9-2,1.5-2.9,2.2c-1.1,0.7-2,1.5-2.9,2.2
		c-0.4,0.4-0.9,0.9-1.3,1.3l-1.1,1.3c-0.7,0.9-1.5,1.8-2.2,2.7c-2.9,3.8-5.1,7.5-6.9,11.5c-1.8,4-3.3,7.7-4.2,11.7
		c-2.2,7.5-2.9,14.8-2.9,21.2c0,3.3,0.2,6.2,0.4,9.1c0,2.7,0.4,5.3,0.9,7.7l-2.9,29c-0.3,6.1-0.3,11.4-0.3,16.5s0.2,10,0.7,14.6
		c0.4,4.6,1.3,9.1,2.4,13.5c1.3,4.2,2.9,8.4,5.1,12.4c1.1,1.8,1.3,1.3,1.1,0.2c-0.2-1.1-0.9-2.9-1.3-4.4c-0.4-1.5-0.4-2.7,0-2.2
		c0.4,0.4,1.3,2.4,4,6.9c1.8,3.3,4.9,7.3,8.4,10.6c0.9,0.9,1.8,1.8,2.7,2.4c0.9,0.7,2,1.5,2.9,2.2s1.8,1.3,2.7,2s1.8,1.1,2.4,1.8
		c0.7,0.9-1.1,0-3.3-1.1c-0.7-0.2-1.1-0.7-1.8-0.9c-0.4-0.4-1.1-0.7-1.5-1.1c-1.1-0.7-1.8-1.1-2.4-1.5c2,1.5,4,3.1,6,4.2
		c1.1,0.7,2,1.3,3.1,1.8c1.1,0.4,2,1.1,3.1,1.5c4,1.8,8,3.8,11.7,5.5c7.5,3.5,14.4,7.1,21.2,10.4c13.5,6.9,25.7,13.5,38.7,20.1
		c35.9,15.3,84.8,38.3,106.7,45.4l-20.6-9.5c30.5,13.3,2.2-2.9,35.9,12.6c25,12.2,12,7.5,13.1,9.5c7.1,3.1,16.6,7.1,25.7,10.8
		c4.6,2,9.1,3.8,13.1,5.5c2,0.9,4,1.8,5.5,2.7c1.8,0.9,3.3,1.8,4.6,2.4c-4.2-1.8-5.5-2.2-5.3-2s0.7,0.4,1.3,0.9
		c0.7,0.4,1.8,0.9,2.9,1.5c1.1,0.7,2.2,1.1,3.3,1.5c1.1,0.4,2,1.1,2.9,1.3c1.5,0.7,2,0.9-0.2,0.2c7.3,2.9,13.5,4,18.6,4.4
		c1.3,0,2.4,0.2,3.8,0.2c1.1,0,2.4,0,3.5,0c2.2-0.2,4.2-0.4,6.2-0.7c4-0.7,7.7-1.8,12-3.3c3.5-1.3,7.5-2.9,12.2-5.3
		c4.4-0.9,17.7-5.8,23.2-7.1l-4.2,1.1c4.9-2.7,6.9-4.4,17.3-8.4s-5.1,3.3,2.2,0.7c32.8-13.1,37.2-17.5,64.6-29.9
		c50.5-19.7,77.9-38.1,132.3-61.3c-19.3,7.7-40.1,15.7-67.3,27.4l21.9-10.8c0,0,0,0-0.2,0l54.4-23.9c-7.7,3.8-14.6,7.3-19.9,9.7
		c4.6-1.5,10.8-3.8,16.8-6c3.1-1.1,6.2-2.2,9.1-3.3c0.7-0.2,1.5-0.4,2.2-0.9c0.7-0.2,1.5-0.7,2.2-0.9s1.3-0.7,2.2-0.9
		c0.7-0.2,1.3-0.7,2-0.9c1.3-0.7,2.4-1.3,3.5-2s2-1.3,2.9-1.8s1.5-1.1,2.2-1.3c0.7-0.4,1.1-0.7,1.5-0.9c0.7-0.4,0.9-0.2,0.4,0.7
		c-0.2,0.4-0.7,1.1-1.1,1.8c-0.7,0.7-1.5,1.5-2.4,2.7c6.2-4.6,10.2-9.5,13.1-13.9c0.7-1.1,1.3-2.2,1.8-3.3c0.7-1.1,1.1-2,1.5-3.1
		s0.9-2,1.3-2.9c0.2-0.9,0.7-2,0.9-2.9c2.2-7.3,3.1-13.7,3.3-23.7c0-1.3,0.2-2.7,0.2-4c0-1.5,0-2.9,0-4.4c0-3.1,0-6.2,0-9.1
		c0-5.8,0.2-10.6,0.7-11.7C667.3,685.6,667.1,681.4,667.1,676.3z M36.6,629.6c0.2-0.4,0.2-0.9,0.2-1.1c1.3-6,3.3-10.6,4.4-13.5
		c2.4-3.5,3.5-4.6,4-4.4C41.3,616.3,38.6,622.8,36.6,629.6z M502,834.3c-6.2,2.9-6,2.2-7.3,2.4l-18.6,8.9l-6.4,0.4
		c-32.1,11.7-48.7,24.6-89.4,41.6c-1.1,0.7-2,1.3-2.4,1.8c-1.3,0.2-3.1,0.7-5.5,1.3c-2.9,0.7-6.6,1.8-11.7,2.7s-11.5,1.8-19.7,0.9
		c2.9,0,3.1-0.2,3.8-0.2c0.2,0,0.7-0.2,1.3-0.2c0.2,0,0.7,0,0.9,0c-0.9,0-1.5,0-2.4,0c-2-0.2-3.8-0.2-5.8-0.7
		c-2-0.2-3.8-0.7-5.8-1.3c-0.9-0.2-1.8-0.7-2.7-0.9s-1.8-0.4-2.7-0.9c-3.1-1.1-5.8-2.4-8-3.5c21.5,9.5,39.8,8.2,59.5-1.5l132.3-58
		l-19,9.1C491.8,837.6,514.6,827.7,502,834.3z M526.1,820.8c-0.4,0,0-0.2,0.4-0.4l18.6-8.2C539.6,815.1,533.7,818,526.1,820.8z
		 M546.9,557.7l-82.8-36.3c0.2,0,0.2,0.2,0.4,0.2c37,15.5,75.5,31.9,113.7,49.1C566.6,565.7,556,561.2,546.9,557.7z M663.1,730.3
		c-0.2,1.3-0.4,2.7-0.7,4c-0.2,1.5-0.7,2.9-1.1,4.4c-0.9,3.1-2,6.2-3.1,8.9c-1.3,2.7-2.4,4.9-3.5,6.2c-0.9,1.3-1.5,1.8-1.3,1.1
		c-0.7,1.1-1.5,2-2.2,3.1c7.3-10.2,10-22.1,10.8-33.9c0.2,0.2,0.4,0.2,0.4,0.4C662.9,725.4,663.4,726.6,663.1,730.3z"/>
	<path class="st0" d="M622.6,588.7c1.8,0.7,4,1.5,6.2,2.7c0.7,0.2,1.1,0.4,1.8,0.7c0.7,0.2,1.1,0.4,1.8,0.9c1.1,0.7,2.4,1.3,3.8,2
		c0.7,0.2,1.1,0.7,1.8,1.1c0.7,0.4,1.1,0.7,1.8,1.1c0.7,0.4,1.1,0.7,1.8,1.1c0.7,0.4,1.1,0.9,1.5,1.1c1.1,0.9,2,1.5,2.9,2.2
		c0.9,0.9,1.8,1.5,2.4,2.2c0.4,0.4,0.7,0.7,1.1,1.1c0.2,0.4,0.7,0.7,0.9,1.1c0.7,0.7,1.1,1.1,1.5,1.5c0.9,0.9,1.3,1.5,1.3,1.5
		s-0.4-0.7-1.3-1.5c-0.4-0.4-0.9-1.1-1.5-1.8c-0.7-0.7-1.3-1.3-2.2-2.2c-3.1-3.3-8-6.9-13.1-9.5l-2-1.1c-0.7-0.4-1.3-0.7-2-0.9
		c-1.3-0.4-2.4-1.1-3.8-1.5c-2.4-1.1-4.6-2-6.6-2.9c-4-1.8-6.4-2.9-6.4-2.9l2.4,1.5C616.4,586,618.9,587.1,622.6,588.7z"/>
	<path class="st0" d="M563.8,811.1l25-9.1l-1.8-1.5C579,804.5,571.7,806.9,563.8,811.1z"/>
</g>
<g class="st1">
	<path class="st2" d="M350.2,531.1h-42.3v8.4l3.1,3.1v71.5c0,0,0,10.8,12.4,10.8c10.2,0,22.6,0,26.8,0c0.9,0,1.3,0,1.3,0
		c4.2,0,16.6,0,26.8,0c12.4,0,12.4-10.8,12.4-10.8v-71.5l3.1-3.1v-8.4h-42.3H350.2L350.2,531.1z"/>
	<path class="st2" d="M373.9,520.1v-1.3c0-6.2-5.8-11.5-12.8-11.5h-20.4c-7.1,0-12.8,5.1-12.8,11.5v1.3h-25.2v8.4h95.2v-8.4H373.9z
		 M337.2,518.8c0-1.8,1.5-3.1,3.5-3.1h20.4c2,0,3.5,1.3,3.5,3.1v1.3h-27.4V518.8L337.2,518.8z"/>
</g>
<g id="Layer_2">
	<path class="st3" d="M402.9,525.9c-0.3-5.2-1.3-8.3-2.9-9.1c-2.1-1.1-11.7-5.9-29.6-10c-0.3-3.6-1.5-8.8-5.9-11.1
		c-5.6-3-18.2-2-18.3-2c-5.7,0.5-8.7,5-9.8,8.1c-3.1-0.2-6.2-0.3-9.2-0.3c-11.1,0-18,1.3-19.6,1.8c-2,0.6-3.2,3.7-3.9,6.4
		c-0.4,0.3-0.5,0.8-0.6,1.2c-0.2,1.4-0.4,2.6,9.8,5.3c-11.1,1.9-15.1,4.5-15.3,4.7c-0.4,0.3-0.6,0.8-0.6,1.3l12.2,90
		c0,0.2,0.1,0.4,0.2,0.5c0.3,0.4,7.3,10.7,34.3,10.7c27.1,0,34-10.3,34.3-10.7c0.1-0.2,0.2-0.3,0.2-0.5l11.3-83.4
		c3.2,0.2,5.6,0.4,7.4,0.4c5.1,0,5.6-0.9,5.8-2.2c0-0.1,0-0.2,0-0.3c0-0.2,0.1-0.3,0.1-0.5C402.9,526.1,402.9,526,402.9,525.9z
		 M346.8,500.6c4.2-0.4,11.9-0.1,14.4,1.2c1,0.5,1.5,1.9,1.9,3.4c-2.5-0.5-5-0.9-7.8-1.4c-3.9-0.6-7.7-1.1-11.4-1.5
		C344.5,501.5,345.4,500.7,346.8,500.6z M343.7,527c-23.1,0-41.8-1.9-41.8-4.3c0-2.4,18.7-4.3,41.8-4.3c5,0,9.8,0.1,14.3,0.3
		c10.2,1.7,19.1,3.6,26.1,5.2C379.2,525.6,363,527,343.7,527z"/>
</g>
<g>
	<g>
		<path class="st4" d="M165,717.3v15.2h-20.6v-15.3h-43.8v-13.7l37-56.2h27.2v53.6h13.7v16.4H165L165,717.3z M144.4,700.9v-34.1
			l-22.6,34.1H144.4z"/>
		<path class="st4" d="M305.5,682.3v39.8c-8,6.4-23.7,12-36.7,12c-25.2,0-45.4-16.4-45.4-43.8c0-27.7,20.1-44,45.4-44
			c13.7,0,25,4.6,33.4,11.5l-9.7,15.9c-6.4-5.1-13.9-8-23.2-8c-13.7,0-24.1,8.9-24.1,24.6c0,15.5,10.4,24.3,25,24.3
			c5.5,0,11.1-1.3,15.5-3.5v-12.6h-20.4v-16.2L305.5,682.3L305.5,682.3z"/>
		<path class="st4" d="M359.1,646.2c25.2,0,44,18.8,44,44c0,25-18.8,43.8-44,43.8c-25,0-43.8-18.8-43.8-43.8
			C315.5,665,334.3,646.2,359.1,646.2z M359.3,714.2c13.7,0,23.2-10.4,23.2-23.9c0-13.7-9.3-24.1-23.2-24.1
			c-13.5,0-23.2,10.2-23.2,24.1C336,703.8,345.8,714.2,359.3,714.2z"/>
		<path class="st4" d="M455.3,646.2c25.2,0,44,18.8,44,44c0,25-18.8,43.8-44,43.8c-25,0-43.8-18.8-43.8-43.8
			C411.5,665,430.3,646.2,455.3,646.2z M455.3,714.2c13.7,0,23.2-10.4,23.2-23.9c0-13.7-9.3-24.1-23.2-24.1
			c-13.5,0-23.2,10.2-23.2,24.1C432.3,703.8,442.1,714.2,455.3,714.2z"/>
		<path class="st4" d="M510.2,647.3h38.3c25.2,0.2,44,15,44,42.7c0,27.4-18.8,42.5-44,42.5h-38.3V647.3z M531.5,665.7v48.7h16.4
			c13.7,0,23.2-8.6,23.2-24.1c0-15.7-9.3-24.3-23.2-24.3h-16.4V665.7L531.5,665.7z"/>
	</g>
</g>
<g>
	<g>
		<path class="st4" d="M273.2,555.5l4.4,28.3c1.8,11.7-2.9,21-16.2,23c-13.1,2-19.5-4.9-22.1-16.2l11.5-2.9c1.3,6,3.5,9.5,9.3,8.6
			c5.8-0.9,6.9-5.1,5.8-11.3l-4.4-27.7L273.2,555.5z"/>
		<path class="st4" d="M302.2,579.6c0.4,6.9,4.2,10.8,11.1,10.4c7.1-0.4,10.4-5.1,10-11.7l-1.5-26.6l12-0.7l1.8,27.4
			c0.7,11.5-6.6,21.9-21,22.8c-14.4,0.9-22.8-7.5-23.5-19.9l-1.8-27.4l12-0.7L302.2,579.6z"/>
		<path class="st4" d="M360.6,569.7l-0.7,29.2l-12-0.2l1.1-48l10.4,0.2l23.6,29.6l0.7-29.2l12,0.2l-1.1,48l-10.2-0.2L360.6,569.7z"
			/>
		<path class="st4" d="M413.1,552.8l11.7,1.5l-2.7,19l8.2,1.1l14.6-17.5l12.2,1.8l-0.2,1.8l-18.4,20.6c2.7,4.2,5.3,14.6,11.1,15.5
			c1.5,0.2,3.5,0.2,5.1-0.2v9.3c-2,0.7-5.5,1.1-8.9,0.7c-11.7-1.5-14.6-16.6-17.9-21.9l-6.9-0.9l-2.7,18.4l-11.7-1.5L413.1,552.8z"
			/>
	</g>
</g>
<g>
	<g>
		<path class="st4" d="M242.7,804v-23.2h18.6v5.1H248v4h10.6v4.9H248v4.4h13.3v5.1h-18.6V804z"/>
		<path class="st4" d="M266.6,780.8H277c6.9,0,12,4.2,12,11.7s-5.1,11.5-12,11.5h-10.4V780.8z M272.3,785.9v13.3h4.4
			c3.8,0,6.4-2.4,6.4-6.6s-2.7-6.6-6.4-6.6L272.3,785.9L272.3,785.9z"/>
		<path class="st4" d="M314.8,789.8l-7.1,8.4h-0.9l-7.1-8.4V804H294v-23.2h4.9l8.2,9.7l8.2-9.7h4.9V804h-5.8v-14.2H314.8z"/>
		<path class="st4" d="M337.6,780.6c6.9,0,12,5.1,12,12s-5.1,12-12,12s-12-5.1-12-12C325.6,785.6,330.7,780.6,337.6,780.6z
			 M337.6,799.1c3.8,0,6.4-2.9,6.4-6.6c0-3.8-2.7-6.6-6.4-6.6c-3.8,0-6.4,2.9-6.4,6.6C331.2,796.3,333.8,799.1,337.6,799.1z"/>
		<path class="st4" d="M360.4,790.1v14.2h-5.8v-23.5h5.1l11.7,14.2v-14.2h5.8V804h-4.9L360.4,790.1z"/>
		<path class="st4" d="M394.3,786.5V804h-5.8v-17.5h-7.1v-5.8h19.9v5.8H394.3z"/>
		<path class="st4" d="M415.7,780.6c6.9,0,12,5.1,12,12s-5.1,12-12,12s-12-5.1-12-12C403.8,785.6,408.9,780.6,415.7,780.6z
			 M415.7,799.1c3.8,0,6.4-2.9,6.4-6.6c0-3.8-2.7-6.6-6.4-6.6c-3.8,0-6.4,2.9-6.4,6.6C409.5,796.3,412.2,799.1,415.7,799.1z"/>
		<path class="st4" d="M438.5,790.1v14.2h-5.8v-23.5h5.1l11.7,14.2v-14.2h5.8V804h-4.9L438.5,790.1z"/>
	</g>
</g>
</svg>
