<?xml version="1.0" encoding="utf-8"?>
<!-- Generator: Adobe Illustrator 19.0.1, SVG Export Plug-In . SVG Version: 6.00 Build 0)  -->
<!DOCTYPE svg PUBLIC "-//W3C//DTD SVG 1.1//EN" "http://www.w3.org/Graphics/SVG/1.1/DTD/svg11.dtd">
<svg version="1.1" id="Layer_1" xmlns="http://www.w3.org/2000/svg" xmlns:xlink="http://www.w3.org/1999/xlink" x="0px" y="0px"
	 viewBox="0 0 302.9 66.7" style="enable-background:new 0 0 302.9 66.7;" xml:space="preserve">
<style type="text/css">
	.st0{fill:#079E01;}
	.st1{display:none;}
	.st2{display:inline;fill:#079E01;}
</style>
<g>
	<g>
		<path class="st0" d="M21.6,26.4v15.9c0,6.6-3.4,11.2-10.8,11.2C3.4,53.5,0.4,49.2,0,42.7L6.5,42c0.2,3.4,1.2,5.5,4.3,5.5
			c3.2,0,4.2-2.2,4.2-5.6V26.4H21.6z"/>
		<path class="st0" d="M33.4,41.2c0,3.8,2,6.2,5.8,6.2c3.9,0,5.9-2.4,5.9-6.2V26.4h6.6v15.2c0,6.4-4.4,11.9-12.5,11.9
			c-8,0-12.4-5-12.4-11.9V26.4h6.6V41.2z"/>
		<path class="st0" d="M63,36.9v16.2h-6.6V26.4h5.7l13.4,16.2V26.4h6.6v26.7h-5.7L63,36.9z"/>
		<path class="st0" d="M87.9,26.4h6.6v10.7h4.6l6.7-10.7h6.8v1L104,40.1c1.8,2.1,4,7.6,7.3,7.6c0.9,0,2-0.2,2.8-0.5l0.7,5.2
			c-1.1,0.5-3,1-4.8,1c-6.6,0-9.3-8-11.6-10.7h-3.8v10.3h-6.6V26.4z"/>
	</g>
	<g>
		<polygon class="st0" points="152.1,43.1 152.1,32.5 145,43.1 		"/>
		<path class="st0" d="M181,16.6c-0.1-2.7-0.6-4.2-1.5-4.7c-1.1-0.6-6-3-15.2-5.1c-0.1-1.8-0.8-4.5-3-5.7c-2.9-1.5-9.3-1-9.4-1
			c-2.9,0.3-4.5,2.5-5.1,4.2c-1.6-0.1-3.2-0.1-4.7-0.1c-5.7,0-9.3,0.7-10,0.9c-1,0.3-1.6,1.9-2,3.3c-0.2,0.2-0.3,0.4-0.3,0.6
			c-0.1,0.7-0.2,1.4,5,2.7c-5.7,1-7.7,2.3-7.9,2.4c-0.2,0.1-0.3,0.4-0.3,0.7l6.3,46.2c0,0.1,0,0.2,0.1,0.3c0.1,0.2,3.7,5.5,17.6,5.5
			c13.9,0,17.5-5.3,17.6-5.5c0.1-0.1,0.1-0.2,0.1-0.3l5.8-42.8c1.6,0.1,2.9,0.2,3.8,0.2c2.6,0,2.9-0.5,3-1.1c0,0,0-0.1,0-0.1
			c0-0.1,0-0.2,0-0.2C181,16.8,181,16.7,181,16.6z M152.2,3.7c2.2-0.2,6.1,0,7.4,0.6c0.5,0.3,0.8,1,1,1.7c-1.3-0.2-2.6-0.5-4-0.7
			c-2-0.3-3.9-0.6-5.8-0.8C151.1,4.1,151.5,3.7,152.2,3.7z M162.7,48.3h-4.2v4.8h-6.4v-4.8h-13.7V44L150,26.4h8.6v16.7h4.2V48.3z
			 M150.7,17.2c-11.9,0-21.5-1-21.5-2.2c0-1.2,9.6-2.2,21.5-2.2c2.6,0,5,0,7.3,0.1c5.2,0.9,9.8,1.8,13.4,2.6
			C168.8,16.5,160.5,17.2,150.7,17.2z"/>
	</g>
	<g>
		<path class="st0" d="M211.5,37.3v12.4c-2.5,2-7.4,3.7-11.5,3.7c-7.9,0-14.2-5.1-14.2-13.7c0-8.7,6.3-13.8,14.2-13.8
			c4.3,0,7.8,1.5,10.5,3.6l-3,5c-2-1.6-4.4-2.5-7.3-2.5c-4.3,0-7.5,2.8-7.5,7.7c0,4.8,3.3,7.6,7.8,7.6c1.7,0,3.5-0.4,4.8-1.1v-3.9
			h-6.4v-5H211.5z"/>
		<path class="st0" d="M229.1,26c7.9,0,13.8,5.9,13.8,13.8c0,7.8-5.9,13.7-13.8,13.7c-7.8,0-13.7-5.9-13.7-13.7
			C215.4,31.9,221.3,26,229.1,26z M229.1,47.3c4.3,0,7.3-3.3,7.3-7.5c0-4.3-2.9-7.5-7.3-7.5c-4.2,0-7.3,3.2-7.3,7.5
			C221.8,44,224.9,47.3,229.1,47.3z"/>
		<path class="st0" d="M259.9,26c7.9,0,13.8,5.9,13.8,13.8c0,7.8-5.9,13.7-13.8,13.7c-7.8,0-13.7-5.9-13.7-13.7
			C246.2,31.9,252.1,26,259.9,26z M260,47.3c4.3,0,7.3-3.3,7.3-7.5c0-4.3-2.9-7.5-7.3-7.5c-4.2,0-7.3,3.2-7.3,7.5
			C252.7,44,255.8,47.3,260,47.3z"/>
		<path class="st0" d="M277.2,26.4h12c7.9,0,13.8,4.7,13.8,13.4c0,8.6-5.9,13.3-13.8,13.3h-12V26.4z M283.7,32.1v15.2h5.1
			c4.3,0,7.3-2.7,7.3-7.6c0-4.9-2.9-7.6-7.3-7.6H283.7z"/>
	</g>
</g>
<g class="st1">
	<path class="st2" d="M-9.7,53v15h-20.2V53h-42.9V39.5l36.3-55.1h26.8v52.5H3.5V53H-9.7z M-29.8,36.9V3.4l-22.1,33.4H-29.8z"/>
	<path class="st2" d="M128.2,18.6v39c-7.7,6.3-23.2,11.7-36,11.7c-24.7,0-44.5-16-44.5-42.9c0-27.2,19.8-43.1,44.5-43.1
		c13.5,0,24.5,4.5,32.8,11.2L115.6,10c-6.3-4.9-13.6-7.7-22.9-7.7c-13.4,0-23.6,8.7-23.6,24.1c0,15.1,10.2,23.8,24.5,23.8
		c5.4,0,10.8-1.4,15.1-3.6V34.3h-20V18.6H128.2z"/>
	<path class="st2" d="M180.7-16.8c24.7,0,43.1,18.4,43.1,43.1c0,24.5-18.4,42.9-43.1,42.9c-24.5,0-42.9-18.4-42.9-42.9
		C137.8,1.6,156.3-16.8,180.7-16.8z M180.9,49.8c13.5,0,22.7-10.2,22.7-23.5c0-13.5-9.2-23.6-22.7-23.6c-13.2,0-22.7,10.1-22.7,23.6
		C158.1,39.6,167.7,49.8,180.9,49.8z"/>
	<path class="st2" d="M275-16.8c24.7,0,43.1,18.4,43.1,43.1c0,24.5-18.4,42.9-43.1,42.9c-24.5,0-42.9-18.4-42.9-42.9
		C232.1,1.6,250.5-16.8,275-16.8z M275.1,49.8c13.5,0,22.7-10.2,22.7-23.5c0-13.5-9.2-23.6-22.7-23.6c-13.2,0-22.7,10.1-22.7,23.6
		C252.4,39.6,262,49.8,275.1,49.8z"/>
	<path class="st2" d="M329-15.6h37.5c24.7,0.1,43.1,14.7,43.1,41.9c0,26.9-18.4,41.7-43.1,41.7H329V-15.6z M349.6,2.3V50h16
		c13.5,0,22.7-8.5,22.7-23.7c0-15.5-9.2-24-22.7-24H349.6z"/>
</g>
</svg>
