<?xml version="1.0" encoding="utf-8"?>
<!-- Generator: Adobe Illustrator 19.0.1, SVG Export Plug-In . SVG Version: 6.00 Build 0)  -->
<!DOCTYPE svg PUBLIC "-//W3C//DTD SVG 1.1//EN" "http://www.w3.org/Graphics/SVG/1.1/DTD/svg11.dtd">
<svg version="1.1" id="Layer_1" xmlns="http://www.w3.org/2000/svg" xmlns:xlink="http://www.w3.org/1999/xlink" x="0px" y="0px"
	 viewBox="0 0 71 65" style="enable-background:new 0 0 71 65;" xml:space="preserve">
<style type="text/css">
	.st0{fill:#079E01;}
	.st1{fill:#FFFFFF;}
</style>
<path class="st0" d="M70.9,23.5c0-2.2-1.6-5-3.5-6.1L63,14.8V3.4h-8.4v6.4l-15.2-9c-1.9-1.1-5.1-1.2-7.1-0.1L3.8,16.9
	c-2,1.1-3.6,3.8-3.6,6.1l-0.1,6.5c0,0,0,0,0,0L0,57.3c0,4,3.2,7.4,7.3,7.4l55.9,0.4c4,0,7.4-3.2,7.4-7.3L70.8,30l0,0L70.9,23.5z"/>
<path class="st1" d="M49.8,25.7H37.5v21.5H34c-2.3-0.3-4.5-2.2-6.8-4.2c4.1-0.8,7.2-3.9,7.2-8.2c0-6.4-5.2-9-10.5-9h-13V53h6.8v-9.9
	h1.4c3.5,2.4,8.1,9.7,14.2,9.8v0h0.5c0.6,0,1.2,0,1.8,0h3.2v0h10.9c8.1,0,14.1-4.8,14.1-13.6C63.9,30.5,57.9,25.7,49.8,25.7z
	 M23.7,38.3h-6.1v-6.8h6.1c2.2,0,3.6,1.3,3.6,3.4C27.4,36.9,26,38.3,23.7,38.3z M49.5,47.2h-5.2V31.5h5.2c4.4,0,7.4,2.8,7.4,7.8
	C56.9,44.4,53.9,47.2,49.5,47.2z"/>
</svg>
