<?xml version="1.0" encoding="utf-8"?>
<!-- Generator: Adobe Illustrator 18.1.1, SVG Export Plug-In . SVG Version: 6.00 Build 0)  -->
<!DOCTYPE svg PUBLIC "-//W3C//DTD SVG 1.1//EN" "http://www.w3.org/Graphics/SVG/1.1/DTD/svg11.dtd">
<svg version="1.1" id="Layer_1" xmlns="http://www.w3.org/2000/svg" xmlns:xlink="http://www.w3.org/1999/xlink" x="0px" y="0px"
	 viewBox="0 0 1072.3 82" enable-background="new 0 0 1072.3 82" xml:space="preserve">
<polyline fill="#FFFFFF" stroke="#70D040" stroke-width="2" stroke-linecap="round" stroke-linejoin="round" stroke-miterlimit="10" points="
	1,81 248.7,81 248.7,62.5 "/>
<path fill="#FFFFFF" stroke="#70D040" stroke-miterlimit="10" d="M276.3,49.3"/>
<line fill="none" stroke="#70D040" stroke-width="2" stroke-linecap="round" stroke-linejoin="round" stroke-miterlimit="10" x1="620.2" y1="81" x2="759.2" y2="81"/>
<polyline fill="none" stroke="#70D040" stroke-width="2" stroke-linecap="round" stroke-linejoin="round" stroke-miterlimit="10" points="
	403.1,80.9 403.1,5 430.3,5 430.3,81 472.8,81 472.8,38 495.3,38 495.3,81 517.8,81 517.8,10 544.8,10 544.8,81 626.5,81 "/>
<polyline fill="none" stroke="#70D040" stroke-width="2" stroke-linecap="round" stroke-linejoin="round" stroke-miterlimit="10" points="
	284.2,62.5 284.2,81 403.1,81 "/>
<polyline fill="none" stroke="#70D040" stroke-width="2" stroke-linecap="round" stroke-linejoin="round" stroke-miterlimit="10" points="
	266.1,54.3 296.2,54.3 317.5,65 289.8,65 266.1,54.3 242.5,65 "/>
<line fill="none" stroke="#70D040" stroke-width="2" stroke-linecap="round" stroke-linejoin="round" stroke-miterlimit="10" x1="313.5" y1="65" x2="313.5" y2="81"/>
<polyline fill="none" stroke="#70D040" stroke-width="2" stroke-linecap="round" stroke-linejoin="round" stroke-miterlimit="10" points="
	261.7,81 261.7,72.4 255.5,72.4 255.5,81 "/>
<rect x="268.9" y="66.6" fill="none" stroke="#70D040" stroke-width="2" stroke-linecap="round" stroke-linejoin="round" stroke-miterlimit="10" width="8.7" height="5.8"/>
<polyline fill="#FFFFFF" stroke="#70D040" stroke-width="2" stroke-linecap="round" stroke-linejoin="round" stroke-miterlimit="10" points="
	290.9,59.3 290.9,49.2 296.1,49.2 296.1,59.3 "/>
<line fill="#FFFFFF" stroke="#70D040" stroke-width="2" stroke-linecap="round" stroke-linejoin="round" stroke-miterlimit="10" x1="364.5" y1="80.9" x2="364.5" y2="69.6"/>
<path fill="#FFFFFF" stroke="#70D040" stroke-miterlimit="10" d="M347.6,61.6"/>
<line fill="none" stroke="#70D040" stroke-width="2" stroke-linecap="round" stroke-linejoin="round" stroke-miterlimit="10" x1="342.9" y1="69.6" x2="342.9" y2="80.9"/>
<polyline fill="none" stroke="#70D040" stroke-width="2" stroke-linecap="round" stroke-linejoin="round" stroke-miterlimit="10" points="
	353.8,64.6 335.6,64.6 322.6,71.2 339.4,71.2 353.8,64.6 368.2,71.2 "/>
<line fill="none" stroke="#70D040" stroke-width="2" stroke-linecap="round" stroke-linejoin="round" stroke-miterlimit="10" x1="325.1" y1="71.2" x2="325.1" y2="80.9"/>
<polyline fill="none" stroke="#70D040" stroke-width="2" stroke-linecap="round" stroke-linejoin="round" stroke-miterlimit="10" points="
	360,80.9 360,75.6 356.2,75.6 356.2,80.9 "/>
<rect x="346.9" y="72.1" fill="none" stroke="#70D040" stroke-width="2" stroke-linecap="round" stroke-linejoin="round" stroke-miterlimit="10" width="5.3" height="3.5"/>
<polyline fill="#FFFFFF" stroke="#70D040" stroke-width="2" stroke-linecap="round" stroke-linejoin="round" stroke-miterlimit="10" points="
	338.8,67.7 338.8,61.6 335.6,61.6 335.6,67.7 "/>
<line fill="#FFFFFF" stroke="#70D040" stroke-width="2" stroke-linecap="round" stroke-linejoin="round" stroke-miterlimit="10" x1="222.9" y1="80.8" x2="222.9" y2="67.6"/>
<path fill="#FFFFFF" stroke="#70D040" stroke-miterlimit="10" d="M203.3,58.3"/>
<line fill="none" stroke="#70D040" stroke-width="2" stroke-linecap="round" stroke-linejoin="round" stroke-miterlimit="10" x1="197.7" y1="67.6" x2="197.7" y2="80.8"/>
<polyline fill="none" stroke="#70D040" stroke-width="2" stroke-linecap="round" stroke-linejoin="round" stroke-miterlimit="10" points="
	210.5,61.8 189.2,61.8 174.1,69.4 193.7,69.4 210.5,61.8 227.3,69.4 "/>
<line fill="none" stroke="#70D040" stroke-width="2" stroke-linecap="round" stroke-linejoin="round" stroke-miterlimit="10" x1="176.9" y1="69.4" x2="176.9" y2="80.8"/>
<polyline fill="none" stroke="#70D040" stroke-width="2" stroke-linecap="round" stroke-linejoin="round" stroke-miterlimit="10" points="
	217.7,80.8 217.7,74.6 213.3,74.6 213.3,80.8 "/>
<rect x="202.3" y="70.6" fill="none" stroke="#70D040" stroke-width="2" stroke-linecap="round" stroke-linejoin="round" stroke-miterlimit="10" width="6.2" height="4.1"/>
<polyline fill="#FFFFFF" stroke="#70D040" stroke-width="2" stroke-linecap="round" stroke-linejoin="round" stroke-miterlimit="10" points="
	192.9,65.4 192.9,58.2 189.2,58.2 189.2,65.4 "/>
<line fill="none" stroke="#70D040" stroke-width="2" stroke-linecap="round" stroke-linejoin="round" stroke-miterlimit="10" x1="128.2" y1="81" x2="128.2" y2="73"/>
<line fill="none" stroke="#70D040" stroke-width="2" stroke-linecap="round" stroke-linejoin="round" stroke-miterlimit="10" x1="99.2" y1="81" x2="99.2" y2="76.7"/>
<line fill="none" stroke="#70D040" stroke-width="2" stroke-linecap="round" stroke-linejoin="round" stroke-miterlimit="10" x1="155.7" y1="81" x2="155.7" y2="74.3"/>
<polyline fill="none" stroke="#70D040" stroke-width="2" stroke-linecap="round" stroke-linejoin="round" stroke-miterlimit="10" points="
	134.5,72.4 122,72.4 131.2,67.7 125.2,66.6 131.7,63.7 126.5,61.5 129.5,59.6 129.5,52 "/>
<polyline fill="none" stroke="#70D040" stroke-width="2" stroke-linecap="round" stroke-linejoin="round" stroke-miterlimit="10" points="
	159.3,74.3 150.5,74.3 157,71.1 152.8,70.3 157.3,68.3 153.7,66.7 155.8,65.4 155.8,60.1 "/>
<line fill="none" stroke="#70D040" stroke-width="2" stroke-linecap="round" stroke-linejoin="round" stroke-miterlimit="10" x1="235.7" y1="81" x2="235.7" y2="74.3"/>
<polyline fill="none" stroke="#70D040" stroke-width="2" stroke-linecap="round" stroke-linejoin="round" stroke-miterlimit="10" points="
	239.3,74.3 230.5,74.3 237,71.1 232.8,70.3 237.3,68.3 233.7,66.7 235.8,65.4 235.8,60.1 "/>
<polyline fill="none" stroke="#70D040" stroke-width="2" stroke-linecap="round" stroke-linejoin="round" stroke-miterlimit="10" points="
	102.9,77.1 95.5,77.1 100.9,74.3 97.4,73.7 101.2,71.9 98.2,70.6 99.9,69.5 99.9,65 "/>
<line fill="none" stroke="#70D040" stroke-width="2" stroke-linecap="round" stroke-linejoin="round" stroke-miterlimit="10" x1="681.8" y1="81" x2="681.8" y2="73"/>
<line fill="none" stroke="#70D040" stroke-width="2" stroke-linecap="round" stroke-linejoin="round" stroke-miterlimit="10" x1="652.8" y1="81" x2="652.8" y2="76.7"/>
<line fill="none" stroke="#70D040" stroke-width="2" stroke-linecap="round" stroke-linejoin="round" stroke-miterlimit="10" x1="709.3" y1="81" x2="709.3" y2="74.3"/>
<polyline fill="none" stroke="#70D040" stroke-width="2" stroke-linecap="round" stroke-linejoin="round" stroke-miterlimit="10" points="
	688.1,72.4 675.6,72.4 684.8,67.7 678.8,66.6 685.3,63.7 680.1,61.5 683.1,59.6 683.1,52 "/>
<polyline fill="none" stroke="#70D040" stroke-width="2" stroke-linecap="round" stroke-linejoin="round" stroke-miterlimit="10" points="
	712.9,74.3 704.1,74.3 710.5,71.1 706.3,70.3 710.9,68.3 707.3,66.7 709.4,65.4 709.4,60.1 "/>
<polyline fill="none" stroke="#70D040" stroke-width="2" stroke-linecap="round" stroke-linejoin="round" stroke-miterlimit="10" points="
	656.5,77.1 649.1,77.1 654.5,74.3 651,73.7 654.8,71.9 651.8,70.6 653.5,69.5 653.5,65 "/>
<line fill="none" stroke="#70D040" stroke-width="2" stroke-linecap="round" stroke-linejoin="round" stroke-miterlimit="10" x1="906.6" y1="81" x2="906.6" y2="73"/>
<line fill="none" stroke="#70D040" stroke-width="2" stroke-linecap="round" stroke-linejoin="round" stroke-miterlimit="10" x1="877.6" y1="81" x2="877.6" y2="76.7"/>
<line fill="none" stroke="#70D040" stroke-width="2" stroke-linecap="round" stroke-linejoin="round" stroke-miterlimit="10" x1="934.1" y1="81" x2="934.1" y2="74.3"/>
<polyline fill="none" stroke="#70D040" stroke-width="2" stroke-linecap="round" stroke-linejoin="round" stroke-miterlimit="10" points="
	912.9,72.4 900.4,72.4 909.6,67.7 903.6,66.6 910.1,63.7 904.9,61.5 907.9,59.6 907.9,52 "/>
<polyline fill="none" stroke="#70D040" stroke-width="2" stroke-linecap="round" stroke-linejoin="round" stroke-miterlimit="10" points="
	937.7,74.3 928.9,74.3 935.3,71.1 931.1,70.3 935.7,68.3 932.1,66.7 934.2,65.4 934.2,60.1 "/>
<polyline fill="none" stroke="#70D040" stroke-width="2" stroke-linecap="round" stroke-linejoin="round" stroke-miterlimit="10" points="
	881.3,77.1 873.9,77.1 879.3,74.3 875.8,73.7 879.6,71.9 876.5,70.6 878.3,69.5 878.3,65 "/>
<line fill="none" stroke="#70D040" stroke-width="2" stroke-linecap="round" stroke-linejoin="round" stroke-miterlimit="10" x1="739.6" y1="81" x2="739.6" y2="76.7"/>
<polyline fill="none" stroke="#70D040" stroke-width="2" stroke-linecap="round" stroke-linejoin="round" stroke-miterlimit="10" points="
	743.3,77.1 735.9,77.1 741.3,74.3 737.8,73.7 741.6,71.9 738.6,70.6 740.3,69.5 740.3,65 "/>
<line fill="none" stroke="#70D040" stroke-width="2" stroke-linecap="round" stroke-linejoin="round" stroke-miterlimit="10" x1="385.6" y1="81" x2="385.6" y2="76.7"/>
<polyline fill="none" stroke="#70D040" stroke-width="2" stroke-linecap="round" stroke-linejoin="round" stroke-miterlimit="10" points="
	389.3,77.1 381.9,77.1 387.3,74.3 383.8,73.7 387.6,71.9 384.5,70.6 386.3,69.5 386.3,65 "/>
<line fill="none" stroke="#70D040" stroke-width="2" stroke-linecap="round" stroke-linejoin="round" stroke-miterlimit="10" x1="408.8" y1="5" x2="408.8" y2="1"/>
<polyline fill="none" stroke="#70D040" stroke-width="2" stroke-linecap="round" stroke-linejoin="round" stroke-miterlimit="10" points="
	430.3,5 443,10 443,81 "/>
<polyline fill="none" stroke="#70D040" stroke-width="2" stroke-linecap="round" stroke-linejoin="round" stroke-miterlimit="10" points="
	517.8,10 505,13.2 505,80.9 "/>
<polyline fill="none" stroke="#70D040" stroke-width="2" stroke-linecap="round" stroke-linejoin="round" stroke-miterlimit="10" points="
	472.8,38 466,40.7 466,80.9 "/>
<polyline fill="none" stroke="#70D040" stroke-width="2" stroke-linecap="round" stroke-linejoin="round" stroke-miterlimit="10" points="
	443,27.3 469.4,27.3 469.4,39.3 "/>
<polyline fill="none" stroke="#70D040" stroke-width="2" stroke-linecap="round" stroke-linejoin="round" stroke-miterlimit="10" points="
	485.8,38 485.8,19 505,19 "/>
<line fill="none" stroke="#70D040" stroke-width="2" stroke-linecap="round" stroke-linejoin="round" stroke-miterlimit="10" x1="469.4" y1="33.3" x2="485.8" y2="33.3"/>
<line fill="none" stroke="#70D040" stroke-width="2" stroke-linecap="round" stroke-linejoin="round" stroke-miterlimit="10" x1="403.1" y1="11.4" x2="408.8" y2="11.4"/>
<line fill="none" stroke="#70D040" stroke-width="2" stroke-linecap="round" stroke-linejoin="round" stroke-miterlimit="10" x1="403.1" y1="17.1" x2="408.8" y2="17.1"/>
<line fill="none" stroke="#70D040" stroke-width="2" stroke-linecap="round" stroke-linejoin="round" stroke-miterlimit="10" x1="403.1" y1="22.9" x2="408.8" y2="22.9"/>
<line fill="none" stroke="#70D040" stroke-width="2" stroke-linecap="round" stroke-linejoin="round" stroke-miterlimit="10" x1="403.1" y1="28.6" x2="408.8" y2="28.6"/>
<line fill="none" stroke="#70D040" stroke-width="2" stroke-linecap="round" stroke-linejoin="round" stroke-miterlimit="10" x1="403.1" y1="34.4" x2="408.8" y2="34.4"/>
<line fill="none" stroke="#70D040" stroke-width="2" stroke-linecap="round" stroke-linejoin="round" stroke-miterlimit="10" x1="403.1" y1="40.1" x2="408.8" y2="40.1"/>
<line fill="none" stroke="#70D040" stroke-width="2" stroke-linecap="round" stroke-linejoin="round" stroke-miterlimit="10" x1="403.1" y1="45.9" x2="408.8" y2="45.9"/>
<line fill="none" stroke="#70D040" stroke-width="2" stroke-linecap="round" stroke-linejoin="round" stroke-miterlimit="10" x1="403.1" y1="51.6" x2="408.8" y2="51.6"/>
<line fill="none" stroke="#70D040" stroke-width="2" stroke-linecap="round" stroke-linejoin="round" stroke-miterlimit="10" x1="403.1" y1="57.4" x2="408.8" y2="57.4"/>
<line fill="none" stroke="#70D040" stroke-width="2" stroke-linecap="round" stroke-linejoin="round" stroke-miterlimit="10" x1="403.1" y1="63.1" x2="408.8" y2="63.1"/>
<line fill="none" stroke="#70D040" stroke-width="2" stroke-linecap="round" stroke-linejoin="round" stroke-miterlimit="10" x1="403.1" y1="68.9" x2="408.8" y2="68.9"/>
<line fill="none" stroke="#70D040" stroke-width="2" stroke-linecap="round" stroke-linejoin="round" stroke-miterlimit="10" x1="403.1" y1="74.6" x2="408.8" y2="74.6"/>
<line fill="none" stroke="#70D040" stroke-width="2" stroke-linecap="round" stroke-linejoin="round" stroke-miterlimit="10" x1="538.3" y1="17.1" x2="544.1" y2="17.1"/>
<line fill="none" stroke="#70D040" stroke-width="2" stroke-linecap="round" stroke-linejoin="round" stroke-miterlimit="10" x1="538.3" y1="22.9" x2="544.1" y2="22.9"/>
<line fill="none" stroke="#70D040" stroke-width="2" stroke-linecap="round" stroke-linejoin="round" stroke-miterlimit="10" x1="538.3" y1="28.6" x2="544.1" y2="28.6"/>
<line fill="none" stroke="#70D040" stroke-width="2" stroke-linecap="round" stroke-linejoin="round" stroke-miterlimit="10" x1="538.3" y1="34.4" x2="544.1" y2="34.4"/>
<line fill="none" stroke="#70D040" stroke-width="2" stroke-linecap="round" stroke-linejoin="round" stroke-miterlimit="10" x1="538.3" y1="40.1" x2="544.1" y2="40.1"/>
<line fill="none" stroke="#70D040" stroke-width="2" stroke-linecap="round" stroke-linejoin="round" stroke-miterlimit="10" x1="538.3" y1="45.9" x2="544.1" y2="45.9"/>
<line fill="none" stroke="#70D040" stroke-width="2" stroke-linecap="round" stroke-linejoin="round" stroke-miterlimit="10" x1="538.3" y1="51.6" x2="544.1" y2="51.6"/>
<line fill="none" stroke="#70D040" stroke-width="2" stroke-linecap="round" stroke-linejoin="round" stroke-miterlimit="10" x1="538.3" y1="57.4" x2="544.1" y2="57.4"/>
<line fill="none" stroke="#70D040" stroke-width="2" stroke-linecap="round" stroke-linejoin="round" stroke-miterlimit="10" x1="538.3" y1="63.1" x2="544.1" y2="63.1"/>
<line fill="none" stroke="#70D040" stroke-width="2" stroke-linecap="round" stroke-linejoin="round" stroke-miterlimit="10" x1="538.3" y1="68.9" x2="544.1" y2="68.9"/>
<line fill="none" stroke="#70D040" stroke-width="2" stroke-linecap="round" stroke-linejoin="round" stroke-miterlimit="10" x1="538.3" y1="74.6" x2="544.1" y2="74.6"/>
<line fill="none" stroke="#70D040" stroke-width="2" stroke-linecap="round" stroke-linejoin="round" stroke-miterlimit="10" x1="489.7" y1="43.7" x2="495.4" y2="43.7"/>
<line fill="none" stroke="#70D040" stroke-width="2" stroke-linecap="round" stroke-linejoin="round" stroke-miterlimit="10" x1="489.7" y1="49.5" x2="495.4" y2="49.5"/>
<line fill="none" stroke="#70D040" stroke-width="2" stroke-linecap="round" stroke-linejoin="round" stroke-miterlimit="10" x1="489.7" y1="55.2" x2="495.4" y2="55.2"/>
<line fill="none" stroke="#70D040" stroke-width="2" stroke-linecap="round" stroke-linejoin="round" stroke-miterlimit="10" x1="489.7" y1="61" x2="495.4" y2="61"/>
<line fill="none" stroke="#70D040" stroke-width="2" stroke-linecap="round" stroke-linejoin="round" stroke-miterlimit="10" x1="489.7" y1="66.7" x2="495.4" y2="66.7"/>
<line fill="none" stroke="#70D040" stroke-width="2" stroke-linecap="round" stroke-linejoin="round" stroke-miterlimit="10" x1="489.7" y1="72.5" x2="495.4" y2="72.5"/>
<line fill="none" stroke="#70D040" stroke-width="2" stroke-linecap="round" stroke-linejoin="round" stroke-miterlimit="10" x1="489.7" y1="78.2" x2="495.4" y2="78.2"/>
<line fill="none" stroke="#70D040" stroke-width="2" stroke-linecap="round" stroke-linejoin="round" stroke-miterlimit="10" x1="443" y1="32.2" x2="448.7" y2="32.2"/>
<line fill="none" stroke="#70D040" stroke-width="2" stroke-linecap="round" stroke-linejoin="round" stroke-miterlimit="10" x1="443" y1="38" x2="448.7" y2="38"/>
<line fill="none" stroke="#70D040" stroke-width="2" stroke-linecap="round" stroke-linejoin="round" stroke-miterlimit="10" x1="443" y1="43.7" x2="448.7" y2="43.7"/>
<line fill="none" stroke="#70D040" stroke-width="2" stroke-linecap="round" stroke-linejoin="round" stroke-miterlimit="10" x1="443" y1="49.5" x2="448.7" y2="49.5"/>
<line fill="none" stroke="#70D040" stroke-width="2" stroke-linecap="round" stroke-linejoin="round" stroke-miterlimit="10" x1="443" y1="55.2" x2="448.7" y2="55.2"/>
<line fill="none" stroke="#70D040" stroke-width="2" stroke-linecap="round" stroke-linejoin="round" stroke-miterlimit="10" x1="443" y1="61" x2="448.7" y2="61"/>
<line fill="none" stroke="#70D040" stroke-width="2" stroke-linecap="round" stroke-linejoin="round" stroke-miterlimit="10" x1="443" y1="66.7" x2="448.7" y2="66.7"/>
<line fill="none" stroke="#70D040" stroke-width="2" stroke-linecap="round" stroke-linejoin="round" stroke-miterlimit="10" x1="443" y1="72.5" x2="448.7" y2="72.5"/>
<line fill="none" stroke="#70D040" stroke-width="2" stroke-linecap="round" stroke-linejoin="round" stroke-miterlimit="10" x1="443" y1="78.2" x2="448.7" y2="78.2"/>
<path fill="none" stroke="#70D040" stroke-width="2" stroke-linecap="round" stroke-linejoin="round" stroke-miterlimit="10" d="
	M324.2,32c0,0,2.5-5.7,8.7-4.8c0,0,4.4-11.2,14.4-4.4c0,0,8.2-2.3,9,4c0,0,7.6-0.5,8.6,5.1H324.2z"/>
<path fill="none" stroke="#70D040" stroke-width="2" stroke-linecap="round" stroke-linejoin="round" stroke-miterlimit="10" d="
	M234.7,41.3c0,0-1.5-3.3-5-2.8c0,0-2.6-6.5-8.4-2.5c0,0-4.7-1.3-5.2,2.3c0,0-4.4-0.3-5,3H234.7z"/>
<path fill="none" stroke="#70D040" stroke-width="2" stroke-linecap="round" stroke-linejoin="round" stroke-miterlimit="10" d="
	M656.5,35.5c0,0-1.5-3.3-5-2.8c0,0-2.6-6.5-8.4-2.5c0,0-4.7-1.3-5.2,2.3c0,0-4.4-0.3-5,3H656.5z"/>
<path fill="none" stroke="#70D040" stroke-width="1.5" stroke-linecap="round" stroke-linejoin="round" stroke-miterlimit="10" d="
	M721.5,42.5c0,0-1.1-2.4-3.7-2c0,0-1.9-4.8-6.2-1.9c0,0-3.5-1-3.8,1.7c0,0-3.3-0.2-3.7,2.2H721.5z"/>
<line fill="none" stroke="#70D040" stroke-width="2" stroke-linecap="round" stroke-linejoin="round" stroke-miterlimit="10" x1="759.2" y1="81" x2="759.2" y2="57.2"/>
<line fill="none" stroke="#70D040" stroke-width="2" stroke-linecap="round" stroke-linejoin="round" stroke-miterlimit="10" x1="794.1" y1="80.9" x2="794.1" y2="57.4"/>
<polyline fill="none" stroke="#70D040" stroke-width="2" stroke-linecap="round" stroke-linejoin="round" stroke-miterlimit="10" points="
	775.4,31.7 823.1,31.7 834.7,42 840.3,55.4 845.8,60.3 797.5,60.3 792.2,55.6 786.9,41.8 775.4,31.7 764.7,41.8 759.2,57.2 
	754.9,60.3 "/>
<polyline fill="none" stroke="#70D040" stroke-width="2" stroke-linecap="round" stroke-linejoin="round" stroke-miterlimit="10" points="
	841.3,60.3 841.3,80.9 1071.3,80.9 "/>
<polyline fill="none" stroke="#70D040" stroke-width="2" stroke-linecap="round" stroke-linejoin="round" stroke-miterlimit="10" points="
	766.5,63.8 776,81 776,63.8 766.5,81 766.5,63.8 785.6,63.8 785.6,81 776,63.8 "/>
<rect x="800.9" y="66.7" fill="none" stroke="#70D040" stroke-width="2" stroke-linecap="round" stroke-linejoin="round" stroke-miterlimit="10" width="3" height="6"/>
<rect x="811.3" y="66.7" fill="none" stroke="#70D040" stroke-width="2" stroke-linecap="round" stroke-linejoin="round" stroke-miterlimit="10" width="3" height="6"/>
<rect x="821.6" y="66.7" fill="none" stroke="#70D040" stroke-width="2" stroke-linecap="round" stroke-linejoin="round" stroke-miterlimit="10" width="3" height="6"/>
<rect x="832" y="66.7" fill="none" stroke="#70D040" stroke-width="2" stroke-linecap="round" stroke-linejoin="round" stroke-miterlimit="10" width="3" height="6"/>
<rect x="772" y="45" fill="none" stroke="#70D040" stroke-width="2" stroke-linecap="round" stroke-linejoin="round" stroke-miterlimit="10" width="6.8" height="10.7"/>
<line fill="none" stroke="#70D040" stroke-width="2" stroke-linecap="round" stroke-linejoin="round" stroke-miterlimit="10" x1="786.9" y1="41.8" x2="834.7" y2="42"/>
<line fill="none" stroke="#70D040" stroke-width="2" stroke-linecap="round" stroke-linejoin="round" stroke-miterlimit="10" x1="792.2" y1="55.6" x2="840.3" y2="55.6"/>
<line fill="none" stroke="#70D040" stroke-width="2" stroke-linecap="round" stroke-linejoin="round" stroke-miterlimit="10" x1="776" y1="81" x2="785.6" y2="63.8"/>
</svg>
