<?xml version="1.0" encoding="utf-8"?>
<!-- Generator: Adobe Illustrator 18.1.1, SVG Export Plug-In . SVG Version: 6.00 Build 0)  -->
<!DOCTYPE svg PUBLIC "-//W3C//DTD SVG 1.1//EN" "http://www.w3.org/Graphics/SVG/1.1/DTD/svg11.dtd">
<svg version="1.1" id="Layer_1" xmlns="http://www.w3.org/2000/svg" xmlns:xlink="http://www.w3.org/1999/xlink" x="0px" y="0px"
	 viewBox="0 0 22.9 23.9" enable-background="new 0 0 22.9 23.9" xml:space="preserve">
<path display="none" fill="#55CB44" d="M22.8,12.8c0.4-0.8,0-2.1-0.3-2.9c-0.3-0.9-0.8-1.9-0.7-2.9c0.3,0.4,0.4,0.9,0.7,1.3
	c0,0,0,0.1,0.1,0.1c0.1,0,0.1-0.1,0.1-0.1c0.1-0.4-0.1-0.8-0.3-1.2c0,0,0,0,0-0.1c-0.2-0.4-0.6-0.7-0.7-1.2C21.8,6,22,6,22.2,6.1
	c-0.2,0-0.6-1.3-0.7-1.5c-0.3-0.4-0.9-0.7-1.1-1.2c-0.1-0.1-0.1-0.3-0.1-0.4c-0.1-0.5-0.5-0.8-0.9-1.1c-0.6-0.5-1.3-0.9-2.1-1
	c-0.6,0-1.3,0.2-1.8-0.2c0.2-0.1,0.4-0.2,0.6-0.3c-1.7-0.1-3.4-0.6-5.1-0.4c-0.5,0-0.8,0.1-0.8,0.3c-1.9,0.1-3.9,0.9-5.3,2L4.3,3.1
	C3.4,3.6,2.9,4.2,2.4,4.9C2,5.6,1.6,6.3,1.2,7.2l0-0.2c0,0-0.1,0.3-0.1,0.6C1,7.8,1,8,1,8.1c0,0.1,0,0.2,0,0.2
	c-0.2,0.4-0.3,0.7-0.4,1c-0.1,0.3-0.1,0.6-0.1,0.9c0,0.3,0,0.6-0.1,0.9c0,0.2-0.1,0.4-0.1,0.5c0,0.2-0.1,0.4-0.1,0.6
	C0,12.5,0,12.7,0,13c0,0.2,0,0.4,0,0.6c0,0.4,0.1,0.7,0.3,1c0.2,0.5,0.6,0.9,0.9,1.1c0.4,0.8,0.5,2,0.9,2.8L1.7,18
	c0,0,0,0.2,0.1,0.4c0,0.2,0.1,0.4,0.1,0.4c0.7,1,0.6,1.2,1.8,2.3c0.3,0.5,0.6,0.7,0.9,0.9C4.7,22,4.9,22,5.1,22
	c0.4,0,0.7-0.2,1.1-0.1c0,0,0.1,0.1,0.2,0.2c0.1,0.1,0.3,0.3,0.5,0.5c0.2,0.2,0.4,0.3,0.5,0.5c0.1,0.1,0.2,0.2,0.2,0.2l0-0.1
	c0.7,0,0.9-0.1,1.3,0.1c0.2,0.1,0.4,0.2,0.8,0.3c0.4,0.1,0.8,0.2,1.5,0.3l-0.1-0.4c0.4,0.3,0.7,0.2,1.1,0.1c0.3-0.1,0.7-0.3,1.3-0.3
	c0.1,0,0.3,0,0.6,0c0.3,0,0.6,0,0.9,0c0.6,0,1.3-0.3,1.6-0.7c0.5-0.1,0.9-0.3,1.2-0.6c0.3-0.2,0.6-0.5,0.8-0.8
	c0.2-0.3,0.4-0.6,0.6-0.9c0.2-0.4,0.7-0.7,1-1c0.2-0.3,0.6-1.1,0.9-1.2c0,0.1,0,0.1-0.1,0.1c0.2,0,0.5,0,0.7,0
	c-0.2,0-0.3-0.2-0.3-0.3c0-0.2,0.1-0.3,0.2-0.4c0.3-0.4,0.6-0.8,1-1.1c-0.3-1.3-0.4-2.6-0.1-3.9C22.6,12.6,22.7,12.8,22.8,12.8z
	 M8.3,3.7C7.4,4.1,6.5,4.6,5.8,5.3C5.9,5,6.1,4.8,6.3,4.6C6.9,4.3,7,4.1,7.1,3.9C7.1,3.6,7.2,3.4,7.7,3c0.4-0.1,0.9-0.3,1.4-0.6
	c0.5-0.2,1-0.3,1.2-0.2C9.2,2.6,9.3,3.3,8.3,3.7C8.3,3.6,8.3,3.6,8.3,3.7z M14.8,8.1l-1.1,0c-0.9,0-1.1,0.4-1.1,1.1v1.4h2.1
	l-0.3,2.2h-1.9v5.6h-2.2v-5.6H8.5v-2.2h1.9V8.9c0-1.9,1.1-2.9,2.8-2.9c0.8,0,1.5,0.1,1.7,0.1V8.1z M21.5,17.4L21.5,17.4
	c0.2-0.5,0.4-1,0.6-1.5l0.1,0C22.1,16.3,21.9,17.1,21.5,17.4z M22.2,15.6c0.1-0.2,0.1-0.4,0.2-0.6C22.3,15.2,22.2,15.4,22.2,15.6z"
	/>
<g>
	<path fill="#55CB44" d="M22.7,12.4c-0.1-0.3-0.1-0.6-0.2-0.6c-0.1-0.2-0.3,0.2-0.4,0.7c-0.1,0.3-0.2,0.6-0.3,0.9
		c-0.1,0.3-0.2,0.6-0.3,0.8c0,0-0.2,0.8-0.2,0.8c0.4-0.5,0.7,0.2,1.3-1.5C22.7,13.1,22.7,12.7,22.7,12.4z"/>
	<path fill="#55CB44" d="M21.6,11.5l-0.4-0.1l0.3,0.4C21.6,11.6,21.6,11.6,21.6,11.5z"/>
	<path fill="#55CB44" d="M20.6,16.9c0,0,0.4-0.7,0.4-0.7c-0.5,0-0.2,0.2-1,1.1c0,0,0.6-0.7,0.6-0.7C20.6,16.7,20.5,17.1,20.6,16.9z"
		/>
	<path fill="#55CB44" d="M19.3,4.9c0.8,0.6,1.3,1.6,1.7,2.6c0.4,1,0.6,1.9,1,2.7c0.2-0.1,0.3-0.4,0.3-0.8C22.4,9,22.2,8.5,22,8
		c-0.4-0.9-1.1-1.8-1.3-2.5c-0.6-0.7-1-1-1.8-1.7c-0.4-0.2-0.3,0-0.2,0.2C18.9,4.3,19.2,4.7,19.3,4.9z"/>
	<path fill="#55CB44" d="M21.6,10.8c0,0.2,0.1,0.5,0.1,0.6c0.1,0.2,0.2-0.2,0.2-0.4C21.9,10.7,21.6,10.1,21.6,10.8z"/>
	<path fill="#55CB44" d="M20.2,18.1c-0.3,0.3-0.7,0.6-1.1,0.9c-0.4,0.3-0.8,0.6-1.1,0.8c0.1-0.4,1.4-1.5,1.1-1.6
		c-0.1,0-0.3-0.1-0.5,0c0,0-0.5,0.7-0.5,0.7c-0.9,0.6-0.7,0.4-0.6,0.1c0.1-0.2,0.2-0.4,0.1-0.4c2.1-1.8,3.4-4.4,3.4-7.3
		c0-3.2-1.6-6.1-4.1-7.8c-0.1-0.2,0-0.2,0.5,0c0.2,0,0.1-0.3,0.7,0c-0.1-0.4-0.7-0.8-1-0.8C17.1,2.3,16.5,2,16,1.7
		c-0.6-0.3-1.1-0.5-1.1-0.8c-0.5,0-0.9-0.1-1.2-0.2c-0.4-0.1-0.7-0.2-1-0.3c-0.3-0.1-0.7-0.2-1-0.3C11.3,0,10.9,0,10.4,0
		C9.3,0.1,9.1,0.2,9.1,0.4c0,0.1,0.3,0.3,0,0.5C8,0.9,7.1,1.6,6.6,2C6.1,2.3,5.7,2.3,6,2.1C3.9,3,2.2,4.7,1.2,6.8
		c-0.5,1.1-0.9,2.2-1,3.4c-0.1,1.2-0.1,2.4,0.1,3.5c0,1,0.4,1.9,0.8,2.7c0.4,0.9,0.9,1.6,1.2,2.6l-0.1-0.3c0-0.1,0.2,0.1,0.3,0.2
		c-0.1-0.3-0.2-0.6-0.3-0.9c0.1,0.2,0.3,0.5,0.5,0.7c0.2,0.2,0.4,0.4,0.5,0.6c0.2,0,0.4,0.2,0.7,0.4c0.3,0.2,0.6,0.5,0.9,0.7
		c0.3,0.2,0.7,0.5,1,0.6c0.3,0.2,0.6,0.3,0.8,0.2c0.6,0.4,1.1,0.6,1.4,0.7c0.3,0.2,0.5,0.2,0.7,0.3c0.2,0.1,0.4,0.2,0.8,0.3
		c0.4,0.1,0.8,0.2,1.6,0.3c0.8,0,1.7-0.2,2.7-0.4c0.9-0.3,1.8-0.6,2.7-1c0.3-0.1,0.6-0.3,0.9-0.3c0.2-0.1,0.4-0.1,0.4,0
		c0.4-0.2,0.8-0.6,1.2-0.9c0.4-0.4,0.8-0.7,1.1-1c0.6-0.8,0.7-1.2,0.7-1.3C20.7,17.7,20.5,17.9,20.2,18.1z M9.3,16.4
		c-1.3,0-2.5-0.4-3.6-1c0.2,0,0.4,0,0.6,0c1.1,0,2.1-0.4,2.9-1c-1,0-1.9-0.7-2.2-1.6c0.1,0,0.3,0,0.4,0c0.2,0,0.4,0,0.6-0.1
		c-1.1-0.2-1.9-1.1-1.9-2.3c0,0,0,0,0,0c0.3,0.2,0.7,0.3,1,0.3c-0.6-0.4-1-1.1-1-1.9c0-0.4,0.1-0.8,0.3-1.2C7.7,9,9.4,9.9,11.3,10
		c0-0.2-0.1-0.3-0.1-0.5c0-1.3,1-2.3,2.3-2.3c0.7,0,1.3,0.3,1.7,0.7c0.5-0.1,1-0.3,1.5-0.6c-0.2,0.5-0.5,1-1,1.3
		c0.5-0.1,0.9-0.2,1.3-0.4c-0.3,0.5-0.7,0.9-1.2,1.2c0,0.1,0,0.2,0,0.3C15.9,12.8,13.6,16.4,9.3,16.4z M14.2,20.9
		c0-0.1-0.2-0.2-0.5-0.2c0.1,0,0.3-0.1,0.4-0.1C14.2,20.7,14.3,20.8,14.2,20.9z M16.2,20c-0.2,0-0.3,0-0.4,0
		c0.4-0.2,0.7-0.4,1.1-0.6c-0.3,0.3-0.1,0.3,0.3,0.2C16.7,19.8,16.4,20,16.2,20z"/>
</g>
</svg>
