<?xml version="1.0" encoding="utf-8"?>
<!-- Generator: Adobe Illustrator 18.1.1, SVG Export Plug-In . SVG Version: 6.00 Build 0)  -->
<!DOCTYPE svg PUBLIC "-//W3C//DTD SVG 1.1//EN" "http://www.w3.org/Graphics/SVG/1.1/DTD/svg11.dtd">
<svg version="1.1" id="Layer_1" xmlns="http://www.w3.org/2000/svg" xmlns:xlink="http://www.w3.org/1999/xlink" x="0px" y="0px"
	 viewBox="0 0 36 27.8" enable-background="new 0 0 36 27.8" xml:space="preserve">
<g>
	<path d="M28.6,24.4h-21c-0.3,0-0.6-0.3-0.6-0.6V8c0-0.2,0.1-0.4,0.3-0.5l10.5-4.9c0.2-0.1,0.3-0.1,0.5,0l10.5,4.9
		c0.2,0.1,0.3,0.3,0.3,0.5v15.8C29.2,24.1,28.9,24.4,28.6,24.4z M8.2,23.2H28V8.4l-9.9-4.7L8.2,8.4V23.2z"/>
</g>
<g>
	<path d="M4.5,10C4.3,10,4.1,9.9,4,9.7C3.9,9.4,4,9,4.3,8.9l13.6-6.3c0.3-0.1,0.6,0,0.8,0.3c0.1,0.3,0,0.6-0.3,0.8L4.8,9.9
		C4.7,10,4.6,10,4.5,10z"/>
</g>
<g>
	<path d="M31.7,10c-0.1,0-0.2,0-0.2-0.1L17.9,3.6c-0.3-0.1-0.4-0.5-0.3-0.8c0.1-0.3,0.5-0.4,0.8-0.3l13.6,6.3
		c0.3,0.1,0.4,0.5,0.3,0.8C32.1,9.9,31.9,10,31.7,10z"/>
</g>
<g>
	<path d="M21.1,24.4h-5.4c-0.3,0-0.6-0.3-0.6-0.6v-6.7c0-0.3,0.3-0.6,0.6-0.6h5.4c0.3,0,0.6,0.3,0.6,0.6v6.7
		C21.7,24.1,21.4,24.4,21.1,24.4z M16.2,23.2h4.3v-5.5h-4.3V23.2z"/>
</g>
<g>
	<path d="M14,15.2h-4c-0.3,0-0.6-0.3-0.6-0.6v-4c0-0.3,0.3-0.6,0.6-0.6h4c0.3,0,0.6,0.3,0.6,0.6v4C14.6,14.9,14.4,15.2,14,15.2z
		 M10.6,14h2.8v-2.8h-2.8V14z"/>
</g>
<g>
	<path d="M26.8,7.7c-0.1,0-0.2,0-0.2-0.1l-3-1.4c-0.2-0.1-0.3-0.3-0.3-0.5V3.1c0-0.3,0.3-0.6,0.6-0.6h3c0.3,0,0.6,0.3,0.6,0.6v4
		c0,0.2-0.1,0.4-0.3,0.5C27,7.7,26.9,7.7,26.8,7.7z M24.4,5.3l1.8,0.8V3.7h-1.8V5.3z"/>
</g>
<g>
	<circle cx="19.4" cy="20.4" r="0.4"/>
</g>
<g>
</g>
</svg>
