<?xml version="1.0" encoding="utf-8"?>
<!-- Generator: Adobe Illustrator 18.1.1, SVG Export Plug-In . SVG Version: 6.00 Build 0)  -->
<!DOCTYPE svg PUBLIC "-//W3C//DTD SVG 1.1//EN" "http://www.w3.org/Graphics/SVG/1.1/DTD/svg11.dtd">
<svg version="1.1" xmlns="http://www.w3.org/2000/svg" xmlns:xlink="http://www.w3.org/1999/xlink" x="0px" y="0px"
	 viewBox="0 0 24.5 43.3" enable-background="new 0 0 24.5 43.3" xml:space="preserve">
<g id="Layer_1" display="none">
	<path display="inline" d="M11.7,35.4c-8.2,0-14.2-8.7-14.2-16.5c0-8,1.1-16.5,14.2-16.5s14.2,8.5,14.2,16.5
		C25.9,26.7,19.8,35.4,11.7,35.4z M11.7,4.5c-10.1,0-12.1,5-12.1,14.4c0,8.2,6.4,14.4,12.1,14.4s12.1-6.1,12.1-14.4
		C23.7,9.6,21.8,4.5,11.7,4.5z"/>
	<path display="inline" d="M11.7,43.5c-7.5,0-8.5-4.7-8.5-4.9c0-0.1,0-0.2,0-0.3l0.4-6.7c0-0.6,0.6-1.1,1.2-1c0.6,0,1.1,0.6,1,1.2
		l-0.4,6.5c0.2,0.5,1.2,3,6.3,3c5.1,0,6.3-2.4,6.6-3l-0.4-6.5c0-0.6,0.4-1.1,1-1.2c0.6,0,1.1,0.4,1.2,1l0.4,6.7c0,0.1,0,0.2,0,0.3
		C20.4,38.9,19.2,43.5,11.7,43.5z"/>
	<path display="inline" d="M25.8,9.3h-0.7c-0.2,0-0.4,0-0.6,0.1v15.2c0.2,0,0.4,0.1,0.6,0.1h0.7c2.6,0,4.7-2,4.7-4.4v-6.5
		C30.5,11.3,28.4,9.3,25.8,9.3z"/>
	<path display="inline" d="M-2.5,9.3h0.7c0.2,0,0.4,0,0.6,0.1v15.2c-0.2,0-0.4,0.1-0.6,0.1h-0.7c-2.6,0-4.7-2-4.7-4.4v-6.5
		C-7.1,11.3-5,9.3-2.5,9.3z"/>
	<path display="inline" d="M-0.9,10.4l-2.2-0.2c0-0.1,1.1-12.5,14.9-12.5c13.8,0,14.7,12.4,14.7,12.5l-2.2,0.1
		c0-0.4-0.8-10.5-12.5-10.5C0-0.1-0.9,10-0.9,10.4z"/>
	<rect x="-5.9" y="22.3" display="inline" width="3.6" height="3.2"/>
	<path display="inline" d="M3.5,30.6c-3.3,0-5.8-0.7-7.3-2.2c-1.8-1.7-1.5-3.9-1.5-3.9l2.2,0.3c0,0-0.1,1.2,0.9,2.1
		C-1,28,1.7,29.1,8.3,28l0.4,2.2C6.7,30.5,5,30.6,3.5,30.6z"/>
	<circle display="inline" cx="8.5" cy="29.1" r="2.7"/>
	<path display="inline" d="M4,16.3c-0.5,0-0.9,0-1.4-0.1c-0.3,0-0.5-0.2-0.7-0.4c-0.1-0.2-0.2-0.4-0.2-0.6c-0.8,0.3-1.6,0.6-2.3,0.7
		c-0.6,0-1.1-0.4-1.1-1.1c0-0.6,0.5-1.1,1.1-1.1c0.4,0,1.3-0.4,1.9-0.7c1.4-0.6,2.3-1,2.9-0.2c0.3,0.4,0.3,0.8,0.1,1.3
		c3.6-0.2,8.1-2.8,10.1-4c1.4-0.8,1.7-1,2.3-0.8c0.3,0.1,0.6,0.3,0.7,0.6c0.1,0.1,0.2,0.5,0.5,4c4.2-0.5,5.4-1.7,5.4-1.7
		c0.4-0.4,1.1-0.4,1.5,0c0.4,0.4,0.4,1.1,0,1.5c-0.2,0.2-2,1.9-7.9,2.5c-0.3,0-0.6-0.1-0.8-0.2c-0.2-0.2-0.4-0.5-0.4-0.7
		c-0.1-1.1-0.2-2.3-0.3-3.2c0,0,0,0,0,0C13.1,13.4,8.3,16.3,4,16.3z"/>
</g>
<g id="Layer_2" display="none">
	<path display="inline" d="M11.7,43.1c-12,0-21.7-9.7-21.7-21.7S-0.3-0.3,11.7-0.3s21.7,9.7,21.7,21.7S23.6,43.1,11.7,43.1z
		 M11.7,2.2C1.1,2.2-7.5,10.8-7.5,21.4s8.6,19.2,19.2,19.2s19.2-8.6,19.2-19.2S22.2,2.2,11.7,2.2z"/>
	<path display="inline" d="M11.7,41.6c-0.4,0-0.9,0-1.3,0l0.2-3.8l-0.1,1.9l0.2-1.9c0.8,0,1.5,0,2.2,0l0.3,3.8
		C12.6,41.6,12.2,41.6,11.7,41.6z M2.8,39.6c-0.8-0.4-1.7-0.9-2.4-1.4L2.5,35c0.6,0.4,1.3,0.8,2,1.1L2.8,39.6z M20.5,39.5l-1.7-3.4
		c0.7-0.3,1.3-0.7,2-1.1l2.1,3.2C22.2,38.6,21.4,39.1,20.5,39.5z M-5.1,32.7c-0.5-0.8-1-1.6-1.4-2.4l3.4-1.7c0.3,0.7,0.7,1.3,1.2,2
		L-5.1,32.7z M28.4,32.7l-3.2-2.1c0.4-0.6,0.8-1.3,1.1-2l3.4,1.7C29.4,31.1,29,31.9,28.4,32.7z M-8.5,22.8c0-0.5-0.1-1-0.1-1.4
		c0-0.4,0-0.9,0-1.3l2,0.1l1.8,0.2v0l0,0l0,0c0,0.4,0,0.7,0,1.1c0,0.4,0,0.8,0,1.2L-8.5,22.8z M31.8,22.7L28,22.5l0-0.2
		c0-0.3,0-0.7,0-1c0-0.4,0-0.8,0-1.2l3.8-0.3c0,0.5,0.1,1,0.1,1.5C31.9,21.8,31.9,22.2,31.8,22.7z M-4.7,20.3l-1.8-0.2l1.8,0
		C-4.7,20.2-4.7,20.3-4.7,20.3z M-3.1,14.2l-3.4-1.7c0.4-0.8,0.9-1.7,1.4-2.4l3.2,2.1C-2.4,12.9-2.8,13.5-3.1,14.2z M26.4,14.1
		c-0.3-0.7-0.7-1.3-1.2-2l3.2-2.1c0.5,0.8,1,1.6,1.4,2.4L26.4,14.1z M2.4,7.8L0.3,4.6c0.8-0.5,1.6-1,2.4-1.4l1.7,3.4
		C3.7,7,3.1,7.4,2.4,7.8z M20.8,7.7c-0.6-0.4-1.3-0.8-2-1.1l1.7-3.4c0.8,0.4,1.7,0.9,2.4,1.4L20.8,7.7z M10.5,5l-0.3-3.8
		c0.9-0.1,1.9-0.1,2.8,0l-0.1,1.9l0,1.9c-0.1,0-0.1,0-0.2,0v0v0C11.8,4.9,11.2,5,10.5,5z"/>
	<circle display="inline" cx="11.7" cy="21.4" r="2.5"/>
	<polygon display="inline" points="9.9,20.4 11.7,7.6 11.7,7.6 13.4,20.4 	"/>
	<polygon display="inline" points="11.8,19.6 20.7,21.4 20.7,21.4 11.8,23.1 	"/>
</g>
<g id="Layer_4">
	<path d="M16.3,43.3H0.9c-0.5,0-0.9-0.4-0.9-0.9V15.1c0-0.5,0.4-0.9,0.9-0.9h15.5c0.5,0,0.9,0.4,0.9,0.9v27.3
		C17.2,42.9,16.8,43.3,16.3,43.3z M1.7,41.5h13.7V15.9H1.7V41.5z"/>
	<path d="M13.3,15.9c-0.5,0-0.9-0.4-0.9-0.9v-2.9c0-0.5,0.4-0.9,0.9-0.9s0.9,0.4,0.9,0.9v2.9C14.2,15.5,13.8,15.9,13.3,15.9z"/>
	<path d="M13.3,26.9H3.9C3.4,26.9,3,26.5,3,26v-8c0-0.5,0.4-0.9,0.9-0.9h9.5c0.5,0,0.9,0.4,0.9,0.9v8C14.2,26.5,13.8,26.9,13.3,26.9
		z M4.7,25.1h7.8v-6.2H4.7V25.1z"/>
	<path d="M16.1,12.1c-0.5,0-0.9-0.4-0.9-0.9c0-1.1-0.9-1.9-1.9-1.9s-1.9,0.9-1.9,1.9c0,0.5-0.4,0.9-0.9,0.9s-0.9-0.4-0.9-0.9
		c0-2,1.6-3.6,3.6-3.6S17,9.3,17,11.3C17,11.7,16.6,12.1,16.1,12.1z"/>
	<path d="M19.9,11.2c-0.4,0-0.8-0.3-0.9-0.7c-0.4-2.8-2.8-4.9-5.7-4.9s-5.3,2.1-5.7,4.9c-0.1,0.5-0.5,0.8-1,0.7
		c-0.5-0.1-0.8-0.5-0.7-1c0.5-3.7,3.7-6.4,7.4-6.4s6.9,2.8,7.4,6.4c0.1,0.5-0.3,0.9-0.7,1C20,11.2,19.9,11.2,19.9,11.2z"/>
	<path d="M23.6,10.4c-0.4,0-0.8-0.3-0.9-0.7C22,5.1,18,1.7,13.3,1.7C8.7,1.7,4.8,5,4,9.6c-0.1,0.5-0.5,0.8-1,0.7
		c-0.5-0.1-0.8-0.5-0.7-1C3.2,3.9,7.9,0,13.3,0c5.5,0,10.2,3.9,11.1,9.4c0.1,0.5-0.2,0.9-0.7,1C23.7,10.4,23.6,10.4,23.6,10.4z"/>
	<g>
		<path d="M4.9,28.6h-1c-0.5,0-0.9,0.4-0.9,0.9v1c0,0.5,0.4,0.9,0.9,0.9h1c0.5,0,0.9-0.4,0.9-0.9v-1C5.8,29,5.4,28.6,4.9,28.6z"/>
		<path d="M13.1,28.6h-1c-0.5,0-0.9,0.4-0.9,0.9v1c0,0.5,0.4,0.9,0.9,0.9h1c0.5,0,0.9-0.4,0.9-0.9v-1C14,29,13.6,28.6,13.1,28.6z"/>
		<path d="M9,28.6h-1c-0.5,0-0.9,0.4-0.9,0.9v1c0,0.5,0.4,0.9,0.9,0.9h1c0.5,0,0.9-0.4,0.9-0.9v-1C9.9,29,9.5,28.6,9,28.6z"/>
		<path d="M4.9,32.7h-1c-0.5,0-0.9,0.4-0.9,0.9v1c0,0.5,0.4,0.9,0.9,0.9h1c0.5,0,0.9-0.4,0.9-0.9v-1C5.8,33.1,5.4,32.7,4.9,32.7z"/>
		<path d="M13.1,32.7h-1c-0.5,0-0.9,0.4-0.9,0.9v1c0,0.5,0.4,0.9,0.9,0.9h1c0.5,0,0.9-0.4,0.9-0.9v-1C14,33.1,13.6,32.7,13.1,32.7z"
			/>
		<path d="M9,32.7h-1c-0.5,0-0.9,0.4-0.9,0.9v1c0,0.5,0.4,0.9,0.9,0.9h1c0.5,0,0.9-0.4,0.9-0.9v-1C9.9,33.1,9.5,32.7,9,32.7z"/>
		<path d="M4.9,36.8h-1c-0.5,0-0.9,0.4-0.9,0.9v1c0,0.5,0.4,0.9,0.9,0.9h1c0.5,0,0.9-0.4,0.9-0.9v-1C5.8,37.2,5.4,36.8,4.9,36.8z"/>
		<path d="M13.1,36.8h-1c-0.5,0-0.9,0.4-0.9,0.9v1c0,0.5,0.4,0.9,0.9,0.9h1c0.5,0,0.9-0.4,0.9-0.9v-1C14,37.2,13.6,36.8,13.1,36.8z"
			/>
		<path d="M9,36.8h-1c-0.5,0-0.9,0.4-0.9,0.9v1c0,0.5,0.4,0.9,0.9,0.9h1c0.5,0,0.9-0.4,0.9-0.9v-1C9.9,37.2,9.5,36.8,9,36.8z"/>
	</g>
</g>
<g id="Layer_3" display="none">
	<path display="inline" d="M5.1,12.9H2v5.6H1c-0.6-0.1-1.2-0.6-1.8-1.1c1.1-0.2,1.9-1,1.9-2.1c0-1.7-1.3-2.3-2.7-2.3h-3.4v7.1h1.8
		v-2.6h0.4c0.9,0.6,2.1,2.5,3.7,2.6v0H1c0.2,0,0.3,0,0.5,0h0.8v0h2.8c2.1,0,3.7-1.3,3.7-3.5C8.8,14.1,7.2,12.9,5.1,12.9z M-1.6,16.1
		h-1.6v-1.8h1.6c0.6,0,0.9,0.3,0.9,0.9C-0.7,15.8-1,16.1-1.6,16.1z M5.1,18.4H3.7v-4h1.4c1.1,0,1.9,0.7,1.9,2
		C7,17.7,6.2,18.4,5.1,18.4z"/>
	<g display="inline">
		<path d="M-3.4,28.3c-2.8,0-5,2.3-5,5c0,2.8,2.3,5,5,5s5-2.3,5-5C1.6,30.5-0.6,28.3-3.4,28.3z M-3.4,36.3c-1.7,0-3-1.4-3-3
			s1.4-3,3-3s3,1.4,3,3S-1.8,36.3-3.4,36.3z"/>
		<path d="M13.8,31.3H4.3c-0.6,0-1,0.4-1,1s0.4,1,1,1h9.5c0.6,0,1-0.4,1-1S14.3,31.3,13.8,31.3z"/>
		<path d="M26.4,24h-2.1c-0.3,0-0.5,0.2-0.5,0.5s0.2,0.5,0.5,0.5h2.1c0.3,0,0.5-0.2,0.5-0.5S26.7,24,26.4,24z"/>
		<path d="M13.8,27.9H2.9c-0.6,0-1,0.4-1,1s0.4,1,1,1h10.9c0.6,0,1-0.4,1-1S14.3,27.9,13.8,27.9z"/>
		<path d="M39.7,27.8h-0.5v-4.4c0-0.4-0.2-0.7-0.6-0.9l-4.3-2.1L30.9,14c-0.2-0.3-0.5-0.5-0.9-0.5H19.5V5c0-0.6-0.4-1-1-1h-33.2
			c-0.6,0-1,0.4-1,1v20.5c0,0.6,0.4,1,1,1h32.2v5.7c0,0.6,0.4,1,1,1h4.3c0,0,0,0,0,0c0,2.8,2.3,5,5,5c2.8,0,5-2.3,5-5c0,0,0,0,0,0
			h2.7h1.2h2.9c0.6,0,1-0.4,1-1v-3.5C40.7,28.2,40.2,27.8,39.7,27.8z M31.9,20.2h-7.1v-4.7h4.6L31.9,20.2z M17.5,24.5h-31.2V6h31.2
			V24.5z M27.8,36.3c-1.7,0-3-1.4-3-3s1.4-3,3-3s3,1.4,3,3S29.5,36.3,27.8,36.3z M27.8,28.3c-2.1,0-3.8,1.2-4.6,3h-3.7V15.4h3.3v5.7
			c0,0.6,0.4,1,1,1h9.6l3.8,1.8v3.8h-1.6c-0.6,0-1,0.4-1,1v2.5h-2.1C31.7,29.5,29.9,28.3,27.8,28.3z M38.7,31.3h-2.1v-1.5h2.1V31.3z
			"/>
		<path d="M-10.3,27.8h-6.1c-0.6,0-1,0.4-1,1v3.5c0,0.6,0.4,1,1,1h5.1c0.4,0,0.8-0.3,1-0.7l1-3.5c0.1-0.3,0-0.6-0.2-0.9
			S-9.9,27.8-10.3,27.8z M-12,31.3h-3.4v-1.5h3.8L-12,31.3z"/>
		<circle cx="-3.4" cy="33.3" r="1"/>
		<circle cx="27.8" cy="33.3" r="1"/>
	</g>
</g>
</svg>
