<?xml version="1.0" encoding="utf-8"?>
<!-- Generator: Adobe Illustrator 19.0.1, SVG Export Plug-In . SVG Version: 6.00 Build 0)  -->
<!DOCTYPE svg PUBLIC "-//W3C//DTD SVG 1.1//EN" "http://www.w3.org/Graphics/SVG/1.1/DTD/svg11.dtd">
<svg version="1.1" id="Layer_1" xmlns="http://www.w3.org/2000/svg" xmlns:xlink="http://www.w3.org/1999/xlink" x="0px" y="0px"
	 viewBox="-556.8 753.9 73.3 47.5" style="enable-background:new -556.8 753.9 73.3 47.5;" xml:space="preserve">
<style type="text/css">
	.st0{fill:#241F20;}
</style>
<g id="XMLID_141_">
	<path id="XMLID_151_" d="M-530.1,771.9L-530.1,771.9L-530.1,771.9z"/>
	<path id="XMLID_143_" d="M-525.5,766.8h0.1l0,0l0,0c0,0,0,0,0.1,0l0,0l0,0l0,0l0,0l0,0l0,0l0,0l0,0l0,0l0,0l0,0l0,0l0,0
		c-0.1-0.1-0.1-0.1-0.2-0.2l0,0l0,0C-525.4,766.9-525.4,766.9-525.5,766.8L-525.5,766.8c-0.1-0.1-0.1-0.1-0.1-0.1l0,0
		C-525.6,766.8-525.6,766.8-525.5,766.8z"/>
	<path id="XMLID_142_" d="M-526.5,770.6l0.4-0.2l0,0C-526.2,770.5-526.4,770.5-526.5,770.6z"/>
</g>
<g id="XMLID_129_">
	<path id="XMLID_139_" d="M-535.5,774.7v1.9c-0.4,0.3-1.1,0.6-1.8,0.6c-1.2,0-2.2-0.8-2.2-2.1s1-2.1,2.2-2.1c0.7,0,1.2,0.2,1.6,0.5
		l-0.5,0.8c-0.3-0.2-0.7-0.4-1.1-0.4c-0.7,0-1.2,0.4-1.2,1.2c0,0.7,0.5,1.2,1.2,1.2c0.3,0,0.5-0.1,0.7-0.2v-0.6h-1v-0.8H-535.5z"/>
	<path id="XMLID_136_" d="M-532.7,772.9c1.2,0,2.1,0.9,2.1,2.1s-0.9,2.1-2.1,2.1s-2.1-0.9-2.1-2.1S-533.9,772.9-532.7,772.9z
		 M-532.7,776.2c0.7,0,1.1-0.5,1.1-1.2s-0.5-1.2-1.1-1.2c-0.6,0-1.1,0.5-1.1,1.2S-533.3,776.2-532.7,776.2z"/>
	<path id="XMLID_133_" d="M-527.8,772.9c1.2,0,2.1,0.9,2.1,2.1s-0.9,2.1-2.1,2.1s-2.1-0.9-2.1-2.1S-529,772.9-527.8,772.9z
		 M-527.8,776.2c0.7,0,1.1-0.5,1.1-1.2s-0.5-1.2-1.1-1.2c-0.6,0-1.1,0.5-1.1,1.2S-528.5,776.2-527.8,776.2z"/>
	<path id="XMLID_130_" d="M-524.8,773h1.8c1.2,0,2.1,0.7,2.1,2.1c0,1.3-0.9,2-2.1,2h-1.8V773z M-523.8,773.9v2.3h0.8
		c0.7,0,1.1-0.4,1.1-1.2c0-0.8-0.5-1.2-1.1-1.2h-0.8V773.9z"/>
</g>
<g>
	<path d="M-524.8,768.3c0,0,0-0.1,0-0.2c0-0.1,0-0.2,0-0.3c0-0.1,0-0.2,0-0.2c0-0.1,0-0.1,0-0.2c0,0,0,0,0-0.1l0,0c0,0,0,0,0,0.1
		l0,0l0,0v0.1c0,0.1,0,0.2,0,0.3C-524.8,768.1-524.8,768.3-524.8,768.3c0,0.4-0.1-0.1-0.1-0.2v-0.2c0-0.4-0.1-0.8-0.5-1l-0.5-0.2
		l0.3,0.1l-0.6-0.2c0.1,0,0.4,0.1,0-0.1c-0.7-0.3-1.4-0.6-2.2-0.9c-0.3-0.1-0.5-0.2-0.8-0.3c-0.1-0.1-0.3-0.1-0.4-0.2
		c-0.1,0-0.1-0.1-0.2-0.1c0,0,0,0-0.1,0c0,0,0,0-0.1,0h-0.1c-0.1,0-0.3,0-0.5,0c-0.1,0-0.1,0-0.2,0.1h-0.1c0,0,0,0-0.1,0h-0.1
		c-0.3,0.1-0.5,0.2-0.8,0.4c0.2-0.1-0.2,0.1,0.1,0c-0.1,0-0.1,0.1-0.2,0.1l-0.4,0.2c0.4-0.2-0.5,0.2-0.4,0.1
		c-0.5,0.2-0.5,0.2-1.1,0.4c-0.3,0.2,0.4-0.1,0.6-0.2c-0.1,0-0.1,0.1-0.2,0.1c0.2-0.1,0.4-0.1,0.4-0.1l-1,0.5c0,0,0,0-0.2,0
		c-0.1,0-0.7,0.3-0.9,0.4c0,0,0,0-0.1,0c0,0,0,0-0.1,0l0,0l0,0l0,0l0,0l0,0l0,0l0,0l0,0l0,0c0,0.1-0.1,0.1-0.1,0.2
		c0,0.1-0.1,0.1-0.1,0.2c0,0.1-0.1,0.2-0.1,0.4c0,0.1,0,0.1,0,0.2v0.1v0.5c0,0.1,0,0.2,0,0.3s0,0.2,0,0.2c0,0.1,0,0.2,0,0.2
		c0,0.1,0,0.1,0.1,0.2l0,0v-0.1l0,0c0,0,0,0,0.1,0.1c0,0.1,0.1,0.1,0.1,0.2l0,0l0,0l0,0l0,0c0,0,0,0-0.1,0l0,0l0,0l0,0l0.1,0.1
		c0,0,0,0,0.1,0c0,0,0,0,0.1,0c0.1,0,0.1,0.1,0.2,0.1c0.1,0.1,0.2,0.1,0.4,0.2c0.2,0.1,0.4,0.2,0.6,0.3c0.6,0.3,1.4,0.6,1.8,0.8
		l-0.3-0.2c0.5,0.2,0,0,0.6,0.2c0.4,0.2,0.2,0.1,0.2,0.2c0.1,0.1,0.3,0.1,0.4,0.2c0.1,0,0.2,0.1,0.2,0.1h0.1h0.1c-0.1,0-0.1,0-0.1,0
		l0,0l0,0c0,0,0,0,0.1,0l0,0l0,0c0.1,0,0.2,0.1,0.3,0.1c0,0,0,0,0.1,0c0,0,0,0,0.1,0h0.1c0.1,0,0.1,0,0.2-0.1c0.1,0,0.1,0,0.2-0.1
		c0.1,0,0.3-0.1,0.4-0.1h-0.1c0.1,0,0.1-0.1,0.3-0.1c0.2-0.1-0.1,0.1,0,0c0.6-0.2,0.6-0.3,1.1-0.5c0.8-0.3,1.3-0.6,2.2-1
		c-0.3,0.1-0.7,0.3-1.1,0.5l0.4-0.2l0,0l0.9-0.4c-0.1,0.1-0.2,0.1-0.3,0.2c0.1,0,0.2-0.1,0.3-0.1c0.1,0,0.1,0,0.2-0.1l0,0l0,0l0,0
		l0,0c0,0,0,0,0.1,0l0,0l0,0l0,0l0,0l0,0l0,0c0.1-0.1,0.2-0.2,0.2-0.2s0,0,0-0.1c0,0,0,0,0-0.1l0,0l0,0c0-0.1,0.1-0.2,0.1-0.4
		c0,0,0,0,0-0.1c0,0,0,0,0-0.1c0-0.1,0-0.1,0-0.2c0-0.1,0-0.2,0-0.2C-524.8,768.5-524.8,768.4-524.8,768.3z M-535.3,767.5
		L-535.3,767.5c0-0.1,0.1-0.2,0.1-0.2c0-0.1,0.1-0.1,0.1-0.1C-535.3,767.3-535.3,767.4-535.3,767.5z M-532.1,769.7v-0.6l1.7-2.5h1.2
		v2.4h0.6v0.7h-0.6v0.7h-0.9v-0.7H-532.1z M-527.5,770.9C-527.6,770.9-527.6,770.9-527.5,770.9l-0.4,0.1h-0.1
		c-0.5,0.2-0.8,0.4-1.5,0.7l0,0h-0.1c0,0-0.1,0-0.2,0c-0.1,0-0.2,0-0.3,0l0,0l0,0l0,0l0,0h-0.1h-0.1l0,0l0,0c-0.1,0-0.1,0-0.1-0.1
		c0.4,0.2,0.7,0.1,1,0l2.2-1L-527.5,770.9C-527.7,771-527.3,770.8-527.5,770.9z M-527.1,770.7L-527.1,770.7l0.3-0.1
		C-526.9,770.6-527,770.7-527.1,770.7z M-526.8,766.3l-1.4-0.6l0,0c0.6,0.3,1.3,0.5,1.9,0.8C-526.4,766.4-526.6,766.4-526.8,766.3z
		 M-524.8,769.3C-524.8,769.3-524.9,769.3-524.8,769.3c0,0.1-0.1,0.2-0.1,0.2s0,0.1-0.1,0.1l0,0c0,0,0,0,0,0.1
		c0.1-0.2,0.2-0.4,0.2-0.6l0,0C-524.8,769.1-524.8,769.1-524.8,769.3C-524.8,769.2-524.8,769.3-524.8,769.3z"/>
	<path d="M-530.5,772L-530.5,772L-530.5,772z"/>
	<polygon points="-530.1,767.4 -531.1,769 -530.1,769 	"/>
</g>
<g id="XMLID_21_">
	<path id="XMLID_47_" class="st0" d="M-534.9,784.6c-2.6,0-4.8,2.1-4.8,4.8c0,2.6,2.1,4.8,4.8,4.8c2.6,0,4.8-2.1,4.8-4.8
		C-530.1,786.8-532.2,784.6-534.9,784.6z M-534.9,792.7c-1.8,0-3.3-1.5-3.3-3.3s1.5-3.3,3.3-3.3s3.3,1.5,3.3,3.3
		S-533.1,792.7-534.9,792.7z"/>
	<path id="XMLID_46_" class="st0" d="M-517.7,787.6h-9.5c-0.4,0-0.8,0.3-0.8,0.8s0.3,0.8,0.8,0.8h9.5c0.4,0,0.8-0.3,0.8-0.8
		S-517.3,787.6-517.7,787.6z"/>
	<path id="XMLID_45_" class="st0" d="M-505.4,780.1h-2.6c-0.3,0-0.5,0.2-0.5,0.5s0.2,0.5,0.5,0.5h2.6c0.3,0,0.5-0.2,0.5-0.5
		S-505.1,780.1-505.4,780.1z"/>
	<path id="XMLID_44_" class="st0" d="M-517.7,784.2h-10.4c-0.4,0-0.8,0.3-0.8,0.8s0.3,0.8,0.8,0.8h10.4c0.4,0,0.8-0.3,0.8-0.8
		S-517.3,784.2-517.7,784.2z"/>
	<path id="XMLID_29_" class="st0" d="M-491.4,784.2h-1.4v-4.7c0-0.3-0.2-0.6-0.4-0.7l-4.4-2.1l-3.5-6.5c-0.1-0.2-0.4-0.4-0.7-0.4
		h-10.7v-8.7c0-0.4-0.3-0.8-0.8-0.8h-33.2c-0.4,0-0.8,0.3-0.8,0.8v20.5c0,0.4,0.3,0.8,0.8,0.8h32.4v6c0,0.4,0.3,0.8,0.8,0.8h4.5
		c0,0.1,0,0.2,0,0.3c0,2.6,2.1,4.8,4.8,4.8c2.6,0,4.8-2.1,4.8-4.8c0-0.1,0-0.2,0-0.3h2.6l0,0h5.1c0.4,0,0.8-0.3,0.8-0.8v-3.5
		C-490.7,784.5-491,784.2-491.4,784.2z M-499.4,776.5h-7.8v-5.2h5L-499.4,776.5z M-545.7,780.9v-19h31.7v8.7v10.3H-545.7z
		 M-503.9,792.7c-1.8,0-3.3-1.5-3.3-3.3c0-0.3,0-0.6,0.1-0.8l0,0c0.2-0.7,0.6-1.3,1.1-1.7c0.1,0,0.1-0.1,0.2-0.1
		c0.1-0.1,0.2-0.1,0.3-0.2c0.1,0,0.2-0.1,0.2-0.1c0.1,0,0.2-0.1,0.3-0.1s0.2-0.1,0.3-0.1s0.1,0,0.2-0.1c0.2,0,0.4-0.1,0.6-0.1
		s0.4,0,0.6,0.1c0.1,0,0.1,0,0.2,0.1c0.1,0,0.2,0.1,0.3,0.1s0.2,0.1,0.3,0.1s0.2,0.1,0.2,0.1c0.1,0.1,0.2,0.1,0.3,0.2
		c0.1,0,0.1,0.1,0.2,0.1c0.5,0.4,0.9,1,1.1,1.7l0,0c0.1,0.3,0.1,0.5,0.1,0.8C-500.7,791.2-502.1,792.7-503.9,792.7z M-499.8,787.2
		c0-0.1-0.1-0.1-0.1-0.2c-0.1-0.1-0.2-0.3-0.3-0.4c-0.1-0.1-0.1-0.2-0.2-0.3c-0.1-0.1-0.2-0.2-0.3-0.3c-0.1-0.1-0.3-0.2-0.4-0.3
		c-0.1-0.1-0.2-0.2-0.4-0.3c-0.2-0.1-0.3-0.2-0.5-0.3c-0.1,0-0.2-0.1-0.3-0.1c-0.2-0.1-0.4-0.1-0.5-0.2c-0.1,0-0.2,0-0.3-0.1
		c-0.3-0.1-0.6-0.1-0.9-0.1c-0.3,0-0.6,0-0.9,0.1c-0.1,0-0.2,0-0.3,0.1c-0.2,0-0.4,0.1-0.5,0.2c-0.1,0-0.2,0.1-0.3,0.1
		c-0.2,0.1-0.3,0.2-0.5,0.3c-0.1,0.1-0.3,0.2-0.4,0.3c-0.1,0.1-0.3,0.2-0.4,0.3c-0.1,0.1-0.2,0.2-0.3,0.3s-0.2,0.2-0.2,0.3
		c-0.1,0.1-0.2,0.3-0.3,0.4c0,0.1-0.1,0.1-0.1,0.2c-0.1,0.2-0.2,0.3-0.2,0.5h-4.1v-6v-10.3h3.8v6c0,0.4,0.3,0.8,0.8,0.8h9.6l4,1.9
		v4.2h-2.2c-0.4,0-0.8,0.3-0.8,0.8v2.7h-2.2C-499.6,787.5-499.7,787.3-499.8,787.2z M-492.2,787.6h-3.6v-2h3.6V787.6z"/>
	<path id="XMLID_24_" class="st0" d="M-541.7,784.2h-6.1c-0.4,0-0.8,0.3-0.8,0.8v3.5c0,0.4,0.3,0.8,0.8,0.8h5.1
		c0.3,0,0.6-0.2,0.7-0.5l1-3.5c0.1-0.2,0-0.5-0.1-0.7C-541.3,784.3-541.5,784.2-541.7,784.2z M-543.3,787.6h-3.8v-2h4.4
		L-543.3,787.6z"/>
	<circle id="XMLID_23_" class="st0" cx="-534.9" cy="789.4" r="1"/>
	<circle id="XMLID_22_" class="st0" cx="-503.9" cy="789.4" r="1"/>
</g>
</svg>
