<?xml version="1.0" encoding="utf-8"?>
<!-- Generator: Adobe Illustrator 19.0.1, SVG Export Plug-In . SVG Version: 6.00 Build 0)  -->
<!DOCTYPE svg PUBLIC "-//W3C//DTD SVG 1.1//EN" "http://www.w3.org/Graphics/SVG/1.1/DTD/svg11.dtd">
<svg version="1.1" id="Layer_1" xmlns="http://www.w3.org/2000/svg" xmlns:xlink="http://www.w3.org/1999/xlink" x="0px" y="0px"
	 viewBox="-265 379.7 79.6 34.3" style="enable-background:new -265 379.7 79.6 34.3;" xml:space="preserve">
<style type="text/css">
	.st0{fill:#FFFFFF;}
	.st1{fill:#72CF3F;}
</style>
<g id="Layer_2">
	<rect x="-240.7" y="380.7" class="st0" width="32.8" height="20.2"/>
	<rect x="-207.2" y="390.3" class="st0" width="11.7" height="17.7"/>
	<rect x="-200.3" y="399.1" class="st0" width="13" height="8.9"/>
	<rect x="-197.3" y="393.7" class="st0" width="3.4" height="11.9"/>
	<rect x="-197.3" y="397" class="st0" width="7.1" height="2.6"/>
	<rect x="-242.3" y="404.5" class="st0" width="5.4" height="3.4"/>
	<circle class="st0" cx="-229.3" cy="408.7" r="3.5"/>
	<ellipse class="st0" cx="-198.5" cy="408.7" rx="4.6" ry="3.5"/>
</g>
<g id="Layer_1_1_">
	<g>
		<g>
			<path class="st1" d="M-229.5,403.9c-2.8,0-5,2.3-5,5c0,2.8,2.3,5,5,5s5-2.3,5-5C-224.5,406.2-226.8,403.9-229.5,403.9z
				 M-229.5,412c-1.7,0-3-1.4-3-3c0-1.6,1.4-3,3-3s3,1.4,3,3C-226.5,410.6-227.9,412-229.5,412z"/>
			<path class="st1" d="M-212.3,406.9h-9.5c-0.6,0-1,0.4-1,1c0,0.6,0.4,1,1,1h9.5c0.6,0,1-0.4,1-1
				C-211.3,407.3-211.8,406.9-212.3,406.9z"/>
			<path class="st1" d="M-199.7,399.6h-2.1c-0.3,0-0.5,0.2-0.5,0.5c0,0.3,0.2,0.5,0.5,0.5h2.1c0.3,0,0.5-0.2,0.5-0.5
				C-199.2,399.8-199.4,399.6-199.7,399.6z"/>
			<path class="st1" d="M-212.3,403.5h-10.9c-0.6,0-1,0.4-1,1c0,0.6,0.4,1,1,1h10.9c0.6,0,1-0.4,1-1
				C-211.3,403.9-211.8,403.5-212.3,403.5z"/>
			<path class="st1" d="M-186.4,403.5h-0.5v-4.4c0-0.4-0.2-0.7-0.6-0.9l-4.3-2.1l-3.4-6.4c-0.2-0.3-0.5-0.5-0.9-0.5h-10.5v-8.5
				c0-0.6-0.4-1-1-1h-33.2c-0.6,0-1,0.4-1,1v20.5c0,0.6,0.4,1,1,1h32.2v5.7c0,0.6,0.4,1,1,1h4.3l0,0c0,2.8,2.3,5,5,5
				c2.8,0,5-2.3,5-5l0,0h2.7h1.2h2.9c0.6,0,1-0.4,1-1v-3.5C-185.4,403.9-185.9,403.5-186.4,403.5z M-194.2,395.8h-7.1v-4.7h4.6
				L-194.2,395.8z M-208.6,400.2h-31.2v-18.5h31.2V400.2z M-198.3,412c-1.7,0-3-1.4-3-3c0-1.6,1.4-3,3-3s3,1.4,3,3
				C-195.3,410.6-196.6,412-198.3,412z M-198.3,403.9c-2.1,0-3.8,1.2-4.6,3h-3.7v-15.8h3.3v5.7c0,0.6,0.4,1,1,1h9.6l3.8,1.8v3.8
				h-1.6c-0.6,0-1,0.4-1,1v2.5h-2.1C-194.4,405.2-196.2,403.9-198.3,403.9z M-187.4,406.9h-2.1v-1.5h2.1V406.9z"/>
			<path class="st1" d="M-236.4,403.5h-6.1c-0.6,0-1,0.4-1,1v3.5c0,0.6,0.4,1,1,1h5.1c0.4,0,0.8-0.3,1-0.7l1-3.5
				c0.1-0.3,0-0.6-0.2-0.9C-235.8,403.6-236.1,403.5-236.4,403.5z M-238.1,406.9h-3.4v-1.5h3.8L-238.1,406.9z"/>
			<circle class="st1" cx="-229.5" cy="409" r="1"/>
			<circle class="st1" cx="-198.3" cy="409" r="1"/>
		</g>
		<g>
			<path class="st1" d="M-245.8,391.3h-18.7c-0.3,0-0.5-0.2-0.5-0.5c0-0.3,0.2-0.5,0.5-0.5h18.7c0.3,0,0.5,0.2,0.5,0.5
				C-245.3,391.1-245.5,391.3-245.8,391.3z"/>
			<g>
				<path class="st1" d="M-245.8,401.4h-6.4c-0.3,0-0.5-0.2-0.5-0.5c0-0.3,0.2-0.5,0.5-0.5h6.4c0.3,0,0.5,0.2,0.5,0.5
					C-245.3,401.2-245.5,401.4-245.8,401.4z"/>
				<path class="st1" d="M-254.8,401.4h-2.8c-0.3,0-0.5-0.2-0.5-0.5c0-0.3,0.2-0.5,0.5-0.5h2.8c0.3,0,0.5,0.2,0.5,0.5
					C-254.3,401.2-254.6,401.4-254.8,401.4z"/>
			</g>
			<g>
				<path class="st1" d="M-245.8,387.9h-4.9c-0.3,0-0.5-0.2-0.5-0.5c0-0.3,0.2-0.5,0.5-0.5h4.9c0.3,0,0.5,0.2,0.5,0.5
					C-245.3,387.7-245.5,387.9-245.8,387.9z"/>
				<path class="st1" d="M-253.4,387.9h-2.8c-0.3,0-0.5-0.2-0.5-0.5c0-0.3,0.2-0.5,0.5-0.5h2.8c0.3,0,0.5,0.2,0.5,0.5
					C-252.9,387.7-253.2,387.9-253.4,387.9z"/>
				<path class="st1" d="M-259.1,387.9h-1.4c-0.3,0-0.5-0.2-0.5-0.5c0-0.3,0.2-0.5,0.5-0.5h1.4c0.3,0,0.5,0.2,0.5,0.5
					C-258.6,387.7-258.8,387.9-259.1,387.9z"/>
			</g>
			<g>
				<path class="st1" d="M-245.8,381.2h-4.9c-0.3,0-0.5-0.2-0.5-0.5s0.2-0.5,0.5-0.5h4.9c0.3,0,0.5,0.2,0.5,0.5
					S-245.5,381.2-245.8,381.2z"/>
				<path class="st1" d="M-253.4,381.2h-1.4c-0.3,0-0.5-0.2-0.5-0.5s0.2-0.5,0.5-0.5h1.4c0.3,0,0.5,0.2,0.5,0.5
					S-253.2,381.2-253.4,381.2z"/>
			</g>
			<g>
				<path class="st1" d="M-245.8,398h-4.9c-0.3,0-0.5-0.2-0.5-0.5c0-0.3,0.2-0.5,0.5-0.5h4.9c0.3,0,0.5,0.2,0.5,0.5
					C-245.3,397.8-245.5,398-245.8,398z"/>
				<path class="st1" d="M-253.4,398h-1.4c-0.3,0-0.5-0.2-0.5-0.5c0-0.3,0.2-0.5,0.5-0.5h1.4c0.3,0,0.5,0.2,0.5,0.5
					C-252.9,397.8-253.2,398-253.4,398z"/>
				<path class="st1" d="M-257.5,398h-0.7c-0.3,0-0.5-0.2-0.5-0.5c0-0.3,0.2-0.5,0.5-0.5h0.7c0.3,0,0.5,0.2,0.5,0.5
					C-257,397.8-257.3,398-257.5,398z"/>
			</g>
			<path class="st1" d="M-245.8,384.6h-11.7c-0.3,0-0.5-0.3-0.5-0.5c0-0.2,0.2-0.5,0.5-0.5h11.8c0.3,0,0.5,0.2,0.5,0.5
				C-245.2,384.4-245.5,384.6-245.8,384.6z"/>
			<g>
				<path class="st1" d="M-245.8,394.7h-5.9c-0.3,0-0.5-0.2-0.5-0.5s0.2-0.5,0.5-0.5h5.9c0.3,0,0.5,0.2,0.5,0.5
					S-245.5,394.7-245.8,394.7z"/>
				<path class="st1" d="M-253.9,394.7h-5.9c-0.3,0-0.5-0.2-0.5-0.5s0.2-0.5,0.5-0.5h5.9c0.3,0,0.5,0.2,0.5,0.5
					S-253.6,394.7-253.9,394.7z"/>
			</g>
		</g>
	</g>
</g>
<g id="XMLID_141_">
	<path id="XMLID_151_" class="st1" d="M-225.1,391.9C-225.1,391.9-225.1,391.9-225.1,391.9C-225.1,391.9-225.1,391.9-225.1,391.9z"
		/>
	<path id="XMLID_143_" class="st1" d="M-220.4,386.8c0,0,0.1,0,0.1,0c0,0,0,0,0,0s0,0,0,0c0,0,0,0,0.1,0c0,0,0,0,0,0c0,0,0,0,0,0
		s0,0,0,0c0,0,0,0,0,0c0,0,0,0,0,0c0,0,0,0,0,0c0,0,0,0,0,0c0,0,0,0,0,0c0,0,0,0,0,0c0,0,0,0,0,0s0,0,0,0c0,0,0,0,0,0c0,0,0,0,0,0
		c-0.1-0.1-0.1-0.1-0.2-0.2l0,0c0,0,0,0,0,0C-220.3,386.8-220.3,386.8-220.4,386.8C-220.4,386.8-220.4,386.8-220.4,386.8
		c-0.1-0.1-0.1-0.1-0.1-0.1l0,0C-220.5,386.7-220.5,386.7-220.4,386.8z"/>
	<path id="XMLID_142_" class="st1" d="M-221.4,390.5l0.4-0.2l0,0C-221.2,390.4-221.3,390.4-221.4,390.5z"/>
</g>
<g id="XMLID_129_">
	<path id="XMLID_139_" class="st1" d="M-230.5,394.6v1.9c-0.4,0.3-1.1,0.6-1.8,0.6c-1.2,0-2.2-0.8-2.2-2.1c0-1.3,1-2.1,2.2-2.1
		c0.7,0,1.2,0.2,1.6,0.5l-0.5,0.8c-0.3-0.2-0.7-0.4-1.1-0.4c-0.7,0-1.2,0.4-1.2,1.2c0,0.7,0.5,1.2,1.2,1.2c0.3,0,0.5-0.1,0.7-0.2
		v-0.6h-1v-0.8H-230.5z"/>
	<path id="XMLID_136_" class="st1" d="M-227.6,392.9c1.2,0,2.1,0.9,2.1,2.1c0,1.2-0.9,2.1-2.1,2.1c-1.2,0-2.1-0.9-2.1-2.1
		C-229.8,393.8-228.9,392.9-227.6,392.9z M-227.6,396.1c0.7,0,1.1-0.5,1.1-1.2c0-0.7-0.5-1.2-1.1-1.2c-0.6,0-1.1,0.5-1.1,1.2
		C-228.8,395.6-228.3,396.1-227.6,396.1z"/>
	<path id="XMLID_133_" class="st1" d="M-222.8,392.9c1.2,0,2.1,0.9,2.1,2.1c0,1.2-0.9,2.1-2.1,2.1c-1.2,0-2.1-0.9-2.1-2.1
		C-224.9,393.8-224,392.9-222.8,392.9z M-222.8,396.1c0.7,0,1.1-0.5,1.1-1.2c0-0.7-0.5-1.2-1.1-1.2c-0.6,0-1.1,0.5-1.1,1.2
		C-223.9,395.6-223.4,396.1-222.8,396.1z"/>
	<path id="XMLID_130_" class="st1" d="M-219.8,392.9h1.8c1.2,0,2.1,0.7,2.1,2.1c0,1.3-0.9,2-2.1,2h-1.8V392.9z M-218.7,393.8v2.3
		h0.8c0.7,0,1.1-0.4,1.1-1.2c0-0.8-0.5-1.2-1.1-1.2H-218.7z"/>
</g>
<g>
	<path class="st1" d="M-219.7,388.2c0,0,0-0.1,0-0.2c0-0.1,0-0.2,0-0.3c0-0.1,0-0.2,0-0.2c0-0.1,0-0.1,0-0.2c0,0,0,0,0-0.1
		c0,0,0,0,0,0c0,0,0,0,0,0.1c0,0,0,0,0,0c0,0,0,0,0,0c0,0,0,0.1,0,0.1c0,0.1,0,0.2,0,0.3C-219.7,388.1-219.7,388.3-219.7,388.2
		c0,0.4-0.1-0.1-0.1-0.2l0-0.2c0-0.4-0.1-0.8-0.5-1l-0.5-0.2l0.3,0.1l-0.6-0.2c0.1,0,0.4,0.1,0-0.1c-0.7-0.3-1.4-0.6-2.2-0.9
		c-0.3-0.1-0.5-0.2-0.8-0.3c-0.1-0.1-0.3-0.1-0.4-0.2c-0.1,0-0.1-0.1-0.2-0.1c0,0,0,0-0.1,0c0,0,0,0-0.1,0c0,0-0.1,0-0.1,0
		c-0.1,0-0.3,0-0.5,0c-0.1,0-0.1,0-0.2,0.1c0,0-0.1,0-0.1,0c0,0,0,0-0.1,0l-0.1,0c-0.3,0.1-0.5,0.2-0.8,0.4c0.2-0.1-0.2,0.1,0.1,0
		c-0.1,0-0.1,0.1-0.2,0.1l-0.4,0.2c0.4-0.2-0.5,0.2-0.4,0.1c-0.5,0.2-0.5,0.2-1.1,0.4c-0.3,0.2,0.4-0.1,0.6-0.2
		c-0.1,0-0.1,0.1-0.2,0.1c0.2-0.1,0.4-0.1,0.4-0.1l-1,0.5c0,0,0,0-0.2,0c-0.1,0-0.7,0.3-0.9,0.4c0,0,0,0-0.1,0c0,0,0,0-0.1,0
		c0,0,0,0,0,0c0,0,0,0,0,0c0,0,0,0,0,0c0,0,0,0,0,0c0,0,0,0,0,0c0,0,0,0,0,0c0,0,0,0,0,0l0,0c0,0,0,0,0,0c0,0.1-0.1,0.1-0.1,0.2
		c0,0.1-0.1,0.1-0.1,0.2c0,0.1-0.1,0.2-0.1,0.4c0,0.1,0,0.1,0,0.2c0,0,0,0.1,0,0.1l0,0.5c0,0.1,0,0.2,0,0.3c0,0.1,0,0.2,0,0.2
		c0,0.1,0,0.2,0,0.2c0,0.1,0,0.1,0.1,0.2c0,0,0,0,0,0c0,0,0-0.1,0-0.1c0,0,0,0,0,0c0,0,0,0,0.1,0.1c0,0.1,0.1,0.1,0.1,0.2
		c0,0,0,0,0,0c0,0,0,0,0,0c0,0,0,0,0,0c0,0,0,0,0,0c0,0,0,0-0.1,0c0,0,0,0,0,0c0,0,0,0,0,0c0,0,0,0,0,0c0,0,0.1,0.1,0.1,0.1
		c0,0,0,0,0.1,0c0,0,0,0,0.1,0c0.1,0,0.1,0.1,0.2,0.1c0.1,0.1,0.2,0.1,0.4,0.2c0.2,0.1,0.4,0.2,0.6,0.3c0.6,0.3,1.4,0.6,1.8,0.8
		l-0.3-0.2c0.5,0.2,0,0,0.6,0.2c0.4,0.2,0.2,0.1,0.2,0.2c0.1,0.1,0.3,0.1,0.4,0.2c0.1,0,0.2,0.1,0.2,0.1c0,0,0.1,0,0.1,0
		c0,0,0.1,0,0.1,0c-0.1,0-0.1,0-0.1,0c0,0,0,0,0,0c0,0,0,0,0,0c0,0,0,0,0.1,0c0,0,0,0,0,0c0,0,0,0,0,0c0.1,0,0.2,0.1,0.3,0.1
		c0,0,0,0,0.1,0c0,0,0,0,0.1,0c0,0,0.1,0,0.1,0c0.1,0,0.1,0,0.2-0.1c0.1,0,0.1,0,0.2-0.1c0.1,0,0.3-0.1,0.4-0.1l-0.1,0
		c0.1,0,0.1-0.1,0.3-0.1c0.2-0.1-0.1,0.1,0,0c0.6-0.2,0.6-0.3,1.1-0.5c0.8-0.3,1.3-0.6,2.2-1c-0.3,0.1-0.7,0.3-1.1,0.5l0.4-0.2
		c0,0,0,0,0,0l0.9-0.4c-0.1,0.1-0.2,0.1-0.3,0.2c0.1,0,0.2-0.1,0.3-0.1c0.1,0,0.1,0,0.2-0.1c0,0,0,0,0,0c0,0,0,0,0,0c0,0,0,0,0,0
		c0,0,0,0,0,0c0,0,0,0,0.1,0c0,0,0,0,0,0c0,0,0,0,0,0c0,0,0,0,0,0c0,0,0,0,0,0c0,0,0,0,0,0c0,0,0,0,0,0c0.1-0.1,0.2-0.2,0.2-0.2
		c0,0,0,0,0-0.1c0,0,0,0,0-0.1c0,0,0,0,0,0c0,0,0,0,0,0c0-0.1,0.1-0.2,0.1-0.4c0,0,0,0,0-0.1c0,0,0,0,0-0.1c0-0.1,0-0.1,0-0.2
		c0-0.1,0-0.2,0-0.2C-219.7,388.4-219.7,388.3-219.7,388.2z M-230.3,387.4C-230.3,387.4-230.3,387.4-230.3,387.4
		c0-0.1,0.1-0.2,0.1-0.2c0-0.1,0.1-0.1,0.1-0.1C-230.2,387.2-230.3,387.3-230.3,387.4z M-227,389.6V389l1.7-2.5h1.2v2.4h0.6v0.7
		h-0.6v0.7h-0.9v-0.7H-227z M-222.5,390.9c-0.1,0-0.1,0-0.1,0l-0.3,0.1l-0.1,0c-0.5,0.2-0.8,0.4-1.5,0.7c0,0,0,0,0,0
		c0,0-0.1,0-0.1,0c0,0-0.1,0-0.2,0c-0.1,0-0.2,0-0.3,0c0,0,0,0,0,0c0,0,0,0,0,0c0,0,0,0,0,0c0,0,0,0,0,0c0,0-0.1,0-0.1,0
		c0,0-0.1,0-0.1,0c0,0,0,0,0,0c0,0,0,0,0,0c-0.1,0-0.1,0-0.1-0.1c0.4,0.2,0.7,0.1,1,0l2.2-1l-0.3,0.2
		C-222.7,390.9-222.3,390.8-222.5,390.9z M-222.1,390.7C-222.1,390.7-222.1,390.7-222.1,390.7l0.3-0.1
		C-221.8,390.6-221.9,390.6-222.1,390.7z M-221.7,386.2l-1.4-0.6c0,0,0,0,0,0c0.6,0.3,1.3,0.5,1.9,0.8
		C-221.4,386.4-221.6,386.3-221.7,386.2z M-219.8,389.2C-219.8,389.2-219.8,389.3-219.8,389.2c0,0.1-0.1,0.2-0.1,0.2
		c0,0,0,0.1-0.1,0.1c0,0,0,0,0,0c0,0,0,0,0,0.1c0.1-0.2,0.2-0.4,0.2-0.6c0,0,0,0,0,0C-219.8,389.1-219.8,389.1-219.8,389.2
		C-219.8,389.2-219.8,389.2-219.8,389.2z"/>
	<path class="st1" d="M-225.5,391.9C-225.5,391.9-225.5,391.9-225.5,391.9C-225.5,391.9-225.5,391.9-225.5,391.9z"/>
	<polygon class="st1" points="-225.1,387.4 -226.1,388.9 -225.1,388.9 	"/>
</g>
</svg>
