<?xml version="1.0" encoding="utf-8"?>
<!-- Generator: Adobe Illustrator 18.1.1, SVG Export Plug-In . SVG Version: 6.00 Build 0)  -->
<!DOCTYPE svg PUBLIC "-//W3C//DTD SVG 1.1//EN" "http://www.w3.org/Graphics/SVG/1.1/DTD/svg11.dtd">
<svg version="1.1" id="Layer_1" xmlns="http://www.w3.org/2000/svg" xmlns:xlink="http://www.w3.org/1999/xlink" x="0px" y="0px"
	 viewBox="0 0 1600 111.4" enable-background="new 0 0 1600 111.4" xml:space="preserve">
<g>
	<path fill="#FFFFFF" d="M1048.3,96.7c-2.1,0.1-2.9,0.4-15,0.3c33,0.6,59.4,0,79.9-0.9c20.6-0.8,35.6-1.9,47.1-2.5
		c10-0.6,17.3-1,22.7-1.2c2.1-0.4,5.2-0.9,9.7-1.5c164.8-15.5,231.7-27.1,362-37.7l25.7-0.3l19.6-2.1v-2.7l-411.9,40.4
		c-80,8.8-154.2,10-241.2,1.4c9.2,1.1,20.3,2.2,32.6,3.2c3.4,0.3,7,0.6,10.7,0.8c3.7,0.2,7.4,0.5,11.1,0.8
		c7.6,0.4,15.4,0.9,23.3,1.1c7.8,0.3,15.8,0.4,23.5,0.6c3.3,0,6.5,0,9.7,0c2.6,0,6,0,10.3-0.1c0.8,0,1.7,0,2.5,0c-0.9,0-1.7,0-2.5,0
		c-3.4,0.1-6.8,0.1-10.3,0.1c-1.6,0-2.9,0-4,0C1050.7,96.5,1049.3,96.6,1048.3,96.7z"/>
	<path fill="#FFFFFF" d="M1341.5,81c-29.4,2.3,33.3-4.3-8.7-0.7c-41.9,3.6-50.1,5.3-69.5,7.6l16.9-1c-22.6,1.3-75.5,5.7-93.9,6.4
		c-18.6,2.1-34.4,3.6-48.9,4.8c-17,1.4-32,2.4-48.2,3c-8,0.4-16.4,0.5-25.3,0.7c-4.5,0-9.1,0-13.9,0.1c-4.8,0-9.8-0.1-15.1-0.1
		c-21-0.4-45.9-1.4-75.5-4c8.7,0.7,7.1,0.5,1-0.1c-3.1-0.3-7-0.7-11.5-1.2c-4.4-0.5-9.3-1-13.5-1.5c-4.3-0.5-8.3-1-11.3-1.4
		c-3-0.4-5-0.6-5.5-0.8c-1-0.2,4.2,0.1,21.2,1.8c-5.6-0.7-12.3-1.4-19.3-2.2c-7-0.7-14.6-1.5-22.7-2.3c-16.2-1.6-34.2-3.3-52.6-5.1
		c-36.9-3.5-75.4-7-104-9.9c-4.5-1.7,48.3,2.3-53.1-8.6C551.4,52.4,666.2,67,542.9,55.1l83.7,8.6C538.7,57.1,340.4,36.3,195,22.5
		c-52.9-5.9-102.6-12-156.9-18.2C25.7,2.9,13,1.4,0,0v111.4h1600V54.3C1491.6,65.2,1472.9,69.2,1341.5,81z"/>
</g>
</svg>
