<?xml version="1.0" encoding="utf-8"?>
<!-- Generator: Adobe Illustrator 19.0.1, SVG Export Plug-In . SVG Version: 6.00 Build 0)  -->
<!DOCTYPE svg PUBLIC "-//W3C//DTD SVG 1.1//EN" "http://www.w3.org/Graphics/SVG/1.1/DTD/svg11.dtd">
<svg version="1.1" id="Layer_1" xmlns="http://www.w3.org/2000/svg" xmlns:xlink="http://www.w3.org/1999/xlink" x="0px" y="0px"
	 viewBox="19 307.5 649.8 179.5" style="enable-background:new 19 307.5 649.8 179.5;" xml:space="preserve">
<style type="text/css">
	.st0{fill:none;stroke:#EEF8D7;stroke-miterlimit:10;}
	.st1{clip-path:url(#SVGID_2_);}
	.st2{fill:#167011;}
	.st3{fill:none;}
</style>
<g>
	<path class="st0" d="M-14.9,347.5"/>
</g>
<g>
	<g>
		<g>
			<defs>
				<rect id="SVGID_1_" x="19" y="306" width="649.8" height="189.5"/>
			</defs>
			<clipPath id="SVGID_2_">
				<use xlink:href="#SVGID_1_"  style="overflow:visible;"/>
			</clipPath>
			<g class="st1">
				<path class="st2" d="M700.2,481.3c0,0-119.6-12.9-136.7-14.9c-18.4-2.1-90.4-9.1-122.7-9.3c-15.4-0.1-128.7-0.7-157.5,1.5
					c-38.3,2.9-277.7,17-277.7,17V287l694.6,5.7L700.2,481.3L700.2,481.3z"/>
				<g>
					<path class="st2" d="M341.5,440.9c1-0.2,2.7-0.2,4.7-0.3C345.6,440.9,343,441.1,341.5,440.9z"/>
					<path class="st2" d="M412,467.8c1.4-0.1,5.8-0.3,5.4,0.2C414.9,468,413.8,467.9,412,467.8z"/>
					<path class="st2" d="M419.6,468.5c0.4-0.2,3.8,0,5.4,0C424.9,468.8,420.6,468.7,419.6,468.5z"/>
					<path class="st2" d="M441.2,464.5c1.1-0.1,4-0.2,5.3,0C446.1,464.7,442.8,464.4,441.2,464.5z"/>
					<path class="st2" d="M450.7,469.3c1.8-0.2,4.9-0.1,9.1,0.2C458.4,469.7,454,469.4,450.7,469.3z"/>
					<path class="st2" d="M478.7,448.1c4.7,0.3,14.4,0.5,17.8,1.2C490.7,448.7,484,448.7,478.7,448.1z"/>
					<path class="st2" d="M490.6,459c5.9-0.2,16.4,1.4,23.9,1.6c1,0.6-11-0.9-13.2-0.6c-1.8-0.2-3.1-0.4-4.5-0.6
						C494.7,459.3,492.7,459.5,490.6,459z"/>
					<path class="st2" d="M562.2,467.2c-0.1-0.3,0.4-0.4,2.4-0.2c0.6,0.2,0.7,0.3,0.6,0.5C564.2,467.4,563.2,467.3,562.2,467.2z"/>
					<path class="st2" d="M592.4,466.6c4.8,0,15.6,1.1,21.5,2.2c0.8,0,0.9-0.2,2.4,0c3.6,0.3,11.5,1.4,3.8,0.5
						C610.4,468.7,602.9,467.5,592.4,466.6z"/>
					<path class="st2" d="M595.4,472.6c1.2,0,3.1,0.1,5.4,0.4C600.2,473.2,596.2,472.9,595.4,472.6z"/>
					<path class="st2" d="M604.3,458.7c0.9-0.2,4.8,0.5,6.9,0.6C609.7,459.3,606,459.1,604.3,458.7z"/>
					<path class="st2" d="M601.3,471.4c1.9-0.1,6.2,0.5,8.5,0.5C611.8,472.6,604.2,471.7,601.3,471.4z"/>
					<path class="st2" d="M604.6,473.4c1.5-0.2,6,0.4,9.3,0.7C611.9,474.1,607.6,473.6,604.6,473.4z"/>
					<path class="st2" d="M612,456.8c0.3-0.4,3.3,0,5.5,0.1C617,457.2,613.9,456.8,612,456.8z"/>
					<path class="st2" d="M615,459.8c2.5-0.1,11.1,0.9,15.3,1.4C624.9,461,620.8,460.5,615,459.8z"/>
					<path class="st2" d="M615.4,474.3c4-0.1,9.7,1,13,1.4C624.8,475.5,619.6,474.4,615.4,474.3z"/>
					<path class="st2" d="M626.2,470c1.5,0,4.1,0.2,6.2,0.3C632.7,470.9,628.7,470.3,626.2,470z"/>
					<path class="st2" d="M632.7,471.9c1.8-0.1,3.5,0.2,6.1,0.6C638.2,472.7,634.6,472.1,632.7,471.9z"/>
					<path class="st2" d="M639.2,474c0.9-0.2,6.6,0.4,5.3,0.8c-1.6-0.1-1.4-0.3-1.4-0.5C641.2,474.1,641.3,474.4,639.2,474z"/>
					<path class="st2" d="M656.3,466.9C652.4,467,646,465.6,656.3,466.9L656.3,466.9z"/>
					<path class="st2" d="M665.2,463.5c3.2,0.1,6.3,0.5,10,0.9C672.8,464.3,666.7,463.7,665.2,463.5z"/>
					<path class="st2" d="M667.6,463c-1.1-0.5,5.1,0.2,3.8,0.4C670.2,463.3,668.9,463.2,667.6,463z"/>
					<path class="st2" d="M675.5,457.6c1.1-0.1,3.5,0,5.4,0.3C680.4,458.1,676.4,457.8,675.5,457.6z"/>
					<path class="st2" d="M696.8,460.2C703.2,460.3,705.4,461,696.8,460.2L696.8,460.2z"/>
					<path class="st2" d="M524.1,443.6c1.3,0,3.1,0,4-0.1c2.3,0.6,6.8,0.6,10,1.1C534,444.7,529.9,443.8,524.1,443.6z"/>
					<path class="st2" d="M609,461.3c1.9,0.2,1.6,0.4,3.8,0.5c0.2,0.2-0.8,0.1-0.9,0.3c3.8,0.5,5.9,0.5,9.2,0.9
						c-0.4,0-0.9,0.1-0.9,0.3c4.4-0.2,9.3,1.3,18.4,2c-8.7-0.2-27.7-2.7-35.3-3.3c1.2-0.3,7.7,0.8,8.6,0.3
						C612.1,461.8,607.7,461.7,609,461.3z"/>
					<path class="st2" d="M615.9,472.8C616.8,472.9,616.4,472.7,615.9,472.8c0.3-0.3,3.4,0.2,3.8,0.3
						C618.7,473.3,608.7,472.1,615.9,472.8z"/>
					<path class="st2" d="M672.8,477.7l-0.1,0.5c4.9,0.5,12.7,1.3,16,2c-5.8-0.3-18-2.5-22.3-2.2c-1-0.2-2.8-0.4-3.8-0.7
						c-13.6-0.7-28.1-3.1-42.2-4.2c6.4-0.5,20.5,2.7,27.8,2.2c1.2,0.2,0,0.1-0.8,0C653.7,476.1,664.8,477.6,672.8,477.7z"/>
					<path class="st2" d="M669.4,462.3c1.2-0.1,3.4,0.1,4.7,0C674.9,462.4,671,462.8,669.4,462.3z"/>
					<path class="st2" d="M693.7,295.3c0.9,0,1.7,0,2.6,0c0.4,0,0.9,0,1.3,0l0,0l0,0l0,0l0,0v0.3c0,0.5,0,0.9,0,1.4
						c0.1,8.5,0.2,16.1,0.3,24.6c0.1,7.5,0.3,14.6,0.4,22.5c0.1,5.8,0.1,7.7,0.2,11.6c0.2,11.4,0.3,20.7,0.4,25.7
						c0.1,8,0.3,18,0.4,25c0,1.1,0,3.4,0,3.9c0.3,17.8,0.5,28.7,0.6,49.6c0,1.8,0,3.2,0.1,6.6c0,1.6,0,5.1,0,6.3c0,3.8,0,1.6,0,8.5
						c0,0.4,0-1,0-1.4c0,0.2,0-2.9,0-1c0-5,0-4.6,0-8.5c0-2.7,0.1-7.8,0.1-11.1c0-3.9,0.1-7.9,0.1-11.1c0-0.8,0.1-4.7,0.1-5.8
						c0.1-6,0.1-10.5,0.2-16.6c0-0.6,0-1.8,0-2.2c0.2-12.8,0.4-25.8,0.7-43.2c0-1.6,0.1-4.9,0.1-6.9c0.2-13,0.4-33,0.6-39.8
						c0-2.3,0-2.3,0.1-4.6c0.1-1.5,0.3-8.4,0.3-14.4c0-2.1,0-5.7,0-10.2c0.1-3.6,0.1-7.1,0.2-10.5c0-0.8,0-1.6,0-2.3v-1.1v-0.3
						c0-0.1-0.1,0-0.1,0h-0.1h-0.6c-0.8,0-1.5,0-2.3-0.1c-0.7,0-1.4,0-2.1,0c-1.6,0-3.1-0.1-4.6-0.1c-2.8,0-5.7-0.1-8.6-0.1
						c-7.6-0.1-22.9-0.5-29.2-0.6c-5-0.1-6.9-0.3-10.7-0.3c-3.4-0.1-6,0-5.7,0.1c-9.8,0.1-35.1-0.7-50.3-0.8
						c-11.1-0.4-21.7-0.4-32.4-0.6c-2.1-0.1-4.7-0.1-6.9-0.2c-3.6,0-8.5-0.1-13.2-0.2c-8-0.1-15-0.2-21.6-0.3
						c-10.2-0.5-17.7-0.3-26.2-0.5c-3.2-0.1-6.4-0.2-9.9-0.3c-3,0-6-0.1-9.3-0.1c-3.3-0.1-6.8-0.2-9.9-0.3c-2.4,0-4.3,0-6.2-0.1
						c-2.6-0.1-4.2-0.2-6.9-0.2c-2.8,0-5.7,0-8.6,0c-10.5-0.2-21.8-0.5-31.7-0.5c-17.9-0.6-33.4-0.5-54.6-1.1c-5.3,0-9.1,0-14.7-0.2
						c-1.2,0-1.2,0.1-3.1,0c-11-0.3-22.6-0.2-33.9-0.6c-0.4,0-0.9,0.1-1.6,0.1c-15.6-0.5-35.4-0.9-47.7-0.9
						c-9.5-0.4-20.6-0.4-32.3-0.6c-5.5-0.1-11-0.3-16.1-0.4c-10.1-0.1-23.4-0.5-33.1-0.6c-2.9,0-5.7,0.1-8.6,0
						c-5.1-0.1-10.7-0.3-16.1-0.3c-21.1-0.1-45.4-0.7-63.9-1.1c-5.7-0.1-10.6,0-17-0.1c-10.6-0.1-21.6-0.6-32.3-0.7
						c-2.7,0-5.3,0-7.8,0c-4.4-0.1-8.6-0.1-13-0.2c-2.7-0.1-5.3,0-8.1,0.1c-1.4,0-2.7,0-4.1,0.1h-0.5h-0.1v0.1v0.3v1
						c0,0.7,0,1.4,0,2.1c-0.1,3.5-0.1,6.9-0.1,10.4c0,3,0,5.9,0,8.9c0,4.1,0,8.2,0,12.3c0,8.1-0.1,16.1-0.3,23.9
						c0.2,19.8-0.2,48.7-0.3,71.7c0.3,5.2,0,10.1,0,15.4c0,8.2,0,17.6,0.1,27.1c0,6.1,0,12.3,0,18.3c0,1,0,1.9,0,2.9
						c0,0.9,0,1.8,0.1,2.8c0,1.8,0.1,3.7,0.1,5.5c0,0.9,0,1.8,0.1,2.7v1.3v0.3c0,0.1,0.2,0,0.3,0h0.7c1.8-0.1,3.5-0.1,5.2-0.2
						c20.5-1.2,41.3-2.4,62.2-3.6c18.4-1,36.8-2.1,55.3-3.1c36.9-2.1,73.7-4.2,109.5-6.5c5.6,0.1,14.3-0.6,19.2-1.1
						c1.1,0.2,4.4,0,6.9-0.1c4.5-0.5,9.5-0.8,14.9-1.1c2.7-0.1,5.4-0.3,8.2-0.4s5.7-0.3,8.3-0.5c0.7-0.2,1.6-0.3,2.7-0.4
						s2.3-0.1,3.6-0.2c2.5-0.1,5.3-0.2,7.4-0.5c1.8,0.3-2.4,0.3,0.7,0.5c7.2-1.3,32-1,43.1-1.3c-0.8,0-0.9-0.2,0-0.2
						c2.7,0.3,4-0.3,7-0.3c20.2-0.1,34.6-1.2,51.9-1.5c2.2,0.2,7.9,0.7,9.9,0.3c-3.1-0.1-7.1-0.1-6.8-0.6c5.2,0.2,12,0,15.5-0.3
						c6.4,0,9.7,0.3,15.4,0c1.4,0-1.4-0.5,1.6-0.5c4.5,0.2,7.7,0.2,10.9,0.3c3.2,0.1,6.3,0.2,10.3,0.5c2.3-0.4,11.7,0.1,14.6,0.6
						c2.6,0-2.8-0.6-0.6-0.6c7.2,0.3,14,0.7,20.6,1.5c1.7-0.1,2.8-0.3,5.5-0.2c1.8,0.1-0.6,0.4,2.2,0.5c2.6-0.1-2-0.7-1.3-1
						c3.6,0.1,2.9-0.2,4.8-0.3c5,0.7,8.5,0.4,13.2,0.7c4.7,0.2,10,0.9,14.6,1.2c3.9,0.3,5.7,0,10.1,0.5c3.6,0.4,6.6,1.1,10.6,1.5
						c2.1,0.1-1.4-0.6,1.6-0.3c14,1.4,28.1,2.8,38.5,3.3c-16-0.9-27.5-3.1-41.5-3.8c-2.1-0.7-6.3-0.4-8.3-1.2
						c-1,0.2,2.2,0.7-0.9,0.3c-1-0.1-1.4-0.3-3-0.4c2-0.4-0.9-0.7-2-1.2c-11.9-1.1-21.2-1.7-31.5-2.6c-1.9,0,1.3,0.4-0.9,0.4
						c-3.9-0.2-6.9-0.6-11.5-0.8c-1.4-0.5-4.4-1-2.7-1.4c13.9,1.1,32.8,1.9,49.3,3.5c5,0.5,10.1,1.4,13.1,1
						c-7.4-0.6-13.3-1.9-19.7-2.6c-8.3-0.9-17.3-1-25.4-1.8c-2.3-0.2-3.2-0.5-5.3-0.7c-1.6-0.1-4.4,0-6.2-0.2
						c-2-0.2-2.1-0.4-3.8-0.5c-3.5-0.2-6.2-0.1-10.1-0.4c-6.5-0.5-12.8-1.3-19.9-1.6c-1.3-0.3-0.7-0.7,1-0.7
						c8.4,0.5,9.9,0.6,18.5,1.2c-1-0.1-1.5-0.3-1.5-0.4c2.6,0.2,3.6,0.4,5.4,0.3c-6.4-0.4-5.8-1.2-3.5-1.4
						c15.9,1.2,35.3,2.5,48.4,4.1c1.5-0.1,2.4-0.3,4.8-0.2c7.4,0.6,15.1,1.3,23,2.2s15.9,1.7,23.8,2.4c-8.9-1.3-18-2.3-27.6-3.3
						c-9.5-0.9-19.5-1.7-29.9-2.5c-0.8-0.2-0.1-0.4-2.2-0.5c-8.9-0.5-19.3-1.4-26.2-1.9c-3-0.7-6-1.4-8.9-2.1
						c-11-0.6-20.5-1.6-29.9-2.4c-4.7-0.4-9.4-0.8-14.3-1.1c-4.9-0.3-9.8-0.3-15.1-0.4c0.1-0.3-1.5-0.4-2.2-0.6
						c1.7-0.3,2.8-0.6,4.8-0.8c3.5,0,7-0.2,10.1,0.1c18.1-0.7,43.2,1.6,65.3,2.8c2.7-0.3,0.7-0.9-1.2-1.5
						c-10.6-1.1-20.4-1.1-31.6-2.4c-4-1.5,0.3-2.1,9.1-1.6c14.5,0.8,39.3,2.9,48.6,3.9c10.6,0.7,21.1,1.5,31.7,2.6
						c10.5,1,21,2,31.5,3c21,2,42.2,4.1,63.7,5.9c-23.9-2.7-46-4.2-67.3-6.8c0.1,0.3-0.7,0.3-2.4,0.1c-5.3-0.6-10.7-1.1-16.1-1.7
						c-5.5-0.5-11-1.1-16.4-1.6c-10.9-1-21.4-1.8-30.7-2.4c-7.7-1.4-22.8-1.7-30.7-3c2.1-1.1,8.6-1.2,16.8-0.8
						c-8.3-0.6-16.1-1.5-23.1-2c-5.7-0.4-15.7-0.7-18.7-1.1c-0.7-0.1,0.7-0.3-0.7-0.3c2.4,0.1-4.2-0.1-4.7-0.1
						c-3.2,0-2.6,0.1-6.3-0.1c-4.8-0.2-4.7-0.2-7.8-0.6c-2.1-0.1-4.2-0.2-6.3-0.2c-2.1,0-4.3-0.1-6.3,0c-4,0-8.1,0.1-12.1,0.1
						c-8.1,0.1-16.1,0.2-24.3,0.1c-1.7,0-5.1,0-5.4,0c-1.5-0.1-0.2-0.3-2.3-0.3c-1.2,0-0.6,0.2-2.3,0.2c-6.4,0-13.6,0-20,0.1
						c-15.9,0.3-34.8,0.3-47.9,0.7c-2.9,0,0.9-0.4-3-0.3c-5.6,0.1-11.3,0.2-17.1,0.4c-5.8,0.2-11.7,0.3-17.8,0.7
						c-11.8,0.8-23.7,1.6-35.7,2.4c-1.8,0.1-0.4-0.4-3-0.1c-3.3,0.2-2.5,0.5-5.4,0.7c-1.8,0-3.5,0-4.5-0.1
						c-27.3,1.7-55.5,4.1-83.6,6.2c-26.3,2-52.6,3.9-77.5,5.8c-19.7,1.5-38.4,3.1-56,4.2c-0.8,0-1.5,0.1-2.3,0.1
						c-0.3,0-0.7,0.1-1,0.1l-0.5,0.1c-0.1,0-0.2,0.1-0.2,0v-0.2c0-0.6-0.1-1.2-0.1-1.9v-1v-0.5v-1.7c-0.1-10.8-0.3-21.5-0.4-32.6
						c-0.2-16-0.2-33.6-0.5-47c-0.1-2.3-0.2-5.1-0.3-7.8c0-4.1,0.1-8.2,0.1-12.2c-0.1-11-0.5-22.2-0.6-33.2
						c-0.6-6.2-0.6-12.2-0.7-18.2v-4.5v-2.2v-1.1V299v-1.2c0-0.4,0-0.8,0-1.2v-0.3c0-0.1-0.1-0.3,0.1-0.2h0.6c0.4,0,0.8-0.1,1.2-0.1
						c2.2,0,4.4,0,6.6-0.1c4.5,0,9.2,0.1,13.8,0.1c13,0,26.3-0.3,38.6-0.3c16.4,0,33.3,0.2,50-0.1c18.4,0.1,40.8,0.1,58.5-0.1
						c14.3,0.3,29.2-0.1,45.4,0c1.7,0,2.8,0.1,4.6,0.1c24.5,0.2,51.7-0.3,71.6-0.1c7.5-0.2,13.8,0,20.8,0c7.5,0,14.4-0.1,21.6-0.1
						c2.4,0,4.5,0,6.9,0.1c7.3,0,14.4-0.1,22.4-0.2c12-0.1,24.7,0.2,38.4,0c10.6,0.1,26.3,0.2,38.4,0c20.5,0.2,41.2-0.1,62.3-0.1
						c7.1,0,13.6,0.1,20.8,0c7.4,0.1,16.3,0,25.4,0c8.9,0,18.3,0,27.6,0c13.3,0,29.9-0.1,39.9,0c4.5,0.4,13.4-0.2,24-0.2
						c5.6,0.1,4.9,0.2,7.3,0.3c5,0,9.8,0,14.6-0.1C682,295.2,686.1,295.3,693.7,295.3z M475.5,462.8c-0.2,0.1,0.1,0.2,0.7,0.3
						C474.5,463.5,471,462.5,475.5,462.8z M477.1,462.7c6.4,0.4,15.3,0.6,19.9,1.4c1.2,0.1-1.1-0.7,1-0.7c2.7,0.5,5.9,1,10.6,1.4
						c0.2,0.9-9-0.4-9.5,0.3c-3.6-0.4-5.3-0.5-7-0.3c-7.3-0.9-9-0.5-14.5-1.2C479.1,463.3,476.6,463.3,477.1,462.7z"/>
				</g>
			</g>
		</g>
	</g>
</g>
<rect x="-124" y="242.5" class="st3" width="992" height="286"/>
</svg>
