<?xml version="1.0" encoding="utf-8"?>
<!-- Generator: Adobe Illustrator 18.1.1, SVG Export Plug-In . SVG Version: 6.00 Build 0)  -->
<!DOCTYPE svg PUBLIC "-//W3C//DTD SVG 1.1//EN" "http://www.w3.org/Graphics/SVG/1.1/DTD/svg11.dtd">
<svg version="1.1" id="Layer_1" xmlns="http://www.w3.org/2000/svg" xmlns:xlink="http://www.w3.org/1999/xlink" x="0px" y="0px"
	 viewBox="-22.2 231 695.7 204.2" enable-background="new -22.2 231 695.7 204.2" xml:space="preserve">
<g>
	<g>
		<defs>
			<rect id="SVGID_1_" x="0" y="231.6" width="640" height="186.6"/>
		</defs>
		<clipPath id="SVGID_2_">
			<use xlink:href="#SVGID_1_"  overflow="visible"/>
		</clipPath>
		<g clip-path="url(#SVGID_2_)">
			<path fill="#00ADF3" d="M-20,235.2c0,0,117.8,12.7,134.6,14.7c18.1,2.1,89,9,120.8,9.2c15.2,0.1,126.8,0.7,155.1-1.5
				c37.7-2.9,273.5-16.7,273.5-16.7v185.8L-20,421L-20,235.2L-20,235.2z"/>
			<g>
				<path fill="#00ADF3" d="M333.4,275c-1,0.2-2.7,0.2-4.6,0.3C329.3,275,331.8,274.8,333.4,275z"/>
				<path fill="#00ADF3" d="M263.9,248.5c-1.4,0.1-5.7,0.3-5.3-0.2C261.1,248.3,262.1,248.4,263.9,248.5z"/>
				<path fill="#00ADF3" d="M256.5,247.9c-0.4,0.2-3.7,0-5.3,0C251.3,247.6,255.5,247.7,256.5,247.9z"/>
				<path fill="#00ADF3" d="M235.1,251.8c-1.1,0.1-3.9,0.2-5.2,0C230.3,251.6,233.6,251.9,235.1,251.8z"/>
				<path fill="#00ADF3" d="M225.7,247.1c-1.8,0.2-4.8,0.1-9-0.2C218.3,246.6,222.6,247,225.7,247.1z"/>
				<path fill="#00ADF3" d="M198.3,267.9c-4.6-0.3-14.2-0.5-17.5-1.2C186.4,267.4,192.9,267.4,198.3,267.9z"/>
				<path fill="#00ADF3" d="M186.5,257.2c-5.8,0.2-16.2-1.4-23.5-1.6c-1-0.6,10.8,0.9,13,0.6c1.8,0.2,3.1,0.4,4.4,0.6
					C182.5,256.9,184.4,256.7,186.5,257.2z"/>
				<path fill="#00ADF3" d="M116,249.1c0.1,0.3-0.4,0.4-2.4,0.2c-0.6-0.2-0.7-0.3-0.6-0.5C114,248.9,114.9,249,116,249.1z"/>
				<path fill="#00ADF3" d="M86.3,249.6c-4.7,0-15.4-1.1-21.2-2.2c-0.8,0-0.9,0.2-2.4,0c-3.5-0.3-11.3-1.4-3.7-0.5
					C68.5,247.7,75.8,248.8,86.3,249.6z"/>
				<path fill="#00ADF3" d="M83.3,243.7c-1.2,0-3.1-0.1-5.3-0.4C78.6,243.1,82.5,243.5,83.3,243.7z"/>
				<path fill="#00ADF3" d="M74.6,257.5c-0.9,0.2-4.7-0.5-6.8-0.6C69.2,256.9,72.9,257.1,74.6,257.5z"/>
				<path fill="#00ADF3" d="M77.5,245c-1.9,0.1-6.1-0.5-8.4-0.5C67.1,243.8,74.7,244.7,77.5,245z"/>
				<path fill="#00ADF3" d="M74.3,243c-1.5,0.2-5.9-0.4-9.2-0.7C67.1,242.2,71.3,242.8,74.3,243z"/>
				<path fill="#00ADF3" d="M67,259.4c-0.3,0.4-3.3,0-5.4-0.1C62,259,65.1,259.4,67,259.4z"/>
				<path fill="#00ADF3" d="M64,256.3c-2.5,0.1-10.9-0.9-15.1-1.4C54.2,255.2,58.2,255.7,64,256.3z"/>
				<path fill="#00ADF3" d="M63.6,242.1c-3.9,0.1-9.6-1-12.8-1.4C54.4,241,59.5,242,63.6,242.1z"/>
				<path fill="#00ADF3" d="M53,246.3c-1.5,0-4-0.2-6.1-0.3C46.5,245.5,50.4,246.1,53,246.3z"/>
				<path fill="#00ADF3" d="M46.6,244.5c-1.8,0.1-3.4-0.2-6-0.6C41.2,243.7,44.7,244.3,46.6,244.5z"/>
				<path fill="#00ADF3" d="M40.2,242.3c-0.9,0.2-6.5-0.4-5.2-0.8c1.6,0.1,1.4,0.3,1.4,0.5C38.2,242.3,38.1,242,40.2,242.3z"/>
				<path fill="#00ADF3" d="M23.3,249.4C27.1,249.3,33.4,250.7,23.3,249.4L23.3,249.4z"/>
				<path fill="#00ADF3" d="M14.6,252.8c-3.2-0.1-6.2-0.5-9.8-0.9C7.1,252,13.1,252.5,14.6,252.8z"/>
				<path fill="#00ADF3" d="M12.1,253.2c1.1,0.5-5-0.2-3.7-0.4C9.7,253,10.9,253.1,12.1,253.2z"/>
				<path fill="#00ADF3" d="M4.3,258.6c-1.1,0.1-3.4,0-5.3-0.3C-0.4,258.1,3.5,258.4,4.3,258.6z"/>
				<path fill="#00ADF3" d="M-16.5,256C-22.9,255.9-25,255.1-16.5,256L-16.5,256z"/>
				<path fill="#00ADF3" d="M153.5,272.4c-1.3,0-3.1,0-3.9,0.1c-2.3-0.6-6.7-0.6-9.8-1.1C143.7,271.3,147.8,272.2,153.5,272.4z"/>
				<path fill="#00ADF3" d="M69.8,254.9c-1.9-0.2-1.6-0.4-3.7-0.5c-0.1-0.2,0.8-0.1,0.9-0.3c-3.7-0.5-5.8-0.5-9.1-0.9
					c0.4,0,0.9-0.1,0.9-0.3c-4.3,0.2-9.2-1.3-18.1-2c8.6,0.2,27.3,2.7,34.8,3.3c-1.2,0.3-7.6-0.8-8.5-0.3
					C66.8,254.5,71.2,254.6,69.8,254.9z"/>
				<path fill="#00ADF3" d="M63.1,243.6C62.2,243.5,62.6,243.7,63.1,243.6c-0.3,0.3-3.3-0.2-3.7-0.3C60.3,243,70.2,244.3,63.1,243.6
					z"/>
				<path fill="#00ADF3" d="M7,238.8l0.1-0.5c-4.8-0.5-12.5-1.3-15.8-2c5.7,0.3,17.7,2.5,22,2.2c1,0.2,2.8,0.4,3.7,0.7
					c13.4,0.7,27.7,3.1,41.6,4.1c-6.3,0.4-20.2-2.8-27.4-2.3c-1.2-0.2,0-0.1,0.8,0C25.9,240.4,15,238.9,7,238.8z"/>
				<path fill="#00ADF3" d="M10.3,254c-1.2,0.1-3.3-0.1-4.6,0C5,253.9,8.9,253.5,10.3,254z"/>
				<path fill="#00ADF3" d="M-13.5,418.4c-0.9,0-1.7,0-2.6,0c-0.4,0-0.9,0-1.3,0l0,0l0,0l0,0l0,0v-0.3c0-0.5,0-0.9,0-1.4
					c-0.1-8.4-0.2-15.9-0.3-24.2c-0.1-7.4-0.3-14.4-0.4-22.2c-0.1-5.7-0.1-7.6-0.2-11.4c-0.2-11.2-0.3-20.4-0.4-25.3
					c-0.1-7.9-0.3-17.7-0.4-24.6c0-1.1,0-3.3,0-3.8c-0.3-17.5-0.5-28.3-0.6-48.9c0-1.8,0-3.2-0.1-6.5c0-1.6,0-5,0-6.2
					c0-3.7,0-1.6,0-8.4c0-0.4,0,1,0,1.4c0-0.2,0,2.9,0,1c0,4.9,0,4.5,0,8.4c0,2.7-0.1,7.7-0.1,10.9c0,3.8-0.1,7.8-0.1,10.9
					c0,0.8-0.1,4.6-0.1,5.7c-0.1,5.9-0.1,10.3-0.2,16.3c0,0.6,0,1.8,0,2.2c-0.2,12.6-0.4,25.4-0.7,42.5c0,1.6-0.1,4.8-0.1,6.8
					c-0.2,12.8-0.4,32.5-0.6,39.2c0,2.3,0,2.3-0.1,4.5c-0.1,1.5-0.3,8.3-0.3,14.2c0,2.1,0,5.6,0,10c-0.1,3.5-0.1,7-0.2,10.3
					c0,0.8,0,1.6,0,2.3v1.1v0.3c0,0.1,0.1,0,0.1,0h0.1h0.6c0.8,0,1.5,0,2.3,0.1c0.7,0,1.4,0,2.1,0c1.6,0,3.1,0.1,4.5,0.1
					c2.8,0,5.6,0.1,8.5,0.1c7.5,0.1,22.6,0.5,28.8,0.6c4.9,0.1,6.8,0.3,10.5,0.3c3.3,0.1,5.9,0,5.6-0.1c9.7-0.1,34.6,0.7,49.5,0.8
					c10.9,0.4,21.4,0.4,31.9,0.6c2.1,0.1,4.6,0.1,6.8,0.2c3.5,0,8.4,0.1,13,0.2c7.9,0.1,14.8,0.2,21.3,0.3c10,0.5,17.4,0.3,25.8,0.5
					c3.2,0.1,6.3,0.2,9.8,0.3c3,0,5.9,0.1,9.2,0.1c3.3,0.1,6.7,0.2,9.8,0.3c2.4,0,4.2,0,6.1,0.1c2.6,0.1,4.1,0.2,6.8,0.2
					c2.8,0,5.6,0,8.5,0c10.3,0.2,21.5,0.5,31.2,0.5c17.6,0.6,32.9,0.5,53.8,1.1c5.2,0,9,0,14.5,0.2c1.2,0,1.2-0.1,3.1,0
					c10.8,0.3,22.3,0.2,33.4,0.6c0.4,0,0.9-0.1,1.6-0.1c15.4,0.5,34.9,0.9,47,0.9c9.4,0.4,20.3,0.4,31.8,0.6
					c5.4,0.1,10.8,0.3,15.9,0.4c9.9,0.1,23,0.5,32.6,0.6c2.9,0,5.6-0.1,8.5,0c5,0.1,10.5,0.3,15.9,0.3c20.8,0.1,44.7,0.7,62.9,1.1
					c5.6,0.1,10.4,0,16.7,0.1c10.4,0.1,21.3,0.6,31.8,0.7c2.7,0,5.2,0,7.7,0c4.3,0.1,8.5,0.1,12.8,0.2c2.7,0.1,5.2,0,8-0.1
					c1.4,0,2.7,0,4-0.1h0.5h0.1v-0.1v-0.3v-1c0-0.7,0-1.4,0-2.1c0.1-3.4,0.1-6.8,0.1-10.2c0-3,0-5.8,0-8.8c0-4,0-8.1,0-12.1
					c0-8,0.1-15.9,0.3-23.5c-0.2-19.5,0.2-48,0.3-70.6c-0.3-5.1,0-9.9,0-15.2c0-8.1,0-17.3-0.1-26.7c0-6,0-12.1,0-18
					c0-1,0-1.9,0-2.9c0-0.9,0-1.8-0.1-2.8c0-1.8-0.1-3.6-0.1-5.4c0-0.9,0-1.8-0.1-2.7v-1.3V231c0-0.1-0.2,0-0.3,0h-0.7
					c-1.8,0.1-3.4,0.1-5.1,0.2c-20.3,1.2-40.7,2.4-61.3,3.6c-18.1,1-36.2,2.1-54.5,3.1c-36.3,2.1-72.6,4.1-107.8,6.4
					c-5.5-0.1-14.1,0.6-18.9,1.1c-1.1-0.2-4.3,0-6.8,0.1c-4.4,0.5-9.4,0.8-14.7,1.1c-2.7,0.1-5.3,0.3-8.1,0.4
					c-2.8,0.1-5.6,0.3-8.2,0.5c-0.7,0.2-1.6,0.3-2.7,0.4s-2.3,0.1-3.5,0.2c-2.5,0.1-5.2,0.2-7.3,0.5c-1.8-0.3,2.4-0.3-0.7-0.5
					c-7.1,1.3-31.5,1-42.4,1.3c0.8,0,0.9,0.2,0,0.2c-2.7-0.3-3.9,0.3-6.9,0.3c-19.9,0.1-34.1,1.2-51.1,1.5c-2.2-0.2-7.8-0.7-9.8-0.3
					c3.1,0.1,7,0.1,6.7,0.6c-5.1-0.2-11.8,0-15.3,0.3c-6.3,0-9.6-0.3-15.2,0c-1.4,0,1.4,0.5-1.6,0.5c-4.4-0.2-7.6-0.2-10.7-0.3
					s-6.2-0.2-10.1-0.5c-2.3,0.4-11.5-0.1-14.4-0.6c-2.6,0,2.8,0.6,0.6,0.6c-7.1-0.3-13.8-0.7-20.3-1.5c-1.7,0.1-2.8,0.3-5.4,0.2
					c-1.8-0.1,0.6-0.4-2.2-0.5c-2.6,0.1,2,0.7,1.3,1c-3.5-0.1-2.9,0.2-4.7,0.3c-4.9-0.7-8.4-0.4-13-0.7c-4.6-0.2-9.8-0.9-14.4-1.2
					c-3.8-0.3-5.6,0-9.9-0.5c-3.5-0.4-6.5-1.1-10.4-1.5c-2.1-0.1,1.4,0.6-1.6,0.3c-13.8-1.4-27.7-2.8-37.9-3.3
					c15.8,0.9,27.1,3.1,40.9,3.7c2.1,0.7,6.2,0.4,8.2,1.2c1-0.2-2.2-0.7,0.9-0.3c1,0.1,1.4,0.3,3,0.4c-2,0.4,0.9,0.7,2,1.2
					c11.7,1.1,20.9,1.7,31,2.6c1.9,0-1.3-0.4,0.9-0.4c3.8,0.2,6.8,0.6,11.3,0.8c1.4,0.5,4.3,1,2.7,1.4c-13.7-1.1-32.3-1.9-48.6-3.4
					c-4.9-0.5-9.9-1.4-12.9-1c7.3,0.6,13.1,1.9,19.4,2.6c8.2,0.9,17,1,25,1.8c2.3,0.2,3.2,0.5,5.2,0.7c1.6,0.1,4.3,0,6.1,0.2
					c2,0.2,2.1,0.4,3.7,0.5c3.4,0.2,6.1,0.1,9.9,0.4c6.4,0.5,12.6,1.3,19.6,1.6c1.3,0.3,0.7,0.7-1,0.7c-8.3-0.5-9.8-0.6-18.2-1.2
					c1,0.1,1.5,0.3,1.5,0.4c-2.6-0.2-3.5-0.4-5.3-0.3c6.3,0.4,5.7,1.2,3.4,1.4c-15.7-1.2-34.8-2.5-47.7-4c-1.5,0.1-2.4,0.3-4.7,0.2
					c-7.3-0.6-14.9-1.3-22.7-2.2s-15.7-1.7-23.4-2.4c8.8,1.3,17.7,2.3,27.2,3.3c9.4,0.9,19.2,1.7,29.4,2.5c0.8,0.2,0.1,0.4,2.2,0.5
					c8.8,0.5,19,1.4,25.8,1.9c3,0.7,5.9,1.4,8.8,2.1c10.8,0.6,20.2,1.6,29.4,2.4c4.6,0.4,9.3,0.8,14.1,1.1s9.7,0.3,14.9,0.4
					c-0.1,0.3,1.5,0.4,2.2,0.6c-1.7,0.3-2.8,0.6-4.7,0.8c-3.4,0-6.9,0.2-9.9-0.1c-17.8,0.7-42.5-1.6-64.3-2.8
					c-2.7,0.3-0.7,0.9,1.2,1.5c10.4,1.1,20.1,1.1,31.1,2.4c3.9,1.5-0.3,2.1-9,1.6c-14.3-0.8-38.7-2.9-47.9-3.8
					c-10.1-0.9-20.5-1.7-31-2.7c-10.3-1-20.7-2-31-3c-20.7-2-41.6-4-62.7-5.8c23.5,2.7,45.3,4.1,66.3,6.7c-0.1-0.3,0.7-0.3,2.4-0.1
					c5.2,0.6,10.5,1.1,15.9,1.7c5.4,0.5,10.8,1.1,16.2,1.6c10.7,1,21.1,1.8,30.2,2.4c7.6,1.4,22.5,1.7,30.2,3
					c-2.1,1.1-8.5,1.2-16.5,0.8c8.2,0.6,15.9,1.5,22.8,2c5.6,0.4,15.5,0.7,18.4,1.1c0.7,0.1-0.7,0.3,0.7,0.3
					c-2.4-0.1,4.1,0.1,4.6,0.1c3.2,0,2.6-0.1,6.2,0.1c4.7,0.2,4.6,0.2,7.7,0.6c2.1,0.1,4.1,0.2,6.2,0.2c2.1,0,4.2,0.1,6.2,0
					c3.9,0,8-0.1,11.9-0.1c8-0.1,15.9-0.2,23.9-0.1c1.7,0,5,0,5.3,0c1.5,0.1,0.2,0.3,2.3,0.3c1.2,0,0.6-0.2,2.3-0.2
					c6.3,0,13.4,0,19.7-0.1c15.7-0.3,34.3-0.3,47.2-0.7c2.9,0-0.9,0.4,3,0.3c5.5-0.1,11.1-0.2,16.8-0.4c5.7-0.2,11.5-0.3,17.5-0.7
					c11.6-0.8,23.3-1.6,35.2-2.4c1.8-0.1,0.4,0.4,3,0.1c3.3-0.2,2.5-0.5,5.3-0.7c1.8,0,3.4,0,4.4,0.1c26.9-1.7,54.7-4,82.3-6.1
					c25.9-2,51.8-3.8,76.3-5.7c19.4-1.5,37.8-3.1,55.2-4.1c0.8,0,1.5-0.1,2.3-0.1c0.3,0,0.7-0.1,1-0.1l0.5-0.1c0.1,0,0.2-0.1,0.2,0
					v0.2c0,0.6,0.1,1.2,0.1,1.9v1v0.5v1.7c0.1,10.6,0.3,21.2,0.4,32.1c0.2,15.8,0.2,33.1,0.5,46.3c0.1,2.3,0.2,5,0.3,7.7
					c0,4-0.1,8.1-0.1,12c0.1,10.8,0.5,21.9,0.6,32.7c0.1,6,0.1,12,0.2,17.9v4.4v2.2v1.1v0.3l-0.1,1.1c0,0.4,0,0.8,0,1.1v0.3
					c0,0.1,0.1,0.3-0.1,0.2h-0.6c-0.4,0-0.8,0.1-1.2,0.1c-2.2,0-4.3,0-6.5,0.1c-4.4,0-9.1-0.1-13.6-0.1c-12.8,0-25.9,0.3-38,0.3
					c-16.2,0-32.8-0.2-49.2,0.1c-18.1-0.1-40.2-0.1-57.6,0.1c-14.1-0.3-28.8,0.1-44.7,0c-1.7,0-2.8-0.1-4.5-0.1
					c-24.1-0.2-50.9,0.3-70.5,0.1c-7.4,0.2-13.6,0-20.5,0c-7.4,0-14.2,0.1-21.3,0.1c-2.4,0-4.4,0-6.8-0.1c-7.2,0-14.2,0.1-22.1,0.2
					c-11.8,0.1-24.3-0.2-37.8,0c-10.4-0.1-25.9-0.2-37.8,0c-20.2-0.2-40.6,0.1-61.4,0.1c-7,0-13.4-0.1-20.5,0c-7.3-0.1-16.1,0-25,0
					c-8.8,0-18,0-27.2,0c-13.1,0-29.4,0.1-39.3,0c-4.4-0.4-13.2,0.2-23.6,0.2c-5.5-0.1-4.8-0.2-7.2-0.3c-4.9,0-9.7,0-14.4,0.1
					C-2,418.5-6,418.4-13.5,418.4z M201.4,253.4c0.2-0.1-0.1-0.2-0.7-0.3C202.3,252.8,205.8,253.8,201.4,253.4z M199.8,253.5
					c-6.3-0.4-15.1-0.6-19.6-1.4c-1.2-0.1,1.1,0.7-1,0.7c-2.7-0.5-5.8-1-10.4-1.4c-0.2-0.9,8.9,0.4,9.4-0.3c3.5,0.4,5.2,0.5,6.9,0.3
					c7.2,0.9,8.9,0.5,14.3,1.2C197.9,253,200.2,253,199.8,253.5z"/>
			</g>
		</g>
	</g>
</g>
</svg>
