<?xml version="1.0" encoding="utf-8"?>
<!-- Generator: Adobe Illustrator 18.1.1, SVG Export Plug-In . SVG Version: 6.00 Build 0)  -->
<!DOCTYPE svg PUBLIC "-//W3C//DTD SVG 1.1//EN" "http://www.w3.org/Graphics/SVG/1.1/DTD/svg11.dtd">
<svg version="1.1" id="Layer_1" xmlns="http://www.w3.org/2000/svg" xmlns:xlink="http://www.w3.org/1999/xlink" x="0px" y="0px"
	 viewBox="0 0 50.4 31.5" enable-background="new 0 0 50.4 31.5" xml:space="preserve">
<path d="M49.9,4c-0.3-0.1-0.6-0.1-0.8,0.1l-2.7,2.6h-0.6V3.9c0-0.3-0.1-0.5-0.4-0.7l-5.6-3.2c0,0,0,0,0,0C39.7,0,39.5,0,39.4,0H0.8
	c0,0,0,0,0,0c-0.1,0-0.2,0-0.2,0c0,0,0,0,0,0c0,0,0,0,0,0c-0.1,0-0.1,0.1-0.2,0.1c0,0,0,0,0,0.1c0,0-0.1,0.1-0.1,0.2c0,0,0,0,0,0.1
	C0,0.6,0,0.7,0,0.8v23.3c0,0.1,0,0.2,0.1,0.3c0,0,0,0,0,0.1c0,0.1,0.1,0.1,0.1,0.2c0,0,0,0,0,0l7.3,6.7c0,0,0.1,0.1,0.1,0.1
	c0,0,0.1,0,0.1,0.1c0.1,0,0.2,0.1,0.3,0.1h38.7c0.1,0,0.2,0,0.3-0.1c0,0,0.1-0.1,0.1-0.1c0,0,0.1,0,0.1-0.1l2.9-2.8
	c0.1-0.1,0.2-0.3,0.2-0.5V4.7C50.4,4.4,50.2,4.1,49.9,4z M7.3,7.8v1.4L1.5,4.1V2.5L7.3,7.8z M44.2,6.7h-4.1V4.4l4.1,2.2V6.7z
	 M38.7,6.7H8.3L5.3,3.9h33.4V6.7z M1.5,5.4l2,1.8c0,0,0,0.1,0,0.1v15.5l-2-1.9V5.4z M4.3,23.4V7.9l3,2.7v15.7l-3-2.8
	C4.3,23.5,4.3,23.4,4.3,23.4z M8.8,11.1h5v16.1h-5V11.1z M14.5,11.1h4.8v16.1h-4.8V11.1z M20,11.1h4.8v16.1H20V11.1z M25.5,11.1h4.8
	v16.1h-4.8V11.1z M31,11.1h4.8v16.1H31V11.1z M36.5,11.1h4.8v16.1h-4.8V11.1z M42,11.1h3.9v16.1H42V11.1z M47.4,10.6l1.4-1.2V25
	l-1.4,1.3V10.6z M48.9,8l-1.4,1.2V7.8l1.4-1.4V8z M45.9,10.1H8.8V8.2h37.2V10.1z M44.2,5.4l-4.1-2.2V2l4.1,2.3V5.4z M38.7,2.9H4.2
	L2.7,1.5h36V2.9z M1.5,22.3l5.8,5.4V29l-5.8-5.3V22.3z M8.8,28.2h37.2V30H8.8V28.2z M47.4,29v-1.3l1.4-1.3v1.3L47.4,29z"/>
</svg>
