<?xml version="1.0" encoding="utf-8"?>
<!-- Generator: Adobe Illustrator 18.1.1, SVG Export Plug-In . SVG Version: 6.00 Build 0)  -->
<!DOCTYPE svg PUBLIC "-//W3C//DTD SVG 1.1//EN" "http://www.w3.org/Graphics/SVG/1.1/DTD/svg11.dtd">
<svg version="1.1" xmlns="http://www.w3.org/2000/svg" xmlns:xlink="http://www.w3.org/1999/xlink" x="0px" y="0px"
	 viewBox="0 0 58 51.4" enable-background="new 0 0 58 51.4" xml:space="preserve">
<g id="Layer_1" display="none">
	<path display="inline" d="M29,39.5c-8.2,0-14.2-8.7-14.2-16.5c0-8,1.1-16.5,14.2-16.5S43.3,15,43.3,23C43.3,30.8,37.2,39.5,29,39.5
		z M29,8.6C18.9,8.6,17,13.7,17,23c0,8.2,6.4,14.4,12.1,14.4S41.1,31.2,41.1,23C41.1,13.7,39.2,8.6,29,8.6z"/>
	<path display="inline" d="M29,47.6c-7.5,0-8.5-4.7-8.5-4.9c0-0.1,0-0.2,0-0.3l0.4-6.7c0-0.6,0.6-1.1,1.2-1c0.6,0,1.1,0.6,1,1.2
		l-0.4,6.5c0.2,0.5,1.2,3,6.3,3c5.1,0,6.3-2.4,6.6-3l-0.4-6.5c0-0.6,0.4-1.1,1-1.2c0.6,0,1.1,0.4,1.2,1l0.4,6.7c0,0.1,0,0.2,0,0.3
		C37.7,43,36.5,47.6,29,47.6z"/>
	<path display="inline" d="M43.2,13.4h-0.7c-0.2,0-0.4,0-0.6,0.1v15.2c0.2,0,0.4,0.1,0.6,0.1h0.7c2.6,0,4.7-2,4.7-4.4v-6.5
		C47.8,15.4,45.7,13.4,43.2,13.4z"/>
	<path display="inline" d="M14.9,13.4h0.7c0.2,0,0.4,0,0.6,0.1v15.2c-0.2,0-0.4,0.1-0.6,0.1h-0.7c-2.6,0-4.7-2-4.7-4.4v-6.5
		C10.2,15.4,12.3,13.4,14.9,13.4z"/>
	<path display="inline" d="M16.4,14.5l-2.2-0.2c0-0.1,1.1-12.5,14.9-12.5c13.8,0,14.7,12.4,14.7,12.5l-2.2,0.1
		C41.6,14,40.9,4,29.1,4C17.4,4,16.5,14.1,16.4,14.5z"/>
	<rect x="11.4" y="26.4" display="inline" width="3.6" height="3.2"/>
	<path display="inline" d="M20.9,34.7c-3.3,0-5.8-0.7-7.3-2.2c-1.8-1.7-1.5-3.9-1.5-3.9l2.2,0.3c0,0-0.1,1.2,0.9,2.1
		c1.2,1.1,3.9,2.2,10.5,1.1l0.4,2.2C24.1,34.5,22.4,34.7,20.9,34.7z"/>
	<circle display="inline" cx="25.8" cy="33.2" r="2.7"/>
	<path display="inline" d="M21.4,20.4c-0.5,0-0.9,0-1.4-0.1c-0.3,0-0.5-0.2-0.7-0.4c-0.1-0.2-0.2-0.4-0.2-0.6
		c-0.8,0.3-1.6,0.6-2.3,0.7c-0.6,0-1.1-0.4-1.1-1.1c0-0.6,0.5-1.1,1.1-1.1c0.4,0,1.3-0.4,1.9-0.7c1.4-0.6,2.3-1,2.9-0.2
		c0.3,0.4,0.3,0.8,0.1,1.3c3.6-0.2,8.1-2.8,10.1-4c1.4-0.8,1.7-1,2.3-0.8c0.3,0.1,0.6,0.3,0.7,0.6c0.1,0.1,0.2,0.5,0.5,4
		c4.2-0.5,5.4-1.7,5.4-1.7c0.4-0.4,1.1-0.4,1.5,0c0.4,0.4,0.4,1.1,0,1.5c-0.2,0.2-2,1.9-7.9,2.5c-0.3,0-0.6-0.1-0.8-0.2
		c-0.2-0.2-0.4-0.5-0.4-0.7c-0.1-1.1-0.2-2.3-0.3-3.2c0,0,0,0,0,0C30.5,17.5,25.6,20.4,21.4,20.4z"/>
</g>
<g id="Layer_2">
	<path d="M29,47.1c-12,0-21.7-9.7-21.7-21.7S17.1,3.8,29,3.8s21.7,9.7,21.7,21.7S41,47.1,29,47.1z M29,6.3
		c-10.6,0-19.2,8.6-19.2,19.2S18.5,44.6,29,44.6S48.2,36,48.2,25.4S39.6,6.3,29,6.3z"/>
	<path d="M29,45.7c-0.4,0-0.9,0-1.3,0l0.2-3.8l-0.1,1.9l0.2-1.9c0.8,0,1.5,0,2.2,0l0.3,3.8C30,45.6,29.5,45.7,29,45.7z M20.2,43.6
		c-0.8-0.4-1.7-0.9-2.4-1.4l2.1-3.2c0.6,0.4,1.3,0.8,2,1.1L20.2,43.6z M37.9,43.6l-1.7-3.4c0.7-0.3,1.3-0.7,2-1.1l2.1,3.2
		C39.6,42.7,38.7,43.2,37.9,43.6z M12.3,36.8c-0.5-0.8-1-1.6-1.4-2.4l3.4-1.7c0.3,0.7,0.7,1.3,1.2,2L12.3,36.8z M45.8,36.7l-3.2-2.1
		c0.4-0.6,0.8-1.3,1.1-2l3.4,1.7C46.8,35.1,46.3,36,45.8,36.7z M8.9,26.9c0-0.5-0.1-1-0.1-1.4c0-0.4,0-0.9,0-1.3l2,0.1l1.8,0.2v0
		l0,0l0,0c0,0.4,0,0.7,0,1.1c0,0.4,0,0.8,0,1.2L8.9,26.9z M49.2,26.8l-3.8-0.1l0-0.2c0-0.3,0-0.7,0-1c0-0.4,0-0.8,0-1.2l3.8-0.3
		c0,0.5,0.1,1,0.1,1.5C49.2,25.9,49.2,26.3,49.2,26.8z M12.6,24.4l-1.8-0.2l1.8,0C12.7,24.3,12.7,24.4,12.6,24.4z M14.3,18.3
		l-3.4-1.7c0.4-0.8,0.9-1.7,1.4-2.4l3.2,2.1C15,16.9,14.6,17.6,14.3,18.3z M43.7,18.2c-0.3-0.7-0.7-1.3-1.2-2l3.2-2.1
		c0.5,0.8,1,1.6,1.4,2.4L43.7,18.2z M19.8,11.9l-2.1-3.2c0.8-0.5,1.6-1,2.4-1.4l1.7,3.4C21.1,11.1,20.4,11.4,19.8,11.9z M38.1,11.8
		c-0.6-0.4-1.3-0.8-2-1.1l1.7-3.4c0.8,0.4,1.7,0.9,2.4,1.4L38.1,11.8z M27.8,9.1l-0.3-3.8c0.9-0.1,1.9-0.1,2.8,0l-0.1,1.9l0,1.9
		c-0.1,0-0.1,0-0.2,0v0v0C29.1,9,28.5,9,27.8,9.1z"/>
	<circle cx="29" cy="25.4" r="2.5"/>
	<polygon points="27.3,24.5 29,11.6 29,11.6 30.7,24.5 	"/>
	<polygon points="29.1,23.7 38,25.4 38,25.5 29.1,27.2 	"/>
</g>
<g id="Layer_3" display="none">
	<path display="inline" d="M22.5,16.9h-3.2v5.6h-0.9c-0.6-0.1-1.2-0.6-1.8-1.1c1.1-0.2,1.9-1,1.9-2.1c0-1.7-1.3-2.3-2.7-2.3h-3.4V24
		h1.8v-2.6h0.4c0.9,0.6,2.1,2.5,3.7,2.6v0h0.1c0.2,0,0.3,0,0.5,0h0.8v0h2.8c2.1,0,3.7-1.3,3.7-3.5C26.1,18.2,24.6,17,22.5,16.9z
		 M15.7,20.2h-1.6v-1.8h1.6c0.6,0,0.9,0.3,0.9,0.9C16.7,19.9,16.3,20.2,15.7,20.2z M22.4,22.5h-1.4v-4h1.4c1.1,0,1.9,0.7,1.9,2
		C24.3,21.8,23.6,22.5,22.4,22.5z"/>
	<g display="inline">
		<path d="M13.9,32.3c-2.8,0-5,2.3-5,5c0,2.8,2.3,5,5,5s5-2.3,5-5C19,34.6,16.7,32.3,13.9,32.3z M13.9,40.4c-1.7,0-3-1.4-3-3
			s1.4-3,3-3s3,1.4,3,3S15.6,40.4,13.9,40.4z"/>
		<path d="M31.1,35.4h-9.5c-0.6,0-1,0.4-1,1s0.4,1,1,1h9.5c0.6,0,1-0.4,1-1S31.7,35.4,31.1,35.4z"/>
		<path d="M43.8,28.1h-2.1c-0.3,0-0.5,0.2-0.5,0.5s0.2,0.5,0.5,0.5h2.1c0.3,0,0.5-0.2,0.5-0.5S44.1,28.1,43.8,28.1z"/>
		<path d="M31.1,31.9H20.3c-0.6,0-1,0.4-1,1s0.4,1,1,1h10.9c0.6,0,1-0.4,1-1S31.7,31.9,31.1,31.9z"/>
		<path d="M57,31.9h-0.5v-4.4c0-0.4-0.2-0.7-0.6-0.9l-4.3-2.1l-3.4-6.4c-0.2-0.3-0.5-0.5-0.9-0.5H36.9V9.1c0-0.6-0.4-1-1-1H2.7
			c-0.6,0-1,0.4-1,1v20.5c0,0.6,0.4,1,1,1h32.2v5.7c0,0.6,0.4,1,1,1h4.3c0,0,0,0,0,0c0,2.8,2.3,5,5,5c2.8,0,5-2.3,5-5c0,0,0,0,0,0
			h2.7h1.2H57c0.6,0,1-0.4,1-1v-3.5C58,32.3,57.6,31.9,57,31.9z M49.3,24.2h-7.1v-4.7h4.6L49.3,24.2z M34.9,28.6H3.7V10.1h31.2V28.6
			z M45.2,40.4c-1.7,0-3-1.4-3-3s1.4-3,3-3s3,1.4,3,3S46.9,40.4,45.2,40.4z M45.2,32.3c-2.1,0-3.8,1.2-4.6,3h-3.7V19.5h3.3v5.7
			c0,0.6,0.4,1,1,1h9.6l3.8,1.8v3.8h-1.6c-0.6,0-1,0.4-1,1v2.5h-2.1C49,33.6,47.3,32.3,45.2,32.3z M56,35.4h-2.1v-1.5H56V35.4z"/>
		<path d="M7.1,31.9H1c-0.6,0-1,0.4-1,1v3.5c0,0.6,0.4,1,1,1h5.1c0.4,0,0.8-0.3,1-0.7l1-3.5c0.1-0.3,0-0.6-0.2-0.9
			S7.4,31.9,7.1,31.9z M5.4,35.4H2v-1.5h3.8L5.4,35.4z"/>
		<circle cx="13.9" cy="37.4" r="1"/>
		<circle cx="45.2" cy="37.4" r="1"/>
	</g>
</g>
</svg>
