<?xml version="1.0" encoding="utf-8"?>
<!-- Generator: Adobe Illustrator 19.0.1, SVG Export Plug-In . SVG Version: 6.00 Build 0)  -->
<!DOCTYPE svg PUBLIC "-//W3C//DTD SVG 1.1//EN" "http://www.w3.org/Graphics/SVG/1.1/DTD/svg11.dtd">
<svg version="1.1" id="Layer_1" xmlns="http://www.w3.org/2000/svg" xmlns:xlink="http://www.w3.org/1999/xlink" x="0px" y="0px"
	 viewBox="-289.1 369.6 55.5 55.3" style="enable-background:new -289.1 369.6 55.5 55.3;" xml:space="preserve">
<style type="text/css">
	.st0{fill:#241F20;}
</style>
<path id="XMLID_213_" class="st0" d="M-255.3,408.5c-0.4,0-0.7-0.3-0.7-0.6l-0.4-2.6c-0.1-0.4,0.2-0.8,0.6-0.9
	c0.4-0.1,0.8,0.2,0.9,0.6l0.4,2.6c0.1,0.4-0.2,0.8-0.6,0.9C-255.3,408.5-255.3,408.5-255.3,408.5z"/>
<path id="XMLID_212_" class="st0" d="M-267.7,408.4c0,0-0.1,0-0.1,0c-0.4-0.1-0.7-0.4-0.6-0.9l0.4-2.6c0.1-0.4,0.4-0.7,0.9-0.6
	c0.4,0.1,0.7,0.4,0.6,0.9l-0.4,2.6C-267,408.2-267.4,408.4-267.7,408.4z"/>
<path id="XMLID_211_" class="st0" d="M-261.6,407.6c-5.8,0-12.3-6.1-12.3-14.3c0-0.4,0.3-0.8,0.8-0.8s0.8,0.3,0.8,0.8
	c0,7.3,5.7,12.8,10.8,12.8s10.8-5.5,10.8-12.8c0-0.4,0.3-0.8,0.8-0.8s0.8,0.3,0.8,0.8C-249.4,401.5-255.8,407.6-261.6,407.6z"/>
<path id="XMLID_210_" d="M-248.1,382.2h-0.7c-0.2,0-0.4,0-0.6,0.1l0.5,4.6l0.1,1.3v2.9l-0.6,1.7l-0.6,4.6c0.2,0,1.1,0.1,1.3,0.1h0.7
	c2.5,0,4.6-1.9,4.6-4.3v-6.4C-243.5,384.1-245.6,382.2-248.1,382.2z"/>
<path id="XMLID_209_" d="M-246.5,382.5l-1.5-0.2c0,0,0.4-3.8-2.3-6.7c-2.3-2.5-6-3.8-11.2-3.8c-5.2,0-9,1.3-11.3,3.8
	c-2.7,3-2.4,6.7-2.4,6.7l-1.5,0.1c0-0.2-0.3-4.4,2.8-7.8c2.6-2.9,6.8-4.3,12.4-4.3c5.6,0,9.8,1.5,12.3,4.3
	C-246.1,378.1-246.5,382.3-246.5,382.5z"/>
<path id="XMLID_208_" d="M-273.6,393.3l-1-2.3v-2.9l0.1-1.3l0.9-4.6c-0.2,0-0.8-0.1-1-0.1h-0.7c-2.5,0-4.6,1.9-4.6,4.3v6.4
	c0,1,0.4,2,1.1,2.7v3.2h3.1v-1.6c0.1,0,0.2,0,0.4,0h0.7c0.2,0,1.5,0,1.7-0.1L-273.6,393.3z"/>
<path id="XMLID_207_" class="st0" d="M-270.6,404.1c-2.7,0-4.6-0.5-5.7-1.4c-1.7-1.4-1.7-3.5-1.7-4.9c0-0.4,0.3-0.8,0.8-0.8
	s0.8,0.3,0.8,0.8c0,1.5,0.1,2.9,1.1,3.7c1.8,1.5,6.4,1.5,13.9-0.1c0.4-0.1,0.8,0.2,0.9,0.6c0.1,0.4-0.2,0.8-0.6,0.9
	C-265.1,403.7-268.2,404.1-270.6,404.1z"/>
<circle id="XMLID_206_" cx="-263.1" cy="402.2" r="2.7"/>
<path id="XMLID_203_" class="st0" d="M-274.3,389.2c-0.1,0-0.2,0-0.3-0.1c-0.3-0.1-0.4-0.4-0.4-0.7c0.1-0.5,0.6-5.1,1-6.4
	c0.1-0.2,0.1-0.8,0.1-1.3c0.1-1.9,0.2-5,3.1-6c0.6-0.2,1.1-0.4,1.6-0.6c2.4-1,4.2-1.7,7.6-1.7c3.4,0,5.3,0.8,7.6,1.7
	c0.5,0.2,1,0.4,1.6,0.6c2.8,1.1,3,4.2,3.1,6.1c0,0.5,0,1.1,0.1,1.3v0c0.5,1.3,1,5.9,1,6.4c0,0.3-0.1,0.6-0.4,0.7
	c-0.3,0.1-0.6,0.1-0.8-0.1c0,0-1.5-1.4-3.9-2.2c-2.5-0.8-8.2-1-8.3-1c0,0-5.7,0.2-8.2,1c-2.4,0.8-3.9,2.1-3.9,2.2
	C-273.9,389.1-274.1,389.2-274.3,389.2z M-261.6,373.8c-3.1,0-4.8,0.7-7.1,1.6c-0.5,0.2-1,0.4-1.6,0.6c-1.8,0.7-2,2.5-2.1,4.7
	c0,0.7-0.1,1.3-0.2,1.7c-0.2,0.7-0.5,2.7-0.7,4.4c0.8-0.5,1.8-1,3-1.4c2.7-0.9,8.4-1.1,8.7-1.1c0.3,0,6,0.2,8.7,1.1
	c1.2,0.4,2.3,0.9,3,1.4c-0.2-1.6-0.5-3.7-0.7-4.4v0c-0.2-0.4-0.2-1-0.2-1.7c-0.1-2.2-0.3-4-2.1-4.7c-0.6-0.2-1.1-0.4-1.6-0.6
	C-256.9,374.5-258.5,373.8-261.6,373.8z"/>
<path id="XMLID_202_" class="st0" d="M-271.7,387.3C-271.8,387.3-271.8,387.3-271.7,387.3c-0.3,0-0.5-0.3-0.5-0.6
	c0.2-1.7,0.6-4.7,0.9-5.7c0.1-0.3,0.1-0.8,0.1-1.4c0.1-1.9,0.2-4.8,2.9-5.8c0.3-0.1,0.5,0,0.6,0.3c0.1,0.3,0,0.5-0.3,0.6
	c-2.1,0.8-2.2,3.2-2.3,4.9c0,0.7-0.1,1.3-0.2,1.7c-0.2,0.7-0.6,2.7-0.9,5.5C-271.3,387.1-271.5,387.3-271.7,387.3z"/>
<path id="XMLID_201_" class="st0" d="M-251.5,387.3c-0.2,0-0.5-0.2-0.5-0.4c-0.3-2.8-0.6-4.8-0.9-5.5c-0.1-0.4-0.2-1-0.2-1.7
	c-0.1-1.7-0.2-4.1-2.3-4.9c-0.3-0.1-0.4-0.4-0.3-0.6c0.1-0.3,0.4-0.4,0.6-0.3c2.7,1,2.8,3.9,2.9,5.8c0,0.6,0,1.1,0.1,1.4
	c0.4,1,0.7,4,0.9,5.7C-250.9,387-251.1,387.3-251.5,387.3C-251.4,387.3-251.4,387.3-251.5,387.3z"/>
<path id="XMLID_200_" d="M-262,373.1l-1.5-0.1c0-0.9,0.8-1.6,1.9-1.6s1.9,0.7,1.9,1.6h-1.5c0,0-0.1-0.1-0.4-0.1
	C-261.9,373-262,373.1-262,373.1z"/>
<path id="XMLID_199_" class="st0" d="M-250.1,394c-0.9,0-2.1-0.7-3.8-2.1c-3.4-2.9-6.8-3.1-7.7-3.1c0,0,0,0-0.1,0
	c-1.1,0-4.3,0.2-7.7,3.1c-2.2,1.9-3.6,2.5-4.6,1.9c-1.2-0.7-1.3-2.7-1.1-5.5c0-0.4,0.4-0.7,0.8-0.7c0.4,0,0.7,0.4,0.7,0.8
	c-0.3,3.5,0.2,3.9,0.3,4c0.1,0,0.6,0.2,3-1.7c3.8-3.2,7.6-3.5,8.6-3.5c1.1,0,4.9,0.2,8.7,3.5c2.3,2,2.9,1.8,3,1.7
	c0.1-0.1,0.6-0.5,0.3-4c0-0.4,0.3-0.8,0.7-0.8c0.4,0,0.8,0.3,0.8,0.7c0.3,2.8,0.2,4.8-1.1,5.5C-249.5,394-249.8,394-250.1,394z"/>
<path id="XMLID_198_" class="st0" d="M-258.9,396.4h-3.1c-0.3,0-0.5-0.2-0.5-0.5v-7.5c0-0.3,0.2-0.5,0.5-0.5s0.5,0.2,0.5,0.5v7h2.6
	c0.3,0,0.5,0.2,0.5,0.5S-258.6,396.4-258.9,396.4z"/>
<path id="XMLID_197_" class="st0" d="M-263.7,396.4h-0.9c-0.3,0-0.5-0.2-0.5-0.5s0.2-0.5,0.5-0.5h0.9c0.3,0,0.5,0.2,0.5,0.5
	S-263.5,396.4-263.7,396.4z"/>
<path id="XMLID_196_" class="st0" d="M-258.8,401.1c-0.3,0-0.5-0.2-0.5-0.5c0-0.3,0.2-0.5,0.5-0.5c0,0,1.3-0.1,1.8-1
	c0.1-0.2,0.4-0.3,0.7-0.2c0.2,0.1,0.3,0.4,0.2,0.7C-256.9,401-258.7,401.1-258.8,401.1C-258.8,401.1-258.8,401.1-258.8,401.1z"/>
<path id="XMLID_195_" d="M-252.4,374.5c-0.2,0-0.5-0.1-0.7-0.2c-2.1-1.2-4.9-1.8-8.4-1.8c-3.5,0-6.3,0.6-8.4,1.8
	c-0.7,0.4-1.6,0.1-2-0.6c-0.4-0.7-0.1-1.6,0.6-2c2.6-1.4,5.9-2.1,9.9-2.1c4,0,7.3,0.7,9.8,2.2c0.7,0.4,1,1.3,0.6,2
	C-251.4,374.3-251.9,374.5-252.4,374.5z"/>
<path id="XMLID_192_" d="M-257,418.5c-0.2,0-0.4-0.1-0.5-0.2c-0.7-0.7-2.9-2.6-4.1-3.1c-0.3-0.1-0.5-0.4-0.5-0.7
	c0-0.3,0.2-0.6,0.5-0.7c0.1,0,4.2-1.8,6-7.5c0.1-0.2,0.2-0.4,0.4-0.5c0.2-0.1,0.5-0.1,0.6,0.1c0.1,0,2,1.2,2.6,3.6
	c0,0.1,0,0.1,0,0.2c0,0.2-0.3,6-4.7,8.7C-256.7,418.5-256.8,418.5-257,418.5z M-259.7,414.5c1.1,0.7,2.2,1.7,2.9,2.3
	c3-2.2,3.4-6.4,3.5-7.1c-0.2-0.9-0.7-1.5-1.1-1.9C-256,411.6-258.3,413.6-259.7,414.5z"/>
<path id="XMLID_189_" d="M-266.1,418.5c-0.1,0-0.3,0-0.4-0.1c-4.4-2.7-4.7-8.5-4.7-8.7c0-0.1,0-0.1,0-0.2c0.6-2.4,2.5-3.5,2.6-3.6
	c0.2-0.1,0.4-0.1,0.6-0.1c0.2,0.1,0.4,0.3,0.4,0.5c1.8,5.7,5.9,7.5,6,7.5c0.3,0.1,0.5,0.4,0.5,0.7c0,0.3-0.2,0.6-0.5,0.7
	c-1.2,0.5-3.4,2.4-4.1,3.1C-265.8,418.5-266,418.5-266.1,418.5z M-269.7,409.7c0.1,0.7,0.5,4.9,3.5,7.1c0.6-0.6,1.8-1.6,2.9-2.3
	c-1.4-0.9-3.8-3-5.2-6.7C-269,408.2-269.5,408.9-269.7,409.7z"/>
<path id="XMLID_188_" d="M-261.5,421.7c-0.4,0-0.8-0.3-0.8-0.8v-4c0-0.4,0.3-0.8,0.8-0.8s0.8,0.3,0.8,0.8v4
	C-260.8,421.3-261.1,421.7-261.5,421.7z"/>
<path id="XMLID_187_" d="M-234.4,424.8h-54c-0.4,0-0.7-0.3-0.8-0.7c0-0.3-0.1-6.5,2.9-9.3c2.8-2.7,15.1-5.7,15.6-5.9
	c0.4-0.1,0.8,0.1,0.9,0.5c0.1,0.4-0.1,0.8-0.5,0.9c-3.4,0.8-12.8,3.5-15,5.5c-1.9,1.8-2.3,5.8-2.4,7.5h52.5
	c-0.1-1.6-0.4-5.6-2.4-7.5c-2.1-2-11.5-4.6-15-5.5c-0.4-0.1-0.6-0.5-0.5-0.9c0.1-0.4,0.5-0.6,0.9-0.5c0.5,0.1,12.8,3.2,15.6,5.9
	c2.9,2.8,2.9,9,2.9,9.3C-233.6,424.5-234,424.8-234.4,424.8z"/>
<g id="XMLID_180_">
	<path id="XMLID_186_" class="st0" d="M-237.9,415.5c-0.1,0-0.2,0-0.3-0.1c-0.2-0.2-0.2-0.5,0-0.7c0.1-0.2,0.2-0.2,0.2-0.2
		c0.2-0.2,0.5-0.2,0.7,0.1c0.2,0.2,0.2,0.5,0,0.7c0,0-0.1,0.1-0.1,0.1C-237.6,415.4-237.8,415.5-237.9,415.5z"/>
	<path id="XMLID_182_" class="st0" d="M-240.3,422.3C-240.3,422.3-240.3,422.3-240.3,422.3c-0.3,0-0.5-0.3-0.5-0.5
		c0-0.2,0-0.3,0.1-0.5c0-0.3,0.3-0.5,0.6-0.4c0.3,0,0.5,0.3,0.4,0.6c0,0.2,0,0.3,0,0.5C-239.8,422.2-240.1,422.3-240.3,422.3z
		 M-239.9,419.9c0,0-0.1,0-0.1,0c-0.3-0.1-0.4-0.3-0.4-0.6c0-0.2,0.1-0.3,0.1-0.5c0.1-0.3,0.3-0.4,0.6-0.4c0.3,0.1,0.4,0.3,0.4,0.6
		c0,0.2-0.1,0.3-0.1,0.5C-239.5,419.8-239.7,419.9-239.9,419.9z M-239.2,417.6c-0.1,0-0.1,0-0.2,0c-0.3-0.1-0.4-0.4-0.3-0.7
		c0.1-0.2,0.1-0.3,0.2-0.5c0.1-0.2,0.4-0.4,0.7-0.2c0.2,0.1,0.4,0.4,0.2,0.7c-0.1,0.1-0.1,0.3-0.2,0.4
		C-238.8,417.4-239,417.6-239.2,417.6z"/>
	<path id="XMLID_181_" class="st0" d="M-240.4,424.6c-0.3,0-0.5-0.2-0.5-0.5l0-0.3c0-0.3,0.2-0.5,0.5-0.5c0,0,0,0,0,0
		c0.3,0,0.5,0.2,0.5,0.5l0,0.2C-239.9,424.4-240.1,424.6-240.4,424.6z"/>
</g>
<g id="XMLID_173_">
	<path id="XMLID_179_" class="st0" d="M-285,415.5c-0.1,0-0.3-0.1-0.4-0.2c-0.1-0.1-0.1-0.1-0.1-0.1c-0.2-0.2-0.2-0.5,0-0.7
		c0.2-0.2,0.5-0.2,0.7,0c0,0,0.1,0.1,0.2,0.2c0.2,0.2,0.2,0.5,0,0.7C-284.7,415.4-284.9,415.5-285,415.5z"/>
	<path id="XMLID_175_" class="st0" d="M-282.6,422.3c-0.3,0-0.5-0.2-0.5-0.5c0-0.2,0-0.3,0-0.5c0-0.3,0.2-0.5,0.4-0.6
		c0.3,0,0.5,0.2,0.6,0.4c0,0.2,0,0.3,0.1,0.5C-282,422.1-282.3,422.3-282.6,422.3C-282.5,422.3-282.6,422.3-282.6,422.3z
		 M-282.9,419.9c-0.2,0-0.4-0.2-0.5-0.4c0-0.2-0.1-0.3-0.1-0.5c-0.1-0.3,0.1-0.5,0.4-0.6c0.3-0.1,0.5,0.1,0.6,0.4
		c0,0.2,0.1,0.3,0.1,0.5c0.1,0.3-0.1,0.5-0.4,0.6C-282.9,419.9-282.9,419.9-282.9,419.9z M-283.7,417.6c-0.2,0-0.4-0.1-0.5-0.3
		c-0.1-0.2-0.1-0.3-0.2-0.4c-0.1-0.2,0-0.5,0.2-0.7c0.2-0.1,0.5,0,0.7,0.2c0.1,0.1,0.1,0.3,0.2,0.5c0.1,0.3,0,0.5-0.3,0.7
		C-283.6,417.5-283.6,417.6-283.7,417.6z"/>
	<path id="XMLID_174_" class="st0" d="M-282.5,424.6c-0.3,0-0.5-0.2-0.5-0.5l0-0.2c0-0.3,0.2-0.5,0.5-0.5c0.3,0,0.5,0.2,0.5,0.5
		l0,0.3C-282,424.4-282.2,424.6-282.5,424.6z"/>
</g>
<g id="XMLID_161_">
	<path id="XMLID_171_" d="M-265.5,381.6v1.4c-0.3,0.2-0.8,0.4-1.3,0.4c-0.9,0-1.6-0.6-1.6-1.5c0-1,0.7-1.5,1.6-1.5
		c0.5,0,0.9,0.2,1.1,0.4l-0.3,0.5c-0.2-0.2-0.5-0.3-0.8-0.3c-0.5,0-0.8,0.3-0.8,0.8c0,0.5,0.4,0.8,0.9,0.8c0.2,0,0.4,0,0.5-0.1v-0.4
		h-0.7v-0.6H-265.5z"/>
	<path id="XMLID_168_" d="M-263.4,380.4c0.9,0,1.5,0.6,1.5,1.5c0,0.9-0.6,1.5-1.5,1.5c-0.9,0-1.5-0.6-1.5-1.5
		C-264.9,381-264.3,380.4-263.4,380.4z M-263.4,382.7c0.5,0,0.8-0.4,0.8-0.8c0-0.5-0.3-0.8-0.8-0.8c-0.5,0-0.8,0.4-0.8,0.8
		C-264.2,382.4-263.9,382.7-263.4,382.7z"/>
	<path id="XMLID_165_" d="M-260,380.4c0.9,0,1.5,0.6,1.5,1.5c0,0.9-0.6,1.5-1.5,1.5c-0.9,0-1.5-0.6-1.5-1.5
		C-261.5,381-260.8,380.4-260,380.4z M-260,382.7c0.5,0,0.8-0.4,0.8-0.8c0-0.5-0.3-0.8-0.8-0.8c-0.5,0-0.8,0.4-0.8,0.8
		C-260.8,382.4-260.4,382.7-260,382.7z"/>
	<path id="XMLID_162_" d="M-257.8,380.4h1.3c0.9,0,1.5,0.5,1.5,1.5c0,0.9-0.6,1.5-1.5,1.5h-1.3V380.4z M-257.1,381.1v1.7h0.6
		c0.5,0,0.8-0.3,0.8-0.8c0-0.5-0.3-0.8-0.8-0.8H-257.1z"/>
</g>
<g>
	<path d="M-257.7,377.1c0,0,0-0.1,0-0.1c0,0,0-0.1,0-0.2c0-0.1,0-0.1,0-0.2c0-0.1,0-0.1,0-0.1c0,0,0,0,0,0c0,0,0,0,0,0
		c0,0,0,0,0,0.1c0,0,0,0,0,0c0,0,0,0,0,0c0,0,0,0,0,0.1c0,0.1,0,0.1,0,0.2C-257.7,377-257.7,377.2-257.7,377.1c0,0.3,0,0-0.1-0.1
		l0-0.1c0-0.3,0-0.6-0.4-0.7l-0.3-0.2l0.2,0.1l-0.4-0.2c0.1,0,0.3,0.1,0-0.1c-0.5-0.2-1-0.4-1.6-0.7c-0.2-0.1-0.4-0.2-0.6-0.2
		c-0.1,0-0.2-0.1-0.3-0.1c0,0-0.1,0-0.1-0.1c0,0,0,0,0,0c0,0,0,0,0,0c0,0-0.1,0-0.1,0c-0.1,0-0.2,0-0.3,0c-0.1,0-0.1,0-0.2,0
		c0,0-0.1,0-0.1,0c0,0,0,0,0,0l0,0c-0.2,0.1-0.4,0.2-0.6,0.3c0.1,0-0.2,0.1,0.1,0c0,0-0.1,0-0.1,0.1l-0.3,0.1
		c0.3-0.2-0.4,0.1-0.3,0.1c-0.4,0.2-0.4,0.1-0.8,0.3c-0.2,0.1,0.3-0.1,0.4-0.1c0,0-0.1,0-0.1,0.1c0.1,0,0.3-0.1,0.3-0.1l-0.8,0.3
		c0,0,0,0-0.1,0c-0.1,0-0.5,0.2-0.6,0.3c0,0,0,0,0,0c0,0,0,0,0,0c0,0,0,0,0,0c0,0,0,0,0,0c0,0,0,0,0,0c0,0,0,0,0,0c0,0,0,0,0,0
		c0,0,0,0,0,0c0,0,0,0,0,0l0,0c0,0,0,0,0,0c0,0-0.1,0.1-0.1,0.1c0,0,0,0.1-0.1,0.1c0,0.1,0,0.2,0,0.3c0,0,0,0.1,0,0.1
		c0,0,0,0.1,0,0.1l0,0.4c0,0.1,0,0.1,0,0.2c0,0.1,0,0.1,0,0.2c0,0.1,0,0.1,0,0.2c0,0.1,0,0.1,0.1,0.2c0,0,0,0,0,0c0,0,0,0,0-0.1
		c0,0,0,0,0,0c0,0,0,0,0,0.1c0,0,0.1,0.1,0.1,0.1c0,0,0,0,0,0c0,0,0,0,0,0c0,0,0,0,0,0c0,0,0,0,0,0c0,0,0,0,0,0c0,0,0,0,0,0
		c0,0,0,0,0,0c0,0,0,0,0,0c0,0,0,0,0.1,0.1c0,0,0,0,0,0c0,0,0,0,0,0c0,0,0.1,0,0.1,0.1c0.1,0,0.2,0.1,0.3,0.1
		c0.2,0.1,0.3,0.2,0.5,0.2c0.4,0.2,1,0.5,1.3,0.6l-0.2-0.1c0.4,0.2,0,0,0.4,0.2c0.3,0.1,0.1,0.1,0.2,0.1c0.1,0,0.2,0.1,0.3,0.1
		c0.1,0,0.1,0,0.2,0.1c0,0,0,0,0.1,0c0,0,0,0,0.1,0c-0.1,0-0.1,0-0.1,0c0,0,0,0,0,0c0,0,0,0,0,0c0,0,0,0,0,0c0,0,0,0,0,0
		c0,0,0,0,0,0c0.1,0,0.2,0,0.2,0.1c0,0,0,0,0,0c0,0,0,0,0,0c0,0,0.1,0,0.1,0c0,0,0.1,0,0.1,0c0,0,0.1,0,0.1-0.1
		c0.1,0,0.2-0.1,0.3-0.1l-0.1,0c0.1,0,0.1-0.1,0.2-0.1c0.1,0-0.1,0,0,0c0.4-0.2,0.5-0.2,0.8-0.4c0.6-0.2,0.9-0.5,1.6-0.7
		c-0.2,0.1-0.5,0.2-0.8,0.3l0.3-0.1c0,0,0,0,0,0l0.7-0.3c-0.1,0-0.2,0.1-0.2,0.1c0.1,0,0.1,0,0.2-0.1c0,0,0.1,0,0.1,0c0,0,0,0,0,0
		c0,0,0,0,0,0c0,0,0,0,0,0c0,0,0,0,0,0c0,0,0,0,0,0c0,0,0,0,0,0c0,0,0,0,0,0c0,0,0,0,0,0c0,0,0,0,0,0c0,0,0,0,0,0c0,0,0,0,0,0
		c0.1-0.1,0.1-0.1,0.2-0.2c0,0,0,0,0,0c0,0,0,0,0,0c0,0,0,0,0,0c0,0,0,0,0,0c0-0.1,0-0.2,0-0.3c0,0,0,0,0,0c0,0,0,0,0-0.1
		c0,0,0-0.1,0-0.1c0-0.1,0-0.1,0-0.1C-257.7,377.2-257.7,377.2-257.7,377.1z M-265.3,376.5C-265.3,376.5-265.3,376.5-265.3,376.5
		c0-0.1,0-0.1,0.1-0.2c0,0,0-0.1,0-0.1C-265.2,376.4-265.3,376.5-265.3,376.5z M-263,378.1v-0.4l1.2-1.8h0.9v1.7h0.4v0.5h-0.4v0.5
		h-0.7v-0.5H-263z M-259.7,379C-259.8,379.1-259.8,379.1-259.7,379l-0.3,0.1l-0.1,0c-0.4,0.1-0.6,0.3-1.1,0.5c0,0,0,0,0,0
		c0,0,0,0-0.1,0c0,0-0.1,0-0.1,0c-0.1,0-0.1,0-0.2,0c0,0,0,0,0,0c0,0,0,0,0,0c0,0,0,0,0,0c0,0,0,0,0,0c0,0,0,0-0.1,0c0,0,0,0-0.1,0
		c0,0,0,0,0,0c0,0,0,0,0,0c0,0-0.1,0-0.1,0c0.3,0.1,0.5,0.1,0.7,0l1.6-0.7l-0.2,0.1C-259.8,379.1-259.5,379-259.7,379z
		 M-259.4,378.9C-259.4,378.9-259.4,378.9-259.4,378.9l0.2-0.1C-259.2,378.8-259.3,378.8-259.4,378.9z M-259.1,375.7l-1-0.4
		c0,0,0,0,0,0c0.4,0.2,0.9,0.4,1.4,0.6C-258.9,375.8-259,375.7-259.1,375.7z M-257.7,377.8C-257.7,377.8-257.7,377.9-257.7,377.8
		c0,0.1,0,0.1-0.1,0.2c0,0,0,0.1,0,0.1c0,0,0,0,0,0c0,0,0,0,0,0c0.1-0.1,0.1-0.3,0.1-0.4c0,0,0,0,0,0
		C-257.7,377.7-257.7,377.7-257.7,377.8C-257.7,377.8-257.7,377.8-257.7,377.8z"/>
	<path d="M-261.8,379.8C-261.8,379.8-261.8,379.8-261.8,379.8C-261.8,379.8-261.8,379.8-261.8,379.8z"/>
	<polygon points="-261.6,376.5 -262.3,377.6 -261.6,377.6 	"/>
</g>
</svg>
