<?xml version="1.0" encoding="utf-8"?>
<!-- Generator: Adobe Illustrator 18.1.1, SVG Export Plug-In . SVG Version: 6.00 Build 0)  -->
<!DOCTYPE svg PUBLIC "-//W3C//DTD SVG 1.1//EN" "http://www.w3.org/Graphics/SVG/1.1/DTD/svg11.dtd">
<svg version="1.1" id="Layer_1" xmlns="http://www.w3.org/2000/svg" xmlns:xlink="http://www.w3.org/1999/xlink" x="0px" y="0px"
	 viewBox="0 0 121.8 122.3" enable-background="new 0 0 121.8 122.3" xml:space="preserve">
<path fill="#72CF3F" d="M120.7,9.6c-0.7-0.3-1.4-0.1-2,0.4l-6.5,6.2h-1.5V9.5c0-0.7-0.4-1.3-0.9-1.6L96.2,0.2c0,0-0.1,0-0.1,0
	C95.9,0.1,95.6,0,95.3,0H1.8c0,0-0.1,0-0.1,0c-0.2,0-0.4,0-0.6,0.1c0,0,0,0-0.1,0c0,0,0,0,0,0C0.9,0.2,0.7,0.4,0.6,0.5
	c0,0-0.1,0.1-0.1,0.1C0.4,0.7,0.3,0.9,0.2,1c0,0.1-0.1,0.1-0.1,0.2C0.1,1.4,0,1.6,0,1.8v56.3c0,0.3,0.1,0.5,0.2,0.7
	c0,0.1,0.1,0.1,0.1,0.1c0.1,0.2,0.2,0.3,0.3,0.4c0,0,0,0,0,0l17.6,16.2c0.1,0.1,0.2,0.1,0.3,0.2c0.1,0.1,0.2,0.1,0.3,0.2
	c0.2,0.1,0.4,0.1,0.7,0.1h93.5c0.2,0,0.5,0,0.7-0.1c0.1,0,0.2-0.1,0.3-0.2c0.1-0.1,0.2-0.1,0.3-0.2l7.1-6.7c0.4-0.3,0.6-0.8,0.6-1.3
	V11.3C121.8,10.5,121.3,9.9,120.7,9.6z M17.6,18.8v3.5L3.6,9.9V6L17.6,18.8z M107,16.2h-9.8v-5.7l9.8,5.3V16.2z M93.5,16.2H20.1
	l-7.4-6.8h80.8V16.2z M3.6,13.1l4.9,4.4c0,0.1,0,0.1,0,0.2v37.5l-4.9-4.5V13.1z M10.3,56.5V19.1l7.2,6.4v38.1l-7.3-6.8
	C10.3,56.7,10.3,56.6,10.3,56.5z M21.2,26.7h12.1v39H21.2V26.7z M35.1,26.7h11.5v39H35.1V26.7z M48.4,26.7h11.5v39H48.4V26.7z
	 M61.7,26.7h11.5v39H61.7V26.7z M75,26.7h11.5v39H75V26.7z M88.3,26.7h11.5v39H88.3V26.7z M101.6,26.7h9.5v39h-9.5V26.7z
	 M114.7,25.5l3.4-3v37.9l-3.4,3.1V25.5z M118.1,19.4l-3.4,3v-3.6l3.4-3.3V19.4z M111.1,24.3H21.2v-4.5h89.9V24.3z M107,13.1
	l-9.8-5.3V4.9l9.8,5.6V13.1z M93.5,7H10.1L6.5,3.6h87.1V7z M3.6,53.9l13.9,12.9v3.3L3.6,57.4V53.9z M21.2,68.1h89.9v4.4H21.2V68.1z
	 M114.7,70.1v-3.2l3.4-3.1v3L114.7,70.1z"/>
<g>
	<path fill="#72CF3F" d="M69.8,85.2c0-0.1,0-0.1,0-0.2c0,0,0-0.1-0.1-0.1c0,0-0.1-0.1-0.1-0.1c0,0-0.1-0.1-0.1-0.1
		c0,0-0.1-0.1-0.1-0.1c0,0-0.1,0-0.2-0.1c0,0-0.1,0-0.1,0l-20.4-3.1c-0.1,0-0.3,0-0.4,0.1L32.4,88c0,0,0,0,0,0
		c-0.1,0-0.2,0.1-0.3,0.2c0,0,0,0.1-0.1,0.1c0,0.1-0.1,0.1-0.1,0.2c0,0.1-0.1,0.2-0.1,0.3c0,0,0,0,0,0v27.4c0,0.4,0.3,0.7,0.7,0.8
		l24.8,5.3c0.1,0,0.1,0,0.2,0l0,0l0,0l0,0c0,0,0,0,0,0c0.1,0,0.2,0,0.2,0c0.1,0,0.2-0.1,0.2-0.1l11.5-9.2c0.2-0.2,0.3-0.4,0.3-0.6
		V85.3C69.8,85.3,69.8,85.3,69.8,85.2z M56.9,93c-0.1,0-0.1-0.1-0.2-0.1l-8.5-1.6l0-0.2l12.1-6.3l7.1,1.1L56.9,93z M44.8,90.7
		L57,84.4l0.5,0.1l-12.3,6.4L44.8,90.7z M48.7,83.1l5.9,0.9l-12.3,6v0.3l-7.6-1.4L48.7,83.1z M33.6,90.3l8.7,1.6v2.6l0.5,0.9
		l0.9-0.9l0.6,1.1l0.9-0.9l0.6,1.1l0.9-0.9l0.6,1.1l0.9-0.9l0-2.2l7.5,1.4v25.7l-7.9-1.7v-2.4l-0.5-1l-1,1l-0.7-1.2l-1,1l-0.7-1.2
		l-1,1l-0.7-1.2l-1,0.9l0,1.8l-7.7-1.7V90.3z M57.4,120.5V93.8c0,0,0,0,0-0.1l10.8-7.3v25.4L57.4,120.5z"/>
	<path fill="#72CF3F" d="M63.8,92L61,93.9c-0.3,0.2-0.5,0.6-0.6,0.9c-0.1,0.4,0,0.8,0.2,1.1c0.3,0.4,0.7,0.6,1.2,0.6
		c0.3,0,0.6-0.1,0.8-0.3l2.8-1.9c0.3-0.2,0.5-0.6,0.6-0.9c0.1-0.4,0-0.8-0.2-1.1C65.4,91.7,64.5,91.6,63.8,92z M65,93.7l-2.8,1.9
		c-0.3,0.2-0.7,0.1-0.9-0.2c-0.1-0.1-0.1-0.3-0.1-0.5c0-0.2,0.1-0.3,0.3-0.4l2.8-1.9c0.1-0.1,0.2-0.1,0.4-0.1c0.2,0,0.4,0.1,0.5,0.3
		c0.1,0.1,0.1,0.3,0.1,0.5C65.2,93.5,65.1,93.6,65,93.7z"/>
</g>
<g>
	<path fill="#72CF3F" d="M103,81.7c0,0,0-0.1,0-0.1c0,0,0-0.1,0-0.1c0,0,0-0.1-0.1-0.1c0,0-0.1-0.1-0.1-0.1c0,0-0.1,0-0.1-0.1
		c0,0-0.1,0-0.1,0c0,0,0,0-0.1,0l-15.3-2.3c-0.1,0-0.2,0-0.3,0L75,83.8c0,0,0,0,0,0c-0.1,0-0.1,0.1-0.2,0.1c0,0,0,0.1-0.1,0.1
		c0,0-0.1,0.1-0.1,0.1c0,0.1,0,0.2,0,0.2c0,0,0,0,0,0v20.5c0,0.3,0.2,0.5,0.5,0.6l18.5,4c0,0,0.1,0,0.1,0l0,0l0,0l0,0c0,0,0,0,0,0
		c0.1,0,0.1,0,0.2,0c0.1,0,0.1-0.1,0.2-0.1l8.6-6.9c0.1-0.1,0.2-0.3,0.2-0.5L103,81.7C103,81.8,103,81.8,103,81.7z M93.3,87.6
		c0,0-0.1,0-0.1-0.1l-6.3-1.2l0-0.2l9-4.7l5.3,0.8L93.3,87.6z M84.2,85.9l9.2-4.8l0.3,0.1l-9.2,4.8L84.2,85.9z M87.2,80.2l4.4,0.7
		l-9.2,4.5v0.2l-5.7-1.1L87.2,80.2z M75.9,85.6l6.5,1.2v2l0.4,0.7l0.7-0.7l0.5,0.9l0.7-0.7l0.5,0.9l0.7-0.7l0.5,0.9l0.7-0.6l0-1.7
		l5.6,1v19.2l-5.9-1.3v-1.8l-0.4-0.7l-0.8,0.7l-0.5-0.9l-0.8,0.7l-0.5-0.9l-0.8,0.7l-0.5-0.9l-0.7,0.7l0,1.3l-5.8-1.2V85.6z
		 M93.7,108.1v-20c0,0,0,0,0,0l8.1-5.5v19L93.7,108.1z"/>
	<path fill="#72CF3F" d="M98.5,86.8l-2.1,1.4c-0.2,0.2-0.4,0.4-0.5,0.7c-0.1,0.3,0,0.6,0.2,0.8c0.2,0.3,0.5,0.5,0.9,0.5
		c0.2,0,0.4-0.1,0.6-0.2l2.1-1.4c0.2-0.2,0.4-0.4,0.5-0.7c0.1-0.3,0-0.6-0.2-0.8C99.7,86.6,98.9,86.5,98.5,86.8z M99.3,88.1
		l-2.1,1.4c-0.2,0.1-0.5,0.1-0.7-0.1c-0.1-0.1-0.1-0.2-0.1-0.4c0-0.1,0.1-0.2,0.2-0.3l2.1-1.4c0.1-0.1,0.2-0.1,0.3-0.1
		c0.2,0,0.3,0.1,0.4,0.2c0.1,0.1,0.1,0.2,0.1,0.4C99.5,87.9,99.5,88,99.3,88.1z"/>
</g>
</svg>
