<?xml version="1.0" encoding="utf-8"?>
<!-- Generator: Adobe Illustrator 18.1.1, SVG Export Plug-In . SVG Version: 6.00 Build 0)  -->
<!DOCTYPE svg PUBLIC "-//W3C//DTD SVG 1.1//EN" "http://www.w3.org/Graphics/SVG/1.1/DTD/svg11.dtd">
<svg version="1.1" xmlns="http://www.w3.org/2000/svg" xmlns:xlink="http://www.w3.org/1999/xlink" x="0px" y="0px"
	 viewBox="0 0 1072.3 82" enable-background="new 0 0 1072.3 82" xml:space="preserve">
<g id="Layer_1">
	
		<path fill="#FFFFFF" stroke="#70D040" stroke-width="2" stroke-linecap="round" stroke-linejoin="round" stroke-miterlimit="10" d="
		M1,81"/>
	<path fill="none" stroke="#70D040" stroke-width="2" stroke-linecap="round" stroke-linejoin="round" stroke-miterlimit="10" d="
		M620.2,81"/>
	<path fill="none" stroke="#70D040" stroke-width="2" stroke-linecap="round" stroke-linejoin="round" stroke-miterlimit="10" d="
		M626.5,81"/>
	<path fill="none" stroke="#70D040" stroke-width="2" stroke-linecap="round" stroke-linejoin="round" stroke-miterlimit="10" d="
		M242.5,65"/>
	<path fill="none" stroke="#70D040" stroke-width="2" stroke-linecap="round" stroke-linejoin="round" stroke-miterlimit="10" d="
		M227.3,69.4"/>
	
		<line fill="none" stroke="#70D040" stroke-width="2" stroke-linecap="round" stroke-linejoin="round" stroke-miterlimit="10" x1="128.2" y1="81" x2="128.2" y2="73"/>
	
		<line fill="none" stroke="#70D040" stroke-width="2" stroke-linecap="round" stroke-linejoin="round" stroke-miterlimit="10" x1="99.2" y1="81" x2="99.2" y2="76.7"/>
	
		<line fill="none" stroke="#70D040" stroke-width="2" stroke-linecap="round" stroke-linejoin="round" stroke-miterlimit="10" x1="155.7" y1="81" x2="155.7" y2="74.3"/>
	
		<polyline fill="none" stroke="#70D040" stroke-width="2" stroke-linecap="round" stroke-linejoin="round" stroke-miterlimit="10" points="
		134.5,72.4 122,72.4 131.2,67.7 125.2,66.6 131.7,63.7 126.5,61.5 129.5,59.6 129.5,52 	"/>
	
		<polyline fill="none" stroke="#70D040" stroke-width="2" stroke-linecap="round" stroke-linejoin="round" stroke-miterlimit="10" points="
		159.3,74.3 150.5,74.3 157,71.1 152.8,70.3 157.3,68.3 153.7,66.7 155.8,65.4 155.8,60.1 	"/>
	
		<line fill="none" stroke="#70D040" stroke-width="2" stroke-linecap="round" stroke-linejoin="round" stroke-miterlimit="10" x1="235.7" y1="81" x2="235.7" y2="74.3"/>
	
		<polyline fill="none" stroke="#70D040" stroke-width="2" stroke-linecap="round" stroke-linejoin="round" stroke-miterlimit="10" points="
		239.3,74.3 230.5,74.3 237,71.1 232.8,70.3 237.3,68.3 233.7,66.7 235.8,65.4 235.8,60.1 	"/>
	
		<polyline fill="none" stroke="#70D040" stroke-width="2" stroke-linecap="round" stroke-linejoin="round" stroke-miterlimit="10" points="
		102.9,77.1 95.5,77.1 100.9,74.3 97.4,73.7 101.2,71.9 98.2,70.6 99.9,69.5 99.9,65 	"/>
	
		<line fill="none" stroke="#70D040" stroke-width="2" stroke-linecap="round" stroke-linejoin="round" stroke-miterlimit="10" x1="681.8" y1="81" x2="681.8" y2="73"/>
	
		<line fill="none" stroke="#70D040" stroke-width="2" stroke-linecap="round" stroke-linejoin="round" stroke-miterlimit="10" x1="652.8" y1="81" x2="652.8" y2="76.7"/>
	
		<line fill="none" stroke="#70D040" stroke-width="2" stroke-linecap="round" stroke-linejoin="round" stroke-miterlimit="10" x1="709.3" y1="81" x2="709.3" y2="74.3"/>
	
		<polyline fill="none" stroke="#70D040" stroke-width="2" stroke-linecap="round" stroke-linejoin="round" stroke-miterlimit="10" points="
		688.1,72.4 675.6,72.4 684.8,67.7 678.8,66.6 685.3,63.7 680.1,61.5 683.1,59.6 683.1,52 	"/>
	
		<polyline fill="none" stroke="#70D040" stroke-width="2" stroke-linecap="round" stroke-linejoin="round" stroke-miterlimit="10" points="
		712.9,74.3 704.1,74.3 710.5,71.1 706.3,70.3 710.9,68.3 707.3,66.7 709.4,65.4 709.4,60.1 	"/>
	
		<polyline fill="none" stroke="#70D040" stroke-width="2" stroke-linecap="round" stroke-linejoin="round" stroke-miterlimit="10" points="
		656.5,77.1 649.1,77.1 654.5,74.3 651,73.7 654.8,71.9 651.8,70.6 653.5,69.5 653.5,65 	"/>
	
		<line fill="none" stroke="#70D040" stroke-width="2" stroke-linecap="round" stroke-linejoin="round" stroke-miterlimit="10" x1="906.6" y1="81" x2="906.6" y2="73"/>
	
		<line fill="none" stroke="#70D040" stroke-width="2" stroke-linecap="round" stroke-linejoin="round" stroke-miterlimit="10" x1="877.6" y1="81" x2="877.6" y2="76.7"/>
	
		<line fill="none" stroke="#70D040" stroke-width="2" stroke-linecap="round" stroke-linejoin="round" stroke-miterlimit="10" x1="934.1" y1="81" x2="934.1" y2="74.3"/>
	
		<polyline fill="none" stroke="#70D040" stroke-width="2" stroke-linecap="round" stroke-linejoin="round" stroke-miterlimit="10" points="
		912.9,72.4 900.4,72.4 909.6,67.7 903.6,66.6 910.1,63.7 904.9,61.5 907.9,59.6 907.9,52 	"/>
	
		<polyline fill="none" stroke="#70D040" stroke-width="2" stroke-linecap="round" stroke-linejoin="round" stroke-miterlimit="10" points="
		937.7,74.3 928.9,74.3 935.3,71.1 931.1,70.3 935.7,68.3 932.1,66.7 934.2,65.4 934.2,60.1 	"/>
	
		<polyline fill="none" stroke="#70D040" stroke-width="2" stroke-linecap="round" stroke-linejoin="round" stroke-miterlimit="10" points="
		881.3,77.1 873.9,77.1 879.3,74.3 875.8,73.7 879.6,71.9 876.5,70.6 878.3,69.5 878.3,65 	"/>
	
		<line fill="none" stroke="#70D040" stroke-width="2" stroke-linecap="round" stroke-linejoin="round" stroke-miterlimit="10" x1="739.6" y1="81" x2="739.6" y2="76.7"/>
	
		<polyline fill="none" stroke="#70D040" stroke-width="2" stroke-linecap="round" stroke-linejoin="round" stroke-miterlimit="10" points="
		743.3,77.1 735.9,77.1 741.3,74.3 737.8,73.7 741.6,71.9 738.6,70.6 740.3,69.5 740.3,65 	"/>
	
		<line fill="none" stroke="#70D040" stroke-width="2" stroke-linecap="round" stroke-linejoin="round" stroke-miterlimit="10" x1="385.6" y1="81" x2="385.6" y2="76.7"/>
	
		<polyline fill="none" stroke="#70D040" stroke-width="2" stroke-linecap="round" stroke-linejoin="round" stroke-miterlimit="10" points="
		389.3,77.1 381.9,77.1 387.3,74.3 383.8,73.7 387.6,71.9 384.5,70.6 386.3,69.5 386.3,65 	"/>
	<path fill="none" stroke="#70D040" stroke-width="2" stroke-linecap="round" stroke-linejoin="round" stroke-miterlimit="10" d="
		M1071.3,80.9"/>
</g>
<g id="Layer_2" display="none">
	
		<path display="inline" fill="none" stroke="#70D040" stroke-width="2" stroke-linecap="round" stroke-linejoin="round" stroke-miterlimit="10" d="
		M394,30.5c0,0,2.5-5.7,8.7-4.8c0,0,4.4-11.2,14.4-4.4c0,0,8.2-2.3,9,4c0,0,7.6-0.5,8.6,5.1H394z"/>
	
		<path display="inline" fill="none" stroke="#70D040" stroke-width="2" stroke-linecap="round" stroke-linejoin="round" stroke-miterlimit="10" d="
		M304.6,39.8c0,0-1.5-3.3-5-2.8c0,0-2.6-6.5-8.4-2.5c0,0-4.7-1.3-5.2,2.3c0,0-4.4-0.3-5,3H304.6z"/>
	
		<path display="inline" fill="none" stroke="#70D040" stroke-width="2" stroke-linecap="round" stroke-linejoin="round" stroke-miterlimit="10" d="
		M726.3,34c0,0-1.5-3.3-5-2.8c0,0-2.6-6.5-8.4-2.5c0,0-4.7-1.3-5.2,2.3c0,0-4.4-0.3-5,3H726.3z"/>
	
		<path display="inline" fill="none" stroke="#70D040" stroke-width="1.5" stroke-linecap="round" stroke-linejoin="round" stroke-miterlimit="10" d="
		M791.4,41c0,0-1.1-2.4-3.7-2c0,0-1.9-4.8-6.2-1.9c0,0-3.5-1-3.8,1.7c0,0-3.3-0.2-3.7,2.2H791.4z"/>
</g>
</svg>
